<svg width="331" height="332" viewBox="0 0 331 332" fill="none" xmlns="http://www.w3.org/2000/svg">
<path d="M330.57 177.268L330.586 177.012C330.225 176.875 329.687 176.383 329.627 175.98L328.233 176.373L314.764 169.955C312.469 168.863 311.073 168.401 311.202 166.441L310.719 166.41L310.338 172.203L310.85 172.236C311.053 169.141 311.899 169.282 314.526 170.539L317.182 171.797L316.659 179.748L314.244 180.474C310.23 181.665 310.26 181.211 310.398 179.109L309.887 179.075L309.477 185.323L309.988 185.357C310.122 183.312 310.302 183.181 315.012 181.808L330.57 177.268ZM327.447 176.607L317.269 179.589L317.763 172.063L327.447 176.607Z" fill="#DFD4BF"/>
<path d="M312.385 201.004C316.19 201.715 318.303 198.462 318.725 196.514C318.688 197.954 319.864 200.49 322.074 200.903C324.704 201.394 326.929 199.87 327.571 196.429L328.81 189.798L328.362 189.715C328.022 191.533 327.477 192.126 325.715 191.797L311.391 189.122C309.628 188.793 309.329 188.071 309.674 186.224L309.226 186.141L307.815 193.694C307.194 197.023 308.301 200.241 312.385 201.004ZM325.438 193.28C327.312 193.63 327.362 194.45 327.038 196.184C326.505 199.038 324.645 199.849 322.351 199.42C320.113 199.002 318.549 197.147 319.259 193.342L319.479 192.167L325.438 193.28ZM308.453 193.379C308.944 190.749 309.324 190.27 311.086 190.599L318.947 192.068L318.561 194.138C317.819 198.11 315.852 200.117 312.662 199.521C308.941 198.826 307.858 196.568 308.453 193.379Z" fill="#DFD4BF"/>
<path d="M316.154 203.516C310.455 201.714 304.886 204.788 303.187 210.161C301.66 214.991 304.388 220.899 310.087 222.701C315.948 224.554 321.379 221.824 323.078 216.451C324.605 211.621 322.096 205.395 316.154 203.516ZM315.613 205.225C321.42 207.061 323.852 211.83 322.453 216.253C321.063 220.649 316.435 222.827 310.628 220.991C304.983 219.206 302.421 214.754 303.811 210.358C305.201 205.962 309.969 203.44 315.613 205.225Z" fill="#DFD4BF"/>
<path d="M312.683 240.592L312.247 240.382C311.42 242.101 310.133 242.807 307.953 241.758L300.67 238.253C296.336 236.167 294.339 233.753 296.19 229.907C297.721 226.727 300.009 224.859 305.177 227.378L313.756 231.538C315.577 232.415 315.728 233.151 314.777 235.125L315.213 235.335L318.361 228.796L317.925 228.586C317.061 230.381 316.307 231.029 314.435 230.128L305.921 226.03C300.894 223.611 297.84 224.51 295.68 228.998C293.693 233.127 295.142 236.351 300.373 238.869L307.682 242.386C309.785 243.398 310.211 244.614 309.384 246.332L309.82 246.542L312.683 240.592Z" fill="#DFD4BF"/>
<path d="M300.361 262.902L300.514 262.459C300.071 262.305 300.142 261.571 300.872 260.45L306.11 252.415C306.84 251.295 307.436 250.902 307.803 251.277L308.147 250.957L304.402 246.07L304.019 246.398C306.199 249.62 306.626 250.476 304.901 253.122C303.891 254.672 303.108 255.249 301.701 254.332L289.47 246.359C287.968 245.38 288.132 244.399 289.173 242.802L288.767 242.538L284.882 248.498L285.287 248.762C286.484 246.927 287.144 246.644 288.646 247.623L300.877 255.595C302.308 256.528 302.057 257.485 301.032 259.059C299.307 261.706 298.335 261.684 294.523 260.966L294.378 261.449L300.361 262.902Z" fill="#DFD4BF"/>
<path d="M284.889 280.771L285.066 280.586C284.877 280.248 284.781 279.525 284.995 279.179L283.673 278.583L277.48 265.01C276.423 262.699 275.651 261.447 277.009 260.029L276.659 259.694L272.644 263.888L273.014 264.242C275.159 262.001 275.717 262.654 276.922 265.304L278.148 267.975L272.637 273.731L270.321 272.735C266.48 271.068 266.795 270.739 268.251 269.217L267.881 268.863L263.552 273.386L263.922 273.74C265.339 272.26 265.56 272.275 270.052 274.251L284.889 280.771ZM282.921 278.258L273.207 274.001L278.422 268.553L282.921 278.258Z" fill="#DFD4BF"/>
<path d="M255.765 287.235C258.231 290.218 261.938 289.073 263.509 287.848C262.558 288.93 261.837 291.631 263.269 293.364C264.974 295.425 267.659 295.68 270.356 293.449L275.555 289.151L275.265 288.8C273.839 289.979 273.041 290.085 271.898 288.703L262.613 277.473C261.47 276.091 261.703 275.345 263.15 274.148L262.86 273.798L256.938 278.694C254.328 280.852 253.117 284.032 255.765 287.235ZM270.736 289.665C271.951 291.134 271.463 291.796 270.103 292.92C267.866 294.77 265.919 294.201 264.432 292.402C262.981 290.648 262.968 288.221 265.952 285.754L266.873 284.993L270.736 289.665ZM257.63 278.861C259.692 277.156 260.29 277.031 261.432 278.413L266.528 284.576L264.905 285.918C261.79 288.493 258.994 288.774 256.927 286.273C254.515 283.356 255.129 280.928 257.63 278.861Z" fill="#DFD4BF"/>
<path d="M256.835 291.712C253.627 286.67 247.384 285.447 242.63 288.472C238.356 291.192 236.65 297.472 239.859 302.514C243.159 307.701 249.074 309.098 253.828 306.073C258.102 303.353 260.181 296.971 256.835 291.712ZM255.322 292.675C258.592 297.814 257.391 303.03 253.477 305.521C249.587 307.996 244.641 306.69 241.371 301.551C238.194 296.557 239.091 291.5 242.981 289.025C246.871 286.55 252.144 287.681 255.322 292.675Z" fill="#DFD4BF"/>
<path d="M230.706 317.763L230.504 317.323C228.771 318.118 227.328 317.84 226.32 315.641L222.951 308.294C220.946 303.922 220.949 300.79 224.83 299.01C228.038 297.539 230.991 297.562 233.362 302.8L237.31 311.478C238.153 313.315 237.799 313.978 235.807 314.891L236.009 315.331L242.606 312.306L242.404 311.866C240.593 312.696 239.599 312.714 238.733 310.825L234.794 302.237C232.469 297.166 229.544 295.909 225.017 297.985C220.852 299.895 219.91 303.302 222.33 308.579L225.711 315.952C226.684 318.073 226.235 319.281 224.502 320.076L224.704 320.515L230.706 317.763Z" fill="#DFD4BF"/>
<path d="M206.631 327.069L207.034 326.828C206.793 326.425 207.32 325.908 208.6 325.52L217.777 322.732C219.057 322.343 219.766 322.425 219.806 322.948L220.274 322.925L220.547 316.774L220.043 316.778C219.642 320.648 219.419 321.578 216.396 322.497C214.626 323.034 213.656 322.972 213.168 321.366L208.924 307.396C208.403 305.68 209.158 305.034 210.983 304.48L210.842 304.017L204.034 306.085L204.175 306.548C206.272 305.911 206.959 306.119 207.481 307.834L211.724 321.804C212.221 323.438 211.413 324.01 209.616 324.556C206.593 325.475 205.863 324.834 203.405 321.833L202.983 322.11L206.631 327.069Z" fill="#DFD4BF"/>
<path d="M183.536 330.777L183.791 330.748C183.863 330.368 184.252 329.752 184.638 329.622L184.005 328.319L187.945 313.929C188.615 311.477 188.824 310.022 190.776 309.803L190.722 309.322L184.952 309.969L185.009 310.478C188.092 310.132 188.102 310.99 187.329 313.798L186.559 316.634L178.64 317.523L177.5 315.274C175.619 311.533 176.072 311.482 178.165 311.247L178.108 310.738L171.886 311.436L171.943 311.945C173.979 311.717 174.14 311.87 176.323 316.265L183.536 330.777ZM183.636 327.587L178.905 318.094L186.4 317.253L183.636 327.587Z" fill="#DFD4BF"/>
<path d="M156.374 316.984C156.329 320.855 159.898 322.376 161.889 322.456C160.464 322.667 158.168 324.263 158.142 326.511C158.111 329.186 159.996 331.115 163.496 331.155L170.241 331.234L170.246 330.778C168.396 330.757 167.718 330.322 167.739 328.529L167.908 313.959C167.928 312.166 168.588 311.746 170.466 311.768L170.471 311.313L162.788 311.224C159.401 311.185 156.422 312.829 156.374 316.984ZM166.231 328.512C166.209 330.418 165.409 330.608 163.645 330.588C160.742 330.554 159.623 328.862 159.65 326.529C159.677 324.252 161.235 322.391 165.106 322.436L166.301 322.45L166.231 328.512ZM163.208 311.798C165.883 311.829 166.421 312.12 166.4 313.913L166.307 321.909L164.201 321.885C160.16 321.838 157.845 320.246 157.882 317.002C157.926 313.217 159.964 311.76 163.208 311.798Z" fill="#DFD4BF"/>
<path d="M154.389 321.086C155.17 315.161 151.171 310.213 145.585 309.477C140.562 308.815 135.221 312.532 134.44 318.458C133.637 324.553 137.273 329.424 142.86 330.16C147.882 330.821 153.575 327.266 154.389 321.086ZM152.612 320.852C151.816 326.89 147.544 330.117 142.945 329.511C138.374 328.909 135.422 324.73 136.218 318.692C136.991 312.823 140.928 309.524 145.499 310.126C150.07 310.728 153.385 314.983 152.612 320.852Z" fill="#DFD4BF"/>
<path d="M117.585 324.175L117.715 323.709C115.878 323.196 114.957 322.052 115.607 319.722L117.78 311.937C119.073 307.304 121.1 304.915 125.211 306.063C128.61 307.012 130.851 308.937 129.277 314.467L126.687 323.642C126.143 325.589 125.445 325.866 123.334 325.277L123.204 325.743L130.194 327.694L130.324 327.228C128.406 326.693 127.636 326.064 128.194 324.063L130.735 314.962C132.235 309.59 130.814 306.74 126.017 305.401C121.603 304.169 118.683 306.161 117.122 311.753L114.941 319.566C114.314 321.814 113.192 322.446 111.355 321.933L111.225 322.399L117.585 324.175Z" fill="#DFD4BF"/>
<path d="M93.2702 315.821L93.7337 315.895C93.808 315.432 94.5441 315.375 95.7741 315.9L104.593 319.67C105.823 320.195 106.314 320.714 106.008 321.141L106.382 321.424L110.547 316.891L110.158 316.57C107.362 319.274 106.593 319.843 103.688 318.602C101.987 317.875 101.284 317.203 101.944 315.659L107.681 302.233C108.386 300.585 109.38 300.576 111.133 301.326L111.323 300.881L104.781 298.084L104.591 298.529C106.606 299.391 106.999 299.992 106.294 301.641L100.557 315.066C99.8855 316.636 98.8989 316.555 97.1716 315.817C94.2667 314.575 94.12 313.615 94.1684 309.736L93.6676 309.677L93.2702 315.821Z" fill="#DFD4BF"/>
<path d="M73.2331 303.779L73.4461 303.921C73.7462 303.676 74.441 303.456 74.8198 303.606L75.1759 302.201L87.4636 293.74C89.5563 292.297 90.6542 291.318 92.2874 292.409L92.556 292.006L87.7274 288.783L87.4429 289.209C90.0229 290.931 89.4779 291.594 87.0772 293.242L84.6607 294.914L78.0331 290.489L78.6109 288.035C79.5845 283.962 79.9632 284.215 81.7148 285.385L81.9992 284.959L76.7919 281.482L76.5074 281.908C78.2117 283.046 78.2352 283.267 77.0717 288.034L73.2331 303.779ZM75.3659 301.404L77.867 291.097L84.1395 295.285L75.3659 301.404Z" fill="#DFD4BF"/>
<path d="M61.7711 276.122C59.2508 279.06 61.0089 282.518 62.4838 283.858C61.2556 283.104 58.4713 282.853 57.0073 284.56C55.2654 286.59 55.471 289.279 58.1278 291.558L63.2471 295.95L63.5436 295.604C62.1396 294.4 61.8992 293.631 63.0666 292.27L72.5546 281.211C73.722 279.85 74.4968 279.952 75.9224 281.175L76.2189 280.83L70.3868 275.826C67.8164 273.621 64.4766 272.968 61.7711 276.122ZM61.9218 291.288C60.6802 292.735 59.9457 292.368 58.6065 291.219C56.4032 289.329 56.6326 287.313 58.1521 285.542C59.6346 283.814 62.0241 283.389 64.9617 285.909L65.8689 286.687L61.9218 291.288ZM70.3402 276.536C72.3707 278.278 72.5958 278.846 71.4283 280.207L66.221 286.277L64.6226 284.906C61.5554 282.274 60.8033 279.567 62.9159 277.104C65.3805 274.231 67.8778 274.424 70.3402 276.536Z" fill="#DFD4BF"/>
<path d="M57.6774 278.072C62.0838 274.034 62.2001 267.674 58.393 263.52C54.9704 259.785 48.4896 259.2 44.0833 263.238C39.551 267.391 39.2057 273.459 43.0128 277.614C46.4354 281.349 53.0823 282.283 57.6774 278.072ZM56.4661 276.75C51.9758 280.865 46.6296 280.592 43.4954 277.172C40.3805 273.772 40.8044 268.674 45.2946 264.56C49.659 260.56 54.7955 260.563 57.9104 263.962C61.0253 267.361 60.8304 272.751 56.4661 276.75Z" fill="#DFD4BF"/>
<path d="M27.4759 256.851L27.8743 256.576C26.7924 255.006 26.8173 253.537 28.8094 252.165L35.4652 247.579C39.4258 244.85 42.5122 244.314 44.9343 247.829C46.9366 250.735 47.4232 253.648 42.673 256.887L34.8058 262.273C33.1419 263.419 32.4278 263.185 31.1845 261.381L30.7861 261.655L34.9036 267.631L35.302 267.357C34.1717 265.716 33.9831 264.74 35.6939 263.562L43.4747 258.201C48.0681 255.036 48.8023 251.938 45.9765 247.837C43.3768 244.063 39.8586 243.723 35.0776 247.017L28.3984 251.619C26.4766 252.943 25.21 252.709 24.1281 251.139L23.7297 251.414L27.4759 256.851Z" fill="#DFD4BF"/>
<path d="M14.1441 234.851L14.4521 235.205C14.8063 234.897 15.4076 235.325 16.0143 236.517L20.3649 245.065C20.9717 246.257 21.015 246.969 20.5068 247.1L20.6119 247.558L26.7156 246.75L26.623 246.255C22.7429 246.537 21.7879 246.48 20.3549 243.665C19.5158 242.016 19.407 241.05 20.9035 240.288L33.915 233.665C35.5129 232.852 36.2812 233.483 37.1461 235.182L37.5773 234.963L34.3498 228.622L33.9187 228.841C34.9127 230.794 34.8287 231.508 33.2308 232.321L20.2193 238.944C18.6974 239.718 17.9924 239.023 17.1404 237.349C15.7074 234.534 16.2105 233.703 18.7351 230.757L18.3888 230.391L14.1441 234.851Z" fill="#DFD4BF"/>
<path d="M6.50794 212.987L6.58054 213.233C6.96762 213.237 7.64254 213.513 7.83735 213.871L9.01029 213.019L23.8669 214.386C26.3984 214.617 27.8679 214.569 28.4245 216.452L28.8885 216.315L27.2429 210.747L26.7517 210.892C27.6309 213.867 26.7879 214.027 23.8886 213.756L20.9619 213.494L18.7033 205.852L20.7186 204.336C24.0736 201.831 24.2027 202.267 24.7996 204.287L25.2909 204.142L23.5162 198.137L23.025 198.283C23.6057 200.248 23.4823 200.433 19.5368 203.35L6.50794 212.987ZM9.66654 212.529L18.1866 206.212L20.3242 213.445L9.66654 212.529Z" fill="#DFD4BF"/>
<path d="M15.3915 184.279C11.5739 184.916 10.705 188.697 10.9771 190.672C10.5181 189.306 8.54287 187.327 6.32524 187.698C3.68655 188.138 2.11995 190.333 2.69672 193.786L3.80804 200.439L4.25718 200.364C3.95238 198.539 4.26091 197.795 6.0294 197.5L20.4018 195.099C22.1703 194.804 22.6992 195.379 23.0087 197.232L23.4579 197.157L22.1918 189.577C21.6338 186.237 19.4899 183.594 15.3915 184.279ZM5.78087 196.012C3.9001 196.326 3.57231 195.573 3.28159 193.833C2.8033 190.969 4.27193 189.57 6.57377 189.185C8.81946 188.81 10.9254 190.017 11.5631 193.834L11.76 195.013L5.78087 196.012ZM21.7007 190.092C22.1415 192.731 21.9499 193.311 20.1814 193.607L12.2934 194.924L11.9464 192.847C11.2805 188.861 12.4399 186.301 15.6401 185.766C19.3735 185.143 21.1662 186.892 21.7007 190.092Z" fill="#DFD4BF"/>
<path d="M10.9564 182.934C16.9277 182.68 21.1109 177.888 20.8718 172.258C20.6568 167.197 16.0738 162.577 10.1025 162.831C3.96068 163.092 -0.209836 167.513 0.0293073 173.143C0.244294 178.205 4.72929 183.199 10.9564 182.934ZM10.8803 181.143C4.79537 181.401 0.880171 177.75 0.6833 173.115C0.487638 168.509 4.09364 164.881 10.1786 164.622C16.093 164.371 20.0221 167.679 20.2178 172.286C20.4135 176.892 16.7947 180.891 10.8803 181.143Z" fill="#DFD4BF"/>
<path d="M1.47902 146.952L1.9606 146.999C2.14413 145.101 3.10902 143.993 5.5169 144.226L13.5621 145.004C18.3495 145.467 21.0563 147.044 20.6454 151.293C20.3057 154.806 18.8018 157.348 13.0823 156.766L3.59514 155.82C1.58385 155.626 1.18813 154.987 1.39905 152.806L0.917475 152.759L0.218961 159.983L0.700538 160.029C0.892286 158.046 1.37653 157.178 3.44448 157.378L12.8494 158.288C18.4017 158.825 20.9583 156.927 21.4377 151.97C21.8787 147.409 19.4067 144.883 13.6278 144.324L5.55432 143.543C3.23142 143.319 2.41258 142.324 2.59611 140.426L2.11453 140.38L1.47902 146.952Z" fill="#DFD4BF"/>
<path d="M5.48857 121.268L5.49539 121.738C5.96472 121.731 6.1477 122.446 5.84219 123.748L3.65157 133.086C3.34605 134.388 2.91947 134.96 2.44673 134.733L2.23189 135.15L7.41627 138.471L7.66531 138.032C4.51864 135.745 3.82562 135.085 4.54716 132.01C4.96968 130.209 5.51019 129.4 7.14495 129.784L21.3591 133.118C23.1047 133.528 23.2846 134.505 22.849 136.362L23.3201 136.472L24.9452 129.545L24.4741 129.435C23.9736 131.568 23.4492 132.059 21.7036 131.65L7.48947 128.315C5.827 127.925 5.73672 126.939 6.16575 125.11C6.88728 122.035 7.80782 121.725 11.637 121.103L11.609 120.599L5.48857 121.268Z" fill="#DFD4BF"/>
<path d="M13.7677 99.5414L13.6644 99.7758C13.9571 100.029 14.2943 100.675 14.2118 101.074L15.657 101.183L26.1137 111.824C27.8966 113.636 29.0495 114.549 28.2577 116.346L28.7004 116.541L31.0416 111.228L30.5729 111.021C29.3219 113.86 28.575 113.438 26.537 111.358L24.4729 109.266L27.6864 101.974L30.2038 102.119C34.3831 102.375 34.1995 102.791 33.3502 104.719L33.819 104.925L36.3439 99.1957L35.8751 98.9891C35.0488 100.864 34.8351 100.926 29.9389 100.603L13.7677 99.5414ZM16.4749 101.232L27.0592 101.915L24.0178 108.817L16.4749 101.232Z" fill="#DFD4BF"/>
<path d="M38.8121 83.7324C35.4796 81.7638 32.3815 84.0985 31.3192 85.7848C31.8469 84.4438 31.6082 81.6584 29.6724 80.5149C27.3691 79.1542 24.7574 79.8261 22.977 82.8401L19.5463 88.6475L19.9383 88.8791C20.8793 87.2863 21.5942 86.9154 23.138 87.8273L35.6839 95.2388C37.2277 96.1507 37.2623 96.9314 36.3069 98.5487L36.699 98.7803L40.6074 92.1643C42.3299 89.2483 42.3897 85.8458 38.8121 83.7324ZM23.9052 86.5286C22.2634 85.5588 22.4972 84.7713 23.3947 83.2521C24.8712 80.7527 26.8959 80.6266 28.9052 81.8136C30.8655 82.9716 31.7011 85.2502 29.7325 88.5827L29.1245 89.6119L23.9052 86.5286ZM39.9002 92.2423C38.5395 94.5457 38.0194 94.8665 36.4757 93.9545L29.5901 89.8869L30.6612 88.0736C32.7168 84.5941 35.2515 83.3809 38.0449 85.0311C41.3039 86.9564 41.5504 89.4489 39.9002 92.2423Z" fill="#DFD4BF"/>
<path d="M36.4817 79.5117C41.2102 83.167 47.4975 82.1999 50.944 77.7416C54.0423 73.7336 53.5164 67.2477 48.7879 63.5924C43.9243 59.8326 37.8857 60.5244 34.4393 64.9827C31.341 68.9907 31.5505 75.6997 36.4817 79.5117ZM37.5783 78.0931C32.7597 74.3682 32.1199 69.0533 34.9572 65.3831C37.777 61.7354 42.8728 61.286 47.6913 65.0109C52.3748 68.6315 53.2459 73.6935 50.4261 77.3412C47.6063 80.9889 42.2617 81.7136 37.5783 78.0931Z" fill="#DFD4BF"/>
<path d="M52.2824 46.0429L52.6208 46.3888C53.9837 45.0552 55.4352 44.8295 57.127 46.5586L62.7797 52.3359C66.1434 55.7738 67.1981 58.7236 64.1467 61.7092C61.6242 64.1772 58.8363 65.1531 54.836 61.024L48.1886 54.1894C46.7754 52.7451 46.8842 52.0016 48.4505 50.469L48.1122 50.1232L42.9248 55.1987L43.2632 55.5445C44.6872 54.1512 45.6168 53.7991 47.0698 55.2841L53.6778 62.0378C57.579 66.025 60.7567 66.2206 64.3166 62.7374C67.5918 59.5329 67.3283 56.0081 63.2679 51.8582L57.5953 46.0606C55.9632 44.3925 55.9773 43.1046 57.3402 41.7711L57.0018 41.4252L52.2824 46.0429Z" fill="#DFD4BF"/>
<path d="M71.5442 29.2026L71.2482 29.5669C71.6125 29.8628 71.2938 30.5288 70.2237 31.3314L62.5508 37.086C61.4807 37.8885 60.7862 38.0536 60.57 37.5755L60.1374 37.7576L61.9815 43.6318L62.454 43.4553C61.5091 39.6815 61.401 38.731 63.9283 36.8355C65.4082 35.7256 66.3417 35.4524 67.3492 36.7957L76.1091 48.4758C77.1849 49.9102 76.6954 50.7754 75.1699 51.9195L75.4602 52.3065L81.1523 48.0375L80.862 47.6505C79.1088 48.9653 78.3916 49.0052 77.3158 47.5708L68.5559 35.8907C67.5313 34.5246 68.0948 33.7106 69.5975 32.5836C72.1248 30.6882 73.0298 31.0411 76.3653 33.0219L76.667 32.6178L71.5442 29.2026Z" fill="#DFD4BF"/>
<path d="M91.9329 17.7677L91.7034 17.8814C91.7655 18.2635 91.6099 18.9756 91.2907 19.2289L92.3304 20.2385L93.5317 35.1094C93.738 37.6431 94.0378 39.0825 92.2779 39.9538L92.4926 40.3874L97.6957 37.8115L97.4684 37.3524C94.6883 38.7287 94.386 37.9256 94.1557 35.0228L93.9127 32.0944L101.054 28.5589L102.893 30.2844C105.936 33.1602 105.528 33.3622 103.641 34.2966L103.868 34.7557L109.479 31.9778L109.252 31.5187C107.416 32.4278 107.212 32.3379 103.662 28.951L91.9329 17.7677ZM92.9264 20.8009L100.611 28.1116L93.8516 31.4578L92.9264 20.8009Z" fill="#DFD4BF"/>
<path d="M121.418 21.654C120.127 18.0053 116.253 17.8066 114.356 18.4177C115.621 17.7283 117.226 15.4393 116.476 13.3198C115.583 10.7979 113.149 9.63656 109.85 10.8046L103.491 13.0551L103.643 13.4844C105.387 12.8671 106.173 13.0417 106.771 14.7319L111.633 28.4685C112.232 30.1587 111.757 30.7795 109.986 31.4063L110.138 31.8355L117.382 29.2716C120.575 28.1416 122.805 25.5711 121.418 21.654ZM108.193 14.2286C107.557 12.4311 108.242 11.9774 109.905 11.3886C112.642 10.42 114.275 11.6231 115.054 13.8231C115.814 15.9694 114.992 18.253 111.343 19.5444L110.216 19.9432L108.193 14.2286ZM116.79 28.8775C114.268 29.7701 113.663 29.6822 113.065 27.992L110.396 20.453L112.382 19.7503C116.192 18.4019 118.914 19.0988 119.996 22.1573C121.259 25.7256 119.848 27.7949 116.79 28.8775Z" fill="#DFD4BF"/>
<path d="M121.17 17.2261C122.469 23.06 127.921 26.3365 133.422 25.1122C138.367 24.0115 142.109 18.6884 140.811 12.8545C139.475 6.85397 134.39 3.5249 128.89 4.74919C123.945 5.84982 119.816 11.1422 121.17 17.2261ZM122.92 16.8366C121.597 10.8916 124.504 6.39602 129.032 5.38814C133.532 4.38644 137.738 7.29908 139.061 13.2441C140.347 19.0224 137.78 23.4715 133.28 24.4732C128.779 25.4749 124.207 22.6149 122.92 16.8366Z" fill="#DFD4BF"/>
<path d="M155.609 1.48169L155.646 1.96407C157.547 1.81712 158.805 2.57626 158.991 4.98817L159.614 13.0468C159.985 17.8423 158.899 20.7807 154.642 21.1097C151.124 21.3817 148.36 20.3394 147.945 14.6053L147.239 5.09735C147.083 3.08269 147.644 2.58262 149.829 2.41372L149.792 1.93134L142.556 2.49066L142.593 2.97305C144.579 2.81951 145.518 3.14657 145.678 5.21798L146.407 14.6386C146.836 20.2002 149.147 22.3909 154.112 22.007C158.681 21.6539 160.743 18.7828 160.295 12.9942L159.67 4.90716C159.49 2.58037 160.328 1.60216 162.229 1.4552L162.192 0.972819L155.609 1.48169Z" fill="#DFD4BF"/>
<path d="M181.008 0.914415L180.547 1.0035C180.636 1.46435 179.964 1.77003 178.628 1.6978L169.051 1.17994C167.715 1.10771 167.077 0.788181 167.219 0.282793L166.77 0.144531L164.41 5.83129L164.886 5.9995C166.586 2.5002 167.113 1.70219 170.268 1.87276C172.115 1.97265 173.006 2.36284 172.915 4.03954L172.127 18.6183C172.03 20.4087 171.099 20.7573 169.195 20.6544L169.169 21.1375L176.274 21.5217L176.3 21.0386C174.112 20.9202 173.536 20.4901 173.633 18.6997L174.421 4.12099C174.514 2.41587 175.468 2.15398 177.344 2.2554C180.498 2.42597 180.965 3.27777 182.25 6.93842L182.74 6.82245L181.008 0.914415Z" fill="#DFD4BF"/>
<path d="M204.073 5.17923L203.824 5.11883C203.626 5.45154 203.049 5.89731 202.642 5.88633L202.79 7.32798L194.156 19.4953C192.686 21.5694 191.991 22.865 190.083 22.402L189.969 22.8721L195.611 24.2412L195.732 23.7433C192.717 23.0118 193.001 22.2023 194.69 19.8298L196.385 17.4297L204.129 19.3088L204.429 21.8124C204.914 25.9714 204.471 25.864 202.425 25.3674L202.304 25.8653L208.389 27.3417L208.509 26.8439C206.518 26.3607 206.42 26.1612 205.875 21.2847L204.073 5.17923ZM202.885 8.14184L204.076 18.681L196.747 16.9026L202.885 8.14184Z" fill="#DFD4BF"/>
<path d="M224.539 27.1999C225.899 23.576 223.062 20.9307 221.216 20.1775C222.629 20.4642 225.33 19.7453 226.12 17.6402C227.06 15.1355 225.944 12.6803 222.667 11.4506L216.352 9.08097L216.192 9.50731C217.924 10.1572 218.413 10.7968 217.784 12.4755L212.664 26.1183C212.035 27.797 211.272 27.9668 209.513 27.3069L209.353 27.7332L216.548 30.4328C219.718 31.6225 223.08 31.0902 224.539 27.1999ZM219.196 13.0055C219.866 11.2202 220.682 11.3136 222.334 11.9335C225.052 12.9533 225.528 14.9253 224.708 17.1103C223.908 19.242 221.809 20.4608 218.185 19.101L217.066 18.6811L219.196 13.0055ZM216.348 29.7499C213.843 28.81 213.437 28.3536 214.067 26.6749L216.876 19.1873L218.848 19.9272C222.632 21.347 224.267 23.6324 223.127 26.67C221.797 30.2139 219.385 30.8897 216.348 29.7499Z" fill="#DFD4BF"/>
<path d="M227.799 23.9158C225.029 29.2118 227.083 35.2323 232.077 37.8441C236.566 40.1921 242.859 38.5376 245.629 33.2417C248.478 27.7944 246.739 21.9706 241.745 19.3588C237.256 17.0108 230.688 18.3929 227.799 23.9158ZM229.388 24.7468C232.211 19.35 237.331 17.7887 241.442 19.9388C245.527 22.0757 246.863 27.0139 244.04 32.4107C241.296 37.6562 236.465 39.401 232.38 37.2641C228.295 35.1272 226.644 29.9923 229.388 24.7468Z" fill="#DFD4BF"/>
<path d="M263.75 33.7279L263.468 34.1212C265.018 35.2316 265.493 36.6218 264.084 38.5884L259.377 45.1592C256.576 49.0694 253.855 50.6207 250.384 48.1347C247.515 46.0797 246.07 43.5038 249.44 38.8467L255.016 31.1125C256.192 29.4697 256.943 29.4476 258.725 30.7237L259.007 30.3304L253.107 26.1043L252.825 26.4976C254.444 27.6577 254.953 28.512 253.743 30.2009L248.241 37.8824C244.992 42.4172 245.352 45.5805 249.401 48.4808C253.126 51.1491 256.552 50.2769 259.932 45.557L264.656 38.963C266.015 37.0658 267.285 36.8557 268.836 37.9661L269.117 37.5728L263.75 33.7279Z" fill="#DFD4BF"/>
<path d="M283.736 49.7843L283.326 49.5561C283.098 49.9663 282.387 49.768 281.411 48.8536L274.411 42.2971C273.434 41.3827 273.151 40.7275 273.584 40.4314L273.33 40.037L267.865 42.8736L268.121 43.3082C271.673 41.7222 272.591 41.4505 274.896 43.6101C276.247 44.8747 276.678 45.7466 275.53 46.9721L265.549 57.6279C264.324 58.9365 263.386 58.6047 261.995 57.3012L261.664 57.6543L266.857 62.5182L267.188 62.1651C265.588 60.667 265.424 59.9677 266.65 58.659L276.631 48.0032C277.798 46.7569 278.698 47.1705 280.069 48.4546C282.374 50.6141 282.184 51.5667 280.813 55.1956L281.263 55.4225L283.736 49.7843Z" fill="#DFD4BF"/>
<path d="M298.467 67.7053L298.315 67.4993C297.95 67.6276 297.222 67.5995 296.916 67.3297L296.105 68.5305L281.676 72.3242C279.218 72.9723 277.853 73.5201 276.687 71.9406L276.297 72.228L279.747 76.8981L280.159 76.5937C278.316 74.0984 279.053 73.6598 281.871 72.9234L284.711 72.17L289.446 78.5798L288.07 80.6929C285.773 84.1939 285.502 83.8276 284.251 82.1336L283.839 82.438L287.559 87.4743L287.971 87.1699C286.754 85.5217 286.806 85.3057 289.517 81.2158L298.467 67.7053ZM295.656 69.216L289.808 78.0645L285.327 71.998L295.656 69.216Z" fill="#DFD4BF"/>
<path d="M300.154 97.9645C303.522 96.0576 303.043 92.2079 302.111 90.4462C303.01 91.5724 305.544 92.7544 307.5 91.6467C309.828 90.3287 310.548 87.7299 308.824 84.6836L305.5 78.814L305.104 79.0384C306.016 80.6482 305.981 81.4529 304.42 82.3363L291.74 89.5153C290.18 90.3987 289.486 90.0394 288.56 88.4048L288.164 88.6292L291.95 95.3161C293.618 98.2633 296.538 100.012 300.154 97.9645ZM305.164 83.6489C306.823 82.7094 307.389 83.3047 308.258 84.8402C309.688 87.3664 308.788 89.1843 306.757 90.3341C304.776 91.4558 302.384 91.0439 300.477 87.6757L299.888 86.6355L305.164 83.6489ZM292.235 94.6642C290.917 92.3361 290.898 91.7253 292.458 90.842L299.418 86.9019L300.455 88.7346C302.446 92.2514 302.234 95.0535 299.411 96.6519C296.117 98.5168 293.833 97.4875 292.235 94.6642Z" fill="#DFD4BF"/>
<path d="M304.713 97.517C299.191 99.804 296.906 105.741 299.063 110.947C301.001 115.627 306.891 118.394 312.413 116.107C318.092 113.755 320.492 108.17 318.336 102.964C316.398 98.2839 310.471 95.132 304.713 97.517ZM305.399 99.1735C311.026 96.843 315.956 98.9288 317.731 103.215C319.496 107.474 317.353 112.12 311.727 114.45C306.257 116.716 301.432 114.956 299.667 110.697C297.903 106.437 299.93 101.439 305.399 99.1735Z" fill="#DFD4BF"/>
<path d="M325.872 127.791L325.403 127.913C325.881 129.759 325.354 131.13 323.012 131.736L315.187 133.761C310.531 134.966 307.448 134.412 306.378 130.279C305.494 126.862 306.036 123.959 311.608 122.546L320.846 120.185C322.802 119.678 323.392 120.143 323.941 122.264L324.41 122.143L322.591 115.117L322.123 115.239C322.622 117.167 322.465 118.149 320.453 118.669L311.306 121.037C305.906 122.434 304.154 125.093 305.402 129.914C306.55 134.35 309.738 135.877 315.358 134.422L323.211 132.39C325.47 131.805 326.58 132.459 327.058 134.305L327.526 134.183L325.872 127.791Z" fill="#DFD4BF"/>
<path d="M330.905 153.288L330.738 152.85C330.299 153.017 329.882 152.408 329.722 151.08L328.579 141.557C328.42 140.229 328.624 139.545 329.147 139.597L329.205 139.131L323.197 137.789L323.113 138.286C326.853 139.356 327.73 139.738 328.107 142.875C328.327 144.712 328.097 145.657 326.43 145.857L311.934 147.597C310.153 147.811 309.649 146.954 309.422 145.061L308.942 145.118L309.79 152.183L310.27 152.125C310.009 149.949 310.333 149.308 312.113 149.095L326.609 147.354C328.305 147.151 328.728 148.046 328.952 149.911C329.328 153.048 328.57 153.655 325.186 155.551L325.385 156.015L330.905 153.288Z" fill="#DFD4BF"/>
</svg>
