<svg width="330" height="329" viewBox="0 0 330 329" fill="none" xmlns="http://www.w3.org/2000/svg">
<path d="M329.345 176.377L329.259 175.958C328.064 176.011 328.291 175.554 328.346 174.259L328.728 165.247L328.262 165.228C328.191 166.911 327.828 167.518 326.222 167.45L312.937 166.886C311.306 166.816 310.979 165.972 311.052 164.237L310.612 164.218L310.337 170.692L310.777 170.711C310.862 168.717 311.248 168.189 312.879 168.258L319.612 168.544L319.448 172.403C319.4 173.542 318.634 173.847 316.77 173.768L316.752 174.182L322.501 174.426L322.519 174.012C320.784 173.938 319.915 173.616 319.967 172.399L320.13 168.566L326.164 168.822C327.769 168.891 327.998 169.627 327.926 171.31C327.757 175.298 327.515 176.092 323.64 177.536L323.751 177.982L329.345 176.377Z" fill="#DFD4BF"/>
<path d="M327.295 189.197L327.33 188.966C327.012 188.813 326.562 188.326 326.539 187.955L325.243 188.205L313.515 181.344C311.516 180.177 310.285 179.65 310.552 177.881L310.117 177.816L309.326 183.044L309.787 183.113C310.21 180.32 310.967 180.513 313.254 181.856L315.567 183.202L314.481 190.377L312.234 190.85C308.499 191.622 308.561 191.212 308.848 189.315L308.387 189.246L307.534 194.884L307.995 194.953C308.274 193.108 308.447 193.003 312.828 192.12L327.295 189.197ZM324.512 188.356L315.046 190.279L316.074 183.488L324.512 188.356Z" fill="#DFD4BF"/>
<path d="M300.366 214.556C299.312 212.5 299.61 210.617 300.047 209.097C300.555 207.328 301.689 205.821 304.432 204.91C303.853 209.085 306.473 213.668 311.256 215.042C316.637 216.588 321.515 213.971 322.933 209.039C324.207 204.605 321.773 198.997 316.317 197.429C311.459 196.034 306.827 198.451 305.03 202.735C301.881 203.745 300.233 205.914 299.603 208.107C298.866 210.673 299.203 213.439 299.892 214.608L300.366 214.556ZM315.866 198.999C321.197 200.531 323.526 204.814 322.36 208.874C321.193 212.935 317.038 215.004 311.707 213.472C306.526 211.984 304.086 207.992 305.245 203.957C306.405 199.921 310.684 197.51 315.866 198.999Z" fill="#DFD4BF"/>
<path d="M312.75 220.842C313.881 221.295 314.658 222.812 314.061 224.3C313.384 225.989 312.096 226.642 309.973 225.79L309.843 226.116L313.153 227.371L313.277 227.061C312.63 226.568 313.852 225.763 314.324 224.585C315.194 222.416 314.161 220.508 312.921 220.011C309.094 218.476 308.241 225.041 304.832 223.674C303.252 223.04 302.71 221.654 303.307 220.166C304.14 218.09 305.815 217.502 308.455 218.364L308.561 218.1L305.468 216.932L304.848 216.683L304.73 216.977C305.721 217.645 303.892 217.721 302.997 219.952C302.183 221.982 303.09 223.893 304.748 224.558C308.42 226.031 309.589 219.574 312.75 220.842Z" fill="#DFD4BF"/>
<path d="M308.105 246.14L308.209 245.726C307.108 245.257 307.51 244.942 308.119 243.798L312.359 235.837L311.947 235.618C311.155 237.105 310.565 237.495 309.147 236.74L297.41 230.49C295.969 229.723 296.039 228.82 296.855 227.287L296.466 227.08L293.42 232.8L293.809 233.007C294.747 231.245 295.323 230.935 296.765 231.703L302.713 234.87L300.898 238.279C300.362 239.286 299.54 239.23 297.893 238.353L297.698 238.719L302.777 241.423L302.972 241.057C301.439 240.241 300.795 239.575 301.367 238.5L303.171 235.114L308.501 237.953C309.92 238.708 309.807 239.47 309.015 240.957C307.139 244.481 306.579 245.092 302.46 244.72L302.367 245.17L308.105 246.14Z" fill="#DFD4BF"/>
<path d="M300.839 256.602L300.969 256.409C300.749 256.134 300.553 255.5 300.692 255.156L299.415 254.822L291.791 243.575C290.491 241.66 289.607 240.654 290.611 239.173L290.246 238.926L287.278 243.302L287.664 243.564C289.25 241.226 289.85 241.727 291.335 243.924L292.842 246.136L288.768 252.142L286.536 251.6C282.834 250.686 283.067 250.343 284.144 248.755L283.757 248.493L280.557 253.212L280.943 253.474C281.99 251.93 282.192 251.91 286.525 253.001L300.839 256.602ZM298.69 254.644L289.32 252.298L293.176 246.613L298.69 254.644Z" fill="#DFD4BF"/>
<path d="M265.354 268.123C265.293 265.813 266.376 264.244 267.427 263.063C268.651 261.689 270.326 260.82 273.193 261.186C270.864 264.699 271.244 269.964 274.961 273.273C279.144 276.995 284.674 276.747 288.085 272.913C291.153 269.466 291.385 263.358 287.144 259.584C283.369 256.224 278.147 256.399 274.673 259.484C271.397 259.032 268.973 260.275 267.456 261.978C265.681 263.973 264.788 266.613 264.904 267.965L265.354 268.123ZM286.059 260.804C290.202 264.491 290.449 269.361 287.64 272.517C284.831 275.673 280.191 275.741 276.047 272.053C272.02 268.469 271.547 263.815 274.338 260.678C277.13 257.542 282.031 257.22 286.059 260.804Z" fill="#DFD4BF"/>
<path d="M273.932 279.022C274.759 279.918 274.809 281.621 273.632 282.708C272.294 283.943 270.851 283.979 269.3 282.299L269.042 282.537L271.492 285.092L271.738 284.866C271.365 284.142 272.814 283.94 273.747 283.079C275.464 281.494 275.35 279.327 274.444 278.346C271.647 275.315 268.057 280.878 265.566 278.18C264.411 276.928 264.517 275.444 265.695 274.357C267.339 272.839 269.104 273.028 271.118 274.94L271.327 274.747L269.036 272.364L268.583 271.873L268.35 272.088C268.958 273.117 267.274 272.399 265.507 274.03C263.9 275.514 263.898 277.628 265.11 278.941C267.794 281.849 271.622 276.52 273.932 279.022Z" fill="#DFD4BF"/>
<path d="M258.964 299.806L259.235 299.475C258.44 298.581 258.938 298.468 259.978 297.695L267.214 292.309L266.935 291.935C265.583 292.941 264.883 293.042 263.924 291.753L255.985 281.086C255.01 279.776 255.458 278.99 256.851 277.953L256.588 277.6L251.39 281.469L251.653 281.822C253.254 280.63 253.908 280.596 254.883 281.906L258.906 287.312L255.808 289.618C254.893 290.299 254.174 289.897 253.06 288.4L252.727 288.648L256.163 293.264L256.496 293.016C255.459 291.623 255.161 290.746 256.139 290.019L259.216 287.728L262.822 292.573C263.781 293.862 263.354 294.503 262.002 295.509C258.8 297.892 258.032 298.206 254.468 296.109L254.192 296.476L258.964 299.806Z" fill="#DFD4BF"/>
<path d="M247.917 306.129L248.117 306.01C248.035 305.667 248.129 305.01 248.402 304.759L247.389 303.912L245.298 290.486C244.941 288.199 244.572 286.911 246.112 286.002L245.887 285.622L241.335 288.312L241.572 288.714C244.005 287.277 244.333 287.986 244.738 290.607L245.155 293.25L238.907 296.941L237.12 295.498C234.163 293.09 234.52 292.879 236.172 291.904L235.934 291.502L231.025 294.402L231.262 294.804C232.869 293.855 233.059 293.923 236.512 296.76L247.917 306.129ZM246.81 303.441L239.34 297.318L245.253 293.824L246.81 303.441Z" fill="#DFD4BF"/>
<path d="M210.865 301.331C211.801 299.218 213.453 298.266 214.909 297.65C216.604 296.934 218.49 296.868 220.923 298.428C217.312 300.602 215.396 305.521 217.334 310.105C219.515 315.261 224.617 317.409 229.344 315.41C233.593 313.613 236.423 308.194 234.212 302.966C232.243 298.311 227.451 296.229 222.989 297.525C220.224 295.712 217.501 295.794 215.4 296.683C212.942 297.723 211.002 299.725 210.527 300.996L210.865 301.331ZM232.708 303.602C234.869 308.711 233.003 313.215 229.112 314.861C225.221 316.507 220.999 314.577 218.838 309.469C216.738 304.503 218.308 300.097 222.175 298.461C226.042 296.825 230.608 298.637 232.708 303.602Z" fill="#DFD4BF"/>
<path d="M213.873 314.856C214.231 316.021 213.541 317.578 212.009 318.05C210.27 318.586 208.952 317.995 208.279 315.809L207.944 315.913L209.05 319.276L209.369 319.177C209.345 318.364 210.74 318.808 211.953 318.434C214.186 317.746 215.019 315.743 214.626 314.466C213.413 310.525 207.772 313.992 206.691 310.481C206.19 308.854 206.927 307.561 208.459 307.089C210.597 306.431 212.107 307.364 213.098 309.958L213.37 309.875L212.333 306.735L212.136 306.097L211.833 306.19C211.938 307.381 210.729 306.006 208.431 306.714C206.341 307.357 205.425 309.264 205.951 310.971C207.115 314.753 212.87 311.601 213.873 314.856Z" fill="#DFD4BF"/>
<path d="M191.402 327.124L191.79 326.943C191.46 325.793 191.958 325.907 193.23 325.659L202.084 323.936L201.994 323.478C200.341 323.8 199.666 323.588 199.359 322.01L196.817 308.959C196.505 307.356 197.25 306.841 198.955 306.509L198.87 306.077L192.51 307.315L192.594 307.748C194.553 307.366 195.157 307.618 195.469 309.221L196.757 315.836L192.966 316.574C191.847 316.792 191.372 316.119 191.016 314.287L190.608 314.366L191.708 320.014L192.115 319.935C191.783 318.23 191.895 317.311 193.091 317.078L196.856 316.345L198.01 322.273C198.317 323.85 197.654 324.243 196.001 324.565C192.083 325.328 191.254 325.278 188.949 321.845L188.541 322.057L191.402 327.124Z" fill="#DFD4BF"/>
<path d="M178.72 328.04L178.952 328.02C179.027 327.676 179.396 327.124 179.751 327.016L179.207 325.814L183.147 312.81C183.817 310.594 184.043 309.274 185.825 309.123L185.788 308.684L180.519 309.132L180.559 309.597C183.374 309.357 183.362 310.139 182.589 312.675L181.819 315.238L174.587 315.853L173.605 313.778C171.984 310.326 172.398 310.291 174.309 310.128L174.269 309.663L168.587 310.147L168.627 310.611C170.486 310.453 170.629 310.597 172.508 314.651L178.72 328.04ZM178.889 325.138L174.814 316.38L181.658 315.798L178.889 325.138Z" fill="#DFD4BF"/>
<path d="M146.865 307.647C148.627 306.152 150.529 306.014 152.108 306.093C153.946 306.185 155.672 306.947 157.184 309.41C152.986 309.797 149.12 313.391 148.871 318.362C148.59 323.953 152.248 328.108 157.374 328.365C161.982 328.596 166.888 324.95 167.173 319.281C167.426 314.233 164.018 310.273 159.437 309.498C157.737 306.661 155.249 305.55 152.971 305.436C150.305 305.302 147.687 306.261 146.706 307.197L146.865 307.647ZM165.542 319.199C165.264 324.739 161.623 327.981 157.404 327.77C153.184 327.558 150.223 323.983 150.502 318.444C150.772 313.059 154.103 309.775 158.297 309.985C162.49 310.196 165.812 313.814 165.542 319.199Z" fill="#DFD4BF"/>
<path d="M143.707 321.168C143.525 322.373 142.226 323.477 140.641 323.237C138.842 322.965 137.912 321.861 138.254 319.6L137.907 319.547L137.444 323.057L137.774 323.107C138.106 322.364 139.169 323.369 140.424 323.559C142.735 323.908 144.355 322.465 144.555 321.144C145.172 317.067 138.586 317.742 139.135 314.11C139.39 312.427 140.615 311.582 142.2 311.822C144.412 312.156 145.368 313.652 145.135 316.42L145.415 316.462L145.844 313.184L145.944 312.523L145.63 312.476C145.208 313.594 144.715 311.831 142.338 311.471C140.175 311.144 138.523 312.464 138.256 314.23C137.664 318.143 144.217 317.8 143.707 321.168Z" fill="#DFD4BF"/>
<path d="M118.136 322.495L118.564 322.5C118.766 321.32 119.165 321.639 120.418 321.969L129.142 324.262L129.261 323.811C127.631 323.383 127.115 322.898 127.524 321.344L130.904 308.484C131.319 306.905 132.214 306.765 133.893 307.207L134.005 306.78L127.738 305.133L127.626 305.559C129.556 306.067 129.991 306.556 129.576 308.135L127.862 314.653L124.127 313.671C123.024 313.381 122.889 312.568 123.364 310.764L122.963 310.658L121.5 316.223L121.901 316.329C122.342 314.649 122.842 313.869 124.02 314.179L127.73 315.154L126.195 320.995C125.787 322.549 125.019 322.615 123.389 322.187C119.529 321.172 118.805 320.768 118.219 316.674L117.76 316.687L118.136 322.495Z" fill="#DFD4BF"/>
<path d="M106.343 317.854L106.562 317.937C106.778 317.658 107.35 317.321 107.717 317.377L107.746 316.057L116.926 306.04C118.489 304.332 119.264 303.24 120.936 303.875L121.092 303.463L116.149 301.587L115.983 302.023C118.625 303.025 118.276 303.725 116.481 305.677L114.678 307.654L107.892 305.079L107.905 302.783C107.938 298.969 108.326 299.117 110.119 299.797L110.284 299.361L104.953 297.338L104.788 297.774C106.532 298.436 106.598 298.627 106.538 303.096L106.343 317.854ZM107.752 315.311L107.869 305.652L114.291 308.09L107.752 315.311Z" fill="#DFD4BF"/>
<path d="M86.9862 285.949C89.2208 285.362 90.9954 286.058 92.3855 286.812C94.0034 287.689 95.2317 289.121 95.531 291.996C91.5782 290.531 86.539 292.104 84.1675 296.479C81.4996 301.401 83.0051 306.728 87.517 309.174C91.5731 311.372 97.5732 310.202 100.278 305.212C102.687 300.768 101.323 295.725 97.5259 293.047C97.2172 289.755 95.4534 287.679 93.4481 286.592C91.101 285.319 88.3263 285.054 87.0366 285.475L86.9862 285.949ZM98.8426 304.434C96.1993 309.31 91.5154 310.663 87.8011 308.65C84.0868 306.636 82.9599 302.134 85.6031 297.257C88.1723 292.518 92.5951 290.994 96.2866 292.995C99.9782 294.996 101.412 299.694 98.8426 304.434Z" fill="#DFD4BF"/>
<path d="M78.3251 296.79C77.641 297.799 75.9936 298.235 74.6672 297.335C73.1611 296.313 72.7972 294.917 74.0811 293.024L73.7909 292.827L71.8594 295.794L72.1358 295.981C72.7558 295.454 73.2821 296.819 74.3322 297.531C76.2666 298.843 78.3506 298.24 79.1003 297.134C81.4151 293.721 75.1815 291.491 77.2433 288.451C78.1992 287.041 79.6689 286.808 80.9954 287.707C82.8469 288.963 83.0644 290.725 81.6607 293.121L81.8956 293.281L83.6959 290.507L84.0707 289.955L83.8082 289.777C82.9449 290.603 83.2603 288.8 81.2706 287.45C79.4606 286.223 77.4008 286.702 76.398 288.18C74.1769 291.455 80.2369 293.971 78.3251 296.79Z" fill="#DFD4BF"/>
<path d="M54.7084 286.978L55.0921 287.166C55.7826 286.189 56.0051 286.648 56.9948 287.485L63.8832 293.308L64.1844 292.952C62.8978 291.864 62.6403 291.205 63.6777 289.978L72.2619 279.824C73.3161 278.576 74.1838 278.835 75.51 279.956L75.7945 279.619L70.8459 275.436L70.5614 275.773C72.0856 277.061 72.267 277.69 71.2128 278.937L66.8622 284.083L63.9128 281.59C63.0418 280.854 63.2698 280.062 64.4746 278.637L64.1579 278.369L60.4431 282.764L60.7598 283.031C61.8809 281.705 62.6676 281.216 63.5979 282.003L66.5275 284.479L62.6286 289.091C61.5912 290.318 60.8696 290.048 59.583 288.96C56.5346 286.383 56.0548 285.706 57.2874 281.759L56.8672 281.573L54.7084 286.978Z" fill="#DFD4BF"/>
<path d="M46.0775 277.729L46.2388 277.897C46.5539 277.739 47.2151 277.68 47.5223 277.888L48.1162 276.71L60.7116 271.613C62.8572 270.743 64.0263 270.09 65.2631 271.382L65.5814 271.078L61.9249 267.258L61.5878 267.581C63.5416 269.622 62.9261 270.103 60.4663 271.094L57.9878 272.104L52.969 266.861L53.9674 264.793C55.6371 261.365 55.9239 261.664 57.2502 263.05L57.5872 262.727L53.644 258.608L53.3069 258.931C54.5975 260.279 54.5748 260.48 52.5991 264.488L46.0775 277.729ZM48.4425 276.039L52.7013 267.369L57.4512 272.33L48.4425 276.039Z" fill="#DFD4BF"/>
<path d="M42.2973 240.663C44.5685 241.087 45.8753 242.475 46.8101 243.75C47.898 245.234 48.3965 247.054 47.4387 249.781C44.4907 246.768 39.2627 246.037 35.249 248.979C30.7335 252.289 29.8183 257.748 32.8524 261.887C35.58 265.608 41.5046 267.114 46.0828 263.759C50.1592 260.77 51.0813 255.627 48.7927 251.585C49.9207 248.476 49.2133 245.845 47.8648 244.005C46.2865 241.852 43.8915 240.426 42.5454 240.256L42.2973 240.663ZM45.1174 262.442C40.6438 265.721 35.831 264.942 33.3332 261.535C30.8355 258.127 31.7407 253.575 36.2144 250.296C40.5626 247.109 45.2124 247.621 47.6948 251.007C50.1772 254.394 49.4656 259.254 45.1174 262.442Z" fill="#DFD4BF"/>
<path d="M29.8817 246.821C28.8323 247.441 27.1565 247.132 26.3413 245.752C25.4157 244.185 25.6831 242.766 27.6525 241.603L27.4741 241.301L24.4607 243.159L24.6305 243.446C25.4165 243.234 25.3092 244.694 25.9546 245.786C27.1434 247.799 29.2857 248.143 30.4356 247.463C33.9862 245.366 29.3023 240.687 32.4647 238.818C33.9309 237.952 35.3597 238.369 36.1749 239.749C37.3128 241.675 36.7573 243.36 34.4645 244.928L34.6089 245.172L37.4211 243.434L37.9961 243.094L37.8347 242.821C36.7011 243.2 37.7564 241.704 36.5336 239.634C35.4212 237.751 33.3541 237.304 31.816 238.213C28.4092 240.225 32.8141 245.089 29.8817 246.821Z" fill="#DFD4BF"/>
<path d="M12.7188 227.818L12.9847 228.152C14.0274 227.565 14.0315 228.076 14.5674 229.256L18.2967 237.469L18.7216 237.276C18.025 235.742 18.0746 235.036 19.5378 234.371L31.6448 228.874C33.1316 228.199 33.805 228.804 34.523 230.385L34.9242 230.203L32.245 224.303L31.8438 224.485C32.669 226.302 32.5636 226.948 31.0768 227.623L24.9407 230.409L23.3439 226.893C22.8724 225.854 23.4175 225.237 25.1167 224.465L24.9453 224.088L19.706 226.467L19.8775 226.844C21.4587 226.126 22.379 226.022 22.8827 227.131L24.4687 230.624L18.9698 233.121C17.5066 233.785 16.9705 233.231 16.274 231.697C14.6236 228.063 14.4802 227.246 17.285 224.207L16.9848 223.859L12.7188 227.818Z" fill="#DFD4BF"/>
<path d="M8.83356 215.587L8.90641 215.808C9.25889 215.802 9.88086 216.034 10.068 216.354L11.1124 215.547L24.6742 216.382C26.985 216.523 28.3214 216.438 28.8799 218.137L29.2985 218L27.6473 212.977L27.2041 213.122C28.0864 215.806 27.3234 215.975 24.6766 215.809L22.0052 215.65L19.7388 208.755L21.5317 207.32C24.5169 204.947 24.6464 205.341 25.2453 207.164L25.6886 207.018L23.9079 201.601L23.4647 201.746C24.0474 203.519 23.9402 203.691 20.4287 206.455L8.83356 215.587ZM11.6963 215.082L19.2784 209.098L21.4233 215.623L11.6963 215.082Z" fill="#DFD4BF"/>
<path d="M21.4306 180.524C23.2942 181.89 23.8709 183.707 24.1612 185.261C24.4991 187.07 24.1602 188.927 22.116 190.97C20.7638 186.977 16.3681 184.054 11.4761 184.968C5.97266 185.996 2.78346 190.52 3.72572 195.565C4.5728 200.1 9.26076 204.023 14.8407 202.981C19.809 202.053 22.8675 197.817 22.5555 193.182C24.9183 190.868 25.4202 188.19 25.0014 185.948C24.5112 183.324 22.97 181.001 21.8305 180.265L21.4306 180.524ZM14.5408 201.376C9.08835 202.394 5.08743 199.608 4.31173 195.455C3.53603 191.302 6.32343 187.591 11.7759 186.573C17.0755 185.583 21.0448 188.058 21.8158 192.186C22.5867 196.314 19.8405 200.386 14.5408 201.376Z" fill="#DFD4BF"/>
<path d="M7.54881 180.646C6.33442 180.75 4.95869 179.744 4.82286 178.147C4.66864 176.334 5.52489 175.172 7.80395 174.978L7.77423 174.629L4.25318 174.995L4.28148 175.328C5.08174 175.478 4.35184 176.746 4.45937 178.011C4.65746 180.339 6.43844 181.579 7.76927 181.466C11.8782 181.116 9.68799 174.868 13.3478 174.557C15.0446 174.413 16.1513 175.408 16.2872 177.005C16.4768 179.234 15.245 180.511 12.4991 180.929L12.5231 181.212L15.8113 180.865L16.4767 180.809L16.4498 180.493C15.2641 180.342 16.864 179.452 16.6602 177.057C16.4749 174.877 14.8061 173.578 13.0261 173.73C9.0835 174.065 10.9424 180.358 7.54881 180.646Z" fill="#DFD4BF"/>
<path d="M0.303223 155.617L0.39727 156.035C1.59165 155.958 1.37355 156.42 1.34353 157.716L1.13466 166.733L1.60109 166.744C1.6401 165.06 1.99137 164.446 3.59795 164.483L16.8911 164.791C18.5236 164.829 18.8672 165.666 18.827 167.402L19.2675 167.413L19.4175 160.934L18.977 160.924C18.9308 162.919 18.5554 163.455 16.9229 163.417L10.1857 163.261L10.2751 159.4C10.3015 158.26 11.0608 157.941 12.9265 157.984L12.9361 157.569L7.18348 157.436L7.17387 157.851C8.91002 157.891 9.78444 158.196 9.75623 159.414L9.6674 163.249L3.62976 163.11C2.02318 163.072 1.78086 162.341 1.81988 160.656C1.91231 156.666 2.13822 155.867 5.98458 154.349L5.86522 153.906L0.303223 155.617Z" fill="#DFD4BF"/>
<path d="M2.11065 142.684L2.08018 142.915C2.4007 143.062 2.86048 143.541 2.89017 143.911L4.18121 143.636L16.0391 150.271C18.0602 151.4 19.3011 151.903 19.0675 153.676L19.5043 153.734L20.195 148.491L19.7325 148.43C19.3634 151.231 18.6026 151.053 16.29 149.755L13.9517 148.453L14.8997 141.258L17.1376 140.742C20.8565 139.899 20.8023 140.31 20.5518 142.212L21.0144 142.273L21.7592 136.619L21.2967 136.558C21.0529 138.408 20.8818 138.517 16.519 139.484L2.11065 142.684ZM4.9089 143.471L14.3364 141.367L13.4392 148.176L4.9089 143.471Z" fill="#DFD4BF"/>
<path d="M28.4914 117.023C29.5845 119.058 29.322 120.947 28.9142 122.474C28.4396 124.252 27.3339 125.782 24.6089 126.744C25.1091 122.559 22.4021 118.027 17.5939 116.743C12.1846 115.299 7.35707 118.008 6.03353 122.966C4.84368 127.424 7.38351 132.984 12.8679 134.448C17.7512 135.752 22.3366 133.247 24.0524 128.93C27.1815 127.86 28.7882 125.66 29.3764 123.456C30.065 120.877 29.6749 118.117 28.964 116.961L28.4914 117.023ZM13.289 132.871C7.92985 131.44 5.51993 127.202 6.60951 123.12C7.69909 119.038 11.8136 116.89 17.1727 118.321C22.3816 119.711 24.8968 123.656 23.8139 127.712C22.731 131.769 18.4979 134.261 13.289 132.871Z" fill="#DFD4BF"/>
<path d="M15.9788 110.922C14.8393 110.489 14.0343 108.988 14.603 107.489C15.2487 105.788 16.5235 105.111 18.6619 105.922L18.7863 105.594L15.4535 104.401L15.335 104.713C15.9916 105.195 14.7847 106.022 14.3344 107.209C13.5051 109.394 14.5743 111.282 15.8231 111.756C19.6786 113.219 20.408 106.639 23.842 107.942C25.4342 108.546 26.0013 109.922 25.4326 111.42C24.6388 113.512 22.9754 114.131 20.3191 113.319L20.2184 113.584L23.3327 114.695L23.9571 114.932L24.0696 114.635C23.0659 113.987 24.8933 113.877 25.7464 111.629C26.5224 109.584 25.5802 107.691 23.91 107.057C20.2106 105.653 19.1631 112.13 15.9788 110.922Z" fill="#DFD4BF"/>
<path d="M20.1675 85.4438L20.0717 85.8605C21.1814 86.3089 20.7849 86.6306 20.1971 87.7856L16.1055 95.8242L16.5213 96.0359C17.2855 94.5344 17.868 94.1329 19.3001 94.8618L31.1502 100.893C32.6055 101.634 32.5526 102.538 31.7649 104.086L32.1576 104.285L35.0969 98.5105L34.7042 98.3106C33.7989 100.089 33.2286 100.41 31.7733 99.6691L25.7675 96.6122L27.5193 93.1703C28.0366 92.154 28.8594 92.1946 30.5225 93.0412L30.7107 92.6716L25.5826 90.0614L25.3944 90.431C26.9421 91.2188 27.5982 91.8726 27.0456 92.9583L25.3055 96.377L19.9233 93.6375C18.4911 92.9086 18.5893 92.1442 19.3536 90.6428C21.1642 87.0854 21.7135 86.4634 25.8381 86.7596L25.9224 86.3081L20.1675 85.4438Z" fill="#DFD4BF"/>
<path d="M27.2352 74.818L27.1078 75.0135C27.3335 75.2843 27.5413 75.9148 27.4083 76.2613L28.6912 76.5715L36.52 87.6769C37.8552 89.5683 38.7568 90.5582 37.7802 92.0565L38.1494 92.2971L41.0368 87.8675L40.6459 87.6127C39.1031 89.9795 38.4942 89.4898 36.9692 87.32L35.4225 85.1361L39.3856 79.0563L41.6266 79.5579C45.345 80.4037 45.1185 80.7511 44.0711 82.358L44.462 82.6127L47.5758 77.8357L47.185 77.5809C46.1659 79.1443 45.9649 79.168 41.6121 78.1562L27.2352 74.818ZM29.419 76.7365L38.8305 78.911L35.0798 84.6652L29.419 76.7365Z" fill="#DFD4BF"/>
<path d="M62.4185 62.7125C62.5215 65.0207 61.4665 66.6086 60.437 67.8086C59.2387 69.2054 57.5796 70.1043 54.7066 69.7909C56.9713 66.2355 56.4957 60.9781 52.7186 57.7377C48.4694 54.0923 42.9449 54.4413 39.6033 58.3363C36.5992 61.838 36.4784 67.9499 40.7866 71.6459C44.6227 74.9369 49.8407 74.6665 53.2579 71.5193C56.5414 71.9115 58.9429 70.625 60.4281 68.8938C62.1664 66.8676 63.011 64.2112 62.871 62.8617L62.4185 62.7125ZM41.8499 70.4066C37.64 66.7949 37.3048 61.9311 40.0558 58.7245C42.8067 55.518 47.4455 55.3654 51.6554 58.977C55.7472 62.4874 56.3046 67.1321 53.5705 70.319C50.8365 73.5058 45.9417 73.917 41.8499 70.4066Z" fill="#DFD4BF"/>
<path d="M53.3957 52.1667C52.5529 51.2864 52.472 49.5842 53.6297 48.4758C54.9443 47.2174 56.3862 47.1544 57.968 48.8066L58.2212 48.5642L55.7254 46.0536L55.4842 46.2845C55.87 47.0014 54.4244 47.2297 53.5079 48.1071C51.8195 49.7235 51.973 51.8878 52.8966 52.8526C55.7483 55.8314 59.2364 50.204 61.7764 52.8572C62.954 54.0874 62.8744 55.5735 61.7166 56.6818C60.1006 58.2289 58.3327 58.0723 56.2836 56.1973L56.0785 56.3936L58.4128 58.7353L58.8746 59.2177L59.1037 58.9983C58.4764 57.9809 60.1737 58.6674 61.9103 57.0049C63.4902 55.4924 63.4536 53.3779 62.2183 52.0875C59.482 49.2293 55.751 54.627 53.3957 52.1667Z" fill="#DFD4BF"/>
<path d="M67.8299 31.1503L67.5652 31.4859C68.3764 32.3658 67.8805 32.4871 66.8551 33.2798L59.7188 38.7964L60.0042 39.1655C61.3371 38.1351 62.0353 38.0212 63.0182 39.2927L71.1505 49.8126C72.1492 51.1045 71.7149 51.8989 70.341 52.961L70.6105 53.3096L75.7372 49.3465L75.4677 48.9979C73.8887 50.2185 73.2361 50.2643 72.2374 48.9724L68.1157 43.6407L71.1712 41.2786C72.0735 40.5811 72.7998 40.9697 73.9412 42.4462L74.2693 42.1926L70.7501 37.6401L70.4219 37.8937C71.4841 39.2677 71.7975 40.1393 70.8337 40.8844L67.7987 43.2305L64.105 38.4525C63.1222 37.1811 63.5379 36.5321 64.8708 35.5017C68.0288 33.0604 68.7913 32.7331 72.3931 34.7647L72.6624 34.3927L67.8299 31.1503Z" fill="#DFD4BF"/>
<path d="M78.6524 24.6002L78.4537 24.7226C78.5421 25.0638 78.4609 25.7227 78.1926 25.9792L79.2202 26.8075L81.5576 40.1925C81.9574 42.4728 82.35 43.753 80.8272 44.6908L81.0582 45.066L85.5606 42.2934L85.3159 41.8961C82.9102 43.3776 82.5687 42.6747 82.1162 40.0616L81.6501 37.4263L87.8298 33.6208L89.6421 35.0313C92.6432 37.3838 92.2901 37.6013 90.6569 38.607L90.9016 39.0043L95.757 36.0142L95.5124 35.6169C93.9233 36.5955 93.7314 36.531 90.2275 33.7575L78.6524 24.6002ZM79.8079 27.2675L87.3899 33.2524L81.5413 36.8541L79.8079 27.2675Z" fill="#DFD4BF"/>
<path d="M115.835 28.5723C114.939 30.7019 113.305 31.6845 111.861 32.3274C110.179 33.0758 108.295 33.1769 105.834 31.6624C109.404 29.4208 111.227 24.4668 109.203 19.9203C106.927 14.8055 101.786 12.7531 97.0971 14.8401C92.8822 16.7163 90.1536 22.1866 92.462 27.3725C94.5173 31.99 99.3477 33.9821 103.784 32.6031C106.583 34.3648 109.304 34.2316 111.388 33.3041C113.827 32.2184 115.728 30.1804 116.18 28.9011L115.835 28.5723ZM93.9538 26.7084C91.6981 21.641 93.4798 17.1029 97.3396 15.3848C101.199 13.6667 105.456 15.517 107.712 20.5844C109.904 25.5097 108.417 29.9451 104.581 31.6526C100.745 33.3602 96.1462 31.6338 93.9538 26.7084Z" fill="#DFD4BF"/>
<path d="M112.675 15.0006C112.294 13.8428 112.955 12.2722 114.478 11.7717C116.207 11.2034 117.535 11.7686 118.249 13.9415L118.582 13.832L117.414 10.4904L117.096 10.5947C117.135 11.4079 115.733 10.9902 114.527 11.3865C112.307 12.1164 111.512 14.1352 111.929 15.404C113.216 19.3216 118.791 15.7493 119.938 19.2387C120.47 20.8565 119.757 22.1628 118.234 22.6633C116.109 23.362 114.581 22.4581 113.541 19.8826L113.272 19.9712L114.368 23.0907L114.576 23.7252L114.877 23.6261C114.75 22.4377 115.986 23.7891 118.269 23.0383C120.347 22.3554 121.226 20.432 120.668 18.7349C119.433 14.9759 113.738 18.2361 112.675 15.0006Z" fill="#DFD4BF"/>
<path d="M134.581 2.32368L134.198 2.51206C134.549 3.65607 134.05 3.55122 132.782 3.82313L123.963 5.71564L124.061 6.17181C125.708 5.81832 126.387 6.01726 126.725 7.5885L129.514 20.5893C129.857 22.1859 129.122 22.7147 127.424 23.079L127.517 23.5099L133.852 22.1503L133.76 21.7195C131.808 22.1382 131.2 21.8976 130.857 20.301L129.444 13.712L133.22 12.9017C134.335 12.6624 134.822 13.3266 135.213 15.1513L135.619 15.0643L134.412 9.43821L134.006 9.52522C134.37 11.2232 134.277 12.1447 133.085 12.4002L129.335 13.2051L128.068 7.30027C127.73 5.72903 128.386 5.32333 130.033 4.96985C133.936 4.13236 134.765 4.16651 137.136 7.55471L137.539 7.33555L134.581 2.32368Z" fill="#DFD4BF"/>
<path d="M147.418 1.06315L147.186 1.08738C147.118 1.43329 146.759 1.99196 146.406 2.10701L146.974 3.29863L143.284 16.3756C142.657 18.6042 142.457 19.9281 140.678 20.114L140.724 20.5522L145.983 20.0028L145.934 19.5388C143.124 19.8323 143.121 19.0509 143.844 16.4995L144.566 13.9224L151.784 13.1683L152.806 15.2244C154.493 18.6446 154.08 18.6877 152.173 18.887L152.221 19.351L157.893 18.7585L157.844 18.2945C155.988 18.4884 155.843 18.3472 153.886 14.3299L147.418 1.06315ZM147.304 3.96774L151.547 12.6457L144.715 13.3594L147.304 3.96774Z" fill="#DFD4BF"/>
<path d="M179.84 20.7756C178.108 22.3039 176.209 22.4787 174.629 22.4299C172.789 22.373 171.048 21.645 169.49 19.2112C173.679 18.7441 177.475 15.0753 177.629 10.1011C177.802 4.50516 174.064 0.422133 168.934 0.263696C164.323 0.121263 159.488 3.86171 159.312 9.53539C159.156 14.5873 162.641 18.481 167.235 19.1675C168.99 21.9704 171.498 23.0333 173.778 23.1037C176.447 23.1862 179.045 22.1773 180.008 21.2216L179.84 20.7756ZM160.944 9.5858C161.116 4.04166 164.693 0.729132 168.916 0.859562C173.139 0.989992 176.168 4.50657 175.997 10.0507C175.83 15.4394 172.563 18.7874 168.366 18.6578C164.169 18.5282 160.778 14.9745 160.944 9.5858Z" fill="#DFD4BF"/>
<path d="M183.002 7.19403C183.161 5.9857 184.438 4.85728 186.027 5.06664C187.832 5.30435 188.783 6.38959 188.484 8.65728L188.832 8.70308L189.228 5.18524L188.897 5.14162C188.579 5.89123 187.497 4.90659 186.239 4.74085C183.921 4.43553 182.329 5.90976 182.155 7.23396C181.616 11.3224 188.188 10.5212 187.709 14.1627C187.486 15.8511 186.277 16.719 184.688 16.5096C182.47 16.2174 181.486 14.7406 181.666 11.9689L181.385 11.9318L181.019 15.2179L180.932 15.88L181.246 15.9214C181.647 14.7955 182.174 16.5488 184.557 16.8629C186.726 17.1486 188.352 15.7968 188.585 14.0256C189.102 10.1027 182.557 10.5707 183.002 7.19403Z" fill="#DFD4BF"/>
<path d="M208.608 5.37908L208.181 5.38204C208 6.56517 207.596 6.25364 206.336 5.94804L197.571 3.82108L197.461 4.27448C199.098 4.67175 199.623 5.14589 199.244 6.70759L196.109 19.6294C195.724 21.2162 194.832 21.3733 193.144 20.9638L193.04 21.392L199.338 22.92L199.442 22.4918C197.502 22.0212 197.059 21.5402 197.444 19.9533L199.033 13.4042L202.786 14.3149C203.894 14.5839 204.044 15.3938 203.604 17.2074L204.007 17.3052L205.364 11.7133L204.961 11.6155C204.552 13.3031 204.067 14.0923 202.883 13.805L199.155 12.9005L200.579 7.03152C200.958 5.46983 201.724 5.38908 203.362 5.78635C207.241 6.7276 207.973 7.11858 208.636 11.2002L209.095 11.1782L208.608 5.37908Z" fill="#DFD4BF"/>
<path d="M220.132 9.65302L219.912 9.57436C219.701 9.85662 219.136 10.2048 218.768 10.1556L218.763 11.4755L209.773 21.6635C208.242 23.4004 207.488 24.5068 205.804 23.9037L205.656 24.3186L210.634 26.1016L210.791 25.6623C208.131 24.7097 208.467 24.0038 210.224 22.0178L211.99 20.0074L218.823 22.4546L218.854 24.7509C218.892 28.5641 218.502 28.4242 216.696 27.7774L216.539 28.2167L221.907 30.1395L222.064 29.7003C220.307 29.071 220.238 28.8809 220.214 24.4122L220.132 9.65302ZM218.771 12.2217L218.836 21.881L212.369 19.5649L218.771 12.2217Z" fill="#DFD4BF"/>
<path d="M240.455 41.3056C238.232 41.934 236.445 41.2703 235.041 40.5427C233.407 39.6958 232.152 38.2864 231.8 35.4178C235.779 36.809 240.788 35.1431 243.079 30.7248C245.655 25.7543 244.051 20.4562 239.495 18.0944C235.399 15.9712 229.422 17.252 226.809 22.2916C224.483 26.7789 225.94 31.7966 229.786 34.4031C230.156 37.6893 231.957 39.7327 233.982 40.7823C236.353 42.0109 239.132 42.2253 240.414 41.7803L240.455 41.3056ZM228.259 23.0431C230.812 18.1186 235.47 16.6794 239.221 18.6237C242.972 20.5679 244.182 25.0488 241.629 29.9733C239.148 34.7598 234.754 36.3651 231.026 34.4328C227.298 32.5004 225.778 27.8295 228.259 23.0431Z" fill="#DFD4BF"/>
<path d="M248.802 30.2119C249.467 29.1909 251.106 28.7248 252.449 29.6C253.974 30.5938 254.363 31.9836 253.114 33.8997L253.408 34.0912L255.285 31.0896L255.005 30.9073C254.395 31.4461 253.843 30.0904 252.78 29.3975C250.822 28.1211 248.75 28.7631 248.02 29.882C245.769 33.3366 252.042 35.4529 250.036 38.5299C249.106 39.9565 247.641 40.2171 246.298 39.3419C244.424 38.1202 244.174 36.3631 245.534 33.9411L245.296 33.7861L243.547 36.5919L243.182 37.1513L243.448 37.3245C244.296 36.4822 244.014 38.2912 246.028 39.604C247.86 40.7983 249.911 40.2816 250.886 38.7851C253.047 35.4703 246.942 33.0652 248.802 30.2119Z" fill="#DFD4BF"/>
<path d="M272.61 39.559L272.223 39.3774C271.55 40.3673 271.319 39.9119 270.315 39.0934L263.321 33.3965L263.027 33.7582C264.333 34.8223 264.602 35.4764 263.587 36.7224L255.189 47.0314C254.158 48.2975 253.286 48.055 251.939 46.9581L251.661 47.2998L256.685 51.3923L256.963 51.0507C255.416 49.7902 255.223 49.1651 256.254 47.8991L260.511 42.6742L263.505 45.1134C264.389 45.8337 264.176 46.6292 262.997 48.0761L263.319 48.3381L266.953 43.8768L266.631 43.6149C265.534 44.9613 264.757 45.4645 263.812 44.6951L260.838 42.2723L264.652 37.59C265.667 36.344 266.394 36.6015 267.7 37.6655C270.795 40.1866 271.287 40.8548 270.126 44.8238L270.55 45.0016L272.61 39.559Z" fill="#DFD4BF"/>
<path d="M281.401 48.5902L281.237 48.4247C280.924 48.5885 280.264 48.6594 279.953 48.4567L279.381 49.6459L266.88 54.9706C264.751 55.8793 263.594 56.5532 262.334 55.284L262.021 55.5944L265.746 59.3469L266.077 59.0182C264.087 57.0132 264.694 56.5205 267.135 55.4847L269.595 54.4306L274.708 59.581L273.747 61.6669C272.14 65.1251 271.848 64.8308 270.497 63.4696L270.166 63.7983L274.183 67.8451L274.514 67.5164C273.199 66.192 273.218 65.9904 275.121 61.9469L281.401 48.5902ZM279.067 50.3229L274.966 59.0688L270.127 54.1943L279.067 50.3229Z" fill="#DFD4BF"/>
<path d="M285.869 85.5132C283.59 85.1307 282.258 83.7666 281.3 82.5087C280.186 81.0445 279.654 79.234 280.562 76.4902C283.564 79.4491 288.805 80.0848 292.764 77.07C297.218 73.6782 298.034 68.2031 294.925 64.12C292.13 60.4493 286.179 59.0516 281.662 62.4904C277.641 65.5524 276.813 70.7114 279.175 74.7118C278.104 77.8404 278.859 80.458 280.241 82.2727C281.858 84.3968 284.279 85.7788 285.628 85.9245L285.869 85.5132ZM282.652 63.7896C287.065 60.4292 291.891 61.1198 294.451 64.4812C297.01 67.8425 296.188 72.4105 291.775 75.7708C287.486 79.0369 282.827 78.6095 280.283 75.2688C277.74 71.9281 278.362 67.0557 282.652 63.7896Z" fill="#DFD4BF"/>
<path d="M298.156 79.0236C299.194 78.3845 300.875 78.6629 301.715 80.0276C302.67 81.5772 302.428 83.0003 300.481 84.1996L300.665 84.4982L303.643 82.5853L303.468 82.301C302.686 82.5277 302.767 81.0664 302.102 79.986C300.876 77.9957 298.728 77.6912 297.59 78.3916C294.079 80.554 298.848 85.1462 295.721 87.0723C294.271 87.9652 292.834 87.5752 291.994 86.2105C290.821 84.3055 291.345 82.61 293.609 81.0004L293.46 80.7587L290.68 82.549L290.112 82.8992L290.278 83.1693C291.404 82.7697 290.377 84.2849 291.637 86.332C292.784 88.1943 294.859 88.6027 296.38 87.666C299.75 85.5911 295.256 80.8095 298.156 79.0236Z" fill="#DFD4BF"/>
<path d="M315.777 97.8117L315.505 97.4819C314.474 98.0886 314.46 97.5782 313.903 96.4083L310.021 88.2662L309.6 88.4669C310.325 89.9878 310.288 90.6943 308.838 91.3858L296.835 97.1076C295.361 97.8103 294.677 97.2177 293.929 95.6501L293.532 95.8397L296.32 101.689L296.718 101.499C295.859 99.6978 295.952 99.0503 297.426 98.3476L303.51 95.4477L305.171 98.9339C305.662 99.9633 305.129 100.591 303.444 101.394L303.622 101.768L308.817 99.2923L308.638 98.9179C307.071 99.6652 306.152 99.7871 305.628 98.6874L303.977 95.2246L309.429 92.6258C310.88 91.9343 311.426 92.4779 312.151 93.9987C313.868 97.6019 314.027 98.4164 311.279 101.507L311.586 101.849L315.777 97.8117Z" fill="#DFD4BF"/>
<path d="M319.989 110.136L319.912 109.916C319.56 109.929 318.934 109.709 318.74 109.392L317.711 110.219L304.136 109.639C301.823 109.542 300.489 109.652 299.898 107.964L299.482 108.109L301.228 113.1L301.668 112.946C300.736 110.279 301.495 110.096 304.145 110.213L306.819 110.321L309.214 117.172L307.449 118.641C304.509 121.069 304.372 120.678 303.739 118.867L303.298 119.021L305.181 124.404L305.621 124.25C305.005 122.488 305.109 122.315 308.568 119.485L319.989 110.136ZM317.136 110.695L309.668 116.821L307.401 110.337L317.136 110.695Z" fill="#DFD4BF"/>
<path d="M308.07 145.408C306.181 144.078 305.57 142.272 305.25 140.724C304.878 138.921 305.181 137.059 307.186 134.977C308.614 138.943 313.065 141.782 317.938 140.775C323.421 139.642 326.523 135.058 325.485 130.032C324.551 125.514 319.789 121.681 314.23 122.829C309.28 123.852 306.304 128.146 306.704 132.774C304.386 135.132 303.935 137.819 304.397 140.053C304.937 142.667 306.522 144.96 307.676 145.675L308.07 145.408ZM314.561 124.428C319.993 123.306 324.046 126.015 324.901 130.152C325.756 134.29 323.04 138.054 317.608 139.176C312.328 140.267 308.312 137.868 307.463 133.756C306.613 129.643 309.281 125.519 314.561 124.428Z" fill="#DFD4BF"/>
<path d="M321.954 145.01C323.166 144.883 324.561 145.862 324.728 147.456C324.917 149.266 324.083 150.444 321.808 150.682L321.845 151.031L325.358 150.596L325.323 150.264C324.52 150.13 325.226 148.848 325.094 147.586C324.851 145.261 323.047 144.056 321.718 144.195C317.617 144.623 319.927 150.828 316.274 151.21C314.58 151.387 313.454 150.413 313.288 148.819C313.055 146.594 314.262 145.293 317 144.822L316.97 144.54L313.689 144.95L313.025 145.019L313.058 145.335C314.246 145.462 312.664 146.383 312.914 148.774C313.141 150.949 314.834 152.216 316.611 152.031C320.547 151.619 318.567 145.363 321.954 145.01Z" fill="#DFD4BF"/>
</svg>
