<svg width="331" height="330" viewBox="0 0 331 330" fill="none" xmlns="http://www.w3.org/2000/svg">
<path d="M328.923 184.733L329.356 177.729L328.879 177.7C328.763 179.577 328.316 180.449 326.551 180.34L320.191 179.947L320.826 169.665L327.186 170.058C328.951 170.167 329.307 170.78 329.174 172.937L329.65 172.966L330.083 165.962L329.607 165.933C329.491 167.81 329.043 168.682 327.278 168.573L312.933 167.686C311.168 167.577 310.831 166.656 310.947 164.779L310.471 164.75L310.038 171.754L310.514 171.783C310.648 169.626 311.076 169.062 312.841 169.171L320.21 169.627L319.574 179.909L312.206 179.453C310.441 179.344 310.104 178.423 310.22 176.546L309.744 176.517L309.311 183.521L309.787 183.551C309.921 181.393 310.349 180.829 312.114 180.938L326.459 181.825C328.224 181.934 328.58 182.547 328.446 184.704L328.923 184.733Z" fill="#DFD4BF"/>
<path d="M318.988 185.141C313.202 184.015 308.09 187.652 307.028 193.108C306.073 198.012 309.41 203.495 315.196 204.621C321.147 205.78 326.162 202.495 327.224 197.04C328.179 192.136 325.022 186.316 318.988 185.141ZM318.65 186.877C324.547 188.025 327.465 192.425 326.59 196.917C325.721 201.38 321.43 204.033 315.534 202.885C309.803 201.77 306.793 197.695 307.662 193.231C308.531 188.768 312.919 185.761 318.65 186.877Z" fill="#DFD4BF"/>
<path d="M315.913 231.897L315.468 231.726C314.291 234.792 312.459 234.239 311.388 233.347L300.279 224.062L316.595 224.402C317.758 224.427 317.65 226.039 316.856 228.11L317.301 228.281L320.128 220.917L319.682 220.746C318.988 222.554 318.339 222.756 317.015 222.759L314.528 222.736L304.22 213.638L320.251 213.387C321.737 213.356 321.865 215.059 321.07 217.129L321.516 217.3L324.342 209.936L323.897 209.765C323.203 211.573 322.564 211.749 321.318 211.782L302.447 212.146L302.216 212.749L313.569 222.729L298.444 222.576L298.213 223.179L310.846 233.741C312.534 235.14 313.547 236.732 312.833 238.592L313.278 238.763L315.913 231.897Z" fill="#DFD4BF"/>
<path d="M302.801 250.553C304.307 251.481 304.332 252.189 303.199 254.029L303.605 254.279L307.285 248.304L306.879 248.054C305.892 249.655 305.087 250.214 303.581 249.286L291.343 241.75C289.837 240.823 289.974 239.852 290.96 238.251L290.554 238L286.874 243.976L287.28 244.226C288.414 242.386 289.057 242.09 290.563 243.017L302.801 250.553Z" fill="#DFD4BF"/>
<path d="M293.339 270.076L293.518 269.65C293.092 269.47 293.209 268.751 294.001 267.696L299.677 260.128C300.468 259.073 301.08 258.725 301.417 259.118L301.776 258.826L298.408 253.773L298.009 254.071C299.946 257.383 300.311 258.253 298.442 260.746C297.347 262.205 296.539 262.722 295.214 261.728L283.694 253.088C282.279 252.027 282.503 251.073 283.632 249.568L283.25 249.282L279.039 254.896L279.421 255.182C280.718 253.453 281.386 253.217 282.801 254.278L294.321 262.918C295.668 263.929 295.36 264.855 294.248 266.337C292.379 268.83 291.424 268.746 287.719 267.792L287.545 268.257L293.339 270.076Z" fill="#DFD4BF"/>
<path d="M265.789 295.665L265.478 295.303C262.985 297.441 261.636 296.084 261.118 294.79L255.756 281.341L269.951 289.394C270.962 289.969 270.101 291.336 268.418 292.78L268.729 293.143L274.715 288.007L274.405 287.644C272.934 288.906 272.268 288.775 271.101 288.148L268.924 286.947L264.178 274.042L278.402 281.441C279.724 282.119 279.028 283.678 277.345 285.122L277.655 285.484L283.642 280.348L283.331 279.986C281.861 281.247 281.216 281.098 280.104 280.536L263.327 271.887L262.837 272.308L268.083 286.484L254.848 279.162L254.358 279.582L260.454 294.879C261.274 296.912 261.409 298.794 259.896 300.091L260.207 300.453L265.789 295.665Z" fill="#DFD4BF"/>
<path d="M252.719 293.105C249.702 288.041 243.583 286.655 238.808 289.499C234.516 292.056 232.652 298.198 235.669 303.262C238.772 308.471 244.564 310.02 249.339 307.176C253.631 304.619 255.865 298.387 252.719 293.105ZM251.2 294.01C254.274 299.171 252.939 304.279 249.008 306.621C245.101 308.948 240.263 307.518 237.189 302.357C234.2 297.341 235.232 292.381 239.139 290.054C243.045 287.726 248.212 288.994 251.2 294.01Z" fill="#DFD4BF"/>
<path d="M226.152 307.528C223.526 309.169 222.234 311.645 223.337 314.226C224.451 316.833 227.31 317.595 231.234 315.918L238.28 312.907L238.093 312.468C236.364 313.207 235.383 313.199 234.655 311.495L229.051 298.383C228.356 296.756 229.017 296.016 230.746 295.277L230.559 294.838L224.106 297.596L224.293 298.035C226.281 297.186 226.977 297.315 227.683 298.967L230.496 305.549L227.734 306.73L216.388 300.895L212.785 302.465L212.962 302.878C215.182 301.929 216.618 302.719 221.647 305.271L226.152 307.528ZM233.287 312.08C234.059 313.886 233.627 314.376 231.821 315.148C227.949 316.803 225.687 315.725 224.727 313.479C223.712 311.104 224.876 308.684 227.922 307.382L230.761 306.169L233.287 312.08Z" fill="#DFD4BF"/>
<path d="M209.117 315.71C208.391 316.987 207.771 318.119 207.187 319.065C204.116 324.306 202.717 325.04 200.714 325.591L200.84 326.051L207.769 324.146L207.643 323.685C204.476 324.556 205.033 323.937 208.372 318.186L211.035 313.582L212.807 320.023C213.276 321.728 212.812 322.263 210.728 322.837L210.855 323.297L217.621 321.436L217.494 320.976C215.681 321.474 214.711 321.334 214.242 319.629L210.43 305.771C209.961 304.066 210.723 303.449 212.536 302.95L212.409 302.49L205.643 304.351L205.77 304.811C207.854 304.238 208.526 304.461 208.995 306.166L210.782 312.661C210.476 313.241 210.189 313.785 209.894 314.303L198.715 306.257L194.743 307.379L194.863 307.812C197.19 307.171 198.593 308.037 203.145 311.356L209.117 315.71Z" fill="#DFD4BF"/>
<path d="M194.969 322.715C195.291 324.739 193.774 327.169 191.113 327.593C188.091 328.074 186.038 326.78 185.433 322.983L184.851 323.075L185.897 328.935L186.452 328.846C186.605 327.486 188.821 328.554 190.928 328.219C194.809 327.601 196.669 324.463 196.316 322.245C195.226 315.398 185.018 319.837 184.047 313.738C183.597 310.911 185.129 308.933 187.791 308.509C191.505 307.918 193.799 309.827 194.836 314.38L195.308 314.305L194.323 308.834L194.146 307.725L193.62 307.809C193.513 309.815 191.824 307.242 187.832 307.877C184.201 308.455 182.227 311.413 182.699 314.379C183.745 320.949 194.069 317.06 194.969 322.715Z" fill="#DFD4BF"/>
<path d="M146.19 328.938L153.197 329.317L153.223 328.84C151.345 328.739 150.469 328.298 150.564 326.532L150.909 320.169L161.195 320.725L160.851 327.088C160.756 328.854 160.146 329.215 157.988 329.098L157.962 329.574L164.969 329.953L164.995 329.477C163.117 329.375 162.241 328.934 162.337 327.168L163.113 312.817C163.208 311.052 164.126 310.708 166.004 310.809L166.03 310.333L159.023 309.954L158.997 310.43C161.155 310.547 161.723 310.971 161.627 312.737L161.229 320.109L150.942 319.553L151.34 312.181C151.436 310.415 152.354 310.071 154.232 310.173L154.258 309.696L147.251 309.317L147.225 309.794C149.383 309.91 149.95 310.335 149.855 312.1L149.079 326.452C148.983 328.217 148.374 328.578 146.215 328.461L146.19 328.938Z" fill="#DFD4BF"/>
<path d="M145.559 318.954C146.663 313.163 143.006 308.065 137.547 307.024C132.639 306.087 127.169 309.445 126.065 315.235C124.929 321.191 128.232 326.193 133.692 327.235C138.6 328.171 144.407 324.992 145.559 318.954ZM143.822 318.622C142.696 324.523 138.307 327.458 133.813 326.601C129.346 325.749 126.676 321.467 127.802 315.567C128.896 309.831 132.959 306.806 137.426 307.658C141.893 308.51 144.916 312.887 143.822 318.622Z" fill="#DFD4BF"/>
<path d="M99.1035 316.202L99.2712 315.755C96.1963 314.601 96.7355 312.765 97.6194 311.687L106.821 300.509L106.604 316.827C106.587 317.99 104.974 317.895 102.898 317.116L102.73 317.563L110.115 320.334L110.283 319.887C108.47 319.206 108.263 318.559 108.25 317.235L108.254 314.748L117.274 304.371L117.645 320.401C117.688 321.886 115.986 322.027 113.91 321.248L113.742 321.694L121.127 324.465L121.295 324.019C119.481 323.338 119.301 322.701 119.258 321.456L118.753 302.588L118.148 302.361L108.254 313.789L108.293 298.663L107.688 298.436L97.222 311.148C95.8352 312.847 94.2515 313.871 92.3855 313.171L92.2179 313.618L99.1035 316.202Z" fill="#DFD4BF"/>
<path d="M80.4695 303.239C79.5533 304.752 78.8455 304.783 76.9968 303.663L76.7495 304.071L82.7519 307.707L82.9991 307.298C81.3905 306.324 80.8258 305.523 81.742 304.01L89.188 291.717C90.1042 290.205 91.0761 290.334 92.6848 291.308L92.932 290.9L86.9297 287.264L86.6825 287.673C88.5312 288.792 88.8318 289.434 87.9156 290.946L80.4695 303.239Z" fill="#DFD4BF"/>
<path d="M60.8507 293.882L61.2787 294.058C61.4552 293.63 62.1747 293.743 63.2359 294.527L70.8449 300.147C71.9061 300.931 72.2586 301.54 71.8681 301.88L72.1627 302.237L77.1906 298.832L76.8901 298.436C73.5921 300.397 72.7246 300.768 70.2183 298.917C68.7507 297.833 68.2283 297.028 69.2123 295.696L77.768 284.113C78.8187 282.69 79.7747 282.908 81.2874 284.025L81.571 283.642L75.9263 279.472L75.6428 279.856C77.3813 281.14 77.622 281.807 76.5713 283.229L68.0156 294.812C67.015 296.167 66.0864 295.865 64.5962 294.764C62.09 292.913 62.1672 291.958 63.0945 288.246L62.6273 288.075L60.8507 293.882Z" fill="#DFD4BF"/>
<path d="M35.1721 266.58L35.532 266.266C33.3755 263.789 34.7229 262.43 36.0129 261.903L49.4224 256.443L41.473 270.696C40.9054 271.712 39.5317 270.86 38.0756 269.188L37.7157 269.501L42.895 275.45L43.2549 275.137C41.9831 273.676 42.1089 273.008 42.7271 271.838L43.9129 269.651L56.7822 264.811L49.4876 279.09C48.8188 280.416 47.2546 279.731 45.7985 278.059L45.4386 278.372L50.618 284.321L50.9779 284.008C49.7061 282.547 49.8503 281.9 50.4049 280.785L58.9312 263.945L58.5073 263.458L44.3692 268.808L51.5953 255.519L51.1714 255.032L35.9195 261.24C33.892 262.074 32.0115 262.223 30.7029 260.72L30.3429 261.033L35.1721 266.58Z" fill="#DFD4BF"/>
<path d="M37.6604 253.505C42.7024 250.451 44.0438 244.321 41.1643 239.568C38.5756 235.294 32.4204 233.476 27.3785 236.53C22.1925 239.671 20.686 245.474 23.5655 250.228C26.1542 254.501 32.4024 256.69 37.6604 253.505ZM36.7442 251.992C31.6062 255.104 26.4883 253.807 24.1177 249.893C21.7618 246.004 23.1567 241.155 28.2947 238.043C33.2886 235.018 38.2561 236.013 40.6121 239.902C42.968 243.792 41.7381 248.967 36.7442 251.992Z" fill="#DFD4BF"/>
<path d="M23.0075 226.95C21.3565 224.331 18.8762 223.047 16.2991 224.16C13.6963 225.284 12.9448 228.146 14.6362 232.063L17.674 239.099L18.1121 238.909C17.3665 237.183 17.3713 236.202 19.0721 235.468L32.1635 229.815C33.7871 229.114 34.5297 229.772 35.2753 231.498L35.7134 231.309L32.9315 224.867L32.4934 225.056C33.3502 227.04 33.2231 227.737 31.5738 228.449L25.0023 231.287L23.8116 228.529L29.6043 217.161L28.0207 213.565L27.6084 213.743C28.5654 215.959 27.7805 217.398 25.2473 222.436L23.0075 226.95ZM18.4823 234.102C16.6784 234.881 16.187 234.451 15.4081 232.647C13.739 228.782 14.8091 226.516 17.0511 225.548C19.422 224.524 21.8467 225.678 23.1598 228.719L24.3838 231.554L18.4823 234.102Z" fill="#DFD4BF"/>
<path d="M14.7815 210.183C13.4992 209.467 12.3631 208.855 11.4121 208.278C6.1482 205.247 5.40337 203.853 4.83729 201.855L4.37816 201.985L6.33649 208.899L6.79562 208.769C5.9006 205.609 6.52397 206.162 12.3001 209.456L16.9248 212.085L10.497 213.906C8.79547 214.387 8.25671 213.927 7.66769 211.848L7.20855 211.978L9.12098 218.73L9.58011 218.6C9.06758 216.79 9.2009 215.819 10.9024 215.337L24.7304 211.42C26.4319 210.938 27.0548 211.695 27.5674 213.505L28.0265 213.375L26.1141 206.623L25.6549 206.753C26.244 208.833 26.0265 209.507 24.325 209.989L17.8431 211.825C17.2616 211.523 16.7147 211.24 16.1948 210.95L24.1557 199.709L23.0042 195.746L22.5721 195.869C23.23 198.192 22.3746 199.601 19.0906 204.178L14.7815 210.183Z" fill="#DFD4BF"/>
<path d="M7.66879 196.104C5.64766 196.442 3.20592 194.943 2.76193 192.285C2.25782 189.267 3.53534 187.204 7.32842 186.57L7.23129 185.989L1.38021 187.08L1.47271 187.634C2.83411 187.776 1.78277 190.001 2.13426 192.105C2.78174 195.981 5.93428 197.817 8.14921 197.447C14.9878 196.305 10.4709 186.131 16.562 185.113C19.386 184.642 21.3755 186.159 21.8195 188.817C22.4392 192.527 20.548 194.835 16.0029 195.907L16.0815 196.378L21.545 195.352L22.6525 195.167L22.5646 194.641C20.5572 194.549 23.1177 192.841 22.4517 188.854C21.8459 185.227 18.8733 183.276 15.9108 183.771C9.34904 184.867 13.3169 195.161 7.66879 196.104Z" fill="#DFD4BF"/>
<path d="M1.11029 147.25L0.758407 154.259L1.235 154.283C1.32931 152.404 1.76684 151.527 3.53305 151.616L9.89699 151.935L9.38042 162.224L3.01648 161.904C1.25027 161.816 0.887338 161.207 0.995719 159.049L0.519124 159.025L0.167236 166.033L0.643832 166.057C0.738138 164.179 1.17567 163.302 2.94188 163.39L17.2958 164.111C19.062 164.2 19.4095 165.116 19.3151 166.995L19.7917 167.019L20.1436 160.01L19.667 159.986C19.5587 162.145 19.1366 162.714 17.3704 162.625L9.99719 162.255L10.5138 151.966L17.887 152.336C19.6532 152.425 20.0006 153.342 19.9063 155.22L20.3829 155.244L20.7348 148.235L20.2582 148.211C20.1498 150.37 19.7278 150.939 17.9616 150.85L3.60765 150.13C1.84144 150.041 1.47851 149.433 1.58689 147.274L1.11029 147.25Z" fill="#DFD4BF"/>
<path d="M11.0157 146.818C16.8144 147.878 21.8845 144.182 22.8841 138.715C23.7827 133.799 20.3835 128.355 14.5848 127.295C8.62047 126.205 3.64355 129.547 2.644 135.014C1.74542 139.929 4.96854 145.712 11.0157 146.818ZM11.3338 145.078C5.42464 143.998 2.45624 139.631 3.2791 135.13C4.09691 130.657 8.35766 127.955 14.2668 129.035C20.0102 130.085 23.0668 134.125 22.249 138.598C21.4312 143.072 17.0772 146.128 11.3338 145.078Z" fill="#DFD4BF"/>
<path d="M13.2629 100.655L13.7109 100.819C14.8416 97.7358 16.682 98.2611 17.7661 99.137L29.0132 108.254L12.6936 108.16C11.5304 108.152 11.6139 106.538 12.3774 104.456L11.9293 104.292L9.21383 111.697L9.66186 111.862C10.3287 110.043 10.9743 109.832 12.2982 109.809L14.7852 109.794L25.2294 118.736L9.20319 119.228C7.71855 119.281 7.56484 117.581 8.32827 115.499L7.88024 115.334L5.16475 122.74L5.61277 122.904C6.27957 121.086 6.91559 120.9 8.16041 120.849L27.0241 120.201L27.2464 119.595L15.7445 109.787L30.8703 109.712L31.0925 109.106L18.3019 98.7355C16.5933 97.3616 15.5567 95.7856 16.2428 93.9144L15.7948 93.7501L13.2629 100.655Z" fill="#DFD4BF"/>
<path d="M26.0889 81.7172C24.5696 80.8122 24.5337 80.1046 25.6399 78.2477L25.2299 78.0035L21.6384 84.0324L22.0484 84.2766C23.0109 82.6609 23.8082 82.0903 25.3275 82.9953L37.6747 90.3508C39.194 91.2558 39.0719 92.2286 38.1093 93.8444L38.5193 94.0886L42.1108 88.0597L41.7009 87.8155C40.5947 89.6724 39.9554 89.9777 38.4361 89.0726L26.0889 81.7172Z" fill="#DFD4BF"/>
<path d="M35.614 61.5864L35.4391 62.0151C35.8677 62.19 35.7577 62.9099 34.9777 63.9739L29.3851 71.6034C28.6052 72.6675 27.9971 73.0222 27.656 72.633L27.2999 72.9288L30.7235 77.9443L31.1188 77.6424C29.1458 74.3515 28.7713 73.4854 30.6134 70.9724C31.6921 69.5008 32.4948 68.9755 33.8305 69.9546L45.4446 78.4679C46.8708 79.5134 46.6567 80.4702 45.5449 81.987L45.9297 82.2692L50.0785 76.6093L49.6937 76.3272C48.4158 78.0704 47.7504 78.3135 46.3241 77.268L34.7101 68.7547C33.3517 67.759 33.6503 66.8294 34.7456 65.3352C36.5876 62.8222 37.5429 62.8959 41.2584 63.8097L41.4273 63.3418L35.614 61.5864Z" fill="#DFD4BF"/>
<path d="M62.8259 35.6753L63.1406 36.034C65.6097 33.8685 66.9738 35.211 67.5061 36.499L73.014 49.8886L58.7323 41.9911C57.715 41.4272 58.561 40.0504 60.2282 38.5882L59.9136 38.2295L53.9834 43.4304L54.2981 43.7892C55.7542 42.5121 56.4224 42.6354 57.5956 43.2493L59.786 44.4272L64.6728 57.2788L50.3681 50.0362C49.0391 49.3722 49.7185 47.8056 51.3857 46.3434L51.0711 45.9846L45.1409 51.1856L45.4556 51.5443C46.9117 50.2672 47.5589 50.4091 48.6765 50.9597L65.5467 59.4246L66.032 58.9989L60.6316 44.8804L73.946 52.0582L74.4314 51.6325L68.1687 36.4032C67.3267 34.3788 67.1714 32.4989 68.6697 31.1847L68.3551 30.826L62.8259 35.6753Z" fill="#DFD4BF"/>
<path d="M75.2839 38.4728C78.3749 43.4921 84.5137 44.7885 89.2462 41.8741C93.5007 39.2541 95.2734 33.0857 92.1823 28.0663C89.003 22.9036 83.1896 21.4398 78.4571 24.3542C74.2026 26.9742 72.0604 33.2383 75.2839 38.4728ZM76.7897 37.5455C73.6398 32.4305 74.8997 27.3032 78.7956 24.9039C82.6677 22.5194 87.5266 23.8787 90.6765 28.9937C93.7381 33.9652 92.7798 38.9399 88.9077 41.3244C85.0356 43.7089 79.8513 42.517 76.7897 37.5455Z" fill="#DFD4BF"/>
<path d="M101.896 23.4771C104.504 21.8066 105.769 19.3167 104.637 16.748C103.493 14.1537 100.626 13.4235 96.7211 15.1441L89.7086 18.2343L89.9011 18.671C91.6221 17.9126 92.6025 17.91 93.3496 19.6053L99.0999 32.6542C99.813 34.2725 99.1609 35.02 97.4398 35.7784L97.6323 36.2151L104.054 33.3852L103.862 32.9485C101.884 33.8201 101.186 33.6982 100.461 32.0543L97.5749 25.5041L100.323 24.293L111.734 30.0007L115.319 28.3903L115.138 27.9793C112.929 28.9528 111.484 28.1787 106.427 25.6831L101.896 23.4771ZM94.711 19.0054C93.9187 17.2073 94.3449 16.7127 96.143 15.9204C99.996 14.2224 102.27 15.2756 103.255 17.5104C104.296 19.8736 103.16 22.3068 100.129 23.6425L97.3032 24.8877L94.711 19.0054Z" fill="#DFD4BF"/>
<path d="M118.268 15.186C118.975 13.8983 119.578 12.7576 120.147 11.8022C123.138 6.51553 124.526 5.76017 126.521 5.17897L126.387 4.72084L119.488 6.73147L119.622 7.18961C122.775 6.27068 122.227 6.89822 118.976 12.6991L116.382 17.3436L114.513 10.9298C114.018 9.23195 114.474 8.68973 116.549 8.08497L116.416 7.62683L109.679 9.59034L109.812 10.0485C111.618 9.52226 112.59 9.64822 113.085 11.346L117.106 25.144C117.601 26.8418 116.849 27.4704 115.043 27.9966L115.176 28.4547L121.914 26.4912L121.78 26.0331C119.705 26.6379 119.029 26.4255 118.534 24.7277L116.65 18.2599C116.947 17.6761 117.226 17.1271 117.512 16.6051L128.813 24.4806L132.766 23.2991L132.641 22.8679C130.323 23.5434 128.907 22.6987 124.306 19.4495L118.268 15.186Z" fill="#DFD4BF"/>
<path d="M132.296 7.90108C131.943 5.88259 133.423 3.42944 136.077 2.96511C139.091 2.43791 141.164 3.69959 141.827 7.48771L142.408 7.38614L141.272 1.54358L140.719 1.64032C140.586 3.00277 138.354 1.96849 136.252 2.33609C132.381 3.01323 130.57 6.17973 130.957 8.39177C132.152 15.2214 142.291 10.6267 143.355 16.7098C143.848 19.5302 142.346 21.5312 139.691 21.9956C135.986 22.6437 133.664 20.7702 132.557 16.2335L132.087 16.3157L133.155 21.7711L133.348 22.8771L133.874 22.7852C133.95 20.7772 135.678 23.3246 139.659 22.6281C143.282 21.9944 145.21 19.007 144.692 16.0484C143.546 9.49523 133.283 13.5418 132.296 7.90108Z" fill="#DFD4BF"/>
<path d="M181.231 0.858684L174.22 0.560872L174.2 1.03764C176.079 1.11745 176.959 1.5482 176.884 3.31504L176.614 9.68126L166.321 9.24407L166.592 2.87785C166.667 1.11101 167.272 0.743399 169.432 0.835125L169.452 0.358359L162.441 0.0605469L162.421 0.537313C164.3 0.617127 165.18 1.04788 165.105 2.81471L164.495 17.1738C164.42 18.9406 163.506 19.2951 161.627 19.2153L161.607 19.6921L168.618 19.9899L168.639 19.5131C166.479 19.4214 165.907 19.0037 165.982 17.2369L166.295 9.86106L176.588 10.2983L176.274 17.6741C176.199 19.4409 175.285 19.7954 173.406 19.7156L173.386 20.1924L180.397 20.4902L180.417 20.0134C178.258 19.9217 177.686 19.5041 177.761 17.7372L178.371 3.37818C178.446 1.61134 179.051 1.24372 181.211 1.33545L181.231 0.858684Z" fill="#DFD4BF"/>
<path d="M181.676 10.6955C180.66 16.5021 184.395 21.5438 189.87 22.5015C194.791 23.3624 200.209 19.9217 201.225 14.1151C202.27 8.14256 198.89 3.19136 193.415 2.23368C188.493 1.37273 182.735 4.64001 181.676 10.6955ZM183.418 11.0002C184.453 5.08298 188.797 2.08124 193.304 2.86964C197.783 3.65319 200.518 7.89314 199.483 13.8103C198.477 19.5616 194.46 22.6491 189.981 21.8655C185.502 21.082 182.412 16.7515 183.418 11.0002Z" fill="#DFD4BF"/>
<path d="M228.951 12.9298L228.788 13.3785C231.876 14.4975 231.357 16.3399 230.485 17.4272L221.411 28.7085L221.444 12.3887C221.447 11.2255 223.061 11.3029 225.146 12.0585L225.309 11.6099L217.893 8.92224L217.73 9.37088C219.551 10.0308 219.765 10.6757 219.793 11.9995L219.817 14.4864L210.915 24.9641L210.363 8.93989C210.303 7.45546 212.004 7.29536 214.088 8.05097L214.251 7.60233L206.835 4.91467L206.673 5.36331C208.494 6.02327 208.681 6.65859 208.738 7.9032L209.456 26.7644L210.063 26.9843L219.828 15.4457L219.959 30.5711L220.566 30.7911L230.889 17.9616C232.256 16.2478 233.829 15.2053 235.702 15.8844L235.865 15.4357L228.951 12.9298Z" fill="#DFD4BF"/>
<path d="M247.16 25.2315C248.054 23.7056 248.762 23.6644 250.627 24.7569L250.868 24.3452L244.813 20.7981L244.571 21.2099C246.194 22.1605 246.771 22.9536 245.877 24.4795L238.612 36.8805C237.719 38.4064 236.745 38.2914 235.122 37.3408L234.881 37.7526L240.936 41.2996L241.177 40.8879C239.312 39.7954 239.002 39.1583 239.896 37.6324L247.16 25.2315Z" fill="#DFD4BF"/>
<path d="M267.484 34.6644L267.054 34.4926C266.882 34.9225 266.161 34.8177 265.092 34.0456L257.422 28.5089C256.352 27.7367 255.993 27.1312 256.379 26.7873L256.081 26.4333L251.091 29.8935L251.395 30.2866C254.672 28.2896 255.535 27.9088 258.062 29.7325C259.541 30.8004 260.072 31.5993 259.103 32.9421L250.675 44.618C249.64 46.0519 248.681 45.8448 247.156 44.744L246.877 45.1309L252.567 49.2383L252.846 48.8514C251.094 47.5863 250.846 46.9226 251.881 45.4888L260.309 33.8128C261.295 32.4472 262.227 32.739 263.729 33.8234C266.255 35.647 266.188 36.6028 265.302 40.3249L265.771 40.4904L267.484 34.6644Z" fill="#DFD4BF"/>
<path d="M293.652 61.7033L293.295 62.0205C295.479 64.4738 294.146 65.8477 292.862 66.3893L279.513 71.9944L287.306 57.6557C287.863 56.6343 289.246 57.4703 290.72 59.1268L291.076 58.8096L285.832 52.9174L285.476 53.2347C286.764 54.6815 286.645 55.3506 286.04 56.5282L284.878 58.7271L272.062 63.7072L279.2 49.3502C279.855 48.0164 281.426 48.6845 282.901 50.341L283.257 50.0237L278.013 44.1315L277.657 44.4488C278.944 45.8956 278.807 46.5438 278.265 47.6654L269.923 64.5967L270.352 65.0789L284.431 59.5759L277.35 72.9422L277.779 73.4245L292.962 67.0513C294.981 66.1945 296.859 66.0255 298.184 67.5143L298.541 67.197L293.652 61.7033Z" fill="#DFD4BF"/>
<path d="M291.528 75.014C286.52 78.1235 285.246 84.267 288.178 88.9888C290.813 93.2336 296.988 94.9836 301.996 91.8741C307.147 88.6759 308.589 82.8571 305.658 78.1353C303.022 73.8905 296.75 71.7713 291.528 75.014ZM292.46 76.5164C297.564 73.3477 302.696 74.5888 305.109 78.4759C307.508 82.3392 306.167 87.2031 301.063 90.3717C296.103 93.4516 291.125 92.5115 288.726 88.6482C286.327 84.785 287.5 79.5962 292.46 76.5164Z" fill="#DFD4BF"/>
<path d="M306.221 100.8C307.911 103.395 310.411 104.641 312.971 103.49C315.556 102.328 316.265 99.4545 314.516 95.5631L311.373 88.5738L310.938 88.7695C311.709 90.4848 311.719 91.4652 310.029 92.2249L297.024 98.0723C295.411 98.7975 294.658 98.1509 293.887 96.4355L293.452 96.6312L296.33 103.032L296.765 102.836C295.879 100.865 295.995 100.166 297.634 99.4292L304.162 96.494L305.394 99.2334L299.771 110.687L301.408 114.259L301.818 114.075C300.828 111.873 301.591 110.422 304.049 105.347L306.221 100.8ZM310.639 93.5818C312.432 92.7761 312.929 93.1986 313.735 94.9907C315.462 98.831 314.425 101.113 312.198 102.114C309.843 103.173 307.401 102.055 306.043 99.0339L304.777 96.2177L310.639 93.5818Z" fill="#DFD4BF"/>
<path d="M314.915 118.048C316.206 118.75 317.349 119.349 318.306 119.915C323.604 122.886 324.365 124.271 324.954 126.263L325.411 126.128L323.374 119.236L322.917 119.371C323.848 122.521 323.218 121.975 317.405 118.747L312.751 116.171L319.157 114.277C320.853 113.776 321.397 114.23 322.01 116.303L322.467 116.167L320.478 109.438L320.021 109.573C320.554 111.376 320.432 112.349 318.736 112.851L304.953 116.924C303.257 117.425 302.626 116.675 302.093 114.872L301.635 115.007L303.624 121.737L304.082 121.601C303.469 119.529 303.679 118.852 305.375 118.351L311.835 116.441C312.42 116.737 312.97 117.013 313.493 117.298L305.661 128.628L306.857 132.577L307.288 132.45C306.604 130.135 307.443 128.716 310.675 124.102L314.915 118.048Z" fill="#DFD4BF"/>
<path d="M322.205 132.068C324.222 131.707 326.681 133.178 327.155 135.83C327.694 138.842 326.44 140.92 322.655 141.597L322.758 142.177L328.597 141.019L328.498 140.466C327.135 140.339 328.161 138.103 327.785 136.003C327.093 132.134 323.919 130.335 321.709 130.731C314.884 131.951 319.517 142.073 313.438 143.16C310.62 143.664 308.613 142.17 308.139 139.517C307.476 135.814 309.341 133.485 313.873 132.36L313.789 131.891L308.338 132.98L307.233 133.177L307.327 133.702C309.335 133.771 306.794 135.509 307.506 139.488C308.154 143.107 311.148 145.024 314.105 144.495C320.654 143.324 316.568 133.076 322.205 132.068Z" fill="#DFD4BF"/>
</svg>
