<svg width="330" height="330" viewBox="0 0 330 330" fill="none" xmlns="http://www.w3.org/2000/svg">
<path d="M329.085 178.945L328.637 178.915C328.525 180.627 327.904 181.618 325.192 181.44L313.077 180.644L329.688 169.753L329.912 166.356L329.464 166.327C329.348 168.091 328.917 169.015 327.232 168.904L313.8 168.022C312.115 167.912 311.808 166.939 311.924 165.175L311.477 165.145L311.084 171.124L311.532 171.153C311.668 169.072 312.077 168.491 313.762 168.602L327.511 169.478L310.46 180.631L310.428 181.105L325.15 182.072C327.81 182.246 328.329 183.603 328.213 185.367L328.661 185.397L329.085 178.945Z" fill="#DFD4BF"/>
<path d="M319.204 186.278C313.768 185.198 308.948 188.599 307.93 193.725C307.015 198.332 310.132 203.499 315.568 204.579C321.16 205.69 325.887 202.62 326.905 197.494C327.82 192.887 324.873 187.404 319.204 186.278ZM318.88 187.908C324.42 189.009 327.148 193.157 326.309 197.376C325.476 201.57 321.432 204.049 315.892 202.948C310.508 201.879 307.692 198.037 308.525 193.843C309.359 189.649 313.496 186.839 318.88 187.908Z" fill="#DFD4BF"/>
<path d="M319.931 220.818L319.507 220.673C318.509 223.596 317.066 223.494 316.071 222.652L305.112 213.251L320.575 212.477C321.828 212.402 321.783 214.004 321.109 215.978L321.534 216.122L323.929 209.104L323.505 208.959C322.917 210.682 322.331 210.845 320.912 210.918L303.444 211.929L303.248 212.503L315.567 223.066C317.093 224.395 317.879 225.444 317.273 227.218L317.698 227.362L319.931 220.818Z" fill="#DFD4BF"/>
<path d="M297.96 236.543C295.174 233.386 295.201 232.843 297.673 227.706C298.52 225.946 298.952 225.597 300.45 226.318L306.633 229.294L304.928 232.837C304.424 233.884 303.586 233.861 301.874 233.037L301.69 233.417L306.97 235.958L307.153 235.578C305.56 234.811 304.877 234.16 305.415 233.043L307.109 229.523L312.65 232.19C314.124 232.899 314.042 233.68 313.298 235.225C311.398 239.173 310.99 239.533 306.785 239.325L306.709 239.787L312.587 240.536L312.675 240.11C311.608 239.772 311.932 239.342 312.504 238.153L316.487 229.877L316.059 229.671C315.315 231.217 314.731 231.639 313.257 230.929L301.057 225.058C299.558 224.337 299.501 223.665 300.268 222.071L299.84 221.865L295.273 231.354C294.712 232.519 294.602 233.052 293.672 232.429L293.394 232.764L297.647 236.89L297.96 236.543Z" fill="#DFD4BF"/>
<path d="M289.745 249.979C287.3 246.551 287.405 246.027 290.395 241.173C291.419 239.51 291.884 239.208 293.3 240.079L304.806 247.165C306.222 248.037 306.245 248.703 305.18 250.433L305.562 250.668L309.022 245.05L308.64 244.815C307.712 246.321 306.955 246.846 305.539 245.974L294.033 238.888C292.617 238.016 292.63 237.342 293.557 235.837L293.152 235.587L287.63 244.554C286.952 245.655 286.788 246.174 285.927 245.458L285.616 245.762L289.397 250.292L289.745 249.979Z" fill="#DFD4BF"/>
<path d="M295.417 258.732C296.949 259.9 297.495 262.538 295.96 264.553C294.217 266.842 291.981 267.296 289.104 265.105L288.769 265.546L293.284 268.852L293.604 268.432C292.825 267.407 295.026 266.695 296.241 265.099C298.48 262.159 297.707 258.818 296.027 257.539C290.841 253.589 286.78 263.235 282.16 259.718C280.018 258.087 279.777 255.747 281.312 253.731C283.454 250.917 286.253 250.727 289.915 253.15L290.187 252.793L285.965 249.711L285.125 249.071L284.821 249.47C286.051 250.905 283.232 250.251 280.93 253.274C278.835 256.025 279.413 259.318 281.66 261.029C286.636 264.818 291.133 255.471 295.417 258.732Z" fill="#DFD4BF"/>
<path d="M270.959 290.938L270.663 290.6C269.373 291.731 268.234 291.993 266.441 289.95L258.436 280.822L277.884 284.864L280.443 282.619L280.147 282.282C278.818 283.448 277.86 283.797 276.746 282.527L267.871 272.407C266.757 271.137 267.228 270.233 268.557 269.067L268.262 268.73L263.757 272.68L264.053 273.017C265.621 271.643 266.321 271.52 267.435 272.79L276.538 283.13L256.594 278.962L256.237 279.275L265.965 290.367C267.723 292.371 267.131 293.698 265.801 294.864L266.097 295.201L270.959 290.938Z" fill="#DFD4BF"/>
<path d="M258.592 289.222C255.514 284.612 249.702 283.606 245.356 286.508C241.448 289.116 239.996 294.973 243.073 299.583C246.238 304.324 251.751 305.499 256.097 302.597C260.004 299.989 261.801 294.029 258.592 289.222ZM257.209 290.145C260.345 294.843 259.338 299.704 255.76 302.092C252.204 304.466 247.592 303.357 244.456 298.659C241.408 294.094 242.137 289.387 245.693 287.013C249.248 284.639 254.161 285.58 257.209 290.145Z" fill="#DFD4BF"/>
<path d="M234.62 314.123L234.422 313.72C231.65 315.08 230.702 313.986 230.594 312.687L229.5 298.29L240.976 308.683C241.914 309.516 240.749 310.617 238.877 311.535L239.074 311.938L245.733 308.672L245.535 308.269C243.9 309.071 243.371 308.772 242.316 307.82L229.257 296.176L228.712 296.443L229.945 312.623C230.083 314.643 229.896 315.94 228.214 316.765L228.411 317.168L234.62 314.123Z" fill="#DFD4BF"/>
<path d="M207.928 309.642C208.207 305.441 208.612 305.077 214 303.216C215.846 302.578 216.398 302.639 216.941 304.21L219.182 310.696L215.465 311.98C214.367 312.36 213.793 311.748 213.173 309.952L212.773 310.09L214.687 315.628L215.086 315.49C214.508 313.819 214.49 312.876 215.662 312.471L219.354 311.195L221.362 317.007C221.897 318.554 221.284 319.045 219.663 319.605C215.522 321.036 214.979 321 212.165 317.867L211.784 318.138L215.391 322.84L215.756 322.602C215.244 321.606 215.778 321.534 217.025 321.103L225.706 318.103L225.551 317.654C223.929 318.215 223.219 318.097 222.684 316.551L218.263 303.754C217.72 302.182 218.157 301.668 219.828 301.091L219.673 300.642L209.72 304.08C208.497 304.503 208.042 304.8 207.829 303.7L207.396 303.739L207.46 309.664L207.928 309.642Z" fill="#DFD4BF"/>
<path d="M192.661 313.284C193.368 309.133 193.814 308.838 199.364 307.536C201.266 307.09 201.808 307.207 202.188 308.826L205.274 321.981C205.654 323.6 205.199 324.086 203.22 324.551L203.323 324.987L209.746 323.48L209.644 323.044C207.922 323.448 207.016 323.281 206.636 321.662L203.55 308.506C203.17 306.888 203.657 306.421 205.378 306.017L205.27 305.554L195.018 307.96C193.759 308.255 193.275 308.504 193.176 307.389L192.741 307.382L192.194 313.258L192.661 313.284Z" fill="#DFD4BF"/>
<path d="M190.646 323.434C190.905 325.344 189.426 327.595 186.916 327.936C184.065 328.322 182.163 327.062 181.677 323.479L181.127 323.554L181.984 329.084L182.507 329.013C182.681 327.738 184.741 328.79 186.729 328.52C190.39 328.024 192.206 325.114 191.922 323.022C191.046 316.562 181.354 320.513 180.574 314.76C180.212 312.092 181.695 310.266 184.206 309.926C187.71 309.45 189.825 311.294 190.702 315.596L191.146 315.536L190.339 310.372L190.197 309.326L189.7 309.393C189.556 311.277 188.025 308.822 184.259 309.333C180.833 309.797 178.913 312.535 179.293 315.333C180.134 321.531 189.922 318.099 190.646 323.434Z" fill="#DFD4BF"/>
<path d="M149.84 328.775L149.872 328.327C148.162 328.201 147.176 327.573 147.375 324.862L148.264 312.754L159.026 329.449L162.421 329.698L162.454 329.251C160.691 329.121 159.77 328.683 159.894 326.999L160.879 313.575C161.003 311.89 161.978 311.591 163.741 311.721L163.774 311.273L157.799 310.835L157.766 311.282C159.846 311.435 160.424 311.848 160.3 313.532L159.318 327.274L148.297 310.137L147.823 310.102L146.743 324.816C146.548 327.474 145.187 327.983 143.424 327.854L143.391 328.301L149.84 328.775Z" fill="#DFD4BF"/>
<path d="M142.418 318.803C143.539 313.375 140.175 308.53 135.057 307.472C130.456 306.522 125.266 309.6 124.145 315.027C122.991 320.61 126.025 325.36 131.143 326.418C135.743 327.368 141.248 324.463 142.418 318.803ZM140.79 318.466C139.647 323.998 135.478 326.694 131.265 325.823C127.078 324.958 124.63 320.895 125.773 315.364C126.884 309.988 130.747 307.202 134.934 308.067C139.121 308.932 141.9 313.09 140.79 318.466Z" fill="#DFD4BF"/>
<path d="M107.905 319.251L108.053 318.828C105.138 317.809 105.251 316.366 106.1 315.377L115.584 304.49L116.241 319.958C116.306 321.211 114.705 321.154 112.737 320.466L112.588 320.889L119.589 323.338L119.737 322.914C118.018 322.313 117.86 321.726 117.797 320.306L116.918 302.832L116.345 302.631L105.69 314.87C104.349 316.386 103.295 317.164 101.526 316.545L101.378 316.969L107.905 319.251Z" fill="#DFD4BF"/>
<path d="M92.391 297.161C95.5685 294.399 96.1117 294.43 101.23 296.94C102.984 297.8 103.329 298.234 102.597 299.727L99.5753 305.888L96.0447 304.156C95.002 303.645 95.031 302.807 95.8678 301.101L95.4887 300.915L92.9086 306.175L93.2878 306.361C94.0664 304.774 94.7222 304.096 95.8359 304.642L99.3429 306.362L96.635 311.883C95.9145 313.352 95.1348 313.264 93.5946 312.508C89.6611 310.579 89.3038 310.169 89.5431 305.965L89.0821 305.886L88.2891 311.758L88.7147 311.849C89.0607 310.784 89.4881 311.112 90.6729 311.693L98.919 315.737L99.1282 315.311C97.588 314.555 97.1704 313.968 97.8909 312.499L103.853 300.343C104.585 298.85 105.257 298.798 106.845 299.577L107.054 299.15L97.5996 294.513C96.4385 293.944 95.9065 293.83 96.5368 292.904L96.2041 292.623L92.0463 296.845L92.391 297.161Z" fill="#DFD4BF"/>
<path d="M79.0858 288.873C82.5314 286.452 83.0545 286.562 87.8865 289.587C89.5419 290.623 89.8409 291.09 88.9587 292.5L81.7886 303.953C80.9064 305.363 80.2405 305.382 78.518 304.304L78.2799 304.684L83.8726 308.185L84.1106 307.805C82.6118 306.866 82.092 306.105 82.9743 304.696L90.1443 293.242C91.0266 291.833 91.7008 291.85 93.1996 292.788L93.4517 292.385L84.5258 286.798C83.4297 286.112 82.9122 285.943 83.6346 285.088L83.3327 284.774L78.7755 288.523L79.0858 288.873Z" fill="#DFD4BF"/>
<path d="M70.4029 294.557C69.2246 296.081 66.5827 296.607 64.5781 295.058C62.3021 293.298 61.865 291.059 64.0764 288.198L63.6379 287.859L60.2994 292.35L60.717 292.673C61.7471 291.902 62.4434 294.108 64.0303 295.335C66.9536 297.594 70.3009 296.846 71.5922 295.176C75.5792 290.018 65.963 285.887 69.5142 281.293C71.1606 279.163 73.5025 278.939 75.507 280.488C78.305 282.651 78.4753 285.452 76.0255 289.096L76.3805 289.37L79.493 285.171L80.1387 284.336L79.7419 284.029C78.2988 285.249 78.9734 282.434 75.9665 280.11C73.2312 277.995 69.9343 278.549 68.2071 280.783C64.3816 285.732 73.6958 290.297 70.4029 294.557Z" fill="#DFD4BF"/>
<path d="M38.4168 269.926L38.7563 269.632C37.6345 268.335 37.3808 267.193 39.4376 265.416L48.623 257.477L44.4397 276.895L46.6659 279.471L47.0054 279.177C45.8491 277.839 45.5074 276.879 46.7854 275.774L56.9692 266.973C58.2472 265.869 59.148 266.346 60.3042 267.684L60.6437 267.39L56.7262 262.858L56.3868 263.151C57.7501 264.728 57.8675 265.429 56.5895 266.534L46.1833 275.562L50.4963 255.649L50.1857 255.29L39.0234 264.937C37.0066 266.68 35.6844 266.078 34.5282 264.74L34.1887 265.034L38.4168 269.926Z" fill="#DFD4BF"/>
<path d="M40.2627 257.662C44.8946 254.619 45.9435 248.814 43.0739 244.446C40.4942 240.52 34.6481 239.024 30.0161 242.068C25.2518 245.198 24.0366 250.702 26.9062 255.07C29.486 258.996 35.4322 260.836 40.2627 257.662ZM39.3496 256.273C34.6294 259.374 29.7759 258.332 27.4135 254.736C25.0657 251.163 26.209 246.559 30.9292 243.458C35.517 240.443 40.2187 241.206 42.5666 244.78C44.9145 248.353 43.9375 253.258 39.3496 256.273Z" fill="#DFD4BF"/>
<path d="M15.5408 233.578L15.945 233.383C14.6059 230.601 15.7061 229.661 17.0061 229.563L31.4104 228.576L20.9332 239.975C20.0929 240.906 19.001 239.733 18.0968 237.854L17.6925 238.049L20.9087 244.731L21.313 244.537C20.5232 242.896 20.8263 242.369 21.7864 241.321L33.5269 228.349L33.2636 227.802L17.0749 228.915C15.0545 229.038 13.759 228.841 12.9463 227.153L12.542 227.347L15.5408 233.578Z" fill="#DFD4BF"/>
<path d="M20.2042 207.058C24.4044 207.353 24.7662 207.76 26.6075 213.155C27.2383 215.003 27.1755 215.554 25.6019 216.091L19.1077 218.308L17.8375 214.586C17.4625 213.487 18.076 212.915 19.8744 212.301L19.738 211.902L14.1929 213.794L14.3293 214.194C16.0028 213.623 16.9458 213.608 17.3465 214.782L18.6081 218.478L12.7883 220.465C11.2397 220.993 10.7513 220.379 10.1972 218.755C8.78208 214.609 8.81993 214.066 11.9631 211.265L11.6933 210.883L6.97832 214.472L7.21463 214.837C8.21254 214.329 8.28312 214.863 8.70935 216.112L11.6759 224.804L12.1255 224.651C11.5714 223.027 11.6915 222.317 13.2401 221.788L26.0537 217.415C27.6273 216.878 28.1395 217.317 28.7107 218.99L29.1603 218.837L25.759 208.871C25.3413 207.647 25.0459 207.19 26.1461 206.982L26.1096 206.548L20.1841 206.59L20.2042 207.058Z" fill="#DFD4BF"/>
<path d="M16.6161 191.579C20.7614 192.318 21.0524 192.766 22.3122 198.326C22.7437 200.231 22.6229 200.772 21.0013 201.14L7.82249 204.126C6.20088 204.493 5.71805 204.034 5.26897 202.052L4.83139 202.151L6.28944 208.586L6.72701 208.487C6.33626 206.763 6.50999 205.857 8.1316 205.49L21.3104 202.504C22.932 202.136 23.3949 202.627 23.7857 204.351L24.249 204.246L21.922 193.976C21.6362 192.715 21.3908 192.229 22.5069 192.139L22.5166 191.704L16.6456 191.113L16.6161 191.579Z" fill="#DFD4BF"/>
<path d="M6.48356 189.696C4.57248 189.941 2.33243 188.444 2.01112 185.931C1.6463 183.078 2.92096 181.185 6.50752 180.727L6.43723 180.177L0.900626 180.991L0.967565 181.515C2.2415 181.698 1.17352 183.75 1.42789 185.74C1.89646 189.405 4.79218 191.243 6.88652 190.975C13.3528 190.148 9.47581 180.427 15.2352 179.691C17.9055 179.349 19.72 180.847 20.0413 183.36C20.4898 186.868 18.6297 188.968 14.3208 189.812L14.3777 190.257L19.5478 189.49L20.595 189.356L20.5314 188.858C18.6486 188.7 21.1159 187.187 20.634 183.417C20.1955 179.988 17.473 178.048 14.6719 178.406C8.46738 179.199 11.8241 189.014 6.48356 189.696Z" fill="#DFD4BF"/>
<path d="M1.33116 149.042L1.7785 149.077C1.91071 147.366 2.54263 146.383 5.25295 146.592L17.3573 147.528L0.621279 158.226L0.358887 161.62L0.806222 161.655C0.942503 159.892 1.38412 158.973 3.0682 159.103L16.4882 160.14C18.1723 160.271 18.4675 161.246 18.3312 163.009L18.7785 163.044L19.2403 157.071L18.7929 157.036C18.6323 159.115 18.2171 159.692 16.533 159.562L2.79515 158.526L19.9746 147.571L20.0112 147.098L5.30177 145.961C2.64407 145.755 2.14056 144.393 2.27684 142.63L1.8295 142.595L1.33116 149.042Z" fill="#DFD4BF"/>
<path d="M11.3587 141.344C16.7777 142.507 21.6487 139.179 22.7452 134.07C23.7308 129.477 20.6927 124.263 15.2737 123.1C9.69983 121.904 4.92661 124.902 3.8302 130.011C2.84454 134.604 5.70746 140.132 11.3587 141.344ZM11.7076 139.719C6.18534 138.534 3.52111 134.345 4.42372 130.139C5.32078 125.958 9.40259 123.541 14.9248 124.726C20.2922 125.878 23.0487 129.762 22.1516 133.943C21.2546 138.123 17.075 140.87 11.7076 139.719Z" fill="#DFD4BF"/>
<path d="M11.0885 106.947L11.5109 107.099C12.5521 104.192 13.9936 104.315 14.9763 105.172L25.7918 114.737L10.3192 115.278C9.06576 115.334 9.1347 113.733 9.83776 111.77L9.41537 111.619L6.9146 118.6L7.33699 118.752C7.95106 117.037 8.53884 116.883 9.95916 116.831L27.4398 116.084L27.6445 115.513L15.4862 104.766C13.9802 103.414 13.2107 102.353 13.8425 100.589L13.4202 100.438L11.0885 106.947Z" fill="#DFD4BF"/>
<path d="M33.1906 91.6937C35.9297 94.8917 35.8944 95.4346 33.3462 100.534C32.4733 102.281 32.0366 102.624 30.5493 101.88L24.411 98.8131L26.1687 95.2954C26.6878 94.2566 27.5258 94.2918 29.2257 95.1412L29.4144 94.7634L24.1732 92.1445L23.9845 92.5222C25.5663 93.3126 26.2392 93.9734 25.6848 95.083L23.9388 98.5771L18.4379 95.8284C16.9741 95.097 17.0684 94.318 17.8352 92.7834C19.7935 88.8643 20.2065 88.5101 24.4085 88.7805L24.491 88.3202L18.6247 87.4837L18.5304 87.9086C19.5927 88.2624 19.2623 88.6874 18.6725 89.8678L14.5671 98.0837L14.992 98.2961C15.7589 96.7615 16.3489 96.3483 17.8126 97.0797L29.924 103.132C31.4114 103.875 31.4588 104.548 30.6683 106.129L31.0933 106.342L35.8004 96.9218C36.3784 95.765 36.4963 95.2338 37.4171 95.8709L37.7003 95.5404L33.5092 91.3514L33.1906 91.6937Z" fill="#DFD4BF"/>
<path d="M41.5157 78.4447C43.9105 81.908 43.7972 82.4302 40.737 87.2399C39.6885 88.8877 39.2189 89.1833 37.8161 88.2907L26.4153 81.0367C25.0125 80.1442 24.9983 79.4782 26.0892 77.7636L25.7107 77.5228L22.1687 83.0896L22.5473 83.3304C23.4965 81.8385 24.2616 81.3243 25.6644 82.2169L37.0652 89.4708C38.468 90.3634 38.4458 91.0375 37.4966 92.5294L37.8974 92.7844L43.5504 83.8998C44.2446 82.8087 44.4166 82.2925 45.2668 83.0212L45.5826 82.7216L41.8679 78.137L41.5157 78.4447Z" fill="#DFD4BF"/>
<path d="M35.5881 70.0538C34.0681 68.8699 33.5514 66.2261 35.1083 64.2272C36.876 61.9577 39.117 61.5287 41.9696 63.7505L42.3101 63.3132L37.8311 59.9584L37.5067 60.3748C38.2745 61.4077 36.0658 62.096 34.8332 63.6784C32.5628 66.5935 33.2989 69.9434 34.9646 71.2408C40.1075 75.2466 44.2738 65.6455 48.8545 69.2134C50.9783 70.8676 51.1943 73.2103 49.6374 75.2092C47.4643 77.9993 44.6633 78.1594 41.0285 75.6963L40.7528 76.0503L44.9404 79.1781L45.7732 79.8268L46.0814 79.4312C44.8671 77.9836 47.6791 78.6684 50.0144 75.6701C52.1389 72.9424 51.5972 69.6435 49.3693 67.9082C44.4346 64.0647 39.8357 73.3622 35.5881 70.0538Z" fill="#DFD4BF"/>
<path d="M60.6809 37.769L60.9718 38.1106C62.2779 36.9983 63.4209 36.7529 65.1834 38.8225L73.0548 48.0655L53.6683 43.741L51.0763 45.9484L51.3672 46.29C52.7134 45.1435 53.6764 44.8088 54.7715 46.0948L63.4985 56.3424C64.5937 57.6283 64.1099 58.5257 62.7636 59.6722L63.0545 60.0137L67.6157 56.1294L67.3248 55.7878C65.7374 57.1396 65.0357 57.2519 63.9406 55.9659L54.9881 45.4943L74.8694 49.952L75.2311 49.644L65.6656 38.4119C63.9373 36.3824 64.5484 35.0647 65.8947 33.9182L65.6038 33.5766L60.6809 37.769Z" fill="#DFD4BF"/>
<path d="M72.8526 39.6788C75.8621 44.333 81.6594 45.4244 86.0476 42.5869C89.9925 40.036 91.5311 34.2011 88.5216 29.5469C85.4261 24.7598 79.9313 23.5042 75.5431 26.3417C71.5981 28.8926 69.7142 34.8252 72.8526 39.6788ZM74.2489 38.776C71.1821 34.0332 72.2602 29.1874 75.8727 26.8515C79.463 24.5299 84.0585 25.707 87.1253 30.4498C90.1062 35.0596 89.3083 39.7556 85.718 42.0772C82.1276 44.3988 77.2297 43.3858 74.2489 38.776Z" fill="#DFD4BF"/>
<path d="M97.1934 15.0202L97.3849 15.4259C100.177 14.1075 101.109 15.2146 101.197 16.5153L102.077 30.9266L90.7568 20.365C89.8314 19.5177 91.0128 18.4345 92.8981 17.5443L92.7066 17.1386L86.0003 20.305L86.1919 20.7108C87.8386 19.9332 88.363 20.2402 89.4037 21.2081L102.289 33.0446L102.838 32.7854L101.845 16.5889C101.737 14.5676 101.943 13.2736 103.638 12.4736L103.446 12.0678L97.1934 15.0202Z" fill="#DFD4BF"/>
<path d="M123.633 19.8416C123.306 24.0395 122.897 24.3982 117.488 26.1988C115.635 26.8157 115.084 26.7487 114.559 25.1711L112.392 18.6604L116.123 17.4183C117.225 17.0515 117.792 17.6693 118.392 19.4723L118.793 19.3389L116.942 13.7798L116.542 13.9132C117.1 15.5909 117.108 16.534 115.931 16.9258L112.225 18.1596L110.283 12.325C109.766 10.7724 110.384 10.2886 112.011 9.74674C116.168 8.36294 116.711 8.40489 119.489 11.5691L119.873 11.3022L116.319 6.56027L115.952 6.79382C116.452 7.79553 115.918 7.86209 114.666 8.27889L105.952 11.1799L106.102 11.6306C107.729 11.0888 108.439 11.2142 108.956 12.7668L113.232 25.6129C113.757 27.1905 113.315 27.6995 111.637 28.258L111.787 28.7087L121.778 25.3826C123.005 24.9741 123.465 24.6822 123.664 25.7839L124.098 25.7507L124.101 19.8251L123.633 19.8416Z" fill="#DFD4BF"/>
<path d="M138.446 16.4478C137.692 20.5903 137.242 20.8796 131.678 22.1181C129.771 22.5425 129.23 22.4195 128.869 20.7965L125.933 7.60647C125.572 5.98347 126.033 5.50239 128.016 5.06087L127.919 4.62291L121.479 6.05642L121.576 6.49438C123.302 6.1102 124.207 6.28737 124.568 7.91037L127.504 21.1004C127.865 22.7234 127.373 23.1845 125.647 23.5687L125.75 24.0324L136.029 21.7445C137.291 21.4635 137.778 21.2201 137.864 22.3365L138.299 22.3478L138.913 16.4791L138.446 16.4478Z" fill="#DFD4BF"/>
<path d="M141.333 6.13016C141.104 4.21726 142.617 1.98877 145.133 1.68679C147.989 1.34391 149.872 2.63307 150.303 6.22304L150.853 6.15698L150.081 0.614284L149.557 0.677198C149.364 1.94969 147.32 0.865969 145.329 1.10504C141.66 1.54544 139.8 4.42695 140.051 6.52328C140.828 12.9957 150.579 9.19355 151.271 14.9585C151.592 17.6313 150.081 19.4342 147.565 19.7362C144.054 20.1577 141.968 18.2816 141.158 13.9663L140.712 14.0198L141.44 19.1956L141.566 20.2438L142.064 20.184C142.236 18.3025 143.73 20.7814 147.504 20.3284C150.936 19.9163 152.897 17.2088 152.561 14.405C151.815 8.19459 141.975 11.4758 141.333 6.13016Z" fill="#DFD4BF"/>
<path d="M182.052 1.24003L182.014 1.68709C183.724 1.83247 184.702 2.47195 184.472 5.18058L183.443 17.2774L172.875 0.459431L169.482 0.170898L169.444 0.617954C171.206 0.767812 172.122 1.2165 171.978 2.89953L170.838 16.3112C170.695 17.9942 169.717 18.2818 167.955 18.132L167.917 18.579L173.886 19.0868L173.924 18.6397C171.847 18.463 171.273 18.0434 171.416 16.3604L172.557 2.63093L183.379 19.8942L183.853 19.9345L185.103 5.23426C185.329 2.57822 186.695 2.08522 188.457 2.23508L188.495 1.78802L182.052 1.24003Z" fill="#DFD4BF"/>
<path d="M188.769 11.1357C187.585 16.5502 190.894 21.4339 195.999 22.5498C200.589 23.5529 205.814 20.5347 206.998 15.1202C208.215 9.55093 205.235 4.76631 200.13 3.65043C195.541 2.64725 190.003 5.48907 188.769 11.1357ZM190.393 11.4907C191.599 5.97305 195.798 3.32481 200.001 4.24345C204.178 5.15645 206.579 9.24744 205.373 14.7651C204.201 20.1281 200.306 22.8697 196.129 21.9567C191.952 21.0437 189.221 16.8537 190.393 11.4907Z" fill="#DFD4BF"/>
<path d="M224.231 11.3206L224.077 11.7418C226.976 12.8049 226.841 14.2454 225.977 15.2217L216.331 25.9649L215.906 10.4887C215.86 9.23489 217.461 9.31586 219.418 10.0336L219.573 9.61241L212.61 7.05924L212.455 7.48048C214.165 8.10742 214.315 8.69634 214.356 10.117L214.972 27.6028L215.542 27.8118L226.379 15.7346C227.743 14.2388 228.81 13.4772 230.569 14.1223L230.723 13.7011L224.231 11.3206Z" fill="#DFD4BF"/>
<path d="M239.292 33.5201C236.074 36.2354 235.531 36.1961 230.451 33.6102C228.71 32.7243 228.371 32.2851 229.125 30.8033L232.238 24.6879L235.743 26.4717C236.777 26.9985 236.736 27.8362 235.874 29.5297L236.25 29.7213L238.908 24.4996L238.532 24.3081C237.73 25.884 237.064 26.552 235.958 25.9893L232.477 24.2175L235.267 18.7371C236.009 17.2789 236.787 17.3789 238.316 18.157C242.221 20.1444 242.572 20.56 242.27 24.7598L242.73 24.8457L243.61 18.9858L243.186 18.8883C242.824 19.948 242.402 19.6145 241.225 19.0159L233.04 14.8497L232.825 15.2731C234.354 16.0513 234.762 16.6443 234.02 18.1026L227.879 30.1688C227.124 31.6506 226.451 31.693 224.875 30.8909L224.66 31.3143L234.045 36.091C235.197 36.6777 235.728 36.7995 235.084 37.7155L235.412 38.0012L239.632 33.8412L239.292 33.5201Z" fill="#DFD4BF"/>
<path d="M252.501 41.9517C249.02 44.3211 248.499 44.2039 243.712 41.1084C242.072 40.048 241.78 39.5762 242.683 38.18L250.02 26.8327C250.923 25.4365 251.589 25.4272 253.295 26.5306L253.539 26.1539L247.998 22.5712L247.755 22.9479C249.24 23.9081 249.748 24.677 248.845 26.0732L241.508 37.4204C240.605 38.8167 239.931 38.7895 238.446 37.8293L238.188 38.2283L247.031 43.9463C248.117 44.6485 248.632 44.8243 247.897 45.6691L248.194 45.9871L252.806 42.3061L252.501 41.9517Z" fill="#DFD4BF"/>
<path d="M260.931 36.082C262.126 34.5707 264.774 34.0733 266.761 35.6447C269.018 37.4289 269.431 39.6729 267.188 42.5092L267.623 42.853L271.01 38.3985L270.596 38.0711C269.558 38.8314 268.885 36.6176 267.312 35.3736C264.414 33.082 261.058 33.7936 259.749 35.4498C255.706 40.5635 265.276 44.7996 261.675 49.3542C260.005 51.4659 257.661 51.6648 255.674 50.0934C252.9 47.8999 252.76 45.0979 255.249 41.4811L254.897 41.2029L251.739 45.3675L251.084 46.1956L251.478 46.5066C252.934 45.303 252.229 48.1099 255.21 50.467C257.922 52.6113 261.225 52.0937 262.976 49.8785C266.856 44.9719 257.592 40.3054 260.931 36.082Z" fill="#DFD4BF"/>
<path d="M293.107 61.4942L292.763 61.7826C293.866 63.0967 294.103 64.2414 292.021 65.9888L282.721 73.7928L287.186 54.4383L284.998 51.8303L284.654 52.1187C285.791 53.4733 286.118 54.4386 284.825 55.5244L274.514 64.1765C273.22 65.2623 272.326 64.772 271.189 63.4174L270.846 63.7058L274.697 68.2952L275.04 68.0068C273.7 66.4096 273.593 65.7071 274.887 64.6213L285.423 55.7453L280.821 75.5936L281.126 75.9575L292.428 66.4741C294.47 64.7606 295.783 65.3813 296.92 66.7358L297.264 66.4474L293.107 61.4942Z" fill="#DFD4BF"/>
<path d="M291.133 73.7139C286.457 76.6892 285.323 82.4783 288.128 86.8872C290.65 90.8507 296.473 92.432 301.149 89.4568C305.959 86.3965 307.255 80.911 304.45 76.5022C301.928 72.5386 296.009 70.6112 291.133 73.7139ZM292.025 75.1168C296.79 72.0848 301.628 73.1985 303.938 76.828C306.233 80.4353 305.022 85.022 300.257 88.054C295.625 91.0009 290.935 90.1686 288.64 86.5613C286.345 82.9541 287.394 78.0637 292.025 75.1168Z" fill="#DFD4BF"/>
<path d="M315.606 98.2746L315.199 98.4632C316.496 101.265 315.382 102.188 314.081 102.267L299.664 103.04L310.309 91.7985C311.163 90.8794 312.237 92.0688 313.114 93.9608L313.521 93.7722L310.404 87.0426L309.997 87.2311C310.762 88.8836 310.452 89.4057 309.476 90.4392L297.544 103.236L297.799 103.787L314.003 102.914C316.025 102.822 317.317 103.037 318.104 104.738L318.512 104.549L315.606 98.2746Z" fill="#DFD4BF"/>
<path d="M310.59 124.763C306.395 124.404 306.039 123.992 304.28 118.57C303.677 116.712 303.748 116.162 305.329 115.649L311.856 113.531L313.07 117.271C313.429 118.375 312.807 118.938 310.999 119.525L311.13 119.926L316.703 118.118L316.572 117.716C314.89 118.262 313.947 118.263 313.564 117.083L312.358 113.368L318.208 111.469C319.764 110.964 320.243 111.586 320.773 113.217C322.125 117.385 322.079 117.927 318.894 120.681L319.158 121.067L323.927 117.549L323.696 117.18C322.69 117.673 322.628 117.138 322.22 115.883L319.385 107.147L318.933 107.294C319.463 108.925 319.332 109.634 317.776 110.139L304.898 114.318C303.316 114.832 302.811 114.385 302.265 112.703L301.813 112.85L305.064 122.866C305.463 124.096 305.751 124.558 304.648 124.749L304.678 125.183L310.603 125.23L310.59 124.763Z" fill="#DFD4BF"/>
<path d="M313.897 139.841C309.76 139.055 309.474 138.604 308.278 133.03C307.868 131.12 307.995 130.58 309.621 130.232L322.833 127.396C324.459 127.047 324.936 127.512 325.363 129.499L325.801 129.405L324.417 122.953L323.978 123.048C324.349 124.777 324.165 125.68 322.54 126.029L309.328 128.864C307.702 129.213 307.245 128.717 306.874 126.988L306.409 127.088L308.618 137.384C308.89 138.648 309.13 139.137 308.013 139.214L307.998 139.649L313.862 140.308L313.897 139.841Z" fill="#DFD4BF"/>
<path d="M324.118 142.551C326.032 142.336 328.249 143.866 328.532 146.384C328.853 149.243 327.549 151.115 323.956 151.519L324.018 152.07L329.566 151.341L329.507 150.816C328.236 150.613 329.336 148.578 329.112 146.584C328.7 142.913 325.833 141.03 323.734 141.266C317.256 141.993 320.983 151.773 315.213 152.421C312.538 152.721 310.747 151.196 310.464 148.678C310.07 145.163 311.962 143.092 316.283 142.315L316.233 141.869L311.052 142.557L310.003 142.674L310.059 143.173C311.939 143.36 309.448 144.835 309.872 148.611C310.258 152.047 312.95 154.029 315.757 153.714C321.973 153.016 318.767 143.151 324.118 142.551Z" fill="#DFD4BF"/>
</svg>
