<svg width="329" height="329" viewBox="0 0 329 329" fill="none" xmlns="http://www.w3.org/2000/svg">
<path d="M319.137 172.737C319.413 175.577 320.924 177.659 323.507 177.809C326.115 177.96 327.917 175.914 328.145 171.989L328.553 164.94L328.114 164.914C328.014 166.644 327.604 167.45 325.9 167.351L312.783 166.591C311.156 166.497 310.816 165.648 310.917 163.918L310.478 163.892L310.104 170.348L310.543 170.373C310.658 168.385 311.051 167.864 312.703 167.96L319.288 168.341L319.128 171.104L309.656 178.069L309.473 181.685L309.886 181.709C310.014 179.489 311.256 178.628 315.426 175.527L319.137 172.737ZM325.821 168.72C327.628 168.824 327.855 169.382 327.751 171.189C327.526 175.062 325.708 176.486 323.461 176.356C321.086 176.218 319.567 174.264 319.743 171.217L319.908 168.377L325.821 168.72Z" fill="#DFD4BF"/>
<path d="M311.497 196.346C308.019 194.125 307.898 193.605 308.84 188.098C309.162 186.212 309.475 185.767 311.081 186.041L317.71 187.175L317.06 190.973C316.868 192.095 316.072 192.3 314.237 191.986L314.167 192.394L319.827 193.362L319.897 192.954C318.188 192.662 317.37 192.233 317.574 191.035L318.22 187.262L324.16 188.278C325.741 188.548 325.874 189.305 325.59 190.962C324.867 195.195 324.58 195.644 320.562 196.584L320.615 197.039L326.355 196.158L326.323 195.732C325.226 195.702 325.415 195.21 325.633 193.935L327.15 185.063L326.691 184.984C326.408 186.641 325.972 187.197 324.391 186.926L311.312 184.69C309.706 184.415 309.47 183.798 309.762 182.09L309.303 182.011L307.564 192.184C307.35 193.433 307.391 193.965 306.346 193.629L306.174 194.019L311.295 196.758L311.497 196.346Z" fill="#DFD4BF"/>
<path d="M310.983 215.215C316.925 216.922 320.481 214.661 322.424 207.899L324.252 201.535L323.83 201.414C323.366 203.03 322.775 203.775 321.209 203.325L308.48 199.668C306.914 199.218 306.795 198.322 307.273 196.657L306.851 196.535L304.822 203.595C303.208 209.213 305.39 213.608 310.983 215.215ZM305.288 203.567C306.038 200.957 306.536 200.535 308.077 200.978L320.83 204.642C322.396 205.092 322.608 205.665 322.001 207.778C320.308 213.67 316.462 215.255 311.39 213.798C305.598 212.134 303.809 208.713 305.288 203.567Z" fill="#DFD4BF"/>
<path d="M300.85 227.819C297.951 224.883 297.948 224.349 300.086 219.188C300.818 217.419 301.221 217.054 302.727 217.678L308.94 220.251L307.465 223.812C307.03 224.863 306.208 224.887 304.487 224.174L304.329 224.557L309.634 226.754L309.792 226.372C308.191 225.709 307.488 225.109 307.953 223.986L309.418 220.449L314.986 222.755C316.467 223.369 316.429 224.137 315.786 225.69C314.143 229.657 313.764 230.032 309.637 230.059L309.588 230.515L315.381 230.926L315.444 230.504C314.381 230.232 314.674 229.793 315.169 228.599L318.614 220.283L318.183 220.104C317.54 221.658 316.992 222.103 315.51 221.489L303.251 216.411C301.746 215.788 301.653 215.134 302.316 213.532L301.886 213.354L297.937 222.889C297.452 224.06 297.373 224.587 296.429 224.028L296.175 224.371L300.562 228.176L300.85 227.819Z" fill="#DFD4BF"/>
<path d="M293.54 241.536C290.961 238.314 291.013 237.784 293.676 232.872C294.588 231.189 295.027 230.868 296.459 231.645L302.372 234.849L300.535 238.238C299.993 239.238 299.173 239.176 297.536 238.289L297.339 238.653L302.387 241.389L302.584 241.025C301.06 240.199 300.423 239.53 301.002 238.461L302.826 235.096L308.125 237.968C309.535 238.732 309.417 239.492 308.616 240.97C306.57 244.745 306.153 245.078 302.047 244.676L301.951 245.124L307.669 246.135L307.776 245.722C306.747 245.341 307.084 244.935 307.7 243.798L311.99 235.885L311.58 235.663C310.779 237.141 310.188 237.527 308.778 236.763L297.112 230.44C295.68 229.663 295.655 229.002 296.481 227.479L296.072 227.257L291.154 236.33C290.55 237.444 290.417 237.961 289.536 237.307L289.248 237.621L293.216 241.861L293.54 241.536Z" fill="#DFD4BF"/>
<path d="M291.431 268.28L293.238 265.757L284.302 250.161L302.125 253.351L303.992 250.743L303.635 250.487C302.626 251.896 301.789 252.442 300.443 251.478L289.719 243.796C288.374 242.832 288.621 241.865 289.631 240.456L289.273 240.2L285.794 245.057L286.151 245.313C287.311 243.694 287.982 243.379 289.307 244.328L299.063 251.317L283.278 248.569L282.932 249.052L290.758 262.867L281.002 255.878C279.698 254.944 279.961 253.955 280.955 252.568L280.597 252.312L276.711 257.737L277.069 257.993C278.244 256.352 278.9 256.059 280.224 257.008L290.99 264.719C292.315 265.668 292.233 266.405 291.073 268.024L291.431 268.28Z" fill="#DFD4BF"/>
<path d="M267.442 279.831C265.62 282.027 265.206 284.567 266.919 286.505C268.649 288.463 271.371 288.302 274.317 285.699L279.609 281.023L279.318 280.694C278.019 281.841 277.159 282.118 276.029 280.839L267.329 270.992C266.25 269.77 266.613 268.932 267.912 267.784L267.621 267.455L262.775 271.736L263.066 272.066C264.559 270.747 265.206 270.659 266.302 271.899L270.669 276.842L268.595 278.675L256.979 276.857L254.283 279.273L254.557 279.584C256.224 278.111 257.709 278.386 262.847 279.162L267.442 279.831ZM275.001 281.746C276.2 283.103 275.964 283.657 274.607 284.855C271.7 287.424 269.409 287.136 267.919 285.449C266.343 283.666 266.66 281.212 268.947 279.191L271.08 277.307L275.001 281.746Z" fill="#DFD4BF"/>
<path d="M245.283 291.063C244.402 287.031 244.684 286.579 249.25 283.359C250.814 282.256 251.349 282.163 252.289 283.494L256.165 288.99L253.015 291.211C252.085 291.867 251.378 291.448 250.305 289.926L249.967 290.165L253.276 294.857L253.614 294.618C252.615 293.202 252.341 292.32 253.335 291.619L256.463 289.413L259.936 294.338C260.861 295.648 260.418 296.277 259.044 297.246C255.535 299.721 255.014 299.835 251.512 297.652L251.228 298.011L255.904 301.455L256.182 301.132C255.429 300.333 255.912 300.12 256.969 299.374L264.324 294.186L264.056 293.806C262.682 294.775 261.981 294.858 261.057 293.547L253.409 282.704C252.47 281.373 252.741 280.77 254.157 279.771L253.889 279.391L245.455 285.339C244.419 286.069 244.071 286.473 243.572 285.496L243.174 285.65L244.849 291.211L245.283 291.063Z" fill="#DFD4BF"/>
<path d="M231.565 303.977C234.551 309.39 238.664 310.311 244.824 306.913L250.622 303.715L250.409 303.33C248.937 304.142 247.992 304.25 247.205 302.823L240.809 291.227C240.022 289.8 240.571 289.083 242.089 288.246L241.876 287.861L235.444 291.41C230.326 294.233 228.754 298.881 231.565 303.977ZM235.793 291.72C238.171 290.408 238.821 290.462 239.596 291.867L246.005 303.485C246.792 304.912 246.537 305.466 244.612 306.528C239.244 309.489 235.405 307.885 232.856 303.265C229.945 297.988 231.105 294.306 235.793 291.72Z" fill="#DFD4BF"/>
<path d="M215.701 305.596C215.728 301.47 216.103 301.091 221.265 298.953C223.033 298.22 223.576 298.247 224.2 299.753L226.773 305.966L223.212 307.441C222.161 307.876 221.563 307.312 220.851 305.591L220.468 305.75L222.666 311.055L223.048 310.896C222.385 309.295 222.311 308.374 223.434 307.909L226.971 306.444L229.277 312.012C229.891 313.493 229.321 314.01 227.767 314.653C223.8 316.296 223.267 316.293 220.331 313.394L219.974 313.681L223.779 318.069L224.122 317.815C223.562 316.87 224.08 316.768 225.275 316.273L233.591 312.829L233.413 312.399C231.859 313.042 231.157 312.969 230.544 311.487L225.466 299.228C224.843 297.723 225.24 297.194 226.841 296.531L226.663 296.101L217.128 300.05C215.957 300.535 215.528 300.853 215.256 299.79L214.834 299.852L215.246 305.645L215.701 305.596Z" fill="#DFD4BF"/>
<path d="M200.858 310.09C201.318 305.989 201.731 305.651 207.089 304.068C208.924 303.525 209.461 303.609 209.923 305.172L211.829 311.621L208.133 312.713C207.042 313.036 206.507 312.412 205.979 310.626L205.582 310.743L207.21 316.25L207.607 316.133C207.115 314.471 207.139 313.547 208.305 313.202L211.976 312.117L213.684 317.897C214.139 319.434 213.517 319.888 211.905 320.364C207.788 321.581 207.258 321.522 204.642 318.33L204.257 318.579L207.58 323.342L207.947 323.125C207.49 322.128 208.016 322.08 209.256 321.714L217.888 319.162L217.756 318.716C216.144 319.192 215.453 319.046 214.999 317.508L211.238 304.783C210.776 303.221 211.226 302.737 212.888 302.246L212.756 301.799L202.859 304.724C201.644 305.083 201.184 305.354 201.025 304.268L200.599 304.286L200.4 310.09L200.858 310.09Z" fill="#DFD4BF"/>
<path d="M180.382 327.474L183.445 326.975L188.191 309.638L198.507 324.518L201.672 324.002L201.601 323.568C199.891 323.847 198.914 323.639 198.647 322.005L196.524 308.986C196.257 307.352 197.118 306.845 198.828 306.566L198.757 306.132L192.86 307.094L192.931 307.528C194.897 307.207 195.593 307.461 195.856 309.069L197.788 320.914L188.597 307.789L188.01 307.885L183.743 323.179L181.811 311.334C181.553 309.751 182.439 309.239 184.124 308.965L184.053 308.531L177.467 309.605L177.538 310.039C179.529 309.714 180.2 309.971 180.462 311.58L182.594 324.65C182.856 326.258 182.277 326.72 180.311 327.04L180.382 327.474Z" fill="#DFD4BF"/>
<path d="M154.74 318.59C151.898 318.844 149.804 320.339 149.634 322.92C149.463 325.527 151.495 327.345 155.418 327.603L162.464 328.066L162.493 327.627C160.764 327.513 159.961 327.098 160.073 325.394L160.934 312.283C161.041 310.657 161.893 310.324 163.622 310.438L163.651 309.999L157.198 309.575L157.169 310.014C159.157 310.144 159.675 310.541 159.567 312.193L159.134 318.775L156.373 318.593L149.481 309.068L145.866 308.857L145.839 309.27C148.059 309.415 148.91 310.664 151.978 314.857L154.74 318.59ZM158.705 325.304C158.587 327.111 158.028 327.334 156.221 327.215C152.35 326.961 150.94 325.131 151.088 322.886C151.244 320.512 153.209 319.008 156.255 319.208L159.094 319.394L158.705 325.304Z" fill="#DFD4BF"/>
<path d="M131.099 310.729C133.347 307.269 133.867 307.152 139.367 308.136C141.251 308.473 141.694 308.788 141.407 310.392L140.223 317.012L136.429 316.334C135.309 316.133 135.11 315.336 135.438 313.502L135.03 313.43L134.019 319.082L134.427 319.155C134.732 317.449 135.167 316.633 136.363 316.847L140.132 317.521L139.071 323.454C138.788 325.033 138.03 325.16 136.375 324.864C132.148 324.108 131.701 323.817 130.792 319.792L130.336 319.842L131.174 325.589L131.599 325.56C131.638 324.463 132.129 324.656 133.402 324.884L142.262 326.469L142.344 326.01C140.689 325.714 140.138 325.274 140.42 323.695L142.756 310.634C143.043 309.03 143.663 308.799 145.368 309.104L145.45 308.646L135.291 306.829C134.044 306.605 133.512 306.642 133.856 305.6L133.467 305.425L130.689 310.525L131.099 310.729Z" fill="#DFD4BF"/>
<path d="M112.323 310.063C110.571 315.991 112.805 319.565 119.552 321.559L125.902 323.435L126.027 323.014C124.415 322.537 123.674 321.941 124.136 320.378L127.889 307.678C128.351 306.115 129.247 306.003 130.909 306.494L131.034 306.072L123.989 303.99C118.384 302.333 113.973 304.482 112.323 310.063ZM124.014 304.456C126.618 305.226 127.036 305.727 126.582 307.265L122.821 319.989C122.359 321.552 121.785 321.76 119.677 321.137C113.798 319.4 112.241 315.541 113.737 310.481C115.445 304.701 118.879 302.938 124.014 304.456Z" fill="#DFD4BF"/>
<path d="M100.055 299.917C103.013 297.04 103.546 297.041 108.692 299.217C110.455 299.963 110.817 300.369 110.182 301.869L107.562 308.063L104.013 306.562C102.964 306.119 102.947 305.297 103.672 303.582L103.291 303.42L101.054 308.709L101.436 308.87C102.111 307.274 102.715 306.575 103.835 307.048L107.361 308.54L105.013 314.09C104.388 315.567 103.62 315.523 102.072 314.868C98.1175 313.196 97.7455 312.814 97.7497 308.687L97.2943 308.635L96.8396 314.424L97.261 314.49C97.5413 313.429 97.9774 313.726 99.1685 314.23L107.459 317.736L107.64 317.308C106.092 316.653 105.651 316.101 106.275 314.624L111.444 302.403C112.079 300.903 112.734 300.815 114.33 301.49L114.512 301.061L105.007 297.041C103.839 296.547 103.313 296.465 103.879 295.524L103.538 295.268L99.7003 299.627L100.055 299.917Z" fill="#DFD4BF"/>
<path d="M86.4626 292.573C89.6938 290.006 90.2243 290.06 95.1262 292.741C96.8055 293.659 97.125 294.099 96.3432 295.529L93.1167 301.429L89.7353 299.58C88.7368 299.034 88.8016 298.215 89.6951 296.581L89.332 296.382L86.5771 301.42L86.9402 301.619C87.7716 300.098 88.4432 299.463 89.5098 300.047L92.8685 301.883L89.9771 307.171C89.2077 308.578 88.4481 308.457 86.973 307.651C83.2058 305.591 82.8739 305.173 83.2911 301.068L82.8433 300.971L81.8113 306.685L82.224 306.793C82.6091 305.766 83.0133 306.105 84.148 306.725L92.0455 311.044L92.2689 310.635C90.7938 309.829 90.4104 309.236 91.1798 307.829L97.546 296.187C98.3278 294.757 98.9884 294.735 100.509 295.566L100.732 295.158L91.6774 290.206C90.5654 289.598 90.0494 289.464 90.7068 288.585L90.3933 288.296L86.1388 292.248L86.4626 292.573Z" fill="#DFD4BF"/>
<path d="M59.6834 290.217L62.1935 292.043L77.8545 283.221L74.5344 301.02L77.128 302.907L77.3867 302.551C75.9853 301.532 75.4453 300.691 76.4191 299.353L84.1788 288.685C85.1526 287.346 86.1186 287.601 87.5201 288.621L87.7787 288.265L82.947 284.751L82.6883 285.106C84.2989 286.278 84.6088 286.951 83.6502 288.269L76.5903 297.974L79.4538 282.21L78.9728 281.86L65.1013 289.585L72.1612 279.879C73.1046 278.582 74.0915 278.853 75.472 279.857L75.7307 279.501L70.3341 275.576L70.0755 275.931C71.707 277.118 71.996 277.776 71.0374 279.094L63.2472 289.803C62.2886 291.121 61.5527 291.033 59.9421 289.862L59.6834 290.217Z" fill="#DFD4BF"/>
<path d="M48.4609 266.328C46.2713 264.498 43.733 264.075 41.7884 265.781C39.8243 267.503 39.9759 270.226 42.5682 273.182L47.2242 278.49L47.5548 278.201C46.4121 276.898 46.1386 276.037 47.422 274.911L57.3006 266.247C58.5257 265.173 59.3632 265.539 60.5058 266.842L60.8364 266.552L56.5727 261.691L56.2421 261.981C57.5554 263.478 57.6413 264.125 56.3967 265.217L51.438 269.565L49.6131 267.485L51.4733 255.876L49.0662 253.171L48.7551 253.444C50.2218 255.116 49.9412 256.601 49.1466 261.736L48.4609 266.328ZM46.5181 273.88C45.1569 275.074 44.6043 274.836 43.4104 273.475C40.8522 270.558 41.1489 268.268 42.8407 266.784C44.6297 265.215 47.0828 265.541 49.0952 267.836L50.9713 269.975L46.5181 273.88Z" fill="#DFD4BF"/>
<path d="M37.3233 244.046C41.3611 243.194 41.8113 243.48 44.998 248.069C46.0897 249.641 46.1788 250.178 44.8403 251.107L39.3165 254.943L37.1183 251.777C36.4692 250.842 36.8935 250.138 38.4232 249.076L38.1871 248.736L33.4707 252.011L33.7067 252.351C35.1302 251.363 36.0148 251.095 36.7082 252.094L38.8916 255.238L33.9414 258.675C32.6242 259.59 31.9987 259.143 31.0397 257.762C28.5907 254.235 28.4804 253.713 30.6888 250.227L30.3318 249.94L26.854 254.591L27.175 254.872C27.9788 254.125 28.1889 254.608 28.9265 255.671L34.0605 263.064L34.4429 262.799C33.484 261.418 33.4061 260.716 34.7233 259.801L45.6222 252.233C46.9607 251.304 47.5614 251.579 48.5499 253.003L48.9323 252.737L43.0459 244.26C42.323 243.219 41.9217 242.868 42.9025 242.376L42.7515 241.977L37.1787 243.611L37.3233 244.046Z" fill="#DFD4BF"/>
<path d="M24.5075 230.274C19.0727 233.22 18.1206 237.326 21.4732 243.511L24.6286 249.332L25.0152 249.123C24.214 247.644 24.1133 246.699 25.5459 245.922L37.1886 239.611C38.6212 238.835 39.334 239.39 40.1598 240.914L40.5464 240.704L37.0458 234.246C34.2602 229.107 29.6239 227.501 24.5075 230.274ZM36.7332 234.592C38.0274 236.98 37.9679 237.63 36.5581 238.394L24.8926 244.717C23.46 245.494 22.9075 245.234 21.8598 243.301C18.9386 237.912 20.5712 234.085 25.2101 231.57C30.5084 228.699 34.1818 229.885 36.7332 234.592Z" fill="#DFD4BF"/>
<path d="M22.9604 214.355C27.0865 214.413 27.463 214.79 29.5622 219.968C30.2814 221.742 30.2503 222.284 28.7402 222.897L22.5079 225.424L21.0599 221.852C20.6323 220.797 21.201 220.204 22.9269 219.504L22.7714 219.121L17.45 221.278L17.6055 221.662C19.2115 221.011 20.1334 220.944 20.5902 222.07L22.0285 225.618L16.4435 227.882C14.9574 228.485 14.4455 227.911 13.8138 226.353C12.2005 222.374 12.2077 221.841 15.1287 218.926L14.8436 218.567L10.428 222.339L10.6794 222.684C11.6278 222.132 11.7263 222.65 12.2123 223.848L15.5943 232.19L16.0258 232.015C15.3941 230.457 15.4725 229.755 16.9586 229.153L29.2552 224.167C30.7654 223.555 31.2908 223.956 31.9419 225.562L32.3734 225.387L28.4957 215.823C28.0195 214.648 27.7052 214.218 28.7703 213.953L28.7107 213.531L22.915 213.899L22.9604 214.355Z" fill="#DFD4BF"/>
<path d="M18.6138 199.754C22.7129 200.23 23.049 200.644 24.6123 206.008C25.1478 207.845 25.0618 208.382 23.4974 208.838L17.041 210.72L15.9627 207.02C15.6442 205.927 16.2703 205.395 18.0582 204.873L17.9424 204.476L12.4297 206.083L12.5455 206.48C14.2092 205.995 15.1331 206.022 15.4733 207.189L16.5444 210.865L10.7584 212.551C9.21885 213 8.76788 212.377 8.29747 210.762C7.09612 206.64 7.15727 206.111 10.3589 203.507L10.1117 203.121L5.33628 206.426L5.5514 206.794C6.55094 206.341 6.59635 206.867 6.9582 208.108L9.47671 216.75L9.92369 216.62C9.45328 215.006 9.60241 214.316 11.142 213.867L23.881 210.154C25.4454 209.698 25.9274 210.151 26.4123 211.814L26.8593 211.684L23.9717 201.776C23.6171 200.559 23.3482 200.099 24.4345 199.944L24.4181 199.518L18.615 199.296L18.6138 199.754Z" fill="#DFD4BF"/>
<path d="M1.30103 178.837L1.77719 181.904L19.0773 186.783L4.11835 196.984L4.61039 200.154L5.04489 200.086C4.77903 198.374 4.99401 197.398 6.6298 197.144L19.665 195.12C21.3008 194.867 21.8014 195.731 22.0673 197.444L22.5018 197.376L21.5852 191.472L21.1507 191.539C21.4562 193.507 21.1976 194.202 19.5874 194.452L7.72791 196.293L20.9225 187.204L20.8312 186.616L5.57104 182.232L17.4305 180.39C19.0152 180.144 19.5198 181.035 19.7817 182.721L20.2162 182.654L19.1924 176.06L18.7579 176.127C19.0674 178.121 18.8048 178.79 17.1946 179.04L4.10833 181.071C2.4981 181.321 2.04107 180.738 1.73553 178.77L1.30103 178.837Z" fill="#DFD4BF"/>
<path d="M10.339 153.284C10.1069 150.44 8.62761 148.335 6.04802 148.145C3.44263 147.954 1.60869 149.972 1.32079 153.893L0.803711 160.935L1.24224 160.967C1.36914 159.239 1.7909 158.44 3.49343 158.565L16.5977 159.527C18.2229 159.646 18.5492 160.5 18.4223 162.229L18.8608 162.261L19.3344 155.812L18.8958 155.78C18.75 157.766 18.3491 158.281 16.6981 158.16L10.1202 157.677L10.3228 154.917L19.9007 148.099L20.1401 144.486L19.7273 144.455C19.5644 146.674 18.3096 147.515 14.0927 150.551L10.339 153.284ZM3.59381 157.198C1.7881 157.065 1.56992 156.505 1.7025 154.699C1.98661 150.829 3.82668 149.434 6.07093 149.599C8.44415 149.773 9.93292 151.75 9.70942 154.794L9.50107 157.632L3.59381 157.198Z" fill="#DFD4BF"/>
<path d="M18.3107 129.956C21.7538 132.23 21.867 132.751 20.8412 138.243C20.4898 140.125 20.1707 140.565 18.5689 140.266L11.9582 139.031L12.6658 135.243C12.8748 134.124 13.6739 133.931 15.5045 134.273L15.5805 133.866L9.93601 132.812L9.86002 133.219C11.5635 133.537 12.3758 133.978 12.1526 135.173L11.4497 138.936L5.52556 137.83C3.94917 137.535 3.82788 136.776 4.13656 135.123C4.92489 130.902 5.21852 130.457 9.25052 129.579L9.20413 129.123L3.45129 129.917L3.47701 130.343C4.57338 130.389 4.3767 130.879 4.13925 132.15L2.48662 140.998L2.94428 141.084C3.25297 139.431 3.69747 138.883 5.27386 139.177L18.3172 141.613C19.919 141.913 20.1451 142.534 19.8269 144.237L20.2846 144.323L22.1794 134.178C22.4121 132.932 22.3799 132.4 23.4193 132.752L23.597 132.364L18.5185 129.547L18.3107 129.956Z" fill="#DFD4BF"/>
<path d="M19.0614 111.209C13.1465 109.413 9.55645 111.62 7.51143 118.351L5.58671 124.687L6.00744 124.815C6.49613 123.206 7.09824 122.47 8.6574 122.944L21.3286 126.793C22.8878 127.267 22.9937 128.164 22.4899 129.822L22.9107 129.95L25.0459 122.921C26.7451 117.328 24.6298 112.901 19.0614 111.209ZM24.5801 122.942C23.7906 125.541 23.2863 125.955 21.7519 125.489L9.05587 121.632C7.49672 121.158 7.29309 120.583 7.93216 118.479C9.71403 112.614 13.5842 111.086 18.6329 112.62C24.3993 114.372 26.1364 117.819 24.5801 122.942Z" fill="#DFD4BF"/>
<path d="M29.0928 99.3076C31.9589 102.276 31.9561 102.81 29.7605 107.947C29.0083 109.707 28.6011 110.068 27.1027 109.427L20.9188 106.784L22.4333 103.24C22.8806 102.194 23.7024 102.18 25.4149 102.911L25.5775 102.531L20.2974 100.274L20.1348 100.655C21.7283 101.336 22.4252 101.943 21.9475 103.061L20.4431 106.581L14.9013 104.213C13.4267 103.582 13.4735 102.815 14.1342 101.269C15.8215 97.3206 16.2049 96.95 20.3314 96.9696L20.3853 96.5145L14.5976 96.0381L14.5301 96.4593C15.59 96.7435 15.2916 97.1785 14.7833 98.3677L11.246 106.645L11.6741 106.828C12.3348 105.282 12.888 104.843 14.3626 105.473L26.5639 110.688C28.0624 111.328 28.1479 111.983 27.4669 113.577L27.895 113.76L31.9507 104.27C32.4488 103.105 32.5332 102.578 33.4711 103.148L33.7289 102.808L29.3846 98.9541L29.0928 99.3076Z" fill="#DFD4BF"/>
<path d="M36.5196 85.6832C39.0623 88.9333 39.0042 89.4633 36.2876 94.3453C35.3569 96.0178 34.9145 96.3341 33.4906 95.5417L27.6141 92.2717L29.4881 88.9041C30.0415 87.9096 30.8604 87.9805 32.4878 88.886L32.689 88.5244L27.6714 85.7324L27.4702 86.094C28.9845 86.9366 29.6146 87.6129 29.0235 88.6751L27.1621 92.0202L21.8959 89.0898C20.4946 88.31 20.6207 87.5514 21.4382 86.0823C23.526 82.3304 23.9458 82.0016 28.048 82.4491L28.1488 82.002L22.4417 80.9278L22.3308 81.3398C23.3556 81.7324 23.0136 82.1341 22.3848 83.2642L18.008 91.1296L18.4149 91.356C19.2324 89.8869 19.828 89.5079 21.2293 90.2877L32.824 96.7396C34.2479 97.532 34.2651 98.1927 33.4224 99.707L33.8292 99.9334L38.8474 90.9153C39.4637 89.8078 39.6022 89.2929 40.476 89.9567L40.7677 89.6454L36.8464 85.3618L36.5196 85.6832Z" fill="#DFD4BF"/>
<path d="M39.3456 58.3969L37.5015 60.8935L46.2091 76.6185L28.4346 73.1685L26.529 75.7483L26.8827 76.0096C27.9123 74.6156 28.7568 74.0818 30.0883 75.0653L40.6989 82.9028C42.0305 83.8863 41.7685 84.8505 40.7389 86.2444L41.0926 86.5056L44.6425 81.6997L44.2888 81.4384C43.1055 83.0404 42.43 83.3454 41.1193 82.3772L31.4657 75.2467L47.2089 78.2252L47.5623 77.7467L39.9387 63.8192L49.5923 70.9498C50.8822 71.9026 50.6049 72.8875 49.5906 74.2607L49.9443 74.5219L53.9092 69.1542L53.5555 68.8929C52.3568 70.5157 51.6967 70.7999 50.386 69.8318L39.7338 61.9635C38.4231 60.9954 38.516 60.2601 39.6993 58.6581L39.3456 58.3969Z" fill="#DFD4BF"/>
<path d="M62.874 47.6936C64.7196 45.5174 65.1609 42.9822 63.4696 41.0253C61.7614 39.0487 59.0378 39.1805 56.0632 41.7512L50.7207 46.3685L51.0083 46.7011C52.3194 45.568 53.1824 45.3007 54.2987 46.5923L62.8904 56.5337C63.956 57.7666 63.5834 58.6013 62.2723 59.7345L62.5598 60.0672L67.4522 55.839L67.1647 55.5063C65.6578 56.8086 65.0101 56.8898 63.9276 55.6373L59.6148 50.6471L61.7088 48.8374L73.3035 50.782L76.0263 48.3946L75.7557 48.0815C74.0727 49.536 72.5902 49.2447 67.4612 48.4127L62.874 47.6936ZM55.3359 45.6959C54.152 44.3261 54.3938 43.7752 55.7637 42.5913C58.6991 40.0544 60.9869 40.3677 62.4583 42.0702C64.0143 43.8706 63.6708 46.3212 61.3616 48.317L59.2089 50.1774L55.3359 45.6959Z" fill="#DFD4BF"/>
<path d="M85.324 36.5677C86.1459 40.6115 85.8569 41.0597 81.2447 44.2127C79.6646 45.2929 79.1276 45.378 78.2079 44.0328L74.4127 38.4811L77.5943 36.3061C78.5338 35.6638 79.2347 36.0933 80.2857 37.6307L80.6273 37.3972L77.3868 32.6568L77.0451 32.8904C78.0231 34.321 78.2846 35.2076 77.281 35.8937L74.1208 38.054L70.7196 33.0788C69.8146 31.7549 70.2665 31.1327 71.6545 30.1839C75.199 27.7608 75.7215 27.6543 79.1911 29.8881L79.4812 29.5332L74.8559 26.0214L74.5727 26.3404C75.3139 27.1496 74.8284 27.3562 73.7608 28.086L66.33 33.1658L66.5928 33.5501C67.9807 32.6013 68.6829 32.5286 69.588 33.8525L77.0762 44.8064C77.9959 46.1517 77.7159 46.7504 76.2852 47.7284L76.548 48.1127L85.0677 42.2885C86.114 41.5733 86.4681 41.1746 86.953 42.159L87.3531 42.0108L85.76 36.4263L85.324 36.5677Z" fill="#DFD4BF"/>
<path d="M99.3052 23.7268C96.3996 18.2704 92.3013 17.2879 86.0915 20.5947L80.247 23.707L80.4537 24.0951C81.9376 23.3049 82.8841 23.2112 83.65 24.6495L89.8745 36.3385C90.6404 37.7768 90.0801 38.4854 88.5505 39.3L88.7571 39.6881L95.2409 36.2354C100.401 33.4879 102.041 28.8636 99.3052 23.7268ZM94.8972 35.9203C92.5001 37.1968 91.8504 37.1325 91.0967 35.717L84.86 24.0051C84.0941 22.5668 84.3576 22.0162 86.2982 20.9828C91.709 18.1016 95.5238 19.7624 98.0039 24.4198C100.837 29.7392 99.6231 33.4037 94.8972 35.9203Z" fill="#DFD4BF"/>
<path d="M115.514 22.1462C115.425 26.2718 115.045 26.6454 109.852 28.7058C108.073 29.4117 107.53 29.3765 106.929 27.8619L104.449 21.6109L108.031 20.1896C109.089 19.7699 109.678 20.3431 110.365 22.0741L110.75 21.9215L108.632 16.5842L108.247 16.7368C108.887 18.3476 108.946 19.27 107.816 19.7183L104.258 21.1301L102.036 15.5282C101.444 14.0376 102.022 13.5301 103.585 12.9101C107.576 11.3266 108.109 11.3377 111.002 14.2805L111.363 13.9981L107.624 9.55441L107.277 9.80321C107.822 10.7557 107.303 10.8504 106.101 11.3273L97.7345 14.6468L97.9062 15.0796C99.4689 14.4596 100.17 14.5432 100.761 16.0338L105.655 28.3674C106.256 29.8821 105.851 30.4045 104.24 31.0436L104.412 31.4763L114.005 27.6703C115.183 27.2029 115.616 26.8919 115.872 27.9589L116.295 27.9025L115.97 22.1042L115.514 22.1462Z" fill="#DFD4BF"/>
<path d="M129.743 18.0169C129.236 22.1123 128.82 22.4453 123.444 23.9678C121.603 24.4894 121.067 24.3994 120.622 22.8316L118.79 16.3611L122.498 15.3108C123.593 15.0007 124.121 15.6308 124.628 17.4226L125.026 17.3098L123.462 11.785L123.063 11.8978C123.536 13.5652 123.502 14.4889 122.332 14.8202L118.649 15.8634L117.006 10.0649C116.569 8.5219 117.196 8.07568 118.813 7.6175C122.944 6.4474 123.474 6.51256 126.053 9.73383L126.441 9.48957L123.172 4.68924L122.802 4.90157C123.248 5.9045 122.722 5.94593 121.477 6.29837L112.817 8.75136L112.944 9.19931C114.561 8.74114 115.25 8.89549 115.687 10.4384L119.303 23.2051C119.748 24.773 119.292 25.2516 117.624 25.7238L117.751 26.1718L127.681 23.3593C128.9 23.0139 129.363 22.7485 129.509 23.836L129.936 23.8228L130.201 18.0216L129.743 18.0169Z" fill="#DFD4BF"/>
<path d="M150.201 0.84898L147.132 1.31338L142.187 18.5947L132.043 3.5967L128.872 4.07658L128.938 4.51135C130.651 4.25205 131.626 4.47077 131.874 6.10752L133.847 19.1504C134.095 20.7871 133.229 21.2845 131.515 21.5437L131.581 21.9785L137.489 21.0845L137.423 20.6498C135.454 20.9478 134.76 20.6865 134.516 19.0753L132.721 7.20888L141.759 20.4382L142.348 20.3492L146.79 5.10594L148.586 16.9724C148.826 18.558 147.934 19.0592 146.246 19.3146L146.312 19.7494L152.91 18.7509L152.844 18.3161C150.849 18.618 150.181 18.3528 149.937 16.7417L147.956 3.6477C147.712 2.03652 148.297 1.58173 150.267 1.28374L150.201 0.84898Z" fill="#DFD4BF"/>
<path d="M175.723 9.88108C178.567 9.65996 180.679 8.18879 180.878 5.60995C181.079 3.00532 179.069 1.16362 175.149 0.860614L168.109 0.316406L168.075 0.75481C169.802 0.88837 170.6 1.3132 170.468 3.01523L169.456 16.1157C169.33 17.7404 168.475 18.0634 166.747 17.9299L166.713 18.3683L173.16 18.8667L173.194 18.4282C171.208 18.2748 170.695 17.8719 170.822 16.2214L171.331 9.64535L174.09 9.85865L180.871 19.4627L184.483 19.716L184.515 19.3034C182.297 19.1319 181.461 17.8739 178.441 13.6453L175.723 9.88108ZM171.835 3.12088C171.975 1.3157 172.536 1.09967 174.341 1.23921C178.209 1.53823 179.597 3.38366 179.424 5.62726C179.241 7.99979 177.258 9.48093 174.215 9.24571L171.378 9.02643L171.835 3.12088Z" fill="#DFD4BF"/>
<path d="M199.967 18.0987C197.666 21.5244 197.144 21.6336 191.66 20.5659C189.781 20.2001 189.343 19.8776 189.655 18.2782L190.94 11.6771L194.723 12.4137C195.84 12.6312 196.027 13.4317 195.671 15.2597L196.077 15.3388L197.174 9.70249L196.768 9.6234C196.437 11.3244 195.99 12.1333 194.796 11.9009L191.039 11.1694L192.191 5.25382C192.497 3.67972 193.257 3.56425 194.908 3.88555C199.122 4.70612 199.565 5.00315 200.412 9.04175L200.869 8.99884L200.119 3.2401L199.693 3.26257C199.638 4.35855 199.15 4.15813 197.88 3.91097L189.045 2.19075L188.956 2.64774C190.606 2.96905 191.151 3.41774 190.845 4.99183L188.309 18.0162C187.998 19.6157 187.375 19.837 185.674 19.5058L185.585 19.9628L195.715 21.9351C196.959 22.1773 197.491 22.1492 197.132 23.1859L197.518 23.3665L200.373 18.3097L199.967 18.0987Z" fill="#DFD4BF"/>
<path d="M218.694 18.9823C220.536 13.0812 218.355 9.47453 211.639 7.37869L205.319 5.40614L205.188 5.82589C206.792 6.32673 207.524 6.93439 207.039 8.48992L203.094 21.1317C202.608 22.6872 201.71 22.7863 200.056 22.2701L199.925 22.6898L206.937 24.8781C212.517 26.6195 216.96 24.5378 218.694 18.9823ZM206.92 24.4121C204.327 23.6031 203.917 23.0956 204.394 21.5648L208.347 8.8983C208.833 7.34276 209.41 7.14349 211.508 7.79844C217.36 9.62459 218.858 13.5062 217.287 18.5431C215.491 24.2961 212.031 26.0071 206.92 24.4121Z" fill="#DFD4BF"/>
<path d="M230.42 29.0527C227.429 31.8966 226.896 31.8898 221.775 29.6559C220.021 28.8906 219.664 28.4807 220.315 26.9871L223.004 20.8231L226.537 22.3641C227.58 22.8191 227.588 23.6411 226.843 25.348L227.223 25.5135L229.519 20.2504L229.139 20.0849C228.446 21.6733 227.834 22.3656 226.72 21.8796L223.211 20.3489L225.621 14.825C226.262 13.3551 227.029 13.4076 228.57 14.0799C232.506 15.7966 232.873 16.1828 232.823 20.309L233.278 20.3663L233.797 14.5823L233.377 14.5116C233.084 15.5694 232.652 15.2678 231.466 14.7507L223.216 11.1516L223.03 11.5784C224.571 12.2506 225.005 12.807 224.364 14.2769L219.059 26.439C218.407 27.9326 217.751 28.0133 216.163 27.3204L215.977 27.7471L225.436 31.8735C226.598 32.3803 227.124 32.4686 226.547 33.4023L226.885 33.6626L230.771 29.3471L230.42 29.0527Z" fill="#DFD4BF"/>
<path d="M244.054 36.5997C240.785 39.1184 240.256 39.0563 235.394 36.3038C233.728 35.3608 233.415 34.9161 234.218 33.4981L237.531 27.6459L240.885 29.5446C241.875 30.1053 241.798 30.9237 240.881 32.5443L241.241 32.7482L244.07 27.7514L243.71 27.5475C242.856 29.0555 242.175 29.6807 241.117 29.0817L237.786 27.1957L240.755 21.9513C241.545 20.5558 242.303 20.6875 243.766 21.5158C247.502 23.6312 247.828 24.0534 247.35 28.1522L247.797 28.2563L248.913 22.5572L248.502 22.4434C248.102 23.4652 247.703 23.1203 246.577 22.4831L238.744 18.0485L238.515 18.4536C239.978 19.2819 240.352 19.8804 239.562 21.2759L233.025 32.8227C232.222 34.2407 231.561 34.2529 230.053 33.3991L229.824 33.8043L238.805 38.8889C239.908 39.5133 240.422 39.6556 239.751 40.5245L240.06 40.8184L244.373 36.9289L244.054 36.5997Z" fill="#DFD4BF"/>
<path d="M270.623 39.0448L268.134 37.1916L252.377 45.8417L255.892 28.08L253.319 26.165L253.056 26.5177C254.447 27.5524 254.977 28.3989 253.989 29.7268L246.113 40.3087C245.124 41.6366 244.161 41.3712 242.771 40.3365L242.508 40.6892L247.301 44.2566L247.564 43.9039C245.966 42.7147 245.664 42.0382 246.637 40.731L253.803 31.1035L250.767 46.8357L251.244 47.1909L265.199 39.6182L258.033 49.2457C257.076 50.5321 256.092 50.2512 254.722 49.2319L254.46 49.5846L259.813 53.569L260.076 53.2163C258.457 52.0117 258.175 51.3506 259.148 50.0434L267.055 39.42C268.028 38.1128 268.763 38.2084 270.361 39.3976L270.623 39.0448Z" fill="#DFD4BF"/>
<path d="M281.986 63.3512C284.149 65.2126 286.68 65.6723 288.65 63.9953C290.639 62.3016 290.527 59.5771 287.978 56.5839L283.399 51.2079L283.065 51.493C284.188 52.8124 284.449 53.6773 283.15 54.7841L273.146 63.3033C271.905 64.3598 271.073 63.9812 269.95 62.6619L269.615 62.947L273.807 67.87L274.142 67.5849C272.851 66.0686 272.774 65.4203 274.035 64.347L279.056 60.0706L280.851 62.1777L278.822 73.7579L281.189 76.4981L281.504 76.2298C280.062 74.5362 280.364 73.0559 281.233 67.933L281.986 63.3512ZM284.038 55.8278C285.417 54.6539 285.966 54.8997 287.14 56.2782C289.655 59.232 289.325 61.5174 287.612 62.9764C285.8 64.5193 283.352 64.158 281.374 61.8343L279.529 59.6682L284.038 55.8278Z" fill="#DFD4BF"/>
<path d="M292.958 85.9203C288.909 86.7126 288.463 86.4204 285.343 81.7852C284.275 80.1973 284.194 79.6596 285.546 78.7498L291.125 74.9954L293.277 78.1928C293.912 79.137 293.477 79.8347 291.932 80.8744L292.163 81.2178L296.927 78.012L296.696 77.6687C295.258 78.6362 294.37 78.8911 293.691 77.8825L291.554 74.7066L296.554 71.342C297.885 70.4467 298.503 70.9031 299.442 72.298C301.839 75.8602 301.942 76.3834 299.683 79.8366L300.035 80.1292L303.581 75.5298L303.264 75.2442C302.449 75.9795 302.246 75.4925 301.524 74.4196L296.499 66.9518L296.113 67.2117C297.052 68.6066 297.119 69.3093 295.789 70.2046L284.78 77.6125C283.428 78.5223 282.832 78.2379 281.864 76.8001L281.478 77.06L287.24 85.6222C287.947 86.6737 288.343 87.0307 287.355 87.5084L287.501 87.9095L293.097 86.3574L292.958 85.9203Z" fill="#DFD4BF"/>
<path d="M305.683 100.009C311.161 97.1436 312.174 93.0527 308.913 86.8186L305.844 80.9512L305.454 81.155C306.234 82.6448 306.32 83.5919 304.876 84.3471L293.142 90.485C291.698 91.2403 290.993 90.6747 290.19 89.1391L289.8 89.3429L293.205 95.852C295.914 101.032 300.526 102.706 305.683 100.009ZM293.523 95.5107C292.264 93.1041 292.333 92.455 293.754 91.7117L305.512 85.5619C306.956 84.8066 307.504 85.0742 308.523 87.0224C311.365 92.4543 309.676 96.2567 305 98.7023C299.66 101.496 296.004 100.255 293.523 95.5107Z" fill="#DFD4BF"/>
<path d="M306.84 115.427C302.715 115.323 302.343 114.941 300.302 109.74C299.603 107.958 299.64 107.416 301.157 106.821L307.417 104.364L308.825 107.951C309.241 109.011 308.665 109.598 306.932 110.278L307.083 110.663L312.428 108.566L312.277 108.181C310.664 108.814 309.741 108.87 309.297 107.738L307.898 104.175L313.509 101.973C315.001 101.387 315.507 101.967 316.121 103.532C317.689 107.529 317.676 108.062 314.723 110.944L315.004 111.306L319.461 107.584L319.214 107.236C318.259 107.778 318.167 107.258 317.694 106.055L314.406 97.6755L313.973 97.8456C314.587 99.4107 314.501 100.111 313.008 100.697L300.656 105.544C299.139 106.14 298.618 105.733 297.985 104.12L297.552 104.29L301.322 113.897C301.785 115.077 302.094 115.511 301.026 115.763L301.081 116.186L306.88 115.883L306.84 115.427Z" fill="#DFD4BF"/>
<path d="M311.179 130.654C307.088 130.116 306.758 129.697 305.276 124.31C304.768 122.465 304.862 121.929 306.434 121.497L312.918 119.714L313.94 123.43C314.242 124.527 313.608 125.05 311.812 125.544L311.922 125.943L317.458 124.42L317.349 124.021C315.678 124.481 314.754 124.44 314.432 123.267L313.417 119.576L319.227 117.978C320.774 117.553 321.215 118.182 321.661 119.803C322.8 123.943 322.73 124.472 319.49 127.027L319.731 127.416L324.556 124.185L324.347 123.813C323.34 124.251 323.303 123.724 322.96 122.478L320.573 113.799L320.124 113.922C320.57 115.543 320.41 116.231 318.864 116.656L306.07 120.175C304.499 120.608 304.024 120.148 303.564 118.477L303.115 118.601L305.852 128.551C306.188 129.773 306.45 130.238 305.362 130.376L305.372 130.803L311.171 131.112L311.179 130.654Z" fill="#DFD4BF"/>
<path d="M328.176 151.395L327.735 148.322L310.492 143.245L325.568 133.216L325.112 130.042L324.677 130.104C324.923 131.819 324.697 132.793 323.058 133.028L310.001 134.901C308.362 135.136 307.872 134.266 307.625 132.551L307.19 132.613L308.039 138.527L308.474 138.465C308.191 136.494 308.458 135.802 310.071 135.571L321.951 133.866L308.652 142.803L308.737 143.392L323.945 147.951L312.066 149.656C310.478 149.884 309.984 148.988 309.741 147.298L309.306 147.361L310.254 153.966L310.689 153.904C310.403 151.907 310.673 151.241 312.286 151.009L325.395 149.128C327.008 148.897 327.458 149.486 327.741 151.457L328.176 151.395Z" fill="#DFD4BF"/>
</svg>
