<svg width="330" height="330" viewBox="0 0 330 330" fill="none" xmlns="http://www.w3.org/2000/svg">
<path d="M302.909 237.283C301.995 239.94 302.497 242.423 304.749 243.612C307.023 244.814 309.473 243.718 311.281 240.296L314.529 234.15L314.146 233.947C313.349 235.456 312.653 236.01 311.167 235.225L299.73 229.182C298.312 228.432 298.355 227.533 299.152 226.025L298.769 225.823L295.795 231.451L296.178 231.654C297.094 229.92 297.659 229.614 299.1 230.375L304.841 233.408L303.568 235.817L292.238 238.183L290.595 241.347L290.955 241.537C291.979 239.601 293.442 239.338 298.444 238.265L302.909 237.283ZM310.537 236.418C312.113 237.251 312.088 237.842 311.256 239.418C309.471 242.796 307.261 243.327 305.302 242.292C303.231 241.198 302.669 238.827 304.073 236.17L305.381 233.694L310.537 236.418Z" fill="#DFD4BF"/>
<path d="M297.4 247.196C293.026 244.12 287.445 245.239 284.545 249.363C281.938 253.071 282.67 258.847 287.045 261.922C291.544 265.086 296.913 264.223 299.813 260.099C302.42 256.391 301.962 250.403 297.4 247.196ZM296.477 248.508C300.935 251.642 301.722 256.367 299.334 259.762C296.961 263.137 292.425 263.745 287.967 260.61C283.635 257.564 282.651 253.074 285.024 249.7C287.397 246.326 292.145 245.462 296.477 248.508Z" fill="#DFD4BF"/>
<path d="M287.44 275.685L287.594 275.515C287.416 275.217 287.311 274.574 287.493 274.258L286.296 273.76L280.403 261.783C279.398 259.743 278.675 258.644 279.852 257.34L279.531 257.049L276.049 260.905L276.39 261.212C278.25 259.152 278.766 259.721 279.912 262.06L281.078 264.417L276.3 269.708L274.202 268.878C270.724 267.486 270.997 267.184 272.26 265.786L271.92 265.478L268.165 269.636L268.505 269.943C269.734 268.583 269.933 268.591 274.001 270.24L287.44 275.685ZM285.615 273.488L276.816 269.934L281.339 264.926L285.615 273.488Z" fill="#DFD4BF"/>
<path d="M261.44 287.468C265.453 292.043 269.602 292.062 274.809 287.494L279.709 283.196L279.424 282.87C278.18 283.962 277.294 284.265 276.236 283.059L267.638 273.258C266.581 272.052 266.958 271.246 268.241 270.121L267.955 269.796L262.519 274.565C258.192 278.36 257.662 283.161 261.44 287.468ZM262.919 274.789C264.929 273.026 265.566 272.942 266.607 274.128L275.221 283.949C276.279 285.154 276.151 285.742 274.523 287.169C269.987 291.149 265.957 290.416 262.531 286.511C258.619 282.05 258.956 278.265 262.919 274.789Z" fill="#DFD4BF"/>
<path d="M247.288 307.784L249.833 306.092L247.047 288.617L262.342 297.771L264.971 296.023L264.731 295.662C263.311 296.607 262.35 296.818 261.447 295.461L254.255 284.648C253.353 283.291 253.918 282.486 255.339 281.542L255.099 281.181L250.202 284.439L250.441 284.799C252.074 283.713 252.801 283.658 253.69 284.993L260.233 294.831L246.661 286.794L246.173 287.118L248.558 302.566L242.015 292.729C241.14 291.414 241.727 290.595 243.127 289.665L242.887 289.304L237.417 292.943L237.657 293.303C239.31 292.203 240.017 292.161 240.905 293.497L248.125 304.353C249.014 305.688 248.681 306.338 247.049 307.424L247.288 307.784Z" fill="#DFD4BF"/>
<path d="M237.439 313.2L237.644 313.099C237.59 312.757 237.732 312.121 238.019 311.895L237.093 310.988L236.075 297.678C235.901 295.411 235.638 294.122 237.216 293.349L237.025 292.96L232.36 295.245L232.562 295.656C235.054 294.436 235.322 295.155 235.517 297.753L235.723 300.374L229.319 303.51L227.681 301.959C224.969 299.374 225.335 299.195 227.027 298.366L226.826 297.955L221.795 300.418L221.996 300.83C223.643 300.024 223.824 300.105 226.988 303.149L237.439 313.2ZM236.561 310.483L229.715 303.912L235.775 300.944L236.561 310.483Z" fill="#DFD4BF"/>
<path d="M227.183 317.336L227.036 316.929C225.479 317.49 224.544 317.449 223.999 315.94L219.574 303.677C219.029 302.168 219.699 301.547 221.28 300.977L221.133 300.569L215.049 302.765L215.196 303.172C217.136 302.472 217.76 302.626 218.304 304.135L220.085 309.069C219.268 309.282 218.577 309.315 216.876 309.929C212.708 311.433 211.981 314.294 212.906 316.857C214.047 320.018 217.29 320.905 220.716 319.669L227.183 317.336ZM217.049 310.408C218.749 309.794 219.441 309.761 220.258 309.548L222.73 316.398C223.274 317.907 222.7 318.493 220.641 319.236C217.79 320.265 215.276 319.223 214.221 316.301C213.348 313.882 213.743 311.601 217.049 310.408Z" fill="#DFD4BF"/>
<path d="M195.357 317.583C192.716 318.542 191.1 320.493 191.59 322.992C192.084 325.515 194.476 326.734 198.274 325.99L205.097 324.654L205.013 324.229C203.339 324.557 202.471 324.364 202.148 322.714L199.662 310.02C199.354 308.445 200.08 307.914 201.754 307.586L201.671 307.161L195.424 308.385L195.507 308.81C197.431 308.433 198.024 308.68 198.337 310.279L199.585 316.651L196.912 317.175L187.952 309.848L184.458 310.558L184.537 310.958C186.686 310.537 187.81 311.51 191.788 314.727L195.357 317.583ZM200.823 322.974C201.166 324.723 200.69 325.076 198.941 325.418C195.193 326.152 193.39 324.767 192.965 322.593C192.514 320.294 194.005 318.367 196.954 317.789L199.703 317.251L200.823 322.974Z" fill="#DFD4BF"/>
<path d="M184.39 319.476C184.023 314.141 179.64 310.511 174.61 310.856C170.088 311.167 166.063 315.374 166.429 320.708C166.805 326.196 170.857 329.823 175.887 329.478C180.409 329.167 184.771 325.04 184.39 319.476ZM182.789 319.586C183.162 325.022 179.988 328.609 175.847 328.893C171.732 329.176 168.402 326.035 168.029 320.599C167.667 315.315 170.534 311.723 174.65 311.441C178.765 311.158 182.426 314.302 182.789 319.586Z" fill="#DFD4BF"/>
<path d="M155.797 329.648L156.026 329.66C156.146 329.335 156.58 328.848 156.94 328.792L156.574 327.548L162.179 315.433C163.133 313.368 163.533 312.115 165.287 312.21L165.311 311.778L160.124 311.496L160.099 311.954C162.87 312.104 162.752 312.863 161.655 315.226L160.556 317.614L153.437 317.228L152.763 315.075C151.657 311.495 152.064 311.517 153.946 311.62L153.97 311.162L148.377 310.858L148.352 311.316C150.182 311.415 150.301 311.575 151.578 315.775L155.797 329.648ZM156.357 326.847L153.586 317.771L160.324 318.137L156.357 326.847Z" fill="#DFD4BF"/>
<path d="M130.266 316.813C129.229 322.81 131.822 326.049 138.647 327.228L145.071 328.339L145.144 327.912C143.513 327.63 142.721 327.131 142.994 325.551L145.215 312.704C145.488 311.123 146.352 310.91 148.033 311.201L148.107 310.774L140.98 309.543C135.31 308.562 131.242 311.167 130.266 316.813ZM141.057 309.995C143.692 310.451 144.158 310.893 143.889 312.449L141.664 325.321C141.391 326.902 140.854 327.17 138.721 326.802C132.774 325.774 130.811 322.179 131.696 317.06C132.707 311.214 135.863 309.097 141.057 309.995Z" fill="#DFD4BF"/>
<path d="M105.664 318.573L108.578 319.491L120.429 306.349L122.909 324L125.921 324.948L126.051 324.535C124.424 324.023 123.656 323.408 124.145 321.853L128.044 309.466C128.533 307.911 129.514 307.846 131.142 308.358L131.272 307.946L125.661 306.18L125.531 306.593C127.401 307.181 127.901 307.712 127.42 309.243L123.873 320.513L121.604 304.903L121.046 304.728L110.521 316.285L114.068 305.014C114.542 303.508 115.548 303.451 117.151 303.956L117.281 303.543L111.014 301.571L110.884 301.984C112.779 302.58 113.255 303.103 112.773 304.634L108.86 317.07C108.378 318.6 107.664 318.749 105.794 318.16L105.664 318.573Z" fill="#DFD4BF"/>
<path d="M94.7081 314.06L94.9155 314.157C95.1486 313.901 95.7341 313.614 96.0892 313.697L96.2178 312.406L105.967 303.289C107.627 301.734 108.469 300.723 110.059 301.471L110.243 301.079L105.543 298.868L105.348 299.282C107.859 300.464 107.465 301.123 105.559 302.9L103.643 304.7L97.1916 301.664L97.3772 299.416C97.6981 295.683 98.0668 295.857 99.7718 296.659L99.9669 296.244L94.898 293.859L94.7028 294.274C96.3618 295.054 96.4119 295.247 96.0151 299.619L94.7081 314.06ZM96.2801 311.676L97.1253 302.224L103.231 305.097L96.2801 311.676Z" fill="#DFD4BF"/>
<path d="M85.2768 308.756L85.5007 308.386C84.0844 307.529 83.528 306.776 84.358 305.403L91.1038 294.247C91.9339 292.874 92.8374 293.004 94.2756 293.873L94.4996 293.503L88.9648 290.156L88.7408 290.527C90.5059 291.594 90.779 292.176 89.9489 293.548L87.2348 298.037C86.5552 297.537 86.0941 297.02 84.547 296.085C80.7555 293.792 78.0743 295.028 76.6645 297.359C74.9254 300.236 76.2774 303.315 79.3934 305.199L85.2768 308.756ZM84.2835 296.521C85.8306 297.456 86.2917 297.973 86.9713 298.473L83.2031 304.705C82.3731 306.078 81.5567 306.001 79.6827 304.868C77.0897 303.3 76.3169 300.69 77.9243 298.032C79.255 295.831 81.2764 294.702 84.2835 296.521Z" fill="#DFD4BF"/>
<path d="M65.0799 284.099C62.6788 282.641 60.1457 282.604 58.5045 284.551C56.8468 286.517 57.3959 289.145 60.3552 291.639L65.6702 296.12L65.9492 295.789C64.6448 294.689 64.2516 293.892 65.3348 292.607L73.6723 282.717C74.7063 281.49 75.5755 281.723 76.8799 282.823L77.1589 282.492L72.2917 278.389L72.0127 278.72C73.5118 279.983 73.6909 280.601 72.6405 281.847L68.4553 286.811L66.3721 285.055L66.4705 273.481L63.7284 271.203L63.4658 271.515C65.1401 272.926 65.0861 274.413 65.07 279.528L65.0799 284.099ZM64.3029 291.737C63.1541 293.1 62.5811 292.95 61.2183 291.801C58.298 289.339 58.2489 287.066 59.6768 285.372C61.1867 283.581 63.6225 283.536 65.9198 285.473L68.0614 287.279L64.3029 291.737Z" fill="#DFD4BF"/>
<path d="M56.7217 276.734C60.6617 273.118 60.7621 267.427 57.3533 263.713C54.2888 260.373 48.49 259.853 44.5499 263.469C40.4973 267.187 40.1919 272.617 43.6007 276.332C46.6651 279.672 52.6128 280.504 56.7217 276.734ZM55.637 275.552C51.622 279.236 46.8384 278.994 44.0322 275.936C41.2432 272.896 41.6195 268.335 45.6345 264.651C49.5371 261.07 54.1328 261.069 56.9218 264.109C59.7107 267.148 59.5396 271.971 55.637 275.552Z" fill="#DFD4BF"/>
<path d="M30.9277 260.782L31.0609 260.969C31.3895 260.859 32.0407 260.895 32.31 261.14L33.0532 260.078L46.0162 256.892C48.2245 256.348 49.453 255.878 50.474 257.308L50.8263 257.056L47.8078 252.828L47.4348 253.095C49.0476 255.354 48.3815 255.735 45.8505 256.354L43.2987 256.987L39.1557 251.184L40.4171 249.313C42.5223 246.215 42.759 246.546 43.854 248.08L44.227 247.813L40.9717 243.254L40.5987 243.52C41.6641 245.013 41.6137 245.205 39.1295 248.825L30.9277 260.782ZM33.4648 259.471L38.8241 251.64L42.7452 257.131L33.4648 259.471Z" fill="#DFD4BF"/>
<path d="M25.0043 232.937C19.6823 235.889 18.7841 239.94 22.1435 245.997L25.3054 251.697L25.6839 251.487C24.8811 250.04 24.7729 249.11 26.1758 248.332L37.577 242.008C38.9799 241.23 39.6869 241.77 40.5144 243.262L40.893 243.052L37.3853 236.727C34.594 231.695 30.0146 230.158 25.0043 232.937ZM37.0809 237.071C38.3777 239.409 38.3253 240.05 36.9447 240.815L25.5212 247.151C24.1183 247.93 23.5719 247.679 22.5221 245.787C19.595 240.509 21.1656 236.726 25.7083 234.207C30.8968 231.329 34.5243 232.462 37.0809 237.071Z" fill="#DFD4BF"/>
<path d="M8.17471 214.787L9.28461 217.634L26.9516 218.645L14.7417 231.631L15.8886 234.573L16.2919 234.416C15.6722 232.826 15.6713 231.843 17.1897 231.251L29.2893 226.534C30.8077 225.942 31.4728 226.666 32.0925 228.256L32.4958 228.099L30.3592 222.618L29.9559 222.775C30.6681 224.602 30.5672 225.325 29.0725 225.907L18.0643 230.199L28.8146 218.656L28.6019 218.11L13.001 217.141L24.0092 212.85C25.4801 212.276 26.1545 213.025 26.7649 214.59L27.1682 214.433L24.782 208.312L24.3786 208.469C25.1001 210.32 24.9899 211.019 23.4953 211.602L11.3482 216.337C9.85359 216.92 9.29022 216.456 8.57803 214.629L8.17471 214.787Z" fill="#DFD4BF"/>
<path d="M4.96934 204.093L5.024 204.316C5.36977 204.336 5.96152 204.61 6.12073 204.938L7.20448 204.226L20.4257 206.066C22.6786 206.378 23.994 206.396 24.4131 208.102L24.8334 207.999L23.5945 202.954L23.1494 203.064C23.8114 205.759 23.0513 205.867 20.4713 205.504L17.8665 205.148L16.166 198.223L18.0303 196.953C21.1331 194.854 21.2303 195.249 21.6797 197.079L22.1248 196.97L20.7888 191.529L20.3436 191.639C20.7809 193.419 20.6629 193.579 17.0151 196.022L4.96934 204.093ZM7.81143 203.815L15.6892 198.524L17.2986 205.077L7.81143 203.815Z" fill="#DFD4BF"/>
<path d="M3.13569 193.423L3.56465 193.365C3.34222 191.725 3.57914 190.819 5.16881 190.603L18.088 188.851C19.6777 188.636 20.1439 189.42 20.3697 191.086L20.7987 191.028L19.9295 184.618L19.5006 184.677C19.7777 186.72 19.4963 187.298 17.9067 187.514L12.7087 188.219C12.6715 187.376 12.7844 186.692 12.5414 184.901C11.946 180.51 9.30122 179.199 6.6013 179.565C3.27056 180.017 1.72243 183.002 2.21177 186.61L3.13569 193.423ZM12.0368 184.969C12.2797 186.761 12.1668 187.444 12.204 188.287L4.98745 189.266C3.39778 189.481 2.94528 188.798 2.651 186.628C2.24379 183.625 3.79022 181.385 6.86863 180.968C9.41715 180.622 11.5645 181.487 12.0368 184.969Z" fill="#DFD4BF"/>
<path d="M9.59607 162.221C9.22042 159.437 7.6569 157.444 5.11105 157.391C2.53975 157.339 0.841448 159.417 0.761767 163.287L0.61865 170.237L1.05145 170.246C1.08657 168.541 1.45976 167.733 3.14002 167.768L16.0729 168.034C17.6768 168.067 18.0419 168.89 18.0068 170.595L18.4396 170.604L18.5706 164.24L18.1378 164.231C18.0975 166.191 17.73 166.718 16.1007 166.685L9.60879 166.551L9.66487 163.827L18.7274 156.628L18.7753 153.063L18.3679 153.055C18.3229 155.244 17.1329 156.136 13.1447 159.34L9.59607 162.221ZM3.1678 166.419C1.38571 166.382 1.14214 165.842 1.17883 164.06C1.25747 160.241 2.99411 158.774 5.20899 158.82C7.55117 158.868 9.11731 160.734 9.05545 163.738L8.99779 166.539L3.1678 166.419Z" fill="#DFD4BF"/>
<path d="M10.0344 151.401C15.326 152.172 19.8009 148.655 20.5275 143.666C21.1807 139.181 17.9204 134.357 12.6288 133.586C7.18602 132.794 2.78395 135.987 2.05737 140.976C1.40418 145.461 4.51601 150.598 10.0344 151.401ZM10.2656 149.814C4.87319 149.029 2.03878 145.168 2.63693 141.06C3.2314 136.978 7.00523 134.388 12.3976 135.174C17.6388 135.937 20.5424 139.499 19.948 143.581C19.3535 147.663 15.5068 150.577 10.2656 149.814Z" fill="#DFD4BF"/>
<path d="M6.20202 121.036L6.14082 121.257C6.43262 121.443 6.81459 121.972 6.793 122.336L8.08648 122.245L18.7176 130.318C20.53 131.692 21.6685 132.351 21.1993 134.044L21.6164 134.16L23.0037 129.154L22.562 129.031C21.8208 131.706 21.105 131.428 19.0322 129.85L16.9349 128.265L18.839 121.394L21.0866 121.197C24.8198 120.884 24.711 121.277 24.2078 123.093L24.6495 123.215L26.1456 117.817L25.7039 117.694C25.2142 119.461 25.033 119.543 20.6565 119.889L6.20202 121.036ZM8.81703 122.183L18.2761 121.423L16.474 127.925L8.81703 122.183Z" fill="#DFD4BF"/>
<path d="M24.1354 98.8817C18.4968 96.5919 14.7799 98.4355 12.1739 104.853L9.72123 110.892L10.1223 111.055C10.7451 109.522 11.4011 108.854 12.8874 109.457L24.9669 114.363C26.4532 114.966 26.4769 115.855 25.835 117.436L26.2361 117.599L28.9571 110.899C31.1223 105.567 29.4438 101.037 24.1354 98.8817ZM28.4985 110.877C27.4925 113.355 26.961 113.716 25.4983 113.122L13.3952 108.207C11.9089 107.603 11.7606 107.021 12.575 105.016C14.8457 99.4241 18.7764 98.272 23.5893 100.227C29.0864 102.459 30.4817 105.994 28.4985 110.877Z" fill="#DFD4BF"/>
<path d="M27.9521 73.8153L26.4318 76.4659L36.7305 90.8563L18.9571 89.4981L17.3862 92.2371L17.7617 92.4525C18.6105 90.9726 19.3758 90.3547 20.7895 91.1656L32.0546 97.6267C33.4683 98.4376 33.3215 99.4101 32.4726 100.89L32.8481 101.105L35.7747 96.003L35.3992 95.7876C34.4237 97.4884 33.7977 97.8633 32.4061 97.0651L22.157 91.1867L37.8904 92.3142L38.1818 91.8062L29.1471 79.0507L39.3962 84.9291C40.7657 85.7146 40.6061 86.7092 39.77 88.1671L40.1455 88.3824L43.4141 82.6836L43.0386 82.4682C42.0504 84.1911 41.4371 84.5439 40.0455 83.7457L28.7362 77.2592C27.3446 76.4611 27.3521 75.7315 28.3276 74.0307L27.9521 73.8153Z" fill="#DFD4BF"/>
<path d="M34.0352 64.9249L33.8963 65.1072C34.0979 65.3888 34.2561 66.0215 34.1008 66.3514L35.3354 66.7477L42.2063 78.1922C43.3783 80.1414 44.1905 81.1763 43.1258 82.5739L43.4701 82.8363L46.618 78.7041L46.2534 78.4264C44.5714 80.6342 44.0101 80.1105 42.6722 77.8749L41.314 75.6238L45.6347 69.9522L47.7943 70.605C51.3765 71.7015 51.1296 72.0256 49.9877 73.5245L50.3523 73.8023L53.7471 69.346L53.3825 69.0683C52.2715 70.5267 52.0728 70.5354 47.881 69.2306L34.0352 64.9249ZM36.0366 66.9618L45.1013 69.7699L41.0121 75.1377L36.0366 66.9618Z" fill="#DFD4BF"/>
<path d="M41.007 56.9804L41.3216 57.2777C42.4584 56.0747 43.3121 55.6903 44.4781 56.7921L53.9542 65.7463C55.1202 66.8481 54.8022 67.7037 53.6479 68.9253L53.9626 69.2226L58.4047 64.5215L58.0901 64.2242C56.6735 65.7234 56.0471 65.8672 54.8811 64.7654L51.0685 61.1627C51.7011 60.6044 52.3039 60.2631 53.5456 58.949C56.5887 55.7286 55.9487 52.8467 53.9683 50.9754C51.5252 48.6669 48.2298 49.3366 45.7289 51.9832L41.007 56.9804ZM53.1754 58.5993C51.9337 59.9133 51.331 60.2546 50.6983 60.8129L45.405 55.8111C44.239 54.7093 44.4871 53.9278 45.9911 52.3361C48.0723 50.1336 50.7865 49.9307 53.0445 52.0643C54.9138 53.8307 55.5889 56.0452 53.1754 58.5993Z" fill="#DFD4BF"/>
<path d="M69.4529 42.297C71.3863 40.2592 71.9591 37.7914 70.404 35.7751C68.8333 33.7386 66.1489 33.7187 63.0841 36.0826L57.5795 40.3281L57.8438 40.6709C59.1948 39.6289 60.0577 39.4136 61.0841 40.7443L68.9843 50.9873C69.964 52.2576 69.552 53.0577 68.2011 54.0996L68.4655 54.4424L73.5063 50.5546L73.2419 50.2118C71.6893 51.4092 71.0482 51.4535 70.0529 50.1631L66.0873 45.0214L68.2448 43.3574L79.5351 45.9047L82.3424 43.7073L82.0936 43.3847C80.3596 44.7221 78.9183 44.3545 73.9223 43.2555L69.4529 42.297ZM62.1528 39.9201C61.0642 38.5087 61.3321 37.9805 62.7435 36.8919C65.768 34.5592 67.9996 34.9926 69.3526 36.7468C70.7833 38.6018 70.3113 40.9918 67.932 42.8269L65.7141 44.5375L62.1528 39.9201Z" fill="#DFD4BF"/>
<path d="M78.2001 35.7813C80.9125 40.3897 86.4567 41.6768 90.8018 39.1194C94.7079 36.8203 96.4275 31.2579 93.7151 26.6495C90.9252 21.9094 85.6792 20.4763 81.3341 23.0338C77.428 25.3329 75.3714 30.9753 78.2001 35.7813ZM79.5826 34.9675C76.8185 30.2713 78.0542 25.6438 81.6312 23.5385C85.1863 21.4461 89.5685 22.767 92.3326 27.4632C95.0192 32.0277 94.0598 36.5222 90.5047 38.6146C86.9496 40.7071 82.2692 39.5321 79.5826 34.9675Z" fill="#DFD4BF"/>
<path d="M99.6057 13.6531L99.3953 13.7441C99.4332 14.0883 99.2613 14.7175 98.9644 14.9291L99.8468 15.8792L100.234 29.2222C100.301 31.4956 100.502 32.7956 98.8898 33.4929L99.0615 33.8902L103.83 31.8288L103.648 31.408C101.1 32.5095 100.867 31.778 100.795 29.1736L100.713 26.5458L107.258 23.7163L108.821 25.343C111.408 28.0531 111.034 28.2148 109.304 28.9626L109.486 29.3833L114.628 27.1602L114.446 26.7395C112.763 27.467 112.586 27.3773 109.57 24.1871L99.6057 13.6531ZM100.353 16.4092L106.882 23.2963L100.688 25.9741L100.353 16.4092Z" fill="#DFD4BF"/>
<path d="M128.365 13.6187C126.615 7.79008 122.848 6.04986 116.215 8.04223L109.972 9.91739L110.096 10.332C111.681 9.85586 112.613 9.94824 113.075 11.4847L116.825 23.9711C117.286 25.5075 116.608 26.0833 114.974 26.5741L115.099 26.9887L122.025 24.9084C127.537 23.253 130.013 19.1059 128.365 13.6187ZM121.754 24.5378C119.194 25.3069 118.579 25.1193 118.125 23.6073L114.367 11.0964C113.906 9.56002 114.266 9.07943 116.339 8.45681C122.119 6.72082 125.481 9.06116 126.975 14.0362C128.682 19.7185 126.802 23.0215 121.754 24.5378Z" fill="#DFD4BF"/>
<path d="M149.431 0.985676L146.415 1.47389L141.721 18.5361L131.584 3.87425L128.467 4.37874L128.536 4.80606C130.22 4.53348 131.182 4.73893 131.443 6.34768L133.517 19.1674C133.778 20.7762 132.93 21.2745 131.246 21.5471L131.315 21.9744L137.121 21.0346L137.052 20.6073C135.117 20.9206 134.431 20.6704 134.175 19.0868L132.287 7.42332L141.319 20.3552L141.897 20.2616L146.117 5.21083L148.004 16.8743C148.257 18.4327 147.383 18.9352 145.724 19.2037L145.794 19.631L152.279 18.5814L152.21 18.1541C150.249 18.4714 149.589 18.2171 149.332 16.6335L147.249 3.76351C146.993 2.17989 147.565 1.72627 149.5 1.413L149.431 0.985676Z" fill="#DFD4BF"/>
<path d="M160.69 0.0849619L160.461 0.0913245C160.368 0.425056 159.975 0.945456 159.621 1.03172L160.088 2.24149L155.494 14.7748C154.713 16.9108 154.417 18.1927 152.661 18.2415L152.673 18.6743L157.866 18.53L157.853 18.0718C155.079 18.1489 155.134 17.3831 156.034 14.9381L156.933 12.4677L164.06 12.2696L164.908 14.3604C166.304 17.8369 165.896 17.8483 164.013 17.9006L164.026 18.3588L169.625 18.2032L169.613 17.745C167.78 17.7959 167.649 17.6467 166.032 13.5649L160.69 0.0849619ZM160.361 2.92167L163.867 11.74L157.122 11.9275L160.361 2.92167Z" fill="#DFD4BF"/>
<path d="M170.75 0.494429L170.717 0.926043C172.367 1.05294 173.203 1.47475 173.08 3.07425L172.08 16.0734C171.957 17.6729 171.092 17.9639 169.417 17.835L169.383 18.2666L175.832 18.7625L175.865 18.3309C173.809 18.1728 173.303 17.7763 173.426 16.1768L173.828 10.9467C174.66 11.0873 175.305 11.3412 177.107 11.4798C181.525 11.8195 183.363 9.50903 183.572 6.79242C183.829 3.44109 181.236 1.30069 177.605 1.02153L170.75 0.494429ZM177.146 10.972C175.344 10.8334 174.699 10.5795 173.867 10.4389L174.426 3.17772C174.549 1.57822 175.312 1.27939 177.496 1.44728C180.517 1.67959 182.382 3.66182 182.144 6.75926C181.947 9.32354 180.65 11.2414 177.146 10.972Z" fill="#DFD4BF"/>
<path d="M199.718 13.2517C202.518 13.4688 204.796 12.3585 205.381 9.88043C205.973 7.37754 204.297 5.28065 200.53 4.39041L193.765 2.79149L193.665 3.21277C195.325 3.60518 196.036 4.13953 195.65 5.77509L192.675 18.3639C192.306 19.9251 191.425 20.1094 189.764 19.717L189.665 20.1383L195.86 21.6025L195.96 21.1812C194.052 20.7302 193.613 20.2603 193.988 18.6743L195.482 12.3551L198.133 12.9818L203.27 23.3537L206.745 24.1489L206.839 23.7524C204.708 23.2487 204.085 21.8979 201.79 17.3261L199.718 13.2517ZM196.963 6.0855C197.373 4.35082 197.952 4.22601 199.687 4.63598C203.404 5.51451 204.474 7.5204 203.964 9.67636C203.425 11.9562 201.272 13.0957 198.348 12.4046L195.622 11.7604L196.963 6.0855Z" fill="#DFD4BF"/>
<path d="M210.796 16.0634C208.919 21.0704 211.405 26.1905 216.125 27.9608C220.369 29.5522 225.776 27.3914 227.653 22.3845C229.584 17.2345 227.4 12.2544 222.679 10.4842C218.435 8.89271 212.754 10.8419 210.796 16.0634ZM212.299 16.6267C214.212 11.5244 218.587 9.5752 222.473 11.0325C226.336 12.4809 228.064 16.7189 226.151 21.8212C224.291 26.7805 220.194 28.8608 216.331 27.4124C212.469 25.964 210.439 21.586 212.299 16.6267Z" fill="#DFD4BF"/>
<path d="M241.303 18.677L241.1 18.5707C240.856 18.8167 240.259 19.079 239.908 18.9814L239.725 20.265L229.597 28.9609C227.872 30.4437 226.989 31.4182 225.432 30.6034L225.231 30.9869L229.834 33.3959L230.046 32.9898C227.587 31.7026 228.009 31.0613 229.988 29.3668L231.979 27.6497L238.296 30.9562L238.015 33.1948C237.536 36.9103 237.175 36.7214 235.506 35.8475L235.293 36.2536L240.256 38.8515L240.469 38.4455C238.845 37.5952 238.803 37.4008 239.385 33.0494L241.303 18.677ZM239.631 20.9922L238.386 30.3998L232.408 27.2705L239.631 20.9922Z" fill="#DFD4BF"/>
<path d="M260.111 41.4475C263.554 36.4294 262.548 32.4041 256.837 28.4855L251.462 24.7973L251.217 25.1543C252.582 26.0907 253.094 26.8745 252.186 28.1973L244.81 38.9475C243.902 40.2702 243.029 40.1032 241.622 39.1379L241.377 39.4949L247.34 43.5864C252.085 46.8423 256.869 46.1717 260.111 41.4475ZM247.459 43.143C245.255 41.6303 245.015 41.0338 245.909 39.732L253.299 28.9608C254.207 27.6381 254.807 27.6178 256.592 28.8424C261.568 32.2568 261.853 36.3431 258.914 40.6263C255.557 45.5185 251.805 46.1252 247.459 43.143Z" fill="#DFD4BF"/>
<path d="M283.234 50.0483L280.966 48.0004L264.718 55.0126L269.815 37.9317L267.472 35.8155L267.182 36.1368C268.448 37.2802 268.889 38.1592 267.797 39.3687L259.094 49.0072C258.002 50.2167 257.082 49.8669 255.816 48.7235L255.526 49.0448L259.892 52.987L260.182 52.6657C258.726 51.3516 258.493 50.6604 259.568 49.4698L267.487 40.7007L263.048 55.8369L263.482 56.2294L277.864 50.1057L269.945 58.8748C268.887 60.0465 267.949 59.6797 266.702 58.5533L266.412 58.8746L271.288 63.2776L271.578 62.9563C270.104 61.6251 269.889 60.951 270.964 59.7604L279.702 50.0841C280.777 48.8935 281.488 49.0555 282.944 50.3696L283.234 50.0483Z" fill="#DFD4BF"/>
<path d="M290.531 57.7642L290.383 57.5897C290.065 57.7267 289.413 57.7465 289.123 57.5246L288.473 58.6465L275.828 62.9227C273.674 63.6527 272.49 64.2259 271.351 62.888L271.021 63.1685L274.389 67.1242L274.738 66.8271C272.938 64.7135 273.57 64.2766 276.039 63.4454L278.528 62.5978L283.149 68.0271L282.051 69.9981C280.217 73.2647 279.953 72.9545 278.732 71.5196L278.383 71.8167L282.014 76.0826L282.363 75.7855C281.175 74.3894 281.208 74.1934 283.376 70.3755L290.531 57.7642ZM288.115 59.286L283.441 67.5448L279.067 62.4063L288.115 59.286Z" fill="#DFD4BF"/>
<path d="M297.093 66.6191L296.735 66.8628C297.667 68.2307 297.86 69.147 296.534 70.0501L285.759 77.3898C284.433 78.293 283.665 77.7992 282.719 76.4102L282.361 76.6539L286.002 81.9994L286.36 81.7557C285.199 80.051 285.193 79.4084 286.518 78.5052L290.854 75.5521C291.264 76.2896 291.468 76.9515 292.486 78.4457C294.98 82.1076 297.932 82.0993 300.184 80.5654C302.962 78.6732 303.013 75.3108 300.964 72.3013L297.093 66.6191ZM292.907 78.159C291.889 76.6648 291.685 76.0029 291.275 75.2654L297.294 71.1655C298.62 70.2624 299.33 70.672 300.563 72.4819C302.269 74.9863 301.886 77.681 299.318 79.4299C297.193 80.8778 294.885 81.0632 292.907 78.159Z" fill="#DFD4BF"/>
<path d="M305.213 97.2138C306.797 99.5336 309.089 100.614 311.388 99.5193C313.71 98.4135 314.295 95.7937 312.631 92.2992L309.642 86.0229L309.252 86.209C309.985 87.7494 310.014 88.6383 308.496 89.3609L296.817 94.9227C295.369 95.6124 294.674 95.041 293.94 93.5006L293.549 93.6868L296.287 99.4343L296.677 99.2481C295.834 97.4779 295.926 96.8418 297.398 96.1411L303.26 93.3493L304.432 95.8092L299.56 106.308L301.116 109.516L301.484 109.341C300.542 107.364 301.206 106.032 303.334 101.381L305.213 97.2138ZM309.077 90.5794C310.686 89.813 311.146 90.1863 311.912 91.7956C313.554 95.2441 312.66 97.3341 310.66 98.2866C308.545 99.2938 306.308 98.3283 305.016 95.6155L303.812 93.0866L309.077 90.5794Z" fill="#DFD4BF"/>
<path d="M310.043 107.923C304.962 109.591 302.523 114.734 304.096 119.524C305.51 123.83 310.578 126.696 315.659 125.028C320.884 123.312 323.402 118.492 321.83 113.702C320.416 109.395 315.341 106.183 310.043 107.923ZM310.543 109.447C315.721 107.747 319.979 109.941 321.273 113.884C322.56 117.804 320.336 121.804 315.158 123.503C310.126 125.156 305.939 123.26 304.653 119.341C303.366 115.422 305.511 111.099 310.543 109.447Z" fill="#DFD4BF"/>
<path d="M326.897 132.662L326.852 132.437C326.507 132.402 325.928 132.102 325.783 131.767L324.67 132.431L311.542 130.015C309.304 129.604 307.991 129.529 307.647 127.806L307.223 127.891L308.24 132.985L308.689 132.895C308.146 130.173 308.91 130.098 311.471 130.574L314.058 131.044L315.454 138.036L313.536 139.224C310.344 141.185 310.264 140.786 309.895 138.938L309.446 139.028L310.543 144.521L310.992 144.432C310.633 142.634 310.758 142.479 314.509 140.198L326.897 132.662ZM324.045 132.816L315.943 137.757L314.622 131.139L324.045 132.816Z" fill="#DFD4BF"/>
<path d="M320.91 160.928C326.976 160.444 329.471 157.128 328.92 150.224L328.402 143.726L327.97 143.76C328.102 145.41 327.815 146.302 326.216 146.429L313.22 147.466C311.621 147.593 311.2 146.809 311.065 145.109L310.633 145.143L311.208 152.352C311.666 158.089 315.198 161.383 320.91 160.928ZM311.628 152.165C311.415 149.5 311.728 148.939 313.302 148.813L326.323 147.775C327.922 147.647 328.316 148.101 328.488 150.259C328.968 156.274 325.972 159.068 320.794 159.481C314.88 159.952 312.047 157.42 311.628 152.165Z" fill="#DFD4BF"/>
<path d="M328.849 183.716L329.003 180.664L313.302 172.502L329.761 165.66L329.92 162.506L329.488 162.485C329.402 164.188 329 165.086 327.372 165.004L314.402 164.348C312.775 164.266 312.465 163.333 312.551 161.629L312.119 161.607L311.822 167.481L312.254 167.503C312.353 165.545 312.741 164.927 314.343 165.008L326.143 165.605L311.607 171.728L311.577 172.313L325.411 179.59L313.611 178.994C312.034 178.915 311.726 177.956 311.811 176.277L311.378 176.255L311.047 182.817L311.479 182.838C311.579 180.855 311.966 180.262 313.568 180.343L326.589 181.001C328.191 181.082 328.515 181.736 328.416 183.694L328.849 183.716Z" fill="#DFD4BF"/>
<path d="M327.279 195.425L327.322 195.2C327.015 195.038 326.59 194.544 326.581 194.179L325.3 194.378L314.029 187.226C312.108 186.009 310.918 185.447 311.244 183.721L310.818 183.641L309.856 188.745L310.306 188.83C310.821 186.103 311.557 186.319 313.755 187.718L315.978 189.122L314.657 196.129L312.434 196.513C308.74 197.138 308.816 196.738 309.165 194.886L308.714 194.801L307.676 200.306L308.127 200.391C308.466 198.589 308.64 198.492 312.972 197.78L327.279 195.425ZM324.577 194.501L315.215 196.053L316.466 189.422L324.577 194.501Z" fill="#DFD4BF"/>
<path d="M324.518 205.957L324.103 205.832C323.625 207.416 323.033 208.142 321.497 207.678L309.017 203.908C307.481 203.444 307.383 202.536 307.869 200.928L307.454 200.802L305.584 206.994L305.998 207.119C306.595 205.145 307.091 204.736 308.626 205.2L313.648 206.717C313.332 207.499 312.945 208.074 312.423 209.804C311.141 214.046 313.003 216.337 315.611 217.125C318.829 218.097 321.476 216.024 322.529 212.538L324.518 205.957ZM312.91 209.952C313.433 208.221 313.819 207.646 314.135 206.864L321.107 208.97C322.643 209.434 322.77 210.244 322.137 212.34C321.261 215.241 318.924 216.636 315.95 215.738C313.488 214.994 311.894 213.316 312.91 209.952Z" fill="#DFD4BF"/>
</svg>
