<svg width="151" height="149" viewBox="0 0 151 149" fill="none" xmlns="http://www.w3.org/2000/svg">
<path d="M57.7113 38.3137C57.4164 39.858 55.6343 40.4766 55.1908 42.4506C58.5704 40.6822 60.4731 37.9894 62.1043 35.1663C62.9346 33.7291 60.3415 30.5021 58.7084 30.0373C57.4357 29.6753 56.3455 28.6563 55.1909 27.9038C54.7486 27.6157 54.3718 27.2175 53.7915 27.223L53.8483 27.2036C53.7942 27.4635 53.7403 27.7226 53.6867 27.9822C53.662 28.3404 53.5027 28.416 53.2096 28.2092C52.0346 27.57 51.7676 25.6713 49.7782 25.9874C49.2834 26.0658 49.0176 24.5625 49.0664 23.5897C49.1732 21.4595 48.3433 19.67 46.6447 18.2879C48.9685 22.5753 47.9481 28.0934 51.7369 31.8347L51.7096 31.7769C51.3753 32.1933 51.5086 32.6286 51.6389 33.0755C52.4252 35.7829 51.8123 37.2379 48.9177 39.187C49.2655 37.6127 51.0399 37.2422 51.1225 35.6246C51.2172 33.7741 50.6459 32.6079 48.748 32.6491C47.8741 32.6682 48.389 32.2733 48.4049 32.0917C48.5315 30.6141 47.8757 29.5498 46.539 29.088C44.8018 28.4883 44.5324 26.6077 43.4495 25.4658C41.558 23.4723 38.797 22.3616 37.5088 19.9197C36.4998 18.0083 35.1541 16.295 34.2969 14.3292C33.5814 12.6884 35.1582 11.578 35.6133 9.81363C36.4833 11.3499 35.1591 13.1132 36.811 14.1892C37.3983 12.349 38.0976 10.8229 40.4558 11.6768C40.9828 11.8679 41.5692 11.2537 41.8196 10.6454C42.1062 9.94784 41.9716 9.31762 41.4613 8.74651C40.9428 8.16569 40.2679 8.11689 39.5758 8.14565C39.2096 8.16143 39.0128 8.46339 39.1753 8.76614C40.0527 10.4071 38.0503 9.75439 37.6979 10.4978C37.7121 10.1611 37.7325 9.82463 37.739 9.48766C37.7553 8.60833 37.3826 7.19867 38.4826 7.17514C39.6971 7.14923 41.204 6.20129 42.2787 7.64789C42.9864 8.59919 44.0232 9.0929 45.0333 9.62486C47.6032 10.9787 49.8288 12.6239 50.3505 15.7649C50.4271 16.2259 50.7152 16.6098 51.2911 16.5727C51.6196 17.2197 51.4741 17.8946 51.4712 18.5784C51.4648 20.1082 51.9629 21.1013 53.8308 21.1632C55.8992 21.2316 56.5531 23.0734 57.4007 24.6266C57.9211 23.9968 58.3484 22.7734 59.522 24.0799C59.1584 22.9932 58.6836 21.9933 57.788 21.4025C56.59 20.6134 56.1038 19.5808 55.9216 18.2003C55.7191 16.6674 54.9661 15.8003 53.2561 16.733C52.6121 17.0845 51.8494 17.4738 51.2337 16.5977C52.7418 14.4467 51.0196 13.1218 49.6817 11.8027C51.0157 10.7675 52.112 13.4383 52.9858 11.6995C53.6257 10.4271 51.6601 10.3171 51.39 9.31542C51.9744 8.95759 52.4899 9.21606 52.9122 9.44656C54.8531 10.5039 56.7793 11.592 58.6687 12.7376C59.0625 12.9761 59.3308 13.4643 59.7098 12.8508C59.9915 12.3951 59.804 11.9849 59.324 11.7306C58.2132 11.1409 57.102 10.5509 55.9904 9.96081L56.0184 10.0042C56.5306 8.17299 57.2704 7.47624 59.4235 8.34004C62.8996 9.73433 66.192 11.1606 68.0881 14.6357C68.021 14.8454 67.8819 14.9174 67.6718 14.8516L65.3224 14.0236C66.2039 15.3165 66.9013 16.3799 67.6452 17.4095C67.929 17.8026 68.2165 18.4265 68.8678 17.7908C69.6988 16.9789 70.3148 17.2446 70.8476 18.1654C70.9796 18.3937 71.2839 18.6307 71.5359 18.6646C74.2206 19.0251 75.4116 20.9609 74.7218 23.598C74.2322 25.4669 73.153 27.0273 72.2875 28.7092C72.5063 28.8179 72.6324 28.9401 72.7378 28.9238C73.86 28.7545 75.0234 26.6172 75.5656 27.7158C76.1311 28.8624 76.3656 31.1361 74.3554 32.4554C74.0761 31.2138 73.1975 30.7374 72.0455 30.4315C69.7483 29.8212 69.3137 28.8145 70.2119 26.6124C70.6983 25.421 70.9294 24.2649 69.8882 23.2306C69.4509 22.796 68.9337 22.2901 68.3082 22.578C67.6889 22.8638 68.2161 23.5536 68.1006 23.9863C67.2399 27.2063 69.663 30.6038 67.5111 33.7541C66.7448 34.8761 66.206 36.1512 65.4871 37.3083C65.2712 37.656 64.8009 38.0196 64.3265 37.6336C63.9388 37.3186 64.2333 36.9685 64.4254 36.6386C64.8026 35.989 65.071 35.2578 65.5326 34.6788C66.5298 33.4272 66.0065 32.5191 64.8583 31.2026C64.4585 36.4758 59.8074 38.5723 57.5673 42.65C59.8393 41.8799 61.0925 40.0561 63.2299 38.8433C62.8137 41.0598 60.771 41.4704 60.3293 43.0324C60.0643 43.1845 60.1663 42.8345 60.161 43.1364C60.1581 43.2851 60.3344 43.3492 60.4963 43.3241C64.4803 41.2049 67.2752 37.9706 69.2237 33.9602C69.6024 33.1808 69.5446 33.1532 70.8731 31.8935C69.6258 38.4996 64.4761 41.8883 60.1856 46.0701C60.4897 46.1948 60.6603 46.2982 60.8442 46.3348C61.6477 46.496 62.5129 45.143 63.2514 46.3851C63.6189 47.0026 63.1249 47.3797 62.6249 47.6317C61.8315 48.0321 60.9831 49.3404 60.2591 47.5041C60.1889 47.3253 59.5813 47.3586 59.0538 47.2625C60.3404 50.0082 59.8304 52.8011 59.9069 56.1944C61.1241 53.7849 61.0657 51.8474 61.0498 49.7896C63.3375 50.907 61.0797 52.9026 62.3232 54.2012C63.689 52.9119 62.6916 51.0556 63.5817 49.6623C64.8126 50.5486 64.5767 52.0811 65.2453 53.4759C65.7615 52.3767 66.073 50.6283 67.3906 52.7535C67.9557 51.739 67.0186 50.44 68.1794 49.9155C69.0419 49.5259 69.2011 50.7898 70.0317 51.0947C69.405 49.2334 71.5821 47.7342 70.1663 45.9468C71.4434 45.6868 71.4903 46.9588 72.3222 47.3001C72.4109 46.7699 72.4934 46.2751 72.5807 45.7503C75.2209 47.5236 77.2046 53.6382 76.1633 56.9676C74.8727 55.8552 75.1656 54.2947 74.9189 52.9965C74.6438 51.5469 74.0164 50.4834 72.5 49.4119C74.0539 53.6 74.6588 57.582 74.4529 61.6885C74.4178 62.3823 75.1631 63.6851 75.3641 63.3725C76.0213 62.352 78.026 63.2408 77.9001 61.3612C77.7759 59.5181 77.7306 57.6483 78.7286 55.7171C78.3675 58.8959 81.0829 59.834 82.5961 61.6359C83.377 62.5658 84.0539 63.5898 84.7067 64.617C84.9865 65.0573 85.591 65.7141 84.3842 65.8934C83.764 65.9859 84.1281 66.3675 84.2022 66.7241C84.4071 67.7121 86.9435 68.5141 84.4926 69.7699C84.4563 69.7888 84.6119 70.3486 84.7848 70.5738C85.1062 70.9938 85.5241 71.3374 85.8701 71.7403C86.6374 72.6319 87.432 73.8787 86.5846 74.7412C85.7775 75.5625 85.0976 74.0373 84.107 73.7421C85.566 75.1822 85.0603 77.548 86.804 78.809C87.227 79.0237 87.4332 79.335 87.2527 79.8182C87.6796 80.9543 88.0875 82.0984 88.5392 83.2248C88.9181 84.17 89.2698 85.0906 88.409 85.9814C87.3801 85.7097 87.3875 84.5288 86.3032 83.6694C87.5321 87.2613 87.8536 90.6394 88.713 94.1919C89.856 93.2684 89.1946 92.3179 89.2988 91.5298C89.3795 90.9161 88.9165 90.037 89.9281 89.9085C90.4125 89.8469 91.2955 89.3673 91.4592 90.2819C91.6 91.0698 92.4136 92.2586 91.2166 92.6514C90.2153 92.9799 90.5986 93.5831 90.5686 94.0405C90.4658 95.6175 90.3169 97.1597 89.9535 98.7217C89.3331 101.385 89.4432 101.419 86.826 99.5417C88.1758 102.627 86.9353 105.639 87.7944 108.508C87.9907 109.163 87.4963 109.465 86.8765 109.502C86.0876 109.547 86.0246 109.071 86.1352 108.461C86.5047 106.418 86.557 104.387 85.8699 102.39C85.6925 102.45 85.3823 102.245 85.3718 102.639C85.6123 105.344 85.065 107.906 84.0503 110.403C83.8075 111.001 83.4392 111.796 84.2256 112.25C85.2725 112.853 85.1733 111.718 85.5465 111.263C86.4336 110.182 87.124 111.679 88.0963 111.336C87.8203 112.224 86.3502 111.862 86.7134 112.502C87.1516 113.273 88.1352 113.82 88.9933 114.237C89.557 114.512 90.2148 114.943 90.9747 114.062C92.5592 112.226 94.2975 110.507 96.3672 109.173C97.0068 108.761 97.5744 108.234 98.4029 108.264C98.6046 108.338 98.6653 108.475 98.5848 108.674C101.06 109.378 103.469 108.282 105.966 108.417C108.727 108.566 111.154 109.51 113.651 110.41C114.19 110.604 114.728 110.971 114.522 111.551C114.256 112.305 113.614 112.103 112.992 111.853C110.659 110.918 108.292 110.184 105.292 111.124C107.18 111.526 108.707 111.678 110.109 112.181C115.269 114.033 119.489 116.932 120.882 122.671C121.035 123.298 121.588 124.236 120.96 124.564C119.965 125.084 119.823 123.887 119.459 123.307C118.626 121.981 117.897 120.588 117.042 119.277C115.937 117.579 114.429 116.351 112.177 115.585C113.569 118.037 117.206 118.672 116.72 122.063C116.502 122.097 116.352 122.158 116.213 122.137C115.357 122.014 115.101 120.147 114.117 121.062C113.369 121.757 114.819 122.366 115.04 123.109C115.828 125.761 117.563 128.154 117.236 131.114C117.18 131.621 117.357 132.197 116.608 132.581C115.819 131.645 116.03 130.41 115.908 129.386C115.295 124.231 112.695 120.525 108.179 118.087C107.851 117.91 107.491 117.562 107.188 117.603C102.431 118.248 97.445 116.91 92.8955 119.496C90.4956 120.861 88.5217 118.704 86.3369 118.223C87.1497 118.175 87.9801 118.491 88.9275 117.826C86.7657 116.827 84.1969 116.939 82.9594 114.697C83.3402 113.889 84.1757 114.662 84.6563 114.019C82.9064 113.009 82.9956 111.563 83.7079 109.925C84.6763 107.699 84.4806 105.445 83.6754 103.139C83.2379 106.755 82.7673 110.296 80.3012 113.307C80.9961 109.166 82.7703 105.058 80.7054 100.901C80.3753 100.824 80.0582 100.774 80.0022 101.25C80.6598 104.722 80.5697 108.071 78.7303 111.26C78.2642 112.068 77.7231 112.637 76.9834 113.103L77.0239 113.083C75.9375 112.54 76.6531 111.883 76.8482 111.189C77.6633 108.291 79.4668 105.639 79.0506 102.434C79.004 102.075 79.1259 101.661 78.5059 101.235C77.9532 105.003 76.9491 108.531 74.6333 111.505C74.4367 111.758 73.8031 111.894 73.3713 111.526C73.7469 108.807 76.0526 106.794 76.2818 103.564C74.1523 105.717 73.6867 108.506 71.5868 110.808C71.6864 107.741 73.4543 105.603 73.3196 102.976C72.6926 104.244 72.0684 105.513 71.437 106.778C71.1423 107.368 70.8952 108.36 70.1354 108.061C69.165 107.68 69.7652 106.705 70.0309 106.084C70.5478 104.875 70.8796 103.669 70.5253 102.261C69.4548 104.209 68.0939 106.04 68.1181 108.431C68.1238 108.95 68.3791 109.423 67.7234 109.728C66.6762 110.215 67.479 109.037 66.9811 108.939C65.5387 108.658 64.277 108.143 64.646 106.27C63.685 106.347 64.0204 107.353 63.3601 107.595C62.0542 106.214 63.2466 104.575 62.9829 103.113C62.1035 102.839 61.9506 104.547 61.0887 103.804C60.3105 103.134 61.1736 102.406 61.3345 101.722C61.4924 101.05 61.7037 100.445 61.4466 99.7268C61.1008 98.7607 60.3468 97.4013 60.719 96.8156C62.0715 94.6881 63.0394 92.2743 64.9273 90.5046C65.0341 90.4042 65.2091 90.2787 65.3261 90.301C68.7767 90.9723 67.6548 88.606 67.7107 86.8657C67.7641 85.2081 67.618 83.5293 68.2115 81.8867C68.5191 81.0347 69.784 79.8838 67.7364 79.1471C67.145 78.9343 67.6875 77.5386 68.0125 76.8191C68.8719 74.9143 69.0228 72.8425 69.6099 70.8787C69.7811 70.3062 70.0205 69.5206 69.2071 69.3476C68.2925 69.1527 68.4007 70.0277 68.3429 70.5902C67.9982 73.9624 66.7573 77.0776 65.6122 80.2206C65.2197 81.2969 65.2276 81.2856 64.194 80.5306C63.5369 80.0506 63.5551 81.3008 62.8888 80.9999C62.4433 80.3291 63.6553 79.6884 63.0469 78.9807C60.8495 80.4687 60.7065 82.6396 61.1462 84.9541C61.4098 86.3398 61.1162 87.3616 60.0183 88.3764C58.6712 89.6212 59.0867 91.8017 57.837 93.2914C56.9999 92.2863 57.5498 91.3383 57.9998 90.5676C58.9653 88.9136 57.98 87.4465 57.6858 85.9479C57.4826 84.9149 57.1804 85.902 56.9411 86.0859C56.8424 86.1124 56.7436 86.1388 56.6449 86.1653C54.8675 86.318 55.4029 87.8302 55.2852 88.7584C54.6351 93.8922 54.3352 99.1063 52.9513 104.09C52.103 107.143 51.0048 110.09 50.8204 113.3C50.7593 114.365 49.9268 115.207 49.1477 116.069C48.1307 115.217 49.008 113.997 48.3475 112.902C46.8995 113.733 46.1821 114.979 45.9697 116.577C45.8721 117.308 45.4599 117.731 44.7518 117.624C44.019 117.513 44.2083 116.836 44.1708 116.326C44.1279 115.742 45.2213 115.014 44.1085 114.611C43.3225 114.326 42.6742 114.91 42.1921 115.565C41.9902 115.84 41.7522 116.089 41.3258 116.59C41.0174 114.458 41.4067 113.58 43.4364 112.88C46.9238 111.676 48.8584 108.788 49.5647 104.966C48.3944 104.97 48.4809 106.011 47.8946 106.657C48.2553 105.447 48.4231 104.451 49.198 103.621C49.8769 102.893 50.2137 101.886 50.0446 100.853C49.3525 96.6275 51.8874 92.7202 51.2546 88.496C51.2094 88.1938 51.51 87.7782 51.753 87.5066C52.403 86.7792 52.8783 86.2196 51.6497 85.4828C51.3324 85.2922 51.5101 84.1991 51.5391 83.5239C51.604 82.0104 51.4259 80.6071 50.0692 79.3897C49.5741 80.7448 50.3001 82.0029 49.4938 83.1433C49.3194 80.7683 48.048 78.5145 48.8025 76.0513C49.0822 75.1389 49.0926 74.6225 48.5097 73.6729C47.7842 72.4918 47.5907 70.8041 48.2537 69.2773C48.6361 68.3963 48.9053 67.4656 49.3187 66.2926C47.562 67.5992 46.4226 68.8998 46.4634 70.9492C45.1749 67.3582 47.5931 63.8798 46.6051 59.8498C45.2999 62.1865 45.6118 64.6387 44.2642 67.1937C44.3712 61.6205 46.5802 57.2076 47.645 52.5095C45.1495 56.0861 44.1314 60.3097 42.4553 64.9522C42.6623 61.7157 43.5923 59.3197 44.4516 56.5381C42.7073 57.2852 43.163 59.0498 42.0473 59.8722C40.7988 58.2996 41.313 56.3607 42.1984 55.4552C44.0155 53.5969 44.0342 51.2918 44.1627 49.2335C44.4994 43.8681 48.6242 41.5507 52.0208 38.6665C52.6708 38.1145 54.1746 38.6192 55.0811 37.6594C55.4051 39.1467 54.0714 39.8538 54.0445 41.0736C55.9084 40.9178 55.9619 38.4962 57.6862 38.2718L57.7113 38.3137Z" fill="#DFD4BF"/>
<path d="M45.8609 20.9672C47.2559 22.5544 46.339 24.5919 46.8914 26.3507C47.0006 26.6988 46.6733 27.1254 46.2798 27.1952C45.837 27.2739 45.7382 26.7531 45.4651 26.5295C43.1561 24.6396 42.0127 21.646 39.3429 20.096C38.6218 19.6776 38.5701 18.9969 38.9591 18.3136C39.4618 17.4321 39.8427 18.4612 39.9408 18.4408C42.531 17.9 42.0033 21.0701 43.8024 21.624C44.8902 21.9588 45.4303 22.2011 45.8061 20.9902L45.8609 20.9672Z" fill="#181818"/>
<path d="M46.827 13.5975C47.1859 13.6962 47.6718 13.6828 47.876 13.9157C48.3715 14.4806 48.8847 15.355 48.3387 15.9208C47.8217 16.457 46.7888 16.2033 46.4086 15.4962C45.8483 14.4545 45.3338 13.7108 43.994 14.2287C43.6526 14.3602 43.5074 13.9654 43.5079 13.6481C43.5086 13.2202 43.7625 13.3077 44.0961 13.2936C45.0301 13.2553 45.997 12.6716 46.827 13.5975Z" fill="#181818"/>
<path d="M45.803 20.99C45.7373 20.885 45.6716 20.7801 45.6061 20.6757C45.9137 20.5806 45.9839 20.6896 45.8569 20.9671C45.8579 20.967 45.803 20.99 45.803 20.99Z" fill="#181818"/>
<path d="M76.9817 113.103C77.5706 113.688 77.3669 114.513 77.6156 115.2C78.033 116.355 77.4794 116.934 76.4439 116.609C74.174 115.899 72.3154 116.99 70.3236 117.652C69.1863 118.03 68.0817 118.763 66.9796 117.124C66.3244 116.15 64.8468 116.226 63.6741 117.1C62.8559 117.709 61.9254 118.439 60.8476 117.499C60.8737 116.977 61.2518 116.853 61.59 116.714C62.2411 116.447 63.2481 116.683 63.3037 115.582C63.3334 114.997 62.7996 114.862 62.3565 114.787C61.4274 114.631 60.4818 114.074 59.6475 115.15C58.3316 116.849 53.1703 118.048 51.4 117.132C51.1541 117.005 50.8208 116.789 50.785 116.572C50.7188 116.17 51.0157 115.757 51.4317 115.809C52.6614 115.963 52.994 115.16 53.283 114.249C53.8656 112.416 55.2472 112.105 56.905 112.4C59.3967 112.845 61.8252 113.625 64.3712 113.793C65.4735 113.865 66.6457 114.394 67.4088 113.021C67.7108 112.477 68.181 112.803 68.5969 113.005C68.9365 113.171 69.4978 113.487 69.6386 113.365C71.9801 111.333 73.7547 113.596 75.7183 114.161C76.8745 114.494 77.0595 114.013 77.0216 113.083C77.0222 113.083 76.9817 113.103 76.9817 113.103Z" fill="#DFD4BF"/>
<path d="M40.8925 104.037C42.4148 99.4767 44.7682 95.1604 45.1179 90.2652C45.2719 88.1114 46.0032 85.9797 45.4471 83.7763C45.3481 83.3842 45.4338 82.7578 46.06 82.7889C46.4625 82.8093 46.6215 83.2823 46.6022 83.6721C46.4626 86.476 47.1913 89.7813 45.9537 91.9717C43.7407 95.887 44.3013 100.647 41.6563 104.169C39.9534 106.437 38.2302 108.726 36.1834 110.833C36.4664 109.783 36.7491 108.734 37.1293 107.323C34.7482 109.528 33.2723 112.624 29.2705 112.42C31.4453 109.134 34.7402 107.819 37.4321 105.783C37.7736 105.524 38.5722 105.47 38.4782 105.057C37.8555 102.321 40.7981 101.344 41.2693 98.6088C41.9149 100.874 40.2703 102.289 40.8925 104.037Z" fill="#DFD4BF"/>
<path d="M59.5534 120.772C55.7155 121.318 52.1125 120.454 48.5292 120.907C45.5201 121.288 42.5153 121.704 39.5005 122.036C38.7796 122.115 37.6016 122.717 37.4455 121.497C37.2917 120.299 38.5392 120.767 39.1688 120.68C44.3126 119.967 49.4662 119.328 54.6132 118.637C56.5732 118.374 58.2015 118.83 59.5534 120.772Z" fill="#DFD4BF"/>
<path d="M53.6732 33.3982C54.4631 33.7067 55.719 34.9329 55.19 32.6345C55.1064 32.2717 54.8918 31.8533 55.3037 31.6223C55.8275 31.3291 56.2022 31.7747 56.3967 32.1383C56.9774 33.2227 56.8868 34.925 58.9647 34.467C59.3248 34.3873 59.7519 35.2096 59.5345 35.7697C59.276 36.4358 58.7281 36.3808 58.2361 36.0033C57.7974 35.6664 57.4475 35.4069 56.8269 35.7389C54.6246 36.9196 53.7398 36.3438 53.372 33.5701C53.3407 33.2825 53.4348 33.214 53.6732 33.3982Z" fill="#DFD4BF"/>
<path d="M59.2983 97.2121C58.8733 94.7939 59.6032 92.6249 60.2928 90.46C60.3786 90.1918 61.0102 89.8147 61.1792 89.9005C63.021 90.8349 63.0773 89.4301 63.2202 87.9791C64.5312 89.1814 64.7135 90.3713 63.2701 90.7531C61.2401 91.2902 60.4331 92.3457 60.2678 94.3318C60.1858 95.3119 59.6363 96.2532 59.2983 97.2121Z" fill="#DFD4BF"/>
<path d="M64.1694 44.768C65.6307 42.4367 67.4289 41.2138 68.6921 39.5632C69.9532 37.9157 70.8416 35.9838 72.1249 33.7783C71.1335 38.7647 68.731 42.1874 64.1694 44.768Z" fill="#DFD4BF"/>
<path d="M47.284 80.2785C46.1257 77.5727 45.8279 74.7935 46.5682 71.9263C47.6005 74.6528 47.4294 77.4771 47.238 80.3026L47.284 80.2785Z" fill="#DFD4BF"/>
<path d="M55.9835 101.346C55.8228 104.22 55.8142 106.706 53.3085 108.868C53.3736 105.858 54.6086 103.798 55.9835 101.346Z" fill="#DFD4BF"/>
<path d="M69.4497 121.73C67.7542 121.556 66.0582 121.382 64.3618 121.208C63.9757 121.169 63.5273 121.065 63.5275 120.637C63.5285 120.084 64.0507 119.904 64.499 119.932C66.295 120.043 68.0331 120.388 69.4497 121.73Z" fill="#DFD4BF"/>
<path d="M56.9413 86.085C57.5974 89.3341 56.1352 92.2347 55.4733 95.27C55.3897 92.1683 56.0207 89.1658 56.6485 86.1641C56.7455 86.1438 56.8439 86.1173 56.9413 86.085Z" fill="#DFD4BF"/>
<path d="M86.8027 78.8067C87.2616 78.0217 86.7431 77.3762 86.5163 76.6805C86.3763 76.253 86.274 75.7697 86.8381 75.5428C87.3556 75.3349 87.7342 75.601 87.898 76.0646C88.2693 77.1155 88.7855 78.1704 88.8737 79.2538C89.0174 81.0153 88.0664 80.4079 87.249 79.8117C87.1017 79.4793 86.9524 79.1433 86.8027 78.8067Z" fill="#DFD4BF"/>
<path d="M53.3686 33.5684C52.8158 32.9716 52.2627 32.3743 51.7101 31.7771L51.738 31.8345C51.7037 31.0024 51.6693 30.1704 51.6348 29.3388L51.5932 29.3562C53.6161 30.0195 53.7294 31.6634 53.6691 33.3968C53.5666 33.4491 53.4662 33.5066 53.3686 33.5684Z" fill="#DFD4BF"/>
<path d="M56.3771 100.004C55.9601 98.1226 56.5456 96.4518 57.4916 94.8586C57.815 96.7335 57.063 98.3747 56.3368 100.022L56.3771 100.004Z" fill="#DFD4BF"/>
<path d="M75.8023 62.6385C75.6271 61.191 75.3705 60.2656 76.103 59.3139C76.8617 60.3055 76.466 61.1814 75.8023 62.6385Z" fill="#DFD4BF"/>
<path d="M43.7297 69.1366C43.8935 69.2841 44.0984 69.4234 44.0812 69.4607C43.999 69.64 43.8561 69.7918 43.7352 69.9526C43.6347 69.8625 43.4363 69.7488 43.4515 69.6854C43.4961 69.4976 43.6247 69.3299 43.7297 69.1366Z" fill="#DFD4BF"/>
<path d="M53.6863 27.9816C54.0577 28.1883 54.6089 28.4667 54.0242 28.8638C53.5226 29.2046 53.3337 28.6263 53.2105 28.2076C53.3685 28.133 53.5274 28.0573 53.6863 27.9816Z" fill="#DFD4BF"/>
<path d="M57.6896 38.2725L57.9978 37.7822C58.0638 37.8704 58.1289 37.9585 58.1946 38.0464C58.0344 38.1355 57.8742 38.2247 57.7145 38.3141C57.7146 38.3147 57.6896 38.2725 57.6896 38.2725Z" fill="#DFD4BF"/>
<path d="M54.6778 29.6832C54.6957 29.8207 54.719 29.9571 54.7204 30.0943C54.7203 30.1076 54.5836 30.1224 54.5094 30.1359C54.4926 30.0008 54.4683 29.8659 54.4684 29.7312C54.4689 29.7153 54.6043 29.699 54.6778 29.6832Z" fill="#DFD4BF"/>
<path d="M50.5588 26.9799C50.625 27.1015 50.6885 27.2238 50.7525 27.3461C50.5789 27.3701 50.4056 27.3943 50.2319 27.4183C50.2244 27.2885 50.1771 27.1392 50.2261 27.0366C50.2544 26.9787 50.4411 26.9964 50.5588 26.9799Z" fill="#DFD4BF"/>
<path d="M68.0889 14.6358C68.1003 14.7942 68.1111 14.9528 68.1226 15.1107C67.9732 15.0235 67.8242 14.9364 67.6734 14.8506C67.8106 14.7802 67.95 14.7081 68.0889 14.6358Z" fill="#DFD4BF"/>
<path d="M55.992 9.96062C55.9247 10.0318 55.8568 10.1027 55.7891 10.173C55.8006 10.1279 55.7979 10.057 55.8248 10.0432C55.8818 10.0145 55.9539 10.0163 56.0201 10.0051C56.0197 10.0043 55.992 9.96062 55.992 9.96062Z" fill="#DFD4BF"/>
<path d="M59.0532 30.8285L59.0578 30.6836L59.175 30.7505L59.0532 30.8285Z" fill="#DFD4BF"/>
<path d="M51.6321 29.3384C51.5572 29.2458 51.4822 29.1531 51.4073 29.0605C51.7453 28.9869 51.7355 29.1295 51.5905 29.3558L51.6321 29.3384Z" fill="#DFD4BF"/>
<path d="M55.3418 30.9256L55.1617 30.9985C55.1415 30.9377 55.0901 30.8619 55.11 30.8183C55.1299 30.7762 55.2209 30.766 55.2813 30.741L55.3418 30.9256Z" fill="#DFD4BF"/>
<path d="M85.8774 66.9169C85.8213 66.9376 85.753 66.9876 85.713 66.9702C85.6726 66.9537 85.6604 66.8703 85.6366 66.8155C85.6923 66.7946 85.7614 66.744 85.801 66.7612C85.8412 66.7781 85.8532 66.8619 85.8774 66.9169Z" fill="#DFD4BF"/>
<path d="M47.2423 80.3033C47.6086 80.3685 47.6441 80.5893 47.5169 80.8865L47.5601 80.8614C47.4695 80.6671 47.3785 80.4731 47.2882 80.2793L47.2423 80.3033Z" fill="#DFD4BF"/>
<path d="M47.5125 80.8849C47.5678 80.9136 47.6233 80.9419 47.6786 80.9706C47.6377 80.9339 47.597 80.8967 47.5558 80.8599L47.5125 80.8849Z" fill="#DFD4BF"/>
<path d="M98.4015 108.263C98.5815 108.291 98.8843 108.27 98.9188 108.355C99.0215 108.612 98.7944 108.665 98.5833 108.675C98.516 108.541 98.4547 108.404 98.4015 108.263Z" fill="#DFD4BF"/>
<path d="M56.3322 100.02C56.406 100.104 56.4796 100.188 56.5534 100.271C56.1867 100.387 56.2832 100.192 56.3725 100.002L56.3322 100.02Z" fill="#DFD4BF"/>
<path d="M61.2017 76.7108C60.4772 76.0978 61.3593 75.4196 61.0915 74.7798C60.2993 74.9658 60.8031 75.9827 60.2378 76.151C58.3193 76.721 59.0543 77.8763 59.5651 78.9726C59.9057 79.7026 60.1096 81.2272 59.9395 82.0475C59.8625 82.4179 59.8939 82.8115 59.8127 83.181C59.7512 83.4631 59.5899 83.7236 59.2266 84.0112C59.4965 81.7295 58.3221 79.7277 58.252 77.5435C58.2286 76.814 58.0578 75.8065 59.3196 75.7306C59.7173 75.707 59.7871 75.3267 59.7879 75.05C59.7918 72.1112 61.1444 69.1132 59.3341 66.2413C58.9543 65.6394 58.7149 64.8182 59.5715 64.0192C60.1837 65.0665 59.697 67.8623 62.2145 65.7984C63.4644 68.7532 59.7958 70.8159 61.0934 73.4973C64.5651 69.7452 64.1874 65.0715 63.5778 60.3223C65.0343 61.4384 63.7866 63.2189 65.5681 64.7712C65.0298 62.1668 67.4862 60.8128 66.7152 58.4676C68.7018 60.4115 67.5818 63.2723 68.9906 65.4423C70.3571 61.9719 68.6922 58.3551 69.3248 54.5094C71.8439 59.2428 70.551 63.8405 70.4527 68.4705C69.166 68.1137 69.7329 66.8072 68.709 66.3254C68.6326 67.6316 68.0226 68.2619 66.6269 68.2434C64.4165 68.2139 64.3305 69.9226 64.3452 71.5235C64.3545 72.5465 64.8627 73.7317 63.0194 73.6206C62.8043 73.6075 62.4823 74.4481 62.3068 74.9282C62.061 75.6008 62.1713 76.4737 61.2017 76.7108Z" fill="#181818"/>
<path d="M51.2404 16.5992C51.9422 16.8616 52.4005 16.4024 52.8579 16.0188C53.6252 15.3754 54.4382 14.6394 55.4324 15.3834C56.3492 16.0697 57.0603 16.9827 56.8748 18.2992C56.729 19.3336 56.3664 20.4423 58.2469 20.2535C58.9098 20.1873 59.3972 21.2247 59.5772 21.9317C59.9604 23.433 60.5183 24.9434 60.1702 26.5972C58.364 26.3009 59.5776 24.5482 58.5522 23.763C57.3997 24.7756 58.7888 26.5337 57.5054 27.4117C56.6873 27.2575 56.8029 26.5833 56.6788 25.9991C56.2388 23.9251 56.0337 21.7793 52.9329 21.9278C51.1886 22.0115 50.2233 18.5558 51.2978 16.5742C51.2983 16.5744 51.2404 16.5992 51.2404 16.5992Z" fill="#181818"/>
<path d="M55.7972 83.7514C54.8936 78.7067 55.4264 73.6714 55.7528 68.6178C57.1291 70.3326 55.3377 72.547 56.9081 74.4128C57.8064 72.7964 57.5022 71.2378 57.4259 69.711C57.3896 68.9784 57.0639 67.8847 58.0882 67.8802C58.9922 67.8761 58.5183 68.9159 58.5414 69.5428C58.6231 71.8084 58.6654 74.0163 56.6178 75.6461C56.0623 76.0885 56.2003 76.9119 56.4011 77.5932C57.035 79.7442 56.7046 81.7917 55.7472 83.7732L55.7972 83.7514Z" fill="#181818"/>
<path d="M71.6682 53.3145C74.4858 58.1176 72.4154 63.4212 73.4921 68.4132C70.5862 63.6412 72.7828 58.2966 71.6682 53.3145Z" fill="#181818"/>
<path d="M75.382 92.7273C75.6483 91.3912 77.5323 91.6211 77.3703 89.9737C79.136 92.5101 76.5111 93.534 75.8341 95.1584C75.5623 95.8111 75.0203 95.0169 74.6279 94.7153C73.9344 94.1827 72.7557 93.7497 73.5487 92.6969C74.1079 91.954 74.0966 91.1656 74.474 90.1019C74.8641 91.0069 74.5623 91.877 75.382 92.7273Z" fill="#181818"/>
<path d="M65.796 20.7496C65.7709 20.8209 65.7451 20.8926 65.7204 20.9641C65.4657 21.7171 66.5999 22.9713 65.5398 23.1522C64.4684 23.3346 64.7734 21.8128 64.4114 21.0665C63.6237 19.444 63.3266 17.4986 61.6357 16.3413C60.8389 17.2839 62.1766 18.1592 61.3628 19.1235C60.7468 17.9119 60.1813 16.7998 59.6247 15.705C60.1213 15.2516 61.1606 17.4342 61.2348 15.2532C61.2561 14.623 61.7713 15.2367 61.9635 15.3273C63.3156 15.9603 63.6792 17.3726 64.364 18.5268C64.8212 19.2969 64.9983 20.2425 65.8108 20.785L65.796 20.7496Z" fill="#181818"/>
<path d="M51.9924 60.1543C51.684 62.6621 51.3607 65.0192 51.1115 67.3839C50.8086 70.2581 51.8372 73.0795 51.5072 75.9631C51.4574 76.3995 51.6504 77.0294 51.0953 77.1069C50.4011 77.2039 50.2654 76.5325 50.2771 76.0098C50.3964 70.7301 49.187 65.316 51.9924 60.1543Z" fill="#181818"/>
<path d="M79.6386 77.2512C81.7395 78.6072 80.8573 80.3952 80.4531 82.0836C80.3985 82.3114 80.0627 82.568 79.8107 82.6334C79.3382 82.7577 79.2479 82.3583 79.0871 81.9915C78.3653 80.3465 79.3031 78.8782 79.6386 77.2512Z" fill="#181818"/>
<path d="M75.6134 71.0927C77.1038 71.044 77.5974 72.4996 78.4191 71.8492C79.1933 71.237 78.1276 70.3277 78.2711 69.4227C79.8424 69.4808 80.0823 70.9199 79.9827 71.7568C79.8727 72.6867 78.9045 74.2464 78.3072 74.2478C76.6523 74.2517 77.1602 72.0865 75.6134 71.0927Z" fill="#181818"/>
<path d="M65.0429 78.1838C65.6086 75.361 64.9166 72.3213 66.609 69.6997C66.6239 72.6169 66.9625 75.5796 65.0429 78.1838Z" fill="#181818"/>
<path d="M52.1811 84.7263C52.6747 83.116 51.0929 81.2618 52.9588 79.8199C53.3541 79.5138 52.8734 78.6856 52.7414 78.0975C52.5655 77.3153 52.3944 76.4995 52.7819 75.3485C55.2236 78.8557 54.018 81.8366 52.1811 84.7263Z" fill="#181818"/>
<path d="M62.8226 25.0093C62.5629 25.9477 63.1797 26.9529 62.5825 28.115C61.263 26.7343 61.7841 25.0199 61.2664 23.6438C60.7082 22.159 60.9684 20.9865 62.4175 19.5958C62.4453 21.6213 61.1445 23.5663 62.845 25.059L62.8226 25.0093Z" fill="#181818"/>
<path d="M85.7187 87.7065C87.2967 89.9673 87.4797 92.4284 86.51 95.0088C85.9085 92.6334 86.0961 90.1619 85.7187 87.7065Z" fill="#181818"/>
<path d="M81.6402 89.458C82.1144 90.7839 82.3777 92.0971 82.0453 93.8235C80.6834 92.2611 81.1944 90.8358 81.6402 89.458Z" fill="#181818"/>
<path d="M83.7824 90.3351C85.2423 91.9844 85.055 93.4523 85.149 94.8354C85.1738 95.1945 84.991 95.6314 84.5666 95.6825C84.0707 95.7413 84.0103 95.3448 83.9951 94.9347C83.9472 93.6101 83.8749 92.2864 83.7824 90.3351Z" fill="#181818"/>
<path d="M62.8357 25.0562C63.7273 24.5758 62.4943 23.5769 63.4233 23.011C64.2027 23.9384 64.5851 25.071 64.9914 26.1854C65.1512 26.6228 65.2319 27.162 64.6967 27.3525C64.0783 27.572 64.0233 26.9422 63.8325 26.5677C63.5486 26.0108 63.7555 25.1354 62.8136 25.0071C62.8133 25.0065 62.8357 25.0562 62.8357 25.0562Z" fill="#181818"/>
<path d="M82.6653 67.9058C81.8995 66.7066 80.221 66.2851 79.82 64.4966C81.5533 65.2329 82.459 66.3093 82.6653 67.9058Z" fill="#181818"/>
<path d="M65.8184 20.7882C66.9314 19.207 65.0398 18.1199 65.1823 16.0199C66.0282 17.6101 66.7632 18.6591 67.1619 19.8236C67.6617 21.283 66.1806 20.3064 65.8039 20.7523C65.8035 20.7526 65.8184 20.7882 65.8184 20.7882Z" fill="#181818"/>
<path d="M52.9875 89.1332C53.1979 87.1801 53.3062 85.771 53.5231 84.3787C53.5968 83.9025 53.8342 83.2262 54.5492 83.5105C55.1366 83.7441 54.8717 84.2114 54.6218 84.623C53.8697 85.8628 54.4762 87.5061 52.9875 89.1332Z" fill="#181818"/>
<path d="M65.5447 29.8722C65.7614 29.4999 65.9024 28.9289 66.2161 28.8082C66.5617 28.6758 66.7881 29.2168 66.8954 29.5769C67.1147 30.3118 67.8262 30.9504 67.4819 31.8789C66.1259 31.7369 66.625 30.0478 65.5249 29.8317L65.5447 29.8722Z" fill="#181818"/>
<path d="M49.3563 65.1781C48.7668 62.9629 49.6393 61.6859 50.5268 60.3977C50.1894 61.7758 49.8518 63.1543 49.3563 65.1781Z" fill="#181818"/>
<path d="M73.5295 98.9173C73.6193 98.1649 73.7813 97.4638 74.4649 96.8672C74.6683 98.3023 74.6683 98.3023 73.5295 98.9173Z" fill="#181818"/>
<path d="M68.4403 102.429C68.5492 103.691 68.399 104.806 67.5733 105.705C67.2573 106.049 66.7486 106.178 66.3594 105.792C66.0359 105.471 66.1765 104.951 66.4782 104.795C67.4564 104.289 67.1846 102.763 68.4403 102.429Z" fill="#181818"/>
<path d="M61.3098 60.9122C61.9137 62.0091 61.9926 62.7893 61.5475 64.1101C61.1206 62.8805 60.789 62.1265 61.3098 60.9122Z" fill="#181818"/>
<path d="M82.3589 98.2483C83.1506 98.9657 83.3074 99.5688 82.8612 100.23C82.7789 100.351 82.3472 100.418 82.2683 100.333C81.6535 99.6678 81.7814 98.996 82.3589 98.2483Z" fill="#181818"/>
<path d="M65.527 29.8324C64.8839 29.9758 65.6146 31.2085 64.6698 30.9921C64.2635 30.8989 64.0853 30.266 64.2472 29.8405C64.6647 28.7409 65.0883 30.4861 65.5475 29.8735C65.547 29.8731 65.527 29.8324 65.527 29.8324Z" fill="#181818"/>
<path d="M60.4922 43.3221C60.0909 43.8592 59.6353 44.3135 58.7337 44.4361C58.981 43.5113 59.4084 43.017 60.3252 43.0305C60.3779 43.1292 60.4335 43.2266 60.4922 43.3221Z" fill="#181818"/>
<path d="M55.7462 83.7736C56.298 84.0063 56.1822 84.4425 56.0522 84.8595C56.0346 84.9159 55.7639 84.9742 55.7152 84.9261C55.302 84.5164 55.6241 84.1358 55.7958 83.752C55.7963 83.7515 55.7462 83.7736 55.7462 83.7736Z" fill="#181818"/>
<path d="M80.0033 101.249C79.8907 100.721 79.3653 99.9702 80.075 99.7454C80.6063 99.5769 80.6577 100.403 80.7061 100.902C80.4721 101.017 80.2377 101.133 80.0033 101.249Z" fill="#181818"/>
<path d="M82.3994 97.6801C82.262 97.7912 82.1727 97.8641 82.0829 97.9367C82.003 97.7557 81.9021 97.5796 81.8577 97.3906C81.847 97.3443 82.0201 97.2549 82.1087 97.1853C82.206 97.3506 82.3032 97.5159 82.3994 97.6801Z" fill="#181818"/>
<path d="M87.365 98.2826C87.3692 98.3479 87.3736 98.4127 87.3778 98.478C87.2917 98.4694 87.2053 98.462 87.1196 98.454C87.1502 98.3951 87.1707 98.3243 87.2174 98.2821C87.2445 98.2576 87.3145 98.2809 87.365 98.2826Z" fill="#181818"/>
<path d="M53.8426 27.2012C53.7934 27.1537 53.7317 27.1125 53.7018 27.055C53.6891 27.0313 53.7439 26.9721 53.7683 26.9288C53.7742 27.0257 53.7799 27.1231 53.7855 27.2206L53.8426 27.2012Z" fill="#181818"/>
<path d="M58.0646 44.7848C58.0841 44.8487 58.1355 44.929 58.1133 44.9717C58.0919 45.0139 57.9967 45.0197 57.934 45.0419C57.9147 44.9785 57.8632 44.8983 57.885 44.8553C57.9063 44.8125 58.0018 44.807 58.0646 44.7848Z" fill="#181818"/>
<path d="M83.8615 90.1477L83.8695 90.0098L83.9679 90.0599L83.8615 90.1477Z" fill="#181818"/>
<path d="M50.1675 78.6601C50.1104 78.6861 50.0533 78.7111 49.9956 78.7374C49.9746 78.678 49.9232 78.6055 49.9412 78.5633C49.9595 78.5207 50.0474 78.5078 50.1047 78.4824L50.1675 78.6601Z" fill="#181818"/>
<path d="M85.1892 100.174L85.1811 100.308L85.0801 100.251L85.1892 100.174Z" fill="#181818"/>
<path d="M79.8909 98.9013L79.749 98.8934L79.8157 98.781L79.8909 98.9013Z" fill="#181818"/>
<path d="M85.4599 101.312C85.4021 101.334 85.3447 101.357 85.2869 101.38C85.2696 101.319 85.223 101.246 85.2434 101.205C85.2639 101.164 85.3507 101.156 85.4085 101.133C85.4257 101.193 85.4424 101.253 85.4599 101.312Z" fill="#181818"/>
<path d="M85.3712 102.638C85.2572 102.387 85.1567 102.112 85.5077 101.999C85.5784 101.976 85.7453 102.253 85.8683 102.39C85.7034 102.472 85.5374 102.555 85.3712 102.638Z" fill="#181818"/>
<path d="M83.6411 102.125L83.5154 102.132L83.5727 102.019L83.6411 102.125Z" fill="#181818"/>
<path d="M78.2373 100.798L78.2235 100.636L78.3614 100.692L78.2373 100.798Z" fill="#181818"/>
<path d="M55.0312 115.35C55.2172 115.027 55.4101 114.709 55.5875 114.382C56.0545 113.522 56.8301 113.377 57.6932 113.509C57.8615 113.534 58.1463 113.803 58.1252 113.912C57.96 114.776 57.1889 114.988 56.518 115.294C56.115 115.478 55.7013 115.638 55.2924 115.81C55.0656 115.736 54.9788 115.582 55.0312 115.35Z" fill="#181818"/>
<path d="M55.2906 115.811C55.1567 115.845 55.0222 115.88 54.8879 115.915C54.9359 115.727 54.9836 115.539 55.0305 115.351C55.1159 115.504 55.2035 115.657 55.2906 115.811Z" fill="#181818"/>
<path d="M53.7418 18.2095C54.3167 18.4124 54.7917 18.6303 54.4264 19.2075C54.125 19.6833 53.9704 20.495 53.1926 20.3426C52.6248 20.2315 52.3805 19.6564 52.4734 19.0801C52.5996 18.3069 53.2033 18.2124 53.7418 18.2095Z" fill="#DFD4BF"/>
<path d="M79.0605 72.7903C78.9492 72.8038 78.8338 72.8339 78.7245 72.8188C78.685 72.8133 78.6607 72.6995 78.6295 72.6345C78.7423 72.6211 78.8575 72.59 78.9668 72.6036C79.0045 72.6075 79.0285 72.7236 79.0605 72.7903Z" fill="#DFD4BF"/>
</svg>
