<svg width="255" height="159" viewBox="0 0 255 159" fill="none" xmlns="http://www.w3.org/2000/svg">
<path d="M194.461 68.006C193.935 67.1035 192.95 68.273 192.381 67.5296C192.394 67.3559 192.38 67.1565 192.427 66.9737C192.703 65.8938 194.822 64.9539 193.19 63.8338C192.063 63.0584 191.08 64.3485 190.339 65.4714C189.306 67.0349 188.003 67.4208 186.73 65.6085L186.792 65.6588C183.897 65.5427 180.978 68.7951 182.499 70.6988C184.412 73.0935 183.066 74.7467 182.174 76.6805C181.972 77.1194 181.637 77.5163 181.523 77.9725C181.439 78.3081 181.491 78.8101 181.699 79.0597C182.121 79.569 182.552 79.2106 182.91 78.8512C183.323 78.4379 183.749 78.0338 184.145 77.6031C184.717 76.9804 185.37 76.9064 185.92 77.5117C186.557 78.2121 186.096 78.8704 185.462 79.1859C183.519 80.1533 182.553 81.7132 182.345 83.8756C183.768 84.5038 184.162 83.348 184.745 82.5096C185.268 81.7561 185.866 81.1838 186.926 81.3538C188.065 81.5358 187.874 82.3596 187.95 83.1277C188.019 83.8162 188.146 84.6126 189.182 84.1253C189.735 83.8656 190.273 83.5236 190.579 84.3557C190.819 85.0094 190.406 85.4538 189.941 85.8552C189.571 86.1734 189.27 86.5876 188.868 86.8491C187.912 87.4709 188.06 89.616 186.612 89.1433C184.892 88.5818 187.068 87.4572 186.699 86.4916C186.525 86.0344 186.535 85.4145 185.963 85.4182C185.546 85.4209 184.978 85.7098 184.75 86.0527C184.27 86.7751 184.004 87.6364 183.583 88.4035C183.195 89.1094 183.949 93.4764 184.643 93.9757C186.208 95.1012 184.411 95.5145 184.167 96.2442C183.955 96.8824 183.422 97.5609 184.095 98.1131C184.664 98.5813 185.179 98.1195 185.535 97.6084C186.009 96.93 186.605 96.7562 187.279 97.2436C187.448 97.3661 187.56 97.7949 187.479 97.9934C187.187 98.7148 186.693 99.8157 185.962 99.5267C181.729 97.8544 181.797 101.927 180.174 103.711C179.792 104.131 179.511 104.642 179.187 105.114C177.984 106.875 178.644 104.239 178.025 104.622C178.105 104.462 178.105 104.462 177.861 104.462C175.583 104.957 175.521 107.65 173.731 108.629C172.867 105.824 175.361 104.293 176.19 102.137C176.284 101.923 176.691 101.95 176.628 101.627C176.605 101.513 176.466 101.61 176.388 101.866C176.363 101.949 176.27 102.01 176.204 102.085C175.715 102.697 175.422 103.419 174.984 104.062C174.057 105.422 173.088 105.957 171.587 104.497C173.453 106.488 171.806 108.221 171.482 110.056C172.243 109.443 172.238 107.793 173.787 108.569C173.805 110.646 171.231 112.689 173.844 114.869C174.384 115.319 173.853 116.742 173.278 117.304C170.984 119.542 171.647 122.198 171.928 124.843C172.072 126.203 172.163 127.572 172.213 128.939C172.242 129.714 172.36 130.238 170.989 130.139C169.322 130.018 167.832 133.794 168.735 135.23C169.089 135.793 169.631 136.055 170.217 136.012C172.036 135.881 170.907 134.029 171.907 133.127C172.269 135.022 173.114 135.878 175.237 135.953C176.882 136.012 176.55 138.746 177.991 139.762C176.519 139.374 175.668 137.727 173.984 137.947C173.496 138.011 173 137.981 172.769 138.543C172.579 139.005 172.833 139.346 173.171 139.519C175.332 140.621 173.474 141.249 172.885 142.001C171.553 143.701 171.588 141.778 171.001 141.32C169.698 140.304 168.385 139.26 166.944 138.468C165.226 137.522 164.585 138.898 164.255 140.405C162.689 139.211 164.095 136.847 162.004 136.29L162.067 136.361C162.102 132.322 162.864 131.743 166.235 133.302C167.325 133.806 167.709 132.955 168.071 132.388C168.892 131.102 169.379 128.868 168.268 128.403C164.417 126.793 165.749 123.246 164.76 120.603C164.633 120.264 164.893 119.568 164.736 119.485C161.157 117.587 163.829 116.053 164.941 114.36C165.227 113.925 165.344 112.827 165.134 112.699C161.563 110.528 165.385 109.233 165.748 107.58C165.927 106.764 166.773 106.101 166.987 105.283C167.193 104.492 168.098 103.202 165.843 103.26C165.068 103.28 164.182 101.248 163.464 100.082C163.21 99.6685 163.623 98.6398 162.783 98.7761C159.694 99.2753 161.648 97.4365 161.663 96.5011C161.677 95.7193 163.011 94.9687 161.89 94.2097C161.011 93.6145 160.25 94.3688 159.528 94.8736C159.314 95.0226 159.024 95.0656 158.517 95.2475C159.322 93.2844 161.002 92.4862 162.383 91.719C164.497 90.5422 165.632 92.9616 165.356 93.9757C164.718 96.3128 166.799 97.7364 166.62 99.8513C166.53 100.909 167.66 101.135 168.432 100.142C168.911 99.5258 169.21 98.7578 169.732 98.1881C170.829 96.9903 171.374 95.1415 173.666 95.3262C174.333 95.3792 175.143 94.186 175.81 93.491C176.126 93.1619 176.389 92.638 176.009 92.1771C175.602 91.6806 175.094 91.9933 174.683 92.2018C173.831 92.6343 172.765 92.9461 172.241 93.6465C171.477 94.6697 170.649 94.9421 169.806 94.2271C168.695 93.2844 169.87 92.4834 170.352 91.7492C170.773 91.1091 171.332 90.5029 172.212 90.4435C173.587 90.3502 174.131 89.3161 174.806 88.1731C173.513 87.5376 172.815 88.8022 171.869 88.9055C171.2 88.9796 170.723 90.5294 170.005 89.3207C169.537 88.5316 169.411 87.5221 170.52 86.7641C171.54 86.0655 172.382 85.1054 173.522 84.0594C171.903 83.1542 170.939 83.9232 169.971 84.6867C169.39 85.1448 168.663 85.4822 168.177 84.7735C167.671 84.0347 167.983 83.2978 168.803 82.8287C169.97 82.163 171.121 81.4718 172.34 80.7549C171.565 79.249 168.019 81.245 169.093 77.9433L169.036 78.0027C170.959 77.6397 172.693 76.942 173.858 75.2477C173.514 73.5882 168.172 77.5739 171.196 71.9688C167.349 73.9539 164.01 75.6171 160.741 77.4074C159.975 77.8271 158.794 78.5659 159.654 79.665C160.286 80.4724 161.259 79.7546 162.069 79.4181C162.781 79.1228 163.347 77.3617 164.204 78.7644C164.869 79.8534 163.344 80.4349 162.62 80.8052C160.796 81.7406 159.226 82.8351 158.211 84.6455C159.535 85.7876 160.458 84.4645 162.283 84.2615C160.77 85.7071 160.164 87.4234 158.346 85.4026C157.539 84.5047 157.01 85.4547 156.345 85.7281C151.343 87.7873 146.443 90.2323 140.707 89.7915C142.345 89.2731 143.957 88.4447 145.627 88.3057C148.49 88.0662 150.634 86.4944 152.888 85.0725C153.887 84.4416 154.755 83.7184 156.086 83.9488C156.762 84.0649 157.907 84.1911 157.662 82.9521C157.465 81.9527 156.478 82.1137 155.702 82.2819C153.307 82.804 151.039 83.6964 148.815 84.7077C145.083 86.4057 138.165 87.609 134.318 87.1975C138.016 86.3636 141.832 86.349 145.074 84.2469C145.678 83.8546 146.981 83.9899 146.724 82.9768C146.431 81.8137 145.218 82.4227 144.473 82.5407C142.562 82.8461 140.682 83.3444 138.789 83.7595C138.118 83.9067 137.491 83.8711 136.562 83.135C140.028 82.3706 142.99 81.4169 145.719 79.2974C143.396 77.9423 141.509 80.7659 139.437 79.4657C139.63 78.3648 142.161 78.7982 141.304 76.9036C140.602 75.352 139.223 75.7497 137.982 75.7497C136.721 75.7488 135.459 75.7497 133.496 75.7497C135.531 73.0167 138.035 73.7966 140.106 73.4053C140.45 73.3404 140.853 73.6897 141.231 73.6951C142.227 73.707 143.835 74.2776 143.839 72.8164C143.841 71.6415 142.238 72.2843 141.343 72.1124C137.771 71.4266 134.166 71.9542 130.523 72.0923C130.778 70.7006 132.829 71.3836 132.49 70.045C132.084 68.4449 130.347 69.8749 129.404 68.9313C129.561 68.2446 131.18 68.2657 130.588 67.1492C130.044 66.1252 128.998 66.436 128.213 66.6564C124.442 67.7189 120.425 67.6421 116.732 69.1105C119.945 67.4363 123.353 66.394 126.927 65.8655C127.674 65.7557 128.704 65.9176 128.614 64.7655C128.536 63.7762 127.582 63.6344 126.803 63.6737C124.653 63.7844 122.53 64.066 120.501 64.8898C119.295 65.379 118.067 66.041 116.182 65.358C120.041 63.2257 124.179 63.1352 127.831 61.0669C125.888 59.9294 123.898 59.9084 122.271 60.5521C118.923 61.877 115.15 62.2473 112.296 64.7317C111.559 65.3726 110.698 65.8582 110.043 64.9164C109.226 63.7442 110.398 63.5128 111.175 63.127C114.577 61.4345 118.05 60.0264 121.851 59.3991C123.744 59.0873 125.544 58.1949 127.367 57.5128C127.828 57.34 128.208 56.923 128.006 56.3607C127.937 56.165 127.531 55.9099 127.353 55.9575C123.766 56.9303 120.453 53.9907 116.773 55.3403C114.335 56.2345 111.721 56.7365 109.807 58.6091C107.901 60.4726 104.952 60.6902 103.314 62.956C102.818 63.6436 102.102 64.1547 102.168 65.2693C103.855 65.2117 105.199 64.4839 106.454 63.5503C106.94 63.19 107.436 62.7173 107.92 63.3967C108.31 63.9471 108.019 64.6421 107.562 64.9621C106.047 66.0227 104.567 67.2937 102.864 67.8844C100.635 68.6579 102.682 70.2507 101.89 71.2547C101.538 71.7009 102.072 72.1106 102.637 72.1627C104.035 72.2907 104.282 71.1477 104.901 70.2709C106.596 67.8679 109.203 67.4729 111.877 67.2635C111.865 71.7229 111.783 75.9874 107.137 78.5019C107.022 77.3032 108.113 76.483 107.247 75.2934C105.371 75.6272 104.305 76.9996 103.444 78.5906C102.44 80.4477 100.33 79.6623 98.6061 80.5702C100.444 81.9902 101.899 83.914 103.908 81.0951C104.346 80.4806 105.027 80.2996 105.723 80.6132C105.893 80.69 105.981 81.1042 105.985 81.3648C105.997 82.2142 105.387 82.5708 104.688 82.6851C101.456 83.2145 100.563 85.8342 100.385 88.3551C100.267 90.0503 100.011 91.3569 98.8676 92.5163C98.3089 93.0832 97.5518 93.7507 98.2879 94.4795C99.0943 95.2768 100.19 95.146 100.706 94.0607C101.114 93.203 101.608 93.1939 102.327 93.3813C102.762 93.4956 102.673 93.8614 102.561 94.0598C102.196 94.7026 101.651 95.082 100.858 94.8845C98.9645 94.4127 98.3775 96.0951 97.1742 96.8559C93.4226 99.2268 91.9477 102.771 90.6292 106.608C90.4911 107.011 89.6929 107.228 89.1644 107.443C88.6286 107.662 88.0553 107.816 87.4838 107.921C85.2134 108.336 86.243 112.504 83.0693 111.826C80.4743 111.272 79.3231 113.847 77.4542 114.383C73.8854 115.408 72.0704 118.848 68.6928 119.911C67.8854 120.165 67.6294 120.711 67.7144 121.477C67.8305 122.515 67.4127 123.16 66.4005 123.454C66.1298 123.532 65.701 123.728 65.6799 123.908C65.1231 128.777 61.43 133.124 63.4873 138.477C64.1905 140.307 65.5135 141.555 66.4279 143.141C67.1045 144.314 68.6562 145.78 65.9661 146.637C65.6059 146.753 65.1725 147.363 65.1752 147.741C65.1825 148.619 66.0411 148.64 66.6766 148.847C69.1225 149.649 71.0857 150.847 72.6273 153.175C73.6367 154.699 73.2682 154.83 72.2899 155.913C70.7903 157.572 69.9619 157.643 69.0384 155.6C67.8927 153.068 65.775 152.088 62.9414 152.104C64.8945 150.781 64.3404 147.598 61.8899 147.109C60.2422 146.779 59.562 145.824 58.8835 144.893C57.4187 142.883 56.156 140.696 55.0724 138.454C54.6436 137.57 54.9216 136.426 55.4867 135.372C57.4754 131.666 57.8183 127.907 55.8798 123.954C54.7213 121.591 56.5053 119.142 57.8713 118.12C59.6827 116.765 62.2291 115.325 65.1039 116.897C66.213 117.503 68.0994 116.413 68.4971 115.34C69.4444 112.786 70.9851 110.535 71.8747 107.979L71.9433 108.054C71.4697 107.997 70.7638 108.111 70.5709 107.848C70.2005 107.343 70.9174 107.05 71.2182 106.813C72.7461 105.611 74.3234 104.471 75.908 103.344C76.2957 103.068 77.0482 102.708 76.7218 102.369C73.8452 99.3759 78.1207 99.6932 78.6383 98.2695C79.0717 97.0772 82.5472 96.6794 79.2463 94.6468C78.5468 94.2161 79.7977 93.1308 80.2942 92.3865C80.6316 91.8818 82.464 91.3048 80.2512 90.5093C79.0945 90.0933 79.3954 89.4039 81.6566 88.1951C82.3679 88.8498 80.9745 90.0165 82.0881 90.4462C82.9568 90.7809 83.3472 89.9241 83.9342 89.4157C84.7389 88.719 85.6606 87.8778 87.0211 88.5791C88.3131 89.2457 89.2567 87.7443 89.0217 87.2835C87.6831 84.6638 89.8328 84.2011 91.2116 83.1871C91.6588 82.858 91.9815 82.3615 92.1982 81.7177C90.6996 82.2234 88.9276 81.6821 88.1988 84.1326C87.5569 86.2932 85.4823 84.8833 83.7358 84.9976C86.3152 81.1902 91.2482 80.5547 93.4893 76.419C91.1037 76.216 89.4103 76.9695 88.2299 78.6418C86.9717 80.4239 85.314 79.9503 83.7276 79.5873C83.0629 79.4355 82.0909 78.875 82.5444 77.9341C82.9111 77.1734 83.6435 77.1779 84.5322 77.6424C86.1589 78.491 91.614 75.5284 92.0272 73.7189C92.1214 73.3047 92.0977 72.8329 91.6615 72.7634C91.1147 72.6756 90.2552 72.5869 90.0074 72.8896C87.8056 75.5705 84.4262 74.5172 81.5633 75.9874C82.0214 73.5379 84.3228 72.9746 85.1302 71.0572C81.652 71.1496 79.8077 74.1002 76.4191 75.6546C78.5231 72.8283 80.1936 70.5196 81.951 68.2776C82.3012 67.8313 82.9998 67.6192 83.2201 68.5628C83.616 70.2526 84.7371 69.8274 85.6926 69.2989C86.8501 68.6588 87.7078 67.8633 85.9596 66.7561C85.4484 66.4315 85.8453 65.8463 86.3335 65.6488C86.777 65.4686 87.2808 65.3818 87.7627 65.3626C88.9587 65.3141 89.7889 64.7134 90.3393 63.714C90.4216 63.5659 90.2433 63.0995 90.0705 63.0136C88.9166 62.443 88.015 62.9907 87.1683 63.7496C85.4466 65.2903 83.0921 65.5189 81.1482 66.863C77.6517 69.2788 76.0012 73.3093 72.6995 75.7927C72.4005 75.4736 72.1719 75.3456 72.1646 75.2057C71.8903 70.3047 77.0107 69.832 79.1457 66.8338C81.428 63.6308 85.2893 62.1715 88.688 60.2687C89.702 59.7009 91.976 58.8715 88.7109 57.425C90.5231 56.7045 92.1013 56.0937 93.8551 54.5146C91.0352 54.6728 90.1107 51.606 87.2927 52.4993C85.1339 53.1833 83.4807 55.2443 80.6956 54.9023C82.6048 52.5277 85.2043 51.6106 87.5551 50.3634C88.1467 50.0489 88.6405 49.8294 88.475 49.1702C88.2866 48.4186 87.5505 48.4807 87.0138 48.6407C85.1586 49.1948 83.2137 49.7078 81.7361 50.9742C75.8924 55.984 69.096 57.3903 61.718 56.2309C58.6302 55.7462 56.423 53.4366 54.2715 51.3107C52.6604 49.7188 51.1754 47.9979 49.6064 46.3036C49.386 46.6164 49.1556 46.8203 49.1931 46.9089C51.0685 51.3162 58.0972 59.4942 64.1868 59.5573C66.224 59.5783 67.8909 58.3174 69.8942 58.5204C70.623 58.5945 71.6416 58.1035 71.7138 59.2885C71.7723 60.2513 70.9137 60.4387 70.0652 60.5448C62.6333 61.4756 55.9978 59.8215 50.4604 54.5685C50.0261 54.1571 49.6732 53.6862 48.9837 53.8297L49.0358 53.7639C48.5905 55.589 50.6927 56.3387 50.796 57.9325L50.8774 57.8694C48.426 58.2059 46.8789 56.2071 45.0876 55.2342C40.5862 52.7874 36.8419 49.2067 34.0074 44.858C31.0604 40.3383 27.3664 36.5538 23.1686 33.2219C22.7763 32.911 22.4161 32.6065 22.46 32.0442C23.6194 31.0466 24.6892 31.5504 25.6264 32.3468C27.5603 33.9927 29.7821 35.2929 31.705 37.5825C30.6755 35.6486 29.0543 34.9829 27.776 33.9461C27.0061 33.3225 26.4383 32.6641 26.9924 31.7269C27.5986 30.701 28.5706 31.0868 29.325 31.5267C31.6246 32.8671 33.6179 34.6117 35.538 36.4413C35.7977 36.6882 36.0062 37.0924 36.5219 36.926C34.3768 33.8482 31.2625 31.982 28.1619 30.1076C27.478 29.6952 26.5709 29.2956 25.94 29.8049C24.1799 31.2258 22.9025 30.1688 21.4569 29.2718C19.1481 27.8381 16.7589 26.537 14.2106 25.5431C16.2962 26.9576 18.6635 27.8884 20.74 29.3057C21.7074 29.9658 23.2682 30.3426 22.5441 32.1246C20.8013 32.548 19.8494 31.0996 18.7047 30.3261C17.4986 29.5096 16.3804 29.0579 14.2581 29.3002C17.6733 31.7744 20.5453 33.9552 23.5215 35.9832C26.6047 38.0826 28.4262 41.2856 30.8071 43.9985C31.108 44.3414 31.2305 44.9723 30.7953 45.3472C30.3143 45.7614 29.8919 45.3426 29.5389 45.0199C28.3137 43.9016 27.1058 42.7632 25.8861 41.6386C25.1079 40.9199 24.0601 40.3447 23.3213 41.2646C22.6026 42.1579 23.9202 42.5474 24.4212 42.9644C29.5197 47.2107 33.2741 52.7462 38.1668 57.19C41.6826 60.3848 45.8008 62.2345 50.3964 63.1443C51.3035 63.3236 52.3083 63.2431 52.9594 64.1867C51.9792 65.177 51.0054 64.6805 50.1166 64.4446C46.2845 63.4287 42.5302 62.294 38.7959 60.8347C35.0672 59.3772 31.2113 58.5634 28.2607 55.6118C28.0796 55.4299 27.4002 55.4445 27.2091 55.631C26.5608 56.2619 27.0866 56.934 27.4496 57.4342C29.6075 60.4086 32.6953 61.9657 36.1379 62.9121C36.8611 63.1105 37.7197 62.9084 38.1815 63.7451C34.8001 65.0078 29.7392 63.0227 27.9516 59.7265C27.2686 58.4674 25.8403 58.1318 24.8949 57.1882C20.7666 53.069 16.5276 49.0568 12.4971 44.8452C10.5998 42.862 7.81829 42.5337 5.83962 40.6931C4.92617 39.8446 4.22485 38.8461 3.25105 37.8714C7.63175 39.5072 11.3121 41.9787 14.5763 45.1278C17.7044 48.1442 20.8434 51.1525 24.0482 54.0867C24.4981 54.4981 25.1399 55.621 25.9537 54.6966C26.5261 54.0464 26.1339 53.2043 25.5084 52.6173C21.1286 48.5063 17.527 43.6035 12.4806 40.1482C10.6409 38.8891 8.82409 37.6593 6.46047 36.6626C8.099 35.6376 9.24834 35.9476 10.5833 36.8217C17.3459 41.25 22.9683 46.9336 28.3475 52.8761C28.9537 53.5454 29.453 54.1598 30.3216 54.4277C30.969 53.6286 30.6261 52.7846 30.1854 52.2424C23.5361 44.0497 16.7909 35.9906 6.02522 32.8872C1.99655 31.7251 2.04227 31.5696 2.06971 27.7577C5.82681 27.327 7.48547 31.7159 11.6687 31.8138C10.4041 29.6047 9.38094 27.8061 7.27242 26.879C5.84145 26.249 4.35835 25.725 2.9667 25.0192C0.571985 23.804 1.53023 21.4147 1.33639 19.5193C1.26781 18.8564 2.38332 18.9835 3.02429 19.394C4.16816 20.1273 5.32757 20.836 6.47601 21.5629C7.00268 21.8957 7.62993 22.1846 8.02676 21.572C8.4428 20.9274 7.82834 20.5607 7.3419 20.205C5.84601 19.1115 4.45436 17.846 2.86154 16.9252C1.59149 16.1919 1.15626 15.3553 1.18643 13.9261C1.22758 11.931 1.56681 10.8978 3.65247 12.4403C4.41962 13.0081 5.5333 13.8914 6.17975 12.8572C6.80609 11.8551 5.35317 11.354 4.75701 10.6353C3.68629 9.34426 1.37387 9.51433 1.15442 7.14705C0.93772 4.79989 1.37113 4.16259 3.60582 4.87487C8.28827 6.36802 12.5885 8.60089 16.3904 11.7454C16.6154 11.931 16.7598 12.2419 17.0058 12.3681C17.9019 12.828 18.9708 14.1145 19.7818 12.9971C20.3944 12.1532 19.3228 11.1291 18.4642 10.3857C13.8055 6.3543 8.36507 3.95502 2.44733 2.48473C1.76888 2.31557 0.545467 2.39146 0.735654 1.34086C0.964244 0.0708158 2.1904 0.646866 2.9484 0.763904C9.80337 1.82548 15.5035 5.28908 20.8534 9.47685C23.2765 11.3732 26.0305 12.8225 28.2524 15.0106C28.6849 15.4357 29.5417 15.4348 30.2933 14.7993C29.0287 13.3263 27.7596 11.846 26.4237 10.2906C30.3993 9.77859 40.4674 17.4272 44.71 24.3005C40.5259 20.8753 36.5813 17.0715 31.5597 14.9639C31.3512 15.2419 31.1427 15.5199 30.9342 15.7978C33.5621 17.9877 36.2101 20.1547 38.8023 22.3849C39.3217 22.832 40.663 23.1191 39.9983 24.0198C39.4415 24.7741 38.6935 24.1505 37.9209 23.4803C34.1939 20.2462 29.7172 18.2465 25.2323 16.2989C24.9699 16.1855 24.6535 16.127 24.3682 16.1453C23.4566 16.2075 22.0887 15.3809 21.7321 16.4315C21.2694 17.7911 22.7681 17.9877 23.7474 18.369C33.414 22.127 41.3269 27.9451 46.7646 37.0375C47.7393 38.6678 50.3443 39.4203 51.2907 41.4246C51.5439 41.9604 53.7347 43.0156 51.2779 43.7498C50.8792 43.8687 51.0072 44.356 51.1919 44.7501C53.3251 49.3055 59.6324 54.5274 64.6723 54.8621C66.8988 55.0102 69.192 54.8776 71.3033 55.8441C71.7641 56.0553 72.2332 56.2473 72.6739 55.8916C78.9053 50.8791 86.0684 47.4365 93.076 43.7279C94.347 43.0549 95.4177 42.307 95.9846 40.684C96.8816 38.1128 99.2946 39.1488 101.077 39.3993C102.808 39.6425 101.408 40.9848 101.374 41.9312C104.009 41.6541 106.517 40.9153 108.91 42.4478C109.609 42.8958 110.358 42.1332 111.072 41.826C112.825 41.0689 114.617 40.9574 117.148 41.8352C114.516 42.0848 112.972 43.1528 111.363 44.0571C110.944 44.292 110.643 44.848 110.867 45.3271C111.115 45.8583 111.755 45.8081 112.15 45.5676C114.432 44.1759 117.227 44.3268 119.554 42.9744C121.194 42.0208 123.1 42.8931 124.911 42.8702C122.237 43.385 119.528 43.7261 117.135 45.5365C118.383 46.9455 119.946 47.0507 121.314 46.3C124.045 44.8004 127.074 44.5965 129.999 44.0479C131.514 43.7645 133.334 43.4499 134.677 44.9769C134.939 45.2759 135.561 45.2558 136.015 45.3893C137.652 45.8702 140.406 42.915 140.898 47.3177C141.063 48.787 146.925 49.1327 148.616 48.019C150.025 47.0909 151.384 46.0878 153.362 44.698C152.927 46.3878 151.017 45.9443 151.51 47.2345C151.986 48.4826 153.306 47.5206 154.141 48.3664C151.006 46.9812 148.928 49.823 146.195 50.0653C145.639 50.1147 144.913 50.2738 145.136 51.1013C145.333 51.8291 146.04 51.7569 146.603 51.6764C148.243 51.4442 149.932 51.4835 151.487 50.7575C152.589 50.2436 153.748 50.1558 154.939 50.4896C152.923 53.5847 148.6 52.0504 146.326 54.8648C147.722 55.7956 149.198 55.5305 150.442 54.9361C151.495 54.4323 153.002 53.2445 153.414 54.275C153.798 55.2351 154.745 56.7502 153.771 58.1327C153.352 58.7289 152.585 59.4787 153.318 60.19C154.124 60.9746 154.877 60.2358 155.647 59.7667C157.842 58.4262 160.238 57.6399 162.791 57.243C163.554 57.126 164.751 56.8855 164.521 55.6923C164.332 54.7103 163.307 54.9215 162.543 54.884C161.467 54.8301 160.389 54.7779 159.974 54.7569C162.256 55.1455 165.151 53.3863 168.091 54.1214C168.182 55.087 167.674 54.9818 167.393 55.1153C166.827 55.3851 165.861 55.3293 166.127 56.325C166.366 57.2211 167.19 56.9367 167.862 56.9313C168.55 56.9258 169.465 56.0279 169.874 57.169C170.174 58.0029 169.485 58.5954 168.803 59.0617C168.236 59.4503 167.032 59.6533 167.976 60.6902C168.604 61.3796 169.412 60.9389 170.131 60.5704C170.947 60.1516 171.006 59.3296 171.275 58.6073C171.523 57.9416 172.601 57.7203 172.635 57.8822C173.501 61.9026 174.851 57.9654 176.18 58.1346C175.326 60.3747 174.002 61.9429 171.26 62.1769C172.719 63.7908 174.005 63.041 175.209 63.0319C175.933 63.0255 176.652 62.0114 177.324 62.8636C177.881 63.5686 177.47 64.3458 177.063 65.048C176.75 65.5857 175.937 66.2001 176.851 66.7533C177.562 67.184 178.155 66.479 178.566 65.9779C179.492 64.8469 180.337 63.6491 181.184 62.4549C182.778 60.2056 182.467 59.5875 179.417 59.2821C180.401 57.7341 181.926 56.1696 179.156 54.8465C178.54 54.5539 179.62 53.1723 178.8 52.3576C177.448 52.4189 176.835 53.8288 175.572 54.1205C175.287 52.6941 178.294 51.1443 175.539 49.5268C175.121 49.2808 175.749 47.7767 176.682 47.5472C177.436 47.3616 178.373 47.602 178.072 48.7916C177.685 50.3223 179.297 50.9943 179.517 52.375C179.674 53.3625 181.336 53.7374 182.284 53.0882C183.691 52.1254 184.887 50.8398 186.115 49.6328C186.518 49.236 186.884 48.6471 186.538 48.0373C186.119 47.2994 185.365 47.5929 184.705 47.5115C184.23 47.4521 183.846 48.6325 183.46 47.6267C183.315 47.2482 183.408 46.5057 183.68 46.2863C184.731 45.4387 185.993 44.8672 184.044 43.5212C183.336 43.033 184.231 42.4002 184.705 41.933C185.802 40.8513 186.101 39.6434 184.288 39.253C183.435 39.0692 183.004 38.8452 182.958 38.143C182.896 37.1856 183.474 36.4834 184.361 36.1615C187.428 35.0488 190.29 33.2621 193.728 33.3609C194.044 31.9902 192.398 32.0835 192.218 31.0338C193.42 30.7787 194.628 30.5209 196.548 30.1131C193.175 28.534 190.176 29.5251 186.897 29.0131C189.394 27.5629 192.054 29.43 193.922 27.5355C193.818 27.3069 193.719 26.9759 193.663 26.9832C189.772 27.4934 187.083 24.903 183.984 23.3203C181.723 22.1673 181.342 22.682 179.87 24.7659C178.811 26.2636 176.842 25.5147 175.24 25.202C171.194 24.4129 168.588 21.5062 165.893 18.764C163.971 16.8091 164.441 15.2556 167.08 14.6338C167.927 14.4345 168.887 14.5269 169.642 14.1657C170.932 13.5467 171.698 14.0011 172.326 15.0499C173.324 16.7168 170.925 15.9688 171.008 17.4071C171.117 17.8076 173.793 18.0014 171.55 19.5732C171.023 19.9426 172.117 20.6951 172.58 21.0975C175.042 23.238 180.797 22.5613 182.628 19.8283C183.136 19.0685 183.599 18.4568 184.378 17.9959C184.928 17.6695 185.222 16.757 184.558 16.5979C182.248 16.0438 181.462 13.4927 179.643 12.7621C176.319 11.4254 172.699 10.9938 169.048 10.9051C165.105 10.8091 161.039 11.493 157.297 9.5244C156.618 9.16597 155.617 8.97669 155.87 8.01296C156.086 7.19186 157.036 7.54663 157.687 7.50914C158.714 7.45062 159.548 7.95992 160.44 8.39333C162.129 9.2126 163.701 9.17328 165.642 8.48659C174.238 5.44543 181.657 5.41891 187.642 13.8137C188.335 14.7847 188.976 15.7603 190.313 15.8545C189.451 15.9194 188.265 15.8234 188.309 16.9874C188.353 18.2062 189.899 17.7829 190.711 18.5007C189.714 18.9487 188.519 18.5418 187.746 19.3775C190.282 22.319 193.792 22.9051 198.094 20.995C196.444 19.4214 194.202 20.7537 192.473 19.6025C193.993 18.6177 195.827 19.3474 197.555 18.5894C196.665 17.0267 194.995 18.1788 193.974 16.9709C194.555 16.3492 196.281 16.7158 195.869 14.5863C195.54 12.8874 194.778 12.4385 193.702 11.8441C194.066 10.8264 195.781 11.4884 195.623 10.3555C195.472 9.25648 194.403 8.6594 193.262 8.2644C195.272 7.37564 197.351 7.86391 199.368 7.71122C200.01 7.66184 200.961 7.82551 201.067 6.99253C201.206 5.89621 200.136 5.87609 199.411 5.81209C197.088 5.60727 194.794 5.37228 192.515 4.76972C190.584 4.26042 189.1 3.41555 188.202 1.60511C192.855 -0.0379918 200.24 1.73129 203.162 5.14003C203.517 5.55424 203.766 6.13486 203.518 6.45763C201.422 9.18059 203.867 8.3979 205.147 8.7353C206.988 9.22083 208.417 10.5777 210.089 11.4546C216.293 14.7061 221.347 19.2111 223.763 26.0807C224.02 26.8113 224.44 27.3919 225.187 27.3325C227.997 27.1085 229.332 29.0917 230.805 30.9159C233.52 34.2798 237.339 36.53 239.972 39.9854C240.318 40.4408 240.969 40.737 240.769 41.4136C240.554 42.1351 239.812 41.9787 239.273 42.0482C238.499 42.1488 237.708 42.1076 236.926 42.1561C236.064 42.21 234.918 41.0223 234.397 42.4624C233.994 43.5752 234.396 44.8388 234.948 45.8437C235.462 46.78 236.492 46.8925 237.551 46.5935C238.374 46.3612 239.236 46.2625 240.538 46.0193C238.768 48.8126 236.408 49.7983 233.874 49.1747C231.259 48.531 228.423 48.7304 226.082 46.3942C224.784 45.0994 221.926 46.2853 219.923 46.9172C218.122 47.485 216.512 48.6535 214.697 49.6219C214.593 48.7925 214.501 48.0729 214.41 47.3533L214.472 47.4C212.469 46.3292 211.957 48.5118 210.625 49.1692C210.536 48.9361 210.374 48.7102 210.379 48.4899C210.404 47.5865 212.278 46.973 211.133 46.075C210.133 45.2924 208.921 46.4618 208.483 47.229C206.683 50.3799 203.124 51.1287 200.65 53.3195C198.588 55.1455 198.4 53.1577 198.165 51.6389C196.943 52.4427 196.123 53.1312 195.184 53.5499C194.493 53.8581 193.481 53.998 194.006 52.5798C194.241 51.9471 194.206 51.4058 193.478 51.1891C192.956 51.0336 192.552 51.3454 192.204 51.7212C191.875 52.0769 191.561 52.46 191.18 52.7499C190.328 53.3972 189.248 54.4168 188.334 53.6176C187.322 52.7325 188.706 51.9836 189.181 51.2256C189.675 50.4384 190.026 49.5542 189.307 48.8072C188.537 48.008 187.523 48.4798 186.922 49.0184C185.194 50.5682 183.544 52.2186 181.996 53.9495C181.22 54.8173 181.68 55.9264 182.756 55.7956C184.591 55.5707 185.666 56.9111 186.889 57.6115C188.408 58.482 189.462 59.0809 190.967 57.8328C191.491 57.3976 192.346 57.3089 192.749 58.0971C193.192 58.9666 192.279 59.2281 191.822 59.6634C190.773 60.6655 188.159 61.2041 189.077 62.7448C189.898 64.1227 191.43 61.5972 192.945 61.5707C193.668 61.5588 194.572 61.2626 195.068 60.7679C197.473 58.3677 198.581 58.7298 198.568 62.1925C198.565 62.8042 199.037 63.3162 199.713 63.3162C201.03 63.3181 202.195 62.8152 203.148 61.9255C203.68 61.4272 203.423 60.3738 204.336 60.0629C205.365 60.7615 204.939 61.9109 205.012 62.7713C205.242 65.5061 206.937 67.5872 207.905 69.9801C208.21 70.7326 208.84 71.4577 207.755 71.9085C204.068 73.4382 203.799 76.5589 203.922 79.8799C203.944 80.4587 204.228 81.042 204.181 81.6071C204.096 82.6412 203.988 84.0521 202.763 84.0832C201.633 84.1115 201.623 82.751 201.425 81.7891C201.22 80.7897 202.306 79.2526 201.081 78.8979C199.795 78.5239 199.676 80.4349 198.902 81.1106C197.331 82.4812 196.577 84.1691 196.022 86.0619C195.848 86.6498 195.622 87.2652 196.135 87.6849C196.861 88.2774 197.358 87.5943 197.854 87.1646C198.334 86.7495 198.637 85.7638 199.436 86.2502C200.157 86.6891 200.023 87.6373 199.966 88.4099C199.838 90.1052 196.918 89.627 197.328 91.7647C197.2 90.7123 194.917 92.0326 195.574 90.2423C196.142 88.6998 195.325 87.5413 194.317 87.0027C193.105 86.3554 192.89 88.1548 192.059 88.6705C191.331 89.1222 190.714 89.7522 189.753 90.1536C191.576 87.3081 191.542 83.9296 192.84 80.9689C193.743 78.9079 194.595 76.8259 195.472 74.754C195.715 74.1807 195.819 73.558 195.348 73.109C193.18 71.0435 193.167 71.0581 194.398 68.2474C194.434 68.166 194.399 68.0535 194.397 67.9557C195.355 66.5064 195.334 64.7326 196.068 63.4634C195.115 64.6759 195.309 66.5046 194.461 68.006Z" fill="#DFD4BF"/>
<path d="M225.312 86.696C226.876 86.1017 228.801 87.2684 230.172 85.8703C231.455 89.5872 233.842 86.023 235.555 86.6932C237.938 87.6268 240.455 87.8353 242.926 88.3153C243.504 88.4278 244.482 89.3531 244.411 89.5086C242.898 92.8122 245.89 91.7826 246.951 91.906C250.095 92.2718 252.183 94.3483 254.523 96.0398C254.769 96.2172 254.952 96.7924 254.851 97.0703C254.639 97.6546 254.054 97.4864 253.602 97.3492C252.577 97.0383 251.579 96.636 250.545 96.3599C250.085 96.2364 249.536 96.3059 249.315 96.8719C249.099 97.4269 249.381 97.8649 249.854 98.0706C253.237 99.5473 253.785 102.72 254.43 105.787C254.757 107.35 254.763 109.062 253.1 109.901C252.312 110.297 251.444 111.438 250.51 110.756C249.7 110.168 250.408 109.133 250.572 108.291C251.078 105.692 248.744 100.351 246.593 99.1615C245.729 98.6833 244.705 98.0725 243.897 98.9228C242.939 99.9304 243.898 100.797 244.656 101.341C246.035 102.332 246.362 103.611 246.1 105.376C244.11 103.154 241.043 102.542 239.414 99.9368C238.688 98.7738 237.707 97.971 239.945 97.7268C240.915 97.6208 241.384 97.0429 241.334 96.1733C241.283 95.2544 240.377 95.3678 239.76 95.1794C236.885 94.3026 234.462 96.0792 231.839 96.6186C229.626 97.074 227.577 97.2349 225.65 95.9383C224.939 95.4592 224.21 95.2608 223.435 95.4437C221.599 95.8771 219.913 96.5811 219.635 93.4906C219.533 92.3687 217.653 92.5552 216.91 93.3187C215.868 94.3885 214.784 94.0365 213.651 93.9944C212.44 93.9505 210.794 92.8149 211.009 95.6101C211.099 96.7805 209.633 95.9274 208.851 95.9127C207.962 95.8954 206.276 94.7387 207.082 97.2715C207.47 98.4922 206.211 97.7323 205.691 97.8869C204.501 98.2407 203.252 96.0408 202.358 97.6427C201.55 99.0883 203.951 99.2776 204.312 100.708C202.558 101.025 200.94 100.443 199.464 100.031C197.94 99.6068 198.311 98.1209 199.165 97.191C201.374 94.7844 202.92 91.992 204.378 89.1062C205.965 85.9654 209.281 84.4476 213.334 85.5585C216.454 86.4135 219.655 86.5662 222.773 87.3013C223.616 87.4997 224.172 87.5921 224.554 88.4141C224.943 89.2544 225.604 89.8963 226.646 89.5735C226.967 89.4747 227.406 89.0733 227.42 88.7899C227.493 87.4485 226.027 88.0684 225.534 87.4074C225.435 87.2748 225.426 87.0764 225.312 86.696Z" fill="#DFD4BF"/>
<path d="M98.3611 137.057C98.7067 137.109 99.6312 137.089 100.404 137.421C100.94 137.651 101.549 138.939 100.978 138.976C98.9637 139.109 97.4449 140.97 95.5348 140.639C93.8743 140.351 94.4879 138.283 93.8524 137.089C92.4361 134.428 92.6957 131.138 90.6521 128.511C89.9801 127.648 91.2172 125.506 91.0353 124.014C90.579 120.264 91.4339 116.361 89.7835 112.746C89.6271 112.405 89.4964 111.982 89.9143 111.701C90.3934 111.378 90.8551 111.543 91.2474 111.873C92.0347 112.534 92.6839 113.369 92.2797 114.412C91.6205 116.111 91.946 117.54 93.2873 118.636C94.4029 119.548 93.5671 120.077 93.1099 120.745C91.3279 123.343 91.5336 124.12 94.1861 125.967C96.7665 127.762 96.6119 130.98 97.8335 133.485C97.9369 133.697 97.2182 134.371 96.8104 134.756C96.1895 135.342 94.5537 135.216 95.2075 136.661C95.7351 137.827 96.9018 137.204 98.3611 137.057Z" fill="#DFD4BF"/>
<path d="M14.7368 56.04C18.1565 58.1486 21.4802 60.4034 24.9347 62.4945C28.5802 64.7009 32.4754 66.4171 36.4776 66.0916C39.7802 65.8228 42.4922 66.3577 45.2938 67.6954C46.2548 68.1544 47.2643 68.5128 48.666 69.088C46.061 68.7835 44.5532 70.9185 42.271 70.6424C40.1652 70.3873 37.9844 70.8253 36.1237 70.0663C37.8125 69.2827 40.0335 70.4202 42.5005 68.5878C31.2666 67.7429 22.3333 63.2415 14.7368 56.04Z" fill="#DFD4BF"/>
<path d="M53.6319 126.976C52.5127 125.903 50.3 127.38 49.8675 125.509C49.2275 122.739 50.4372 120.118 51.3588 117.552C52.1379 115.384 54.6386 114.881 55.9215 113.157C56.1629 112.833 56.6493 112.722 56.9099 113.139C57.3269 113.805 57.2473 114.578 56.5579 114.936C52.9014 116.837 53.6685 120.633 52.7368 123.693C52.3719 124.894 52.905 125.918 53.6319 126.976Z" fill="#DFD4BF"/>
<path d="M59.2267 149.86C61.0682 152.528 62.9216 154.917 65.6555 156.421C66.2654 156.756 66.4081 157.681 66.0579 158.29C65.6217 159.05 64.8418 158.661 64.2264 158.417C62.426 157.706 60.5708 157.084 58.871 156.176C57.4492 155.416 55.5912 154.413 58.1779 152.72C59.117 152.104 58.2474 151.023 59.2267 149.86Z" fill="#DFD4BF"/>
<path d="M66.2341 101.552C67.2381 100.838 67.6624 99.7285 68.5072 99.0098C68.8611 98.709 69.3484 97.9299 69.3055 97.8915C67.0927 95.9074 69.8577 94.4526 69.7947 92.8159C69.6584 89.3496 71.5347 90.1643 73.5865 90.6681C71.6837 93.5026 71.6901 96.4807 72.2707 99.5721C72.5094 100.846 71.1955 101.099 70.592 100.903C68.9909 100.383 67.6843 100.7 66.2341 101.552Z" fill="#DFD4BF"/>
<path d="M60.7441 74.2793C56.1824 75.959 51.6536 75.8228 47.2043 76.1026C44.6075 76.2653 41.9732 75.8283 39.3508 75.4232C46.4572 75.5796 53.3908 73.2708 60.7441 74.2793Z" fill="#DFD4BF"/>
<path d="M35.4341 50.6582C39.6374 54.6018 44.7752 56.2815 48.5168 60.1657C44.8227 60.3239 36.3466 54.4674 35.4341 50.6582Z" fill="#DFD4BF"/>
<path d="M113.937 134.784C111.922 134.234 111.332 132.608 110.686 131.01C110.35 130.18 110.058 129.346 108.823 130.167C107.641 130.953 105.531 129.746 105.467 128.324C105.439 127.684 105.848 126.972 106.479 127.575C107.836 128.872 109.378 129.4 111.149 129.974C112.903 130.542 112.764 133.232 113.937 134.784Z" fill="#DFD4BF"/>
<path d="M73.119 85.1339C72.4646 86.0339 73.3934 88.9393 70.9514 88.9785C69.0626 89.0086 69.3512 86.4439 69.2451 85.1787C69.1202 83.707 70.9257 82.7955 72.2548 82.2808C72.6517 82.1263 73.8301 83.3691 73.119 85.1339Z" fill="#DFD4BF"/>
<path d="M75.6995 62.0962C75.428 63.2218 74.4688 64.3456 75.758 65.4894C76.5078 66.1542 76.0598 66.7211 75.2707 67.3108C74.104 68.1831 72.7662 68.3166 71.4688 68.6815C70.665 68.9073 69.5852 69.6059 69.1573 68.5681C68.6717 67.3895 69.758 66.3663 70.7217 66.1487C72.7224 65.6952 73.8178 64.9481 73.6632 62.6504C73.6038 61.7634 74.7669 61.8622 75.6995 62.0962Z" fill="#DFD4BF"/>
<path d="M145.877 92.4274C149.658 91.9584 152.751 89.6268 156.393 88.9492C152.905 90.2366 149.793 92.5801 145.877 92.4274Z" fill="#DFD4BF"/>
<path d="M188.866 80.5851C188.058 80.2358 187.895 79.6323 188.424 78.9831C189.437 77.7405 190.56 76.6058 191.283 75.1227C191.513 74.6509 192.523 74.0538 192.873 75.0386C193.306 76.2538 192.278 77.2468 191.667 78.1556C190.989 79.1623 190.108 80.1233 188.866 80.5851Z" fill="#DFD4BF"/>
<path d="M63.3396 109.122C65.2872 107.265 67.0336 105.104 69.2711 103.611C69.2043 106.327 67.4286 108.006 63.3396 109.122Z" fill="#DFD4BF"/>
<path d="M99.1474 128.486C101.07 129.734 101.136 131.883 102.222 133.376C102.522 133.788 102.199 134.371 101.618 134.423C100.932 134.483 99.8569 134.155 100.041 133.586C100.632 131.752 98.9952 130.412 99.1474 128.486Z" fill="#DFD4BF"/>
<path d="M212.493 99.9458C214.503 100.402 216.604 99.2153 218.919 100.244C216.422 102.495 214.494 100.563 212.493 99.9458Z" fill="#DFD4BF"/>
<path d="M107.508 135.556C107.36 136.63 106.779 136.915 106.218 136.753C104.924 136.379 104.118 135.474 104.121 134.06C104.123 133.45 104.369 132.869 105.169 133.129C106.497 133.559 106.549 135.09 107.508 135.556Z" fill="#DFD4BF"/>
<path d="M151.165 98.6728C148.736 99.3778 146.973 99.9008 145.056 98.8145C146.94 98.2888 148.691 97.934 151.165 98.6728Z" fill="#DFD4BF"/>
<path d="M150.386 94.8934C152.074 95.1878 152.602 92.1996 154.848 93.4551C153.62 94.9766 152.033 95.0579 150.386 94.8934Z" fill="#DFD4BF"/>
<path d="M158.814 114.66C158.656 113.204 158.549 112.459 158.502 111.712C158.467 111.163 158.262 110.458 159.043 110.282C159.35 110.214 159.872 110.409 160.059 110.66C160.449 111.183 160.325 111.764 159.788 112.182C159.222 112.624 158.853 113.163 158.814 114.66Z" fill="#DFD4BF"/>
<path d="M88.978 115.943C88.895 116.939 88.3701 117.457 87.452 117.39C86.33 117.307 86.0446 116.451 86.0678 115.509C86.0831 114.905 85.8754 113.961 87.0089 114.159C88.0206 114.337 88.8262 114.848 88.978 115.943Z" fill="#DFD4BF"/>
<path d="M186.003 101.268C186.586 102.593 186.8 103.799 185.619 104.528C185.298 104.728 184.584 104.548 184.668 104.288C185.005 103.246 185.542 102.269 186.003 101.268Z" fill="#DFD4BF"/>
<path d="M188.953 69.7217C187.962 70.8271 186.97 71.9326 185.755 73.2868C185.544 70.7046 187.18 70.1533 188.953 69.7217Z" fill="#DFD4BF"/>
<path d="M135.094 41.8032C136.642 41.0479 138.434 41.3543 140.218 41.8407C138.4 42.1497 136.602 41.966 135.094 41.8032Z" fill="#DFD4BF"/>
<path d="M169.094 77.9443C167.454 79.086 167.092 77.2242 165.405 76.725C167.397 76.0449 168.252 74.4681 170.233 75.0033C169.789 76.1169 169.413 77.0606 169.036 78.0032L169.094 77.9443Z" fill="#DFD4BF"/>
<path d="M180.109 32.9613C181.045 31.6739 181.699 30.7641 183.258 31.1783C182.575 32.2618 181.979 33.232 180.109 32.9613Z" fill="#DFD4BF"/>
<path d="M168.224 81.588C168.05 82.2285 167.696 83.249 166.281 83.0697C165.612 82.9847 164.543 82.6944 164.749 82.1173C165.122 81.0652 166.205 80.4249 167.381 80.2771C167.904 80.2114 168.643 80.2079 168.224 81.588Z" fill="#DFD4BF"/>
<path d="M118.918 83.5231C118.49 83.5049 117.969 83.448 118.019 83.0158C118.107 82.2281 118.563 81.6267 119.459 81.5705C119.818 81.5474 120.338 81.5027 120.309 81.9985C120.259 82.8406 119.664 83.3058 118.918 83.5231Z" fill="#DFD4BF"/>
<path d="M64.9058 73.21C65.7634 72.5343 66.0085 71.6419 66.9457 71.8678C67.1057 71.9062 67.3142 72.3515 67.2648 72.549C66.9969 73.6261 66.1767 73.3865 64.9058 73.21Z" fill="#DFD4BF"/>
<path d="M41.4163 72.9606C43.2011 74.1941 44.3194 71.5214 46.053 72.6863C44.5013 74.1466 42.8463 71.6842 41.4163 72.9606Z" fill="#DFD4BF"/>
<path d="M138.173 80.4092C135.644 81.4817 133.843 80.2053 132.025 80.5692C133.894 81.2778 135.678 79.6292 138.173 80.4092Z" fill="#DFD4BF"/>
<path d="M76.2149 93.318C76.1117 93.9463 75.9064 94.4772 75.114 94.343C74.7105 94.2734 74.2171 93.9308 74.3911 93.6326C74.6617 93.173 75.1858 92.7532 75.6928 92.572C76.2328 92.3786 76.214 92.9367 76.2149 93.318Z" fill="#DFD4BF"/>
<path d="M74.9606 77.5119C74.4083 78.2278 73.8561 78.9447 72.9984 80.0575C72.8567 77.9334 73.1694 76.9742 75.0164 77.5805L74.9606 77.5119Z" fill="#DFD4BF"/>
<path d="M136.957 93.5531C135.974 94.8259 135.215 94.1886 134.293 93.7277C135.247 93.0767 136.086 93.3702 136.957 93.5531Z" fill="#DFD4BF"/>
<path d="M176.943 31.1568C177.689 29.8191 178.546 29.4049 180.274 29.9261C178.961 30.4116 178.07 30.7398 176.943 31.1568Z" fill="#DFD4BF"/>
<path d="M113.104 75.9923C111.994 76.0911 111.583 75.7974 111.538 75.2617C111.48 74.5761 112.076 74.5665 112.551 74.5677C112.991 74.5688 113.67 74.4039 113.597 75.1351C113.555 75.5595 113.133 75.9454 113.104 75.9923Z" fill="#DFD4BF"/>
<path d="M178.526 34.1991C178.154 34.1592 177.762 34.1558 177.976 33.7527C178.067 33.5838 178.484 33.553 178.758 33.5264C179.045 33.4984 179.415 33.5707 179.206 33.9608C179.112 34.1363 178.706 34.1429 178.526 34.1991Z" fill="#DFD4BF"/>
<path d="M74.9549 147.763C74.9843 148.375 74.5494 148.529 74.0511 148.604C73.5066 148.687 73.0506 148.502 73.0178 147.926C72.9838 147.346 73.5254 147.196 73.9746 147.048C74.6057 146.839 74.8236 147.238 74.9549 147.763Z" fill="#DFD4BF"/>
<path d="M72.0823 146.561C70.6815 147.295 69.7964 147.165 68.5007 146.595C69.9363 145.512 70.7839 146.084 72.0823 146.561Z" fill="#DFD4BF"/>
<path d="M54.3752 60.2215C54.8855 60.557 55.3948 60.8926 55.9553 61.262C54.6313 61.8262 54.6852 60.8094 54.4456 60.1465L54.3752 60.2215Z" fill="#DFD4BF"/>
<path d="M54.4453 60.1471C53.8246 60.3447 53.1985 60.5339 52.7299 59.8721C52.6952 59.8233 52.8696 59.5132 52.9598 59.5072C53.5608 59.4664 54.0132 59.7658 54.37 60.2272C54.3751 60.2224 54.4453 60.1471 54.4453 60.1471Z" fill="#DFD4BF"/>
<path d="M75.0153 77.5788C75.1669 77.2516 75.3186 76.9243 75.4696 76.596C75.9161 77.1336 75.1872 77.016 75.0986 77.2566C75.0655 77.3443 75.0008 77.4192 74.9549 77.5056C74.9593 77.5105 75.0153 77.5788 75.0153 77.5788Z" fill="#DFD4BF"/>
<path d="M50.7963 57.9333C51.2314 58.0079 51.7617 57.9954 51.7164 58.6348C51.7089 58.7415 51.2711 58.9515 51.1191 58.8927C50.6247 58.6963 50.46 58.333 50.8745 57.8704C50.8768 57.8686 50.7963 57.9333 50.7963 57.9333Z" fill="#DFD4BF"/>
<path d="M89.3215 54.6971C88.879 55.0235 88.4263 55.0162 87.9609 54.7858C88.2471 54.6697 88.5251 54.5087 88.8223 54.4566C88.9676 54.431 89.1487 54.6075 89.3215 54.6971Z" fill="#DFD4BF"/>
<path d="M74.7797 89.9563C74.715 90.0097 74.6507 90.0611 74.5865 90.1137C74.5384 89.9731 74.473 89.8348 74.453 89.69C74.447 89.6438 74.566 89.5803 74.6273 89.5253C74.6784 89.6696 74.7294 89.8126 74.7797 89.9563Z" fill="#DFD4BF"/>
<path d="M162.005 136.291C161.935 136.423 161.866 136.554 161.797 136.686C161.751 136.61 161.705 136.537 161.659 136.462C161.795 136.428 161.93 136.394 162.067 136.361L162.005 136.291Z" fill="#DFD4BF"/>
<path d="M223.285 40.0225C223.291 38.1032 223.232 36.4281 220.952 38.4242C220.468 38.8494 218.774 38.7945 218.969 38.2779C219.697 36.3422 215.801 37.6195 217.229 35.4379C217.958 34.3251 217.196 33.5881 216.052 33.376C214.935 33.1703 214.207 33.5973 213.915 34.806C212.91 38.9792 210.29 39.7518 206.768 37.2392C205.244 36.152 203.445 35.5695 203.855 33.1739C203.9 32.9142 203.497 32.5174 203.222 32.2733C199.84 29.2787 196.29 26.5347 192.12 24.6868C191.473 24.4006 190.311 24.2626 190.692 23.2138C191.022 22.3067 192.059 22.6496 192.781 22.8032C197.33 23.7734 201.864 24.8167 206.413 25.7877C209.291 26.4022 211.969 26.0035 214.63 24.5533C217.382 23.0519 218.655 23.7542 219.767 26.4945C220.114 27.3476 220.001 27.6777 219.322 28.1394C218.387 28.774 217.482 29.724 218.197 30.8176C218.88 31.8609 219.509 33.3175 221.249 33.1364C223.109 32.9435 223.891 33.9895 224.077 35.6765C224.119 36.0459 223.996 36.5287 224.187 36.771C225.674 38.6537 225.691 38.64 223.285 40.0225Z" fill="#181818"/>
<path d="M189.913 41.6655C188.827 41.905 188.353 42.6018 187.88 43.3817C187.314 44.3144 186.335 45.3778 185.41 44.3455C184.867 43.7393 184.652 42.0148 185.731 41.2275C188.339 39.3229 191.239 37.9422 194.381 37.1321C194.92 36.9931 195.613 36.8578 195.867 37.592C196.14 38.3784 195.364 38.4862 194.936 38.8291C194.355 39.2927 193.821 39.8148 193.608 40.8462C194.79 40.2894 196.004 39.7865 197.148 39.1574C198.127 38.6188 199.37 37.9203 199.981 39.0157C200.508 39.9611 199.198 40.5618 198.341 41.0245C198.013 41.201 197.732 41.4579 197.465 41.9883C201.548 40.518 205.6 43.0873 209.612 41.6719C210.178 42.6054 209.746 43.3132 209.235 43.8846C207.485 45.8432 205.687 47.7597 203.878 49.6652C203.41 50.1581 202.394 50.7021 202.292 49.8015C201.852 45.9246 199.222 46.1148 196.438 46.2345C195.232 46.2867 194.532 45.7499 195.45 44.4525C195.827 43.9185 196.162 43.3543 196.519 42.7984C194.94 42.1135 194.139 43.6341 192.927 43.8298C191.921 43.9916 191.077 45.3522 189.979 44.4726C189.002 43.6908 190.613 42.6969 189.913 41.6655Z" fill="#181818"/>
<path d="M125.021 50.833C118.889 54.1137 111.693 52.8811 106.936 58.2073C106.639 55.8062 108.57 55.0939 109.067 53.2533C106.489 53.9802 104.051 54.2353 103.812 50.6163C102.074 50.8046 100.223 49.7339 98.6125 50.8769C97.7685 51.4767 96.8112 51.8516 96.322 51.0716C95.6207 49.9524 96.8368 49.3334 97.6433 48.9009C99.7765 47.758 102.218 47.4471 104.414 46.2941C105.912 45.5077 107.634 47.1856 108.379 48.3825C109.448 50.1042 110.347 49.744 111.706 49.1341C113.871 48.1612 115.887 46.5986 118.511 47.1902C119.057 47.3127 119.846 47.1207 119.964 47.8512C120.116 48.7976 119.238 48.8945 118.599 48.9841C115.589 49.4038 112.918 50.6309 110.225 52.082C111.48 53.8943 112.835 53.2249 113.914 52.5309C116.215 51.0524 118.973 51.1749 121.405 50.1582C122.283 49.7906 123.469 49.8866 125.021 50.833Z" fill="#181818"/>
<path d="M22.5445 32.1255C21.2845 29.8698 18.674 29.5306 16.817 28.1106C15.4344 27.0536 13.7758 26.3532 12.5615 24.5537C16.6981 25.0886 19.6076 27.6497 22.8792 29.3687C23.9115 29.9119 24.5762 31.1161 25.4247 29.0606C25.9176 27.8664 27.2681 28.8046 27.9859 29.206C31.3919 31.1115 34.594 33.3279 37.1203 36.3627C37.5126 36.8336 38.2779 37.5331 37.7138 38.1329C36.9457 38.9512 36.291 38.0003 35.7424 37.5523C33.707 35.889 31.7393 34.1435 29.7067 32.4757C29.0456 31.9335 27.9383 31.1792 27.419 31.8869C26.6116 32.9859 28.07 33.2776 28.7228 33.6141C30.9356 34.7543 32.1371 36.754 34.0545 38.8049C31.1477 38.826 30.1968 36.9095 28.7283 35.7793C26.7917 34.2889 25.2099 32.174 22.4595 32.0442C22.4604 32.0451 22.5445 32.1255 22.5445 32.1255Z" fill="#181818"/>
<path d="M22.179 22.3399C27.8434 20.3338 39.7713 28.8356 40.8356 35.5817C35.6329 30.0123 30.0086 25.0455 22.179 22.3399Z" fill="#181818"/>
<path d="M85.4431 98.004C86.4772 98.8781 87.4391 97.4965 89.0703 98.1009C87.2627 99.6251 85.6945 100.966 84.0935 102.267C83.9316 102.398 83.3282 102.291 83.3282 102.277C83.2276 100.092 82.4787 99.189 80.3885 100.7C80.3556 100.723 79.8097 100.255 79.8508 100.128C80.0465 99.5181 79.9807 98.7565 80.65 98.3706C82.6671 97.2076 84.4848 95.6833 86.7552 94.9902C87.4894 96.5026 84.3925 96.4084 85.4979 98.0634C85.3736 98.1686 85.2492 98.271 85.1221 98.3706C85.2181 98.2399 85.3452 98.1338 85.4431 98.004Z" fill="#181818"/>
<path d="M176.722 101.531C176.77 104.338 174.508 106.171 173.731 108.63C173.731 108.63 173.788 108.57 173.787 108.569C172.665 109.321 173.4 111.143 171.974 111.718C171.448 111.93 170.942 112.516 170.365 112.173C169.741 111.801 170.012 111.131 170.211 110.588C170.545 109.671 170.856 108.737 171.301 107.873C171.792 106.925 173.313 105.895 170.759 105.65C169.764 105.555 170.006 104.666 170.224 104.037C170.478 103.31 170.749 102.476 171.71 102.43C173.317 102.353 172.37 103.965 172.912 104.516C175.227 104.742 173.553 100.043 176.781 101.582L176.722 101.531Z" fill="#181818"/>
<path d="M162.558 65.1831C162.374 65.9247 161.146 66.9433 160.395 66.4358C157.867 64.7269 156.39 66.6022 154.703 67.7095C153.881 68.2499 152.944 68.687 152.344 68.0222C151.569 67.1645 152.69 66.4715 153.201 65.9027C154.562 64.3876 160.221 63.1624 161.99 63.8792C162.371 64.0338 162.711 64.1974 162.558 65.1831Z" fill="#181818"/>
<path d="M161.123 59.1467C162.077 59.4246 163.817 57.9178 163.98 59.7081C164.12 61.2424 162.32 61.2287 161.046 61.3192C159.478 61.4298 158.081 61.8824 156.767 62.8836C155.898 63.5456 154.303 63.9663 153.78 62.6368C153.412 61.6986 154.702 60.6526 155.689 60.5145C157.565 60.2521 158.962 58.2186 161.123 59.1467Z" fill="#181818"/>
<path d="M91.6488 89.3652C90.2105 90.5877 89.7076 93.1498 86.799 92.2555C85.6387 91.898 84.7335 93.8246 83.5457 94.4692C83.0035 94.7636 82.3515 95.5491 81.834 94.642C81.5113 94.0788 81.8377 93.4442 82.4064 92.8709C84.9502 90.3107 88.3296 89.9925 91.6488 89.3652Z" fill="#181818"/>
<path d="M194.662 34.4981C192.345 37.6853 189.093 37.48 186.725 39.0076C186.22 39.3328 185.419 39.9131 184.921 39.1832C184.414 38.4389 184.994 37.7329 185.6 37.2073C188.088 35.0517 191.106 34.8682 194.662 34.4981Z" fill="#181818"/>
<path d="M198.234 77.3025C197.59 79.4952 196.908 81.8076 196.236 84.1237C196.084 84.6467 195.728 85.0636 195.23 85.0124C194.576 84.9448 194.162 84.3294 194.25 83.7442C194.671 80.9408 195.977 78.4254 197.015 75.8259C197.079 75.6658 197.614 75.5086 197.777 75.6064C198.366 75.9575 198.239 76.5976 198.234 77.3025Z" fill="#181818"/>
<path d="M158.278 68.6335C158.269 69.2489 157.84 69.4775 157.443 69.7509C156.648 70.2976 155.916 70.9587 155.066 71.3985C154.386 71.7515 154.059 73.337 153.073 72.4062C152.233 71.6143 152.99 70.5692 153.662 69.8734C154.596 68.906 155.566 67.9194 157.123 68.0556C157.628 68.1004 158.076 68.1306 158.278 68.6335Z" fill="#181818"/>
<path d="M181.478 66.2556C180.597 64.717 181.624 63.7367 182.618 62.9189C183.718 62.0152 184.998 61.3325 186.322 60.4753C186.052 63.3497 183.743 65.9534 181.435 66.2035L181.478 66.2556Z" fill="#181818"/>
<path d="M138.533 50.4771C137.089 52.9688 134.775 52.8285 133.065 53.7534C132.912 53.8367 132.442 53.6452 132.345 53.4623C132.091 52.9798 132.328 52.4859 132.684 52.158C134.261 50.7057 136.187 50.6863 138.533 50.4771Z" fill="#181818"/>
<path d="M157.763 72.1158C158.274 72.1572 158.767 72.2856 158.866 72.8649C158.997 73.6388 156.001 76.0993 154.95 76.0872C154.358 76.0806 153.74 76.0189 153.76 75.1896C153.783 74.2845 156.679 72.0746 157.763 72.1158Z" fill="#181818"/>
<path d="M110.162 70.1327C108.711 71.2601 108.811 73.8322 106.365 74.048C105.805 74.0974 105.151 74.4869 104.768 73.8871C104.355 73.2415 104.586 72.5064 105.209 72.115C106.694 71.1833 108.239 70.3457 109.76 69.4707C109.895 69.6911 110.028 69.9114 110.162 70.1327Z" fill="#181818"/>
<path d="M141.218 53.4914C141.413 53.4898 141.945 53.259 142.143 53.9272C142.214 54.1693 138.478 56.8027 138.141 56.6602C137.843 56.5333 137.399 56.1027 137.446 55.9132C137.896 54.1006 139.392 53.725 141.218 53.4914Z" fill="#181818"/>
<path d="M86.0303 104.335C86.5935 102.393 88.0784 101.5 89.5584 100.64C90.0759 100.339 90.7476 100.325 91.1444 100.873C91.6 101.506 91.1116 102.13 90.6379 102.303C89.1022 102.864 88.1811 104.846 86.0303 104.335Z" fill="#181818"/>
<path d="M163.74 72.6283C165.181 70.8544 166.563 68.9672 170.227 69.92C167.809 71.2869 166.006 72.3064 164.202 73.3259C164.048 73.0928 163.894 72.8605 163.74 72.6283Z" fill="#181818"/>
<path d="M194.461 68.0067C193.446 65.5151 193.659 63.4413 196.894 62.0332C196.595 64.4444 196.782 66.6562 194.396 67.9564C194.397 67.9564 194.461 68.0067 194.461 68.0067Z" fill="#181818"/>
<path d="M90.7288 70.1039C89.1799 70.6662 89.0756 72.697 87.2222 72.3898C86.733 72.3084 86.3207 71.6281 86.616 71.2578C87.5377 70.1011 88.6578 69.1941 90.7288 70.1039Z" fill="#181818"/>
<path d="M92.9055 95.4272C92.0718 95.3664 91.5425 95.1284 91.6058 94.6035C91.742 93.468 92.4729 92.7356 93.5528 92.3398C94.2653 92.0781 94.554 92.6217 94.3768 93.0171C93.975 93.9175 93.3526 94.7203 92.9055 95.4272Z" fill="#181818"/>
<path d="M147.479 75.1841C145.791 76.1551 145.065 77.4974 143.456 76.8006C144.388 75.0103 144.388 75.0103 147.479 75.1841Z" fill="#181818"/>
<path d="M163.229 70.3823C162.452 71.0852 161.873 72.1586 160.547 72.1362C160.056 72.1275 159.443 72.0386 159.62 71.4084C159.972 70.1532 160.969 69.6199 162.225 69.5795C162.701 69.5638 163.195 69.6317 163.229 70.3823Z" fill="#181818"/>
<path d="M142.175 67.5155C142.142 68.2633 141.494 68.3213 140.982 68.4578C140.4 68.6135 139.727 68.5303 139.5 67.9425C139.214 67.2011 139.931 66.994 140.448 66.8503C141.129 66.663 141.77 66.78 142.175 67.5155Z" fill="#181818"/>
<path d="M139.03 62.4999C139.979 61.655 140.823 61.8077 141.79 62.4277C140.862 63.6227 140.022 63.6209 139.03 62.4999Z" fill="#181818"/>
<path d="M100.166 78.2863C99.4714 78.1865 98.8908 77.9988 99.1777 77.3963C99.7229 76.2526 100.822 75.7681 102.013 75.5867C102.659 75.4871 103.375 75.9348 103.127 76.5302C102.583 77.8354 101.033 77.6671 100.166 78.2863Z" fill="#181818"/>
<path d="M178.098 96.7597C178.663 96.9032 178.933 97.294 178.686 97.8017C178.318 98.5569 177.902 99.4192 176.933 99.4547C176.49 99.4712 176.1 98.9756 176.311 98.4028C176.622 97.5619 177.149 96.9211 178.098 96.7597Z" fill="#181818"/>
<path d="M94.2446 50.5431C93.4171 51.8132 92.6628 52.9845 90.9337 52.701C90.7838 52.6763 90.5451 52.125 90.6018 52.0674C91.5463 51.0963 92.3217 49.6873 94.2446 50.5431Z" fill="#181818"/>
<path d="M203.816 70.4292C203.755 71.2059 203.813 72.1973 202.772 72.1577C201.968 72.1259 201.849 71.2395 201.963 70.5545C202.093 69.7769 201.777 68.4987 202.985 68.5334C203.927 68.5613 203.658 69.7315 203.816 70.4292Z" fill="#181818"/>
<path d="M170.429 102.462C169.552 102.394 169.428 101.979 169.528 101.446C169.815 99.9101 170.729 98.8506 172.189 98.3922C172.779 98.2082 173.066 98.8373 172.843 99.3146C172.25 100.578 171.612 101.848 170.429 102.462Z" fill="#181818"/>
<path d="M135.903 63.544C134.426 64.6056 133.344 64.985 132.111 64.2115C131.95 64.1109 131.848 63.544 131.936 63.4754C133.065 62.604 134.251 62.7366 135.903 63.544Z" fill="#181818"/>
<path d="M100.208 84.6267C100.058 85.312 99.6837 85.8377 98.9057 85.8946C98.2483 85.9436 97.7245 85.6643 97.873 84.922C98.0164 84.2052 98.5773 83.75 99.3069 83.7112C99.8151 83.6847 100.199 83.9993 100.208 84.6267Z" fill="#181818"/>
<path d="M131.121 44.6718C131.775 44.7347 132.663 44.6038 132.638 45.4981C132.617 46.2754 131.804 46.4207 131.127 46.3954C130.503 46.3718 129.618 46.5044 129.622 45.569C129.625 44.651 130.549 44.8346 131.121 44.6718Z" fill="#181818"/>
<path d="M132.358 57.5057C133.373 56.6115 134.214 56.5868 135.288 57.0806C134.487 58.1092 133.663 58.2263 132.358 57.5057Z" fill="#181818"/>
<path d="M150.271 78.0885C149.883 78.7546 149.214 78.7729 148.554 78.7317C147.986 78.6966 147.625 78.319 147.876 77.7849C148.151 77.2022 148.79 77.1533 149.379 77.2317C149.847 77.2956 150.336 77.3917 150.271 78.0885Z" fill="#181818"/>
<path d="M160.333 76.081C159.802 76.0845 159.295 75.8407 159.386 75.3206C159.493 74.7047 160.141 74.5738 160.72 74.5116C161.174 74.4635 161.471 74.6828 161.467 75.1104C161.461 75.8201 160.924 76.0066 160.333 76.081Z" fill="#181818"/>
<path d="M70.5053 116.8C70.5159 117.367 70.1711 117.715 69.6892 117.824C69.0735 117.964 68.8307 117.493 68.8223 116.988C68.8134 116.437 69.1632 116.108 69.7292 116.135C70.1271 116.155 70.4701 116.32 70.5053 116.8Z" fill="#181818"/>
<path d="M156.621 77.2873C156.952 77.3862 157.436 77.3947 157.358 77.9342C157.275 78.5033 156.789 78.6991 156.297 78.6906C156.092 78.6854 155.736 78.3987 155.716 78.2121C155.655 77.6323 156.045 77.3535 156.621 77.2873Z" fill="#181818"/>
<path d="M135.965 68.7343C134.643 69.5362 133.92 69.9358 132.859 69.1037C133.755 67.9717 134.612 68.1107 135.965 68.7343Z" fill="#181818"/>
<path d="M34.2376 39.9372L34.5848 40.2844C34.4574 40.3717 34.3352 40.4745 34.1949 40.5333C34.1607 40.5482 33.9971 40.3937 34.01 40.3562C34.0611 40.2081 34.1574 40.0756 34.2376 39.9372Z" fill="#181818"/>
<path d="M177.861 104.461C177.401 103.809 177.423 103.214 178.16 102.814C178.308 102.732 178.81 102.926 178.827 103.042C178.93 103.728 179.318 104.629 178.024 104.62C178.025 104.622 177.861 104.461 177.861 104.461Z" fill="#181818"/>
<path d="M211.687 45.5154C211.607 45.4368 211.542 45.3717 211.476 45.3054C211.607 45.2405 211.733 45.1531 211.871 45.1223C211.919 45.1114 211.999 45.2407 212.064 45.3058C211.936 45.3772 211.808 45.4474 211.687 45.5154Z" fill="#181818"/>
<path d="M212.35 43.8465C212.415 43.9832 212.497 44.1044 212.523 44.2381C212.533 44.2857 212.409 44.3608 212.346 44.4226C212.284 44.2969 212.199 44.1757 212.17 44.0429C212.16 43.9944 212.282 43.9165 212.35 43.8465Z" fill="#181818"/>
<path d="M214.472 47.4012C214.268 47.1816 214.272 46.9875 214.563 46.8663C214.614 46.8456 214.765 46.9266 214.78 46.9832C214.859 47.2944 214.704 47.4015 214.409 47.3538L214.472 47.4012Z" fill="#181818"/>
<path d="M49.0362 53.7643C48.8067 53.7582 48.5771 53.7509 48.3476 53.7448C48.4059 53.5967 48.4635 53.4493 48.5225 53.3018C48.6761 53.4783 48.8285 53.6561 48.9828 53.8319C48.984 53.8305 49.0362 53.7643 49.0362 53.7643Z" fill="#181818"/>
<path d="M186.792 65.6591C186.726 65.4413 186.433 65.1784 186.829 65.0339C186.948 64.9911 187.156 65.1923 187.324 65.2818C187.125 65.3911 186.928 65.4999 186.73 65.6086C186.732 65.6088 186.792 65.6591 186.792 65.6591Z" fill="#181818"/>
<path d="M181.435 66.2035C181.47 66.4993 181.392 66.7415 181.051 66.7084C180.962 66.6984 180.801 66.4063 180.84 66.3178C180.989 65.978 181.245 66.1068 181.477 66.254C181.477 66.2551 181.435 66.2035 181.435 66.2035Z" fill="#181818"/>
<path d="M176.781 101.581C176.806 101.374 176.829 101.169 176.855 100.963C176.979 101.044 177.104 101.124 177.228 101.203C177.059 101.313 176.89 101.422 176.722 101.53L176.781 101.581Z" fill="#181818"/>
<path d="M71.9439 108.055C71.9675 107.978 71.9782 107.893 72.0204 107.832C72.0419 107.804 72.1278 107.821 72.1841 107.816C72.0811 107.871 71.9787 107.925 71.8757 107.979C71.8744 107.979 71.9439 108.055 71.9439 108.055Z" fill="#181818"/>
<path d="M218.867 89.82C219.692 89.8379 220.449 89.9485 220.608 90.699C220.831 91.7437 219.872 91.6171 219.294 91.6557C218.685 91.6965 217.814 91.865 217.681 90.9638C217.55 90.0818 218.36 89.9838 218.867 89.82Z" fill="#181818"/>
<path d="M240.361 93.7495C240.643 93.0363 241.134 92.9559 241.613 92.9642C242.115 92.9718 242.642 93.1853 242.553 93.7706C242.478 94.2709 242.015 94.6112 241.466 94.4185C241.058 94.2765 240.709 93.9668 240.361 93.7495Z" fill="#181818"/>
<path d="M26.3825 31.1123L26.4392 31.276L26.2664 31.2403L26.3825 31.1123Z" fill="#DFD4BF"/>
<path d="M85.4429 98.0021C85.7593 98.6767 85.559 99.0935 84.8074 99.1096C84.6504 99.1132 84.3242 98.7411 84.3552 98.6067C84.4938 98.0055 84.7918 97.5554 85.4971 98.0619L85.4429 98.0021Z" fill="#DFD4BF"/>
</svg>
