<svg xmlns="http://www.w3.org/2000/svg" viewBox="0 0 80 60" width="80" height="60" preserveAspectRatio="xMidYMid meet"
	style="width: 100%; height: 100%; transform: translate3d(0px, 0px, 0px);">
	<defs>
		<clipPath id="__lottie_element_34">
			<rect width="80" height="60" x="0" y="0"></rect>
		</clipPath>
	</defs>
	<g clip-path="url(#__lottie_element_34)">
		<g transform="matrix(-1,0,0,-1,39.83100128173828,23.371000289916992)" opacity="1" style="display: block;">
			<g opacity="1" transform="matrix(0,-1,1,0,0,0)">
				<path fill="rgb(223,212,190)" fill-opacity="1"
					d=" M2.240000009536743,-20.788999557495117 C1.2660000324249268,-20.788999557495117 0.8519999980926514,-20.39900016784668 0.8519999980926514,-19.766000747680664 C0.8519999980926514,-19.766000747680664 0.8519999980926514,19.766000747680664 0.8519999980926514,19.766000747680664 C0.8519999980926514,20.39900016784668 1.2660000324249268,20.788999557495117 2.240000009536743,20.788999557495117 C2.240000009536743,20.788999557495117 2.555999994277954,20.788999557495117 2.555999994277954,20.788999557495117 C2.555999994277954,20.788999557495117 2.555999994277954,21.05699920654297 2.555999994277954,21.05699920654297 C2.555999994277954,21.05699920654297 -2.555999994277954,21.05699920654297 -2.555999994277954,21.05699920654297 C-2.555999994277954,21.05699920654297 -2.555999994277954,20.788999557495117 -2.555999994277954,20.788999557495117 C-2.555999994277954,20.788999557495117 -2.240000009536743,20.788999557495117 -2.240000009536743,20.788999557495117 C-1.2660000324249268,20.788999557495117 -0.8519999980926514,20.39900016784668 -0.8519999980926514,19.766000747680664 C-0.8519999980926514,19.766000747680664 -0.8519999980926514,-19.766000747680664 -0.8519999980926514,-19.766000747680664 C-0.8519999980926514,-20.39900016784668 -1.2660000324249268,-20.788999557495117 -2.240000009536743,-20.788999557495117 C-2.240000009536743,-20.788999557495117 -2.555999994277954,-20.788999557495117 -2.555999994277954,-20.788999557495117 C-2.555999994277954,-20.788999557495117 -2.555999994277954,-21.05699920654297 -2.555999994277954,-21.05699920654297 C-2.555999994277954,-21.05699920654297 2.555999994277954,-21.05699920654297 2.555999994277954,-21.05699920654297 C2.555999994277954,-21.05699920654297 2.555999994277954,-20.788999557495117 2.555999994277954,-20.788999557495117 C2.555999994277954,-20.788999557495117 2.240000009536743,-20.788999557495117 2.240000009536743,-20.788999557495117z">
				</path>
			</g>
		</g>
		<g transform="matrix(-1,0,0,-1,39.83100128173828,30.09600067138672)" opacity="1" style="display: block;">
			<g opacity="1" transform="matrix(0,-1,1,0,0,0)">
				<path fill="rgb(223,212,190)" fill-opacity="1"
					d=" M2.240000009536743,-20.788999557495117 C1.2660000324249268,-20.788999557495117 0.8519999980926514,-20.39900016784668 0.8519999980926514,-19.766000747680664 C0.8519999980926514,-19.766000747680664 0.8519999980926514,19.766000747680664 0.8519999980926514,19.766000747680664 C0.8519999980926514,20.39900016784668 1.2660000324249268,20.788999557495117 2.240000009536743,20.788999557495117 C2.240000009536743,20.788999557495117 2.555999994277954,20.788999557495117 2.555999994277954,20.788999557495117 C2.555999994277954,20.788999557495117 2.555999994277954,21.05699920654297 2.555999994277954,21.05699920654297 C2.555999994277954,21.05699920654297 -2.555999994277954,21.05699920654297 -2.555999994277954,21.05699920654297 C-2.555999994277954,21.05699920654297 -2.555999994277954,20.788999557495117 -2.555999994277954,20.788999557495117 C-2.555999994277954,20.788999557495117 -2.240000009536743,20.788999557495117 -2.240000009536743,20.788999557495117 C-1.2660000324249268,20.788999557495117 -0.8519999980926514,20.39900016784668 -0.8519999980926514,19.766000747680664 C-0.8519999980926514,19.766000747680664 -0.8519999980926514,-19.766000747680664 -0.8519999980926514,-19.766000747680664 C-0.8519999980926514,-20.39900016784668 -1.2660000324249268,-20.788999557495117 -2.240000009536743,-20.788999557495117 C-2.240000009536743,-20.788999557495117 -2.555999994277954,-20.788999557495117 -2.555999994277954,-20.788999557495117 C-2.555999994277954,-20.788999557495117 -2.555999994277954,-21.05699920654297 -2.555999994277954,-21.05699920654297 C-2.555999994277954,-21.05699920654297 2.555999994277954,-21.05699920654297 2.555999994277954,-21.05699920654297 C2.555999994277954,-21.05699920654297 2.555999994277954,-20.788999557495117 2.555999994277954,-20.788999557495117 C2.555999994277954,-20.788999557495117 2.240000009536743,-20.788999557495117 2.240000009536743,-20.788999557495117z">
				</path>
			</g>
		</g>
		<g transform="matrix(-1,0,0,-1,39.83100128173828,36.81999969482422)" opacity="1" style="display: block;">
			<g opacity="1" transform="matrix(0,-1,1,0,0,0)">
				<path fill="rgb(223,212,190)" fill-opacity="1"
					d=" M2.240000009536743,-20.788999557495117 C1.2660000324249268,-20.788999557495117 0.8519999980926514,-20.39900016784668 0.8519999980926514,-19.766000747680664 C0.8519999980926514,-19.766000747680664 0.8519999980926514,19.766000747680664 0.8519999980926514,19.766000747680664 C0.8519999980926514,20.39900016784668 1.2660000324249268,20.788999557495117 2.240000009536743,20.788999557495117 C2.240000009536743,20.788999557495117 2.555999994277954,20.788999557495117 2.555999994277954,20.788999557495117 C2.555999994277954,20.788999557495117 2.555999994277954,21.05699920654297 2.555999994277954,21.05699920654297 C2.555999994277954,21.05699920654297 -2.555999994277954,21.05699920654297 -2.555999994277954,21.05699920654297 C-2.555999994277954,21.05699920654297 -2.555999994277954,20.788999557495117 -2.555999994277954,20.788999557495117 C-2.555999994277954,20.788999557495117 -2.240000009536743,20.788999557495117 -2.240000009536743,20.788999557495117 C-1.2660000324249268,20.788999557495117 -0.8519999980926514,20.39900016784668 -0.8519999980926514,19.766000747680664 C-0.8519999980926514,19.766000747680664 -0.8519999980926514,-19.766000747680664 -0.8519999980926514,-19.766000747680664 C-0.8519999980926514,-20.39900016784668 -1.2660000324249268,-20.788999557495117 -2.240000009536743,-20.788999557495117 C-2.240000009536743,-20.788999557495117 -2.555999994277954,-20.788999557495117 -2.555999994277954,-20.788999557495117 C-2.555999994277954,-20.788999557495117 -2.555999994277954,-21.05699920654297 -2.555999994277954,-21.05699920654297 C-2.555999994277954,-21.05699920654297 2.555999994277954,-21.05699920654297 2.555999994277954,-21.05699920654297 C2.555999994277954,-21.05699920654297 2.555999994277954,-20.788999557495117 2.555999994277954,-20.788999557495117 C2.555999994277954,-20.788999557495117 2.240000009536743,-20.788999557495117 2.240000009536743,-20.788999557495117z">
				</path>
			</g>
		</g>
		<g transform="matrix(-1,0,0,-1,39.76300048828125,29.920000076293945)" opacity="1" style="display: block;">
			<g opacity="1" transform="matrix(0,-1,1,0,0,0)">
				<path stroke-linecap="butt" stroke-linejoin="miter" fill-opacity="0" stroke-miterlimit="4"
					stroke="rgb(223,212,190)" stroke-opacity="1" stroke-width="1"
					d=" M2.566999912261963,38.104000091552734 C2.8239998817443848,37.96099853515625 3.111999988555908,38.08399963378906 3.2790000438690186,38.00199890136719 C3.5759999752044678,37.9630012512207 3.7809998989105225,37.93600082397461 3.986999988555908,37.90800094604492 C4.353000164031982,37.85900115966797 4.715000152587891,37.729000091552734 5.072999954223633,37.707000732421875 C5.765999794006348,37.66400146484375 6.414999961853027,37.45000076293945 7.067999839782715,37.27399826049805 C7.556000232696533,37.143001556396484 8.048999786376953,37.00199890136719 8.529000282287598,36.821998596191406 C9.236000061035156,36.55699920654297 9.958999633789062,36.332000732421875 10.628000259399414,35.9739990234375 C10.883000373840332,35.83700180053711 11.173999786376953,35.78099822998047 11.418999671936035,35.637001037597656 C11.86400032043457,35.375999450683594 12.32699966430664,35.14899826049805 12.769000053405762,34.88199996948242 C13.180000305175781,34.632999420166016 13.609999656677246,34.40800094604492 14.029000282287598,34.16999816894531 C14.418000221252441,33.94900131225586 14.800000190734863,33.709999084472656 15.151000022888184,33.42900085449219 C15.428999900817871,33.207000732421875 15.718000411987305,32.999000549316406 16.010000228881836,32.79499816894531 C16.184999465942383,32.67300033569336 16.39699935913086,32.58100128173828 16.53499984741211,32.4370002746582 C16.847999572753906,32.10900115966797 17.229999542236328,31.867000579833984 17.551000595092773,31.55500030517578 C17.73699951171875,31.374000549316406 17.959999084472656,31.250999450683594 18.145000457763672,31.059999465942383 C18.59000015258789,30.600000381469727 18.988000869750977,30.083999633789062 19.5310001373291,29.724000930786133 C19.562000274658203,29.70400047302246 19.577999114990234,29.68000030517578 19.590999603271484,29.648000717163086 C19.756000518798828,29.253000259399414 20.034000396728516,28.92300033569336 20.31800079345703,28.625999450683594 C20.652999877929688,28.274999618530273 20.899999618530273,27.867000579833984 21.207000732421875,27.503000259399414 C21.364999771118164,27.31599998474121 21.416000366210938,27.069000244140625 21.600000381469727,26.89900016784668 C21.785999298095703,26.72800064086914 21.917999267578125,26.511999130249023 22.031999588012695,26.28499984741211 C22.145999908447266,26.058000564575195 22.273000717163086,25.836000442504883 22.40999984741211,25.621999740600586 C22.655000686645508,25.239999771118164 22.937999725341797,24.881999969482422 23.12299919128418,24.464000701904297 C23.28700065612793,24.0939998626709 23.555999755859375,23.78700065612793 23.698999404907227,23.402000427246094 C23.906999588012695,22.840999603271484 24.208999633789062,22.320999145507812 24.45599937438965,21.775999069213867 C24.729999542236328,21.17099952697754 24.981000900268555,20.555999755859375 25.20199966430664,19.930999755859375 C25.350000381469727,19.513999938964844 25.489999771118164,19.091999053955078 25.649999618530273,18.68199920654297 C25.79599952697754,18.30699920654297 25.902999877929688,17.92099952697754 26.024999618530273,17.54199981689453 C26.222000122070312,16.92799949645996 26.34600067138672,16.292999267578125 26.5310001373291,15.675000190734863 C26.652000427246094,15.270999908447266 26.768999099731445,14.864999771118164 26.891000747680664,14.463000297546387 C27.0049991607666,14.088000297546387 27.131000518798828,13.70199966430664 27.170000076293945,13.295999526977539 C27.194000244140625,13.043000221252441 27.264999389648438,12.781999588012695 27.30699920654297,12.52400016784668 C27.395999908447266,11.972999572753906 27.468000411987305,11.418999671936035 27.5310001373291,10.864999771118164 C27.57200050354004,10.503999710083008 27.690000534057617,10.159000396728516 27.735000610351562,9.802000045776367 C27.80900001525879,9.217000007629395 27.849000930786133,8.628000259399414 27.910999298095703,8.041000366210938 C27.965999603271484,7.514999866485596 28.05699920654297,6.989999771118164 28.083999633789062,6.461999893188477 C28.10700035095215,6.01200008392334 28.131000518798828,5.560999870300293 28.18199920654297,5.114999771118164 C28.256000518798828,4.4730000495910645 28.270000457763672,3.828000068664551 28.308000564575195,3.184000015258789 C28.33799934387207,2.6670000553131104 28.29599952697754,2.1489999294281006 28.3700008392334,1.6349999904632568 C28.42799949645996,1.2309999465942383 28.42099952697754,0.828000009059906 28.368999481201172,0.42399999499320984 C28.349000930786133,0.2720000147819519 28.44499969482422,0.09600000083446503 28.413000106811523,-0.019999999552965164 C28.329999923706055,-0.32100000977516174 28.364999771118164,-0.621999979019165 28.34600067138672,-0.9200000166893005 C28.298999786376953,-1.6729999780654907 28.302000045776367,-2.430000066757202 28.26300048828125,-3.184000015258789 C28.2450008392334,-3.5380001068115234 28.246000289916992,-3.8919999599456787 28.219999313354492,-4.244999885559082 C28.187000274658203,-4.685999870300293 28.115999221801758,-5.125 28.091999053955078,-5.565999984741211 C28.062000274658203,-6.111999988555908 27.972000122070312,-6.651000022888184 27.923999786376953,-7.193999767303467 C27.867000579833984,-7.831999778747559 27.785999298095703,-8.468000411987305 27.722999572753906,-9.104999542236328 C27.69099998474121,-9.428999900817871 27.707000732421875,-9.76099967956543 27.643999099731445,-10.07800006866455 C27.520999908447266,-10.697999954223633 27.405000686645508,-11.319999694824219 27.301000595092773,-11.942999839782715 C27.226999282836914,-12.385000228881836 27.113000869750977,-12.8149995803833 27.018999099731445,-13.25100040435791 C26.885000228881836,-13.871999740600586 26.73200035095215,-14.48900032043457 26.586999893188477,-15.107999801635742 C26.461999893188477,-15.644000053405762 26.3439998626709,-16.180999755859375 26.209999084472656,-16.71500015258789 C26.139999389648438,-16.993999481201172 26.035999298095703,-17.264999389648438 25.961999893188477,-17.54400062561035 C25.841999053955078,-17.993000030517578 25.63800048828125,-18.410999298095703 25.496999740600586,-18.85099983215332 C25.275999069213867,-19.54400062561035 25.118000030517578,-20.257999420166016 24.757999420166016,-20.902000427246094 C24.554000854492188,-21.267000198364258 24.437000274658203,-21.67099952697754 24.261999130249023,-22.048999786376953 C24.030000686645508,-22.548999786376953 23.770000457763672,-23.035999298095703 23.520999908447266,-23.527999877929688 C23.263999938964844,-24.03499984741211 23.01799964904785,-24.548999786376953 22.71500015258789,-25.030000686645508 C22.65399932861328,-25.12700080871582 22.67099952697754,-25.2810001373291 22.636999130249023,-25.297000885009766 C22.357999801635742,-25.43400001525879 22.391000747680664,-25.76300048828125 22.197999954223633,-25.966999053955078 C22.04800033569336,-26.125999450683594 21.944000244140625,-26.3799991607666 21.79800033569336,-26.569000244140625 C21.4689998626709,-26.9950008392334 21.19499969482422,-27.459999084472656 20.85300064086914,-27.875 C20.70800018310547,-28.052000045776367 20.628000259399414,-28.270000457763672 20.461999893188477,-28.43199920654297 C20.275999069213867,-28.61400032043457 20.08799934387207,-28.797000885009766 19.917999267578125,-28.9950008392334 C19.624000549316406,-29.336999893188477 19.357999801635742,-29.702999114990234 19.04199981689453,-30.025999069213867 C18.91900062561035,-30.150999069213867 18.86400032043457,-30.32699966430664 18.72100067138672,-30.43600082397461 C18.277000427246094,-30.77400016784668 17.917999267578125,-31.211000442504883 17.472999572753906,-31.54599952697754 C17.219999313354492,-31.73699951171875 17.04800033569336,-32.00400161743164 16.791000366210938,-32.1879997253418 C16.104000091552734,-32.67900085449219 15.482999801635742,-33.26100158691406 14.730999946594238,-33.66699981689453 C14.298999786376953,-33.9010009765625 13.888999938964844,-34.17599868774414 13.480999946594238,-34.45100021362305 C13.241000175476074,-34.612998962402344 12.984000205993652,-34.75600051879883 12.732000350952148,-34.88600158691406 C12.454999923706055,-35.02899932861328 12.166000366210938,-35.16299819946289 11.890000343322754,-35.30799865722656 C11.279999732971191,-35.62799835205078 10.670000076293945,-35.946998596191406 10.02299976348877,-36.18600082397461 C9.279999732971191,-36.459999084472656 8.531000137329102,-36.720001220703125 7.781000137329102,-36.97600173950195 C7.701000213623047,-37.00299835205078 7.6579999923706055,-37.10200119018555 7.578000068664551,-37.0880012512207 C7.300000190734863,-37.04100036621094 7.061999797821045,-37.191001892089844 6.802999973297119,-37.23500061035156 C6.300000190734863,-37.31999969482422 5.836999893188477,-37.56999969482422 5.322000026702881,-37.62300109863281 C4.986999988555908,-37.65800094604492 4.676000118255615,-37.80099868774414 4.339000225067139,-37.83599853515625 C3.8239998817443848,-37.88999938964844 3.309999942779541,-37.95500183105469 2.7990000247955322,-38.034000396728516 C2.5209999084472656,-38.07699966430664 2.252000093460083,-38.16600036621094 1.965999960899353,-38.15800094604492 C1.8589999675750732,-38.154998779296875 1.7519999742507935,-38.16400146484375 1.6440000534057617,-38.17599868774414 C1.274999976158142,-38.21799850463867 0.9049999713897705,-38.26100158691406 0.5339999794960022,-38.26300048828125 C0.061000000685453415,-38.26599884033203 -0.41200000047683716,-38.229000091552734 -0.8849999904632568,-38.20899963378906 C-1.2400000095367432,-38.194000244140625 -1.597000002861023,-38.19499969482422 -1.9500000476837158,-38.1619987487793 C-2.427000045776367,-38.11800003051758 -2.9030001163482666,-38.05799865722656 -3.381999969482422,-38.029998779296875 C-3.4800000190734863,-38.02399826049805 -3.5980000495910645,-38.09400177001953 -3.640000104904175,-38.051998138427734 C-3.809000015258789,-37.88199996948242 -4.026000022888184,-37.96699905395508 -4.215000152587891,-37.917999267578125 C-4.491000175476074,-37.84600067138672 -4.78000020980835,-37.8120002746582 -5.064000129699707,-37.768001556396484 C-5.4720001220703125,-37.70600128173828 -5.860000133514404,-37.52799987792969 -6.283999919891357,-37.55699920654297 C-6.335999965667725,-37.56100082397461 -6.375,-37.5369987487793 -6.410999774932861,-37.505001068115234 C-6.485000133514404,-37.43899917602539 -6.574999809265137,-37.42100143432617 -6.669000148773193,-37.4010009765625 C-6.889999866485596,-37.35499954223633 -7.109000205993652,-37.29399871826172 -7.324999809265137,-37.236000061035156 C-7.677000045776367,-37.141998291015625 -8.017999649047852,-37.000999450683594 -8.371000289916992,-36.900001525878906 C-8.588000297546387,-36.8380012512207 -8.821999549865723,-36.79999923706055 -9.017000198364258,-36.70800018310547 C-9.432999610900879,-36.51100158691406 -9.854000091552734,-36.316001892089844 -10.29800033569336,-36.22999954223633 C-10.770999908447266,-36.138999938964844 -11.137999534606934,-35.847999572753906 -11.569999694824219,-35.689998626708984 C-11.807000160217285,-35.60300064086914 -11.991000175476074,-35.430999755859375 -12.211999893188477,-35.31800079345703 C-12.574000358581543,-35.13199996948242 -12.9399995803833,-34.94900131225586 -13.28499984741211,-34.73400115966797 C-13.836999893188477,-34.388999938964844 -14.369999885559082,-34.01300048828125 -14.918000221252441,-33.65999984741211 C-15.92300033569336,-33.01300048828125 -16.85700035095215,-32.275001525878906 -17.759000778198242,-31.493000030517578 C-17.95599937438965,-31.32200050354004 -18.180999755859375,-31.18199920654297 -18.371999740600586,-31.0049991607666 C-18.575000762939453,-30.81599998474121 -18.753000259399414,-30.600000381469727 -18.94099998474121,-30.395000457763672 C-19.32699966430664,-29.972000122070312 -19.75,-29.586999893188477 -20.142000198364258,-29.16900062561035 C-20.351999282836914,-28.944000244140625 -20.54800033569336,-28.69700050354004 -20.72599983215332,-28.461999893188477 C-21.174999237060547,-27.8700008392334 -21.66900062561035,-27.30900001525879 -22.073999404907227,-26.68199920654297 C-22.235000610351562,-26.433000564575195 -22.472000122070312,-26.232999801635742 -22.62299919128418,-25.979000091552734 C-22.947999954223633,-25.433000564575195 -23.209999084472656,-24.84600067138672 -23.554000854492188,-24.312999725341797 C-23.895000457763672,-23.78499984741211 -24.077999114990234,-23.19099998474121 -24.347000122070312,-22.634000778198242 C-24.597000122070312,-22.118000030517578 -24.871000289916992,-21.606000900268555 -25.013999938964844,-21.04199981689453 C-25.101999282836914,-20.69300079345703 -25.32900047302246,-20.40399932861328 -25.44499969482422,-20.06599998474121 C-25.4689998626709,-19.996000289916992 -25.52400016784668,-19.91699981689453 -25.476999282836914,-19.854000091552734 C-25.38800048828125,-19.735000610351562 -25.4689998626709,-19.667999267578125 -25.535999298095703,-19.597999572753906 C-25.56800079345703,-19.56399917602539 -25.610000610351562,-19.540000915527344 -25.625,-19.492000579833984 C-25.742000579833984,-19.11199951171875 -25.826000213623047,-18.724000930786133 -25.945999145507812,-18.3439998626709 C-26.086000442504883,-17.902999877929688 -26.156999588012695,-17.44099998474121 -26.295000076293945,-17 C-26.39900016784668,-16.667999267578125 -26.44499969482422,-16.325000762939453 -26.548999786376953,-15.993000030517578 C-26.650999069213867,-15.666999816894531 -26.71299934387207,-15.322999954223633 -26.783000946044922,-14.986000061035156 C-26.86400032043457,-14.595000267028809 -27.031999588012695,-14.232000350952148 -27.08300018310547,-13.829000473022461 C-27.141000747680664,-13.371000289916992 -27.288999557495117,-12.925999641418457 -27.37299919128418,-12.470000267028809 C-27.422000885009766,-12.206999778747559 -27.551000595092773,-11.946000099182129 -27.54800033569336,-11.699000358581543 C-27.542999267578125,-11.27299976348877 -27.65399932861328,-10.871999740600586 -27.698999404907227,-10.458999633789062 C-27.753999710083008,-9.951000213623047 -27.85099983215332,-9.447999954223633 -27.895999908447266,-8.937999725341797 C-27.929000854492188,-8.555999755859375 -27.945999145507812,-8.170999526977539 -28.003999710083008,-7.793000221252441 C-28.086000442504883,-7.26200008392334 -28.128999710083008,-6.72599983215332 -28.19300079345703,-6.193999767303467 C-28.26300048828125,-5.611999988555908 -28.20199966430664,-5.017000198364258 -28.274999618530273,-4.431000232696533 C-28.31100082397461,-4.144999980926514 -28.25200080871582,-3.859999895095825 -28.320999145507812,-3.569000005722046 C-28.378000259399414,-3.3299999237060547 -28.42300033569336,-3.059999942779541 -28.405000686645508,-2.8320000171661377 C-28.382999420166016,-2.5480000972747803 -28.389999389648438,-2.26200008392334 -28.38800048828125,-1.9809999465942383 C-28.384000778198242,-1.253000020980835 -28.367000579833984,-0.5249999761581421 -28.405000686645508,0.20399999618530273 C-28.433000564575195,0.7369999885559082 -28.422000885009766,1.2740000486373901 -28.358999252319336,1.8020000457763672 C-28.315000534057617,2.171999931335449 -28.319000244140625,2.5429999828338623 -28.290000915527344,2.9130001068115234 C-28.216999053955078,3.8450000286102295 -28.198999404907227,4.78000020980835 -28.124000549316406,5.7129998207092285 C-28.06100082397461,6.495999813079834 -27.97800064086914,7.2779998779296875 -27.937000274658203,8.062999725341797 C-27.913000106811523,8.52400016784668 -27.841999053955078,8.982000350952148 -27.73900032043457,9.437999725341797 C-27.641000747680664,9.871999740600586 -27.641000747680664,10.326000213623047 -27.569000244140625,10.767000198364258 C-27.44099998474121,11.555999755859375 -27.270999908447266,12.33899974822998 -27.156999588012695,13.130000114440918 C-27.084999084472656,13.628999710083008 -26.926000595092773,14.11400032043457 -26.916000366210938,14.621999740600586 C-26.71299934387207,14.836000442504883 -26.761999130249023,15.130999565124512 -26.676000595092773,15.383000373840332 C-26.538000106811523,15.789999961853027 -26.482999801635742,16.22100067138672 -26.356000900268555,16.634000778198242 C-26.143999099731445,17.325000762939453 -26.041000366210938,18.045000076293945 -25.775999069213867,18.724000930786133 C-25.534000396728516,19.3439998626709 -25.343000411987305,19.98200035095215 -25.11400032043457,20.60700035095215 C-24.93199920654297,21.104999542236328 -24.739999771118164,21.600000381469727 -24.527999877929688,22.086000442504883 C-24.356000900268555,22.48200035095215 -24.148000717163086,22.86199951171875 -23.95800018310547,23.25 C-23.83099937438965,23.510000228881836 -23.729999542236328,23.784000396728516 -23.597999572753906,24.038999557495117 C-23.378999710083008,24.461999893188477 -23.114999771118164,24.863000869750977 -22.874000549316406,25.274999618530273 C-22.809999465942383,25.385000228881836 -22.7810001373291,25.520000457763672 -22.70199966430664,25.614999771118164 C-22.363000869750977,26.02199935913086 -22.165000915527344,26.518999099731445 -21.822999954223633,26.926000595092773 C-21.36199951171875,27.475000381469727 -21.003999710083008,28.101999282836914 -20.531999588012695,28.64699935913086 C-19.878999710083008,29.402000427246094 -19.160999298095703,30.091999053955078 -18.451000213623047,30.788999557495117 C-17.981000900268555,31.25 -17.47599983215332,31.677000045776367 -16.985000610351562,32.117000579833984 C-16.579999923706055,32.479000091552734 -16.167999267578125,32.83399963378906 -15.72700023651123,33.15299987792969 C-15.045000076293945,33.645999908447266 -14.321999549865723,34.07500076293945 -13.602999687194824,34.5099983215332 C-13.027000427246094,34.85900115966797 -12.456999778747559,35.2239990234375 -11.840999603271484,35.500999450683594 C-10.982000350952148,35.887001037597656 -10.128999710083008,36.2869987487793 -9.243000030517578,36.612998962402344 C-8.812999725341797,36.77199935913086 -8.366999626159668,36.87900161743164 -7.929999828338623,37.00600051879883 C-7.310999870300293,37.18600082397461 -6.673999786376953,37.316001892089844 -6.041999816894531,37.45600128173828 C-5.534999847412109,37.56800079345703 -5.0279998779296875,37.68600082397461 -4.51800012588501,37.790000915527344 C-4.35699987411499,37.823001861572266 -4.183000087738037,37.7599983215332 -4.039999961853027,37.83000183105469 C-3.760999917984009,37.96699905395508 -3.4539999961853027,37.92599868774414 -3.1630001068115234,38.005001068115234 C-2.6579999923706055,38.141998291015625 -2.11899995803833,38.112998962402344 -1.5980000495910645,38.189998626708984 C-0.9160000085830688,38.29100036621094 -0.23800000548362732,38.13100051879883 0.4440000057220459,38.141998291015625 C0.8230000138282776,38.14899826049805 1.1990000009536743,38.090999603271484 1.5720000267028809,38.2140007019043 C1.7070000171661377,38.25899887084961 1.9320000410079956,38.28200149536133 1.9889999628067017,38.24399948120117 C2.177000045776367,38.11899948120117 2.3959999084472656,38.20000076293945 2.566999912261963,38.104000091552734z">
				</path>
			</g>
		</g>
	</g>
</svg>