<svg width="86" height="173" viewBox="0 0 86 173" fill="none" xmlns="http://www.w3.org/2000/svg"><path d="M35.3 158.7c-.5.5-.5.7-2.5-.4-1-.5-1.3-1.6-2.1-2.3-.4-.4-.1-1 .2-1.2.7-.4.7.3.9.6.2.4.4 1 1 .7.5-.2.1-.7.2-1.1.2-1.8-.1-4-1.7-4-1.3-.1-1.6-.9-2.4-1.6-.3 1.3-.4 2.4 0 3.4.6 1.4.3 2.7-.3 4-.2.4-.4 1-1 .9-.6 0-.9-.6-1-1a4 4 0 0 1-.3-2.5c.2-1.3-.5-2.4-1-3.5-.3-.5-1-1.4-1.2-.3-.5 1.6-1.7.3-2.4.8-.4.3-.3-1-.4-1.6-.1-.6 0-1.4-1-1.9-1 3.9-1 7.7-1.3 11.6-1.3-8.8 2.8-17.3 1.4-26.8-2 7.8-2.7 15.2-3.7 22.6-.6-.3-.4-.8-.4-1.3s.4-1 .4-1.5c-.1-7.3 2.1-14.4 2.4-21.6.1-1.5.5-3 1-4.4.2-.5-.5-2.5 1.6-1.3.4.2.6-1 .7-1.7l.8-8c.2-2 1.9-3.3 2.1-5.2.3-2.2.3-4.6 1.1-6.6 1.2-3 1.1-6 2.1-9 1.3-3.9 1-8 .5-12V81c0-1.6-1-2-2.4-1.9-.4 0-.8.1-.9.6 0 .6.4.8.8.7 1.4 0 1.2.9 1.3 1.8.4 3.2-1.3 5.9-1.9 8.8-.6 3-1.9 6-1 9.2v.7c-1.8 8.4-3.2 17-6.2 25-.2.4-.4.6-.8.9.3-5 4.1-9 3.5-14.4-1.5 2.2-1.4 4.6-2.8 6.6l.8-4.8c.3-1.4.7-2.8-1.1-3.7-.8-.3-.5-1.3-.4-2 0-.7.7-1.4.3-2.1 1-.3 1.1-1.2 1.6-1.9.3-.6.1-1.6 1.1-1.7.8.6 1.5.8 2-.4-.4 1-1 1-1.7.6-1-.5-.9.3-1.1.7-.5 1-.6 2.2-1.8 2.7-1 .1-1.8.3-2 1.5-1.2-.8-.3-1.7-.5-2.6-1.1 0-1.5.8-1.5 1.7 0 4.7-2.4 8.7-3.9 13-.7 2-.9 4.6-3.5 5.6-.4.1-.4 1-.1 1.7 1.5-.1 1.8-1.8 3.2-2.6l-.4 6.7h.3l3-14 .4-1.8c.2-.5.2-1.5 1-1.1.6.3 1 1 .6 1.7-1.6 3.1-1.5 6.6-2.4 9.9-.4 1.2-1.1 2.3-.7 3.7.9-.3.5-1.6 1.5-2 .8 1.1 1.4 2.2.7 3.6-.3.6-.7 1.6.3 2 .8.4.9-.7 1.3-1.2.5-.4.5-1.2 1.4-1.5-.6 5-2.4 9.6-4.6 14l2.1-10.8c-1.4.5-1.6 1.6-1.7 2.5-.3 1.6-.6 3.3-1.6 4.6-1.3 1.5.4 2.7.2 4.2-.3 1.4-.3 2.7-1.1 4-1 1.5-2.2 2.7-3 4.4l-.6-3.8c-.8 1 0 2.3-1 3.2-.7-.8-.8-1.8-.9-2.8-.5-5 0-10 0-15 0-5.4 1.5-10.9-.3-16.4-1.5-4.5-.2-9.2.1-13.8 0-.8 1.3-2.3-1-2.4v-.9l1-4.5c.4-1 .8-.6 1.4.4v-9.2a56.7 56.7 0 0 0-3.5 22.7c-2.3-2.3-1.7-4.4-1.5-6.4 0-2 .7-4.1-.3-6.1-.2-.5-.4-1.6.9-1 .8.4 1-.3 1-.8l.8-8.7c-2 2-.9 4.2-2.2 6 0-3.2.4-5.9 1-8.7 1.1.5.3 1.5 1.2 2.3 1-2.6 1.6-5 1.8-7.7 0-.8-.6-.7-1-.2-.4.4-.5 1-.9 1.3-.5.5-1.4 1-2 .5-.7-.6.1-1.2.4-1.8l.1-.1C3 75.3 7 72.3 7.1 67.4c0-1.7 1-3.3 1.7-5h-.1c1.4-1.1 2.4-2.6 3.2-4.3.5-.9.8-1.9 2.4-2.6-2.7 5.8-7.1 10.3-7.5 16.9 1-.5 1.3-1 1.4-1.8.1-2.5 1.4-4.5 2.6-6.5l.4-.7c2.1-.1 2.9-1.7 3.6-3.6 1 2 .6 3.5.2 5.2 3.7-2.6 2-7.4 4.6-10.6 1 1.5-.4 3 .4 4.2.6 0 .5-.5.8-.9.3-.5.6-1.2 1.5-1 1 .1.5 1 .7 1.6 1.4 2.9-.9 5-1.4 7.6-.1.3-1 .3-.3.8.4.2.9.2 1-.2.3-1.6 1.8-2.5 2.4-4 1.5-3 3.6-3 6.7-1.5 1.4.8 2 1 1.3 3 1.9-1.5 2.9-2.7 2-4.7-.5-1.1-.4-2.3.2-3.4.2-.4.1-1-.4-1.1-.5-.2-.6.3-.8.5-.6.8-1.6 1.4-1 2.6.2.5.3 1-.4 1.3-.5.3-1 0-1.4-.4l-1.7-2.9c-.7.2-.4 1.5-1.5 1.3-1-.2-1-1-1.1-1.7-.4-3-.7-5.8.6-8.6.2-.4.4-.9-.1-1.4-2.7 1.9-2.7 5.4-4.9 7.5-1-2.7-.2-5 2.2-6.2.5-.2.6-.6.8-1a7.2 7.2 0 0 1 3.3-4c.5-.2 1-.7.5-1.2-.5-.7-1 0-1.3.3a40.6 40.6 0 0 0-6.3 7.5c-.3.5-.7 1.4-1.4 1-.6-.4 0-1.1.1-1.7.3-.9 1.2-1.8.4-2.7-.5-.5-1.9.2-2.2-1.3-1.2 2-1 3.7.3 5.4.8 1 1 2.1 0 3.2-.8.8-1 2-1.4 3-.3 1-.9 1.8-2 2.2 0-1 .7-1.8 1-2.6.7-1.4 2-2.6.2-4-.2-.2 0-1 .2-1.4.2-.9 0-1.5-1-1.5-2 .1-1.6-1-1.3-2.1.5-1.3.6-2.4-1.4-2.7 1.8-.7 2.8-2 4-3.4-1.2-.7-2.4.4-3.4-.3 0-1.1 1-1.1 1.6-1.6.5-.4 1.3-.6 1-1.3-.1-.7-.9-.5-1.5-.5-.3 0-.7 0-1-.5.7-.9 2.1-.5 2.7-1.5-.3-.6-1-.6-1.4-1-.4-.1-1-.4-.5-.8.8-.6.6-1 0-1.6-.3-.4-.2-1 .2-1.2 1.5-.8 1-1.7 0-2.4.6-.8 1.6-.4 2-1.2-2.4-2.4-2.4-2.5.7-4.5 1-.6.7-1.2.2-1.8-.4-.4-1-.8-.5-1.5.4-.5 1-.7 1.8-.5.7 0 1.4.6 2.2 0-1-1.3-1.3-3-2.9-3.8.9-.5.9-.5 4.4 1.7-.3-1.3-1.8-2-1.3-3.6 1.5 1.5 3.4 2.2 4.6 4 .8 1.2 3 .3 4.7 1A38.8 38.8 0 0 1 18.3 5.3c2.2 2 4.2 4.3 6.5 6.1 2.5 1.9 5.2 3.4 7.5 5.6-1.8-5.2-8-6-10.2-10.8 4.3 3.8 9.6 6.3 13.4 11.2.3-1.5-.3-2.2-1-2.8-4.4-4.4-9.3-8.3-14.1-12.3-.4-.3-1.1-.4-1-1 .3-.7 1-.4 1.4-.5 1.5-.3 2.8.2 4 1 2 1 3.9 2 5.6 3.2 1.3.9 1.6 2.7 3 3.6.4.3.4 2 1.6.4.2-.4.6.6.8 1 .9 1.5 1.3 3.3 2.6 4.7 1-1.4-.4-2.6-.2-4.2 1.9 1.7 1.5 4.1 3.1 5.7L40 8.8c1.8 2.6 1.8 2.6 3.7.5 1.6 1.4 1.3 3.8 2.9 5.4.7-1.5-.1-3.2 1.2-4.5.9 1.7 1.7 1.8 2.4-.1.2-.6-.7-1.7.6-1.8 1.2 0 .3 1.4 1.2 1.8l1.5-1.3c.8 1.2.4 2.1-.3 3.3A14 14 0 0 0 52 20l2.5-6c1.2-3 2.9-5.5 6.2-6.9 2.5-1 5-2.4 6.8-4.5.4-.5 1-.8 1.6-1.3.6-.6 1-.3 1.4.2.7.6-.1.8-.4 1.1a28.7 28.7 0 0 1-5.7 4.6c-.5.3-1.6.5-1.2 1.3.5 1 1-.1 1.6-.3.8-.2 1.5-.6 2.2-1l.2.7c-.1.7-1.6 1-1 1.7.7.8 1.5-.3 2.2-.6 1.9-1 3.4-3 5.9-3.2-1.5 2-4 2.3-5.8 3.8-.5.5-1.9.2-1.2 1.8.1.3-1.4 1.5-2.5 1.8-3.7.9-6.8 2.7-9.1 5.7-.8 1-1.3 2-1.6 3.9 2.4-2.8 4-5.4 7-6.8-2 3.4-5 6.1-6.5 10 1.6 0 1-1.8 3-1.3-3.5 1.8-3 5-3.9 7.8-.3 1-.4 1.8 1 2.2 1.3.3 1.7 1.5 1.9 2.7.3 2.1 1.1 4 2.2 6-2-.5-2-2.8-3.4-4a8 8 0 0 0-3-1.6c1.5 1.5 3.4 2.8 4.1 4.8.8 2 .3 4.2-.3 6.4-1-.3-.8-1.2-1-1.7-.8-2.7-4-4.4-6.6-3.6-1 .2-.6.7-.3 1.3.4.6 1 .7 1.7 1 .5.2.8.7.6 1.3-.3.7-.7.1-1.1 0-5-1.3-7.2 2.7-6.4 7l1.3-2c.6-.9 1.3-2.3 2.1-.2.1.4.3.4.7.3 1.4-.5 1.8-.1 1.4 1.4-.4 1.4-1 2.8-.8 4.6 1.5-1.4 1.5-3.2 2-4.9-.2 2.1.9 3.9 1.4 6.4.8-2.8 4.2.3 4.5-2.9 2.8 2.1 3.4 2.7 4 4.3 1.2-2.7-.3-4.9-.3-7.1 2.4 4.3 2 9.5 4.1 14 .6-1 .2-2.2 1-3.2l.9 2c1.3-1.3 0-3 1-4.1a51 51 0 0 1 .3 21.3c1-1.9 1.3-3.8 1.5-5.8 0-.8 0-2 1.4-1.8 1.2.1 1 1.1 1 1.9v1.3c.1.5.4.7.9.6.5-.2.4-.6.2-.9-1.5-1.8.7-3.7-.1-5.5-.2-.5.4-.9 1-.9.7 0 1 .5 1 1 .3 1.5 0 2.9-.3 4.3-.2.4-.3 1 .3 1 .7.3 1-.5.8-.9-.5-1.4.4-2.6.2-4 0-.4 0-1 .7-1 .5 0 .7.4 1 .8.5 1 0 2-.2 3.1-.4 4.7-1 9.4-1.2 14.1 1.7-8 4.2-16 1.7-24.4-1.4.7-1 1.7-.7 2.8.2.7.7 1.6-.1 2.3-1 .8-1.2-.7-1.5-.6-3 .9-3.7 0-2.3-2.8-1.2-.6-.5-3-2.6-2.8-1 0-1-.7-1.2-1.5l-.8-8.5c-.1-1.3-.5-2.1-2-1.3h-.5a14 14 0 0 1-3-5.9c1.1.5 2 1.2 2.4 2.3.4 1.2.6 2.3 2.2 1.2.6-.4 1-.3.7-.7-1.5-2.6-1.2-6.2-3.9-8.3-.8-.6-1.5-1.3-2.4-1.6-2.2-.7-2.4-2-1.5-4 .8.8 1 2 1.8 2.6.8-.7 0-1.4.3-2.4.9 1.2 1.6 2.2 3.1 2.4-.6-2.5.4-2.2 2-1.5 3 1.4 4.6 4 7 6l1.8 1.9c.8.6 1 1.5.9 2.5l-3-.7c-.6 3.6 2.5 5.3 3.6 8 .2.5 1 .5 1.4 0 .5-.4.5-.8 0-1.3-.7-.8-.8-1.7-.2-3 .8 2.7 4 4.2 2.7 7.5 1.8 4.4.6 9 .6 13.4l-.3.8c-1.1-1.4-.6-3-.6-4.3.2-2-.4-4-.7-5.8-.1-1.5-.6-2.9-.2-4.4.2-.7 0-1.4-.7-1.7-.4-.1-.8-.3-1-.2-.9.5-.3 1.2-.3 1.8.1 1.8-.1 4 .4 5.3 1.6 3.5 1 7 1.2 10.6.1 2 .6 4.2-.6 6.3-.3.6.7 2 .6 3.8 1.9-2.2 1-4.2 1.5-5.9 1-.6 1.3 1.4 2 .7.6-.7-.2-1.7 0-2.5-1-.6-1.4 1.4-2.1.3-.4-.5-.1-1.4-.1-2.1 0-.6.4-1 .8-.6 2.1 1.6 1.8-.6 1.6-1.2-.7-3.2 1.6 3.7 1.5 6.3 0 .7 1.6 4.5.3 4.4-.9-.1-.7.8-.7 1.3l-1.2 8.6a10 10 0 0 1-1.5 4.4c-.3.4-.5.7-.9.6-.6-.1-.4-.7-.4-1 .1-2 .8-3.7 1.3-5.4 1.2-3.6 1-7.3 1.7-10.9 0-.5-.1-1-.6-1-.8 0-1.3.8-1.2 1.6.3 1.4.3 2.6-.4 3.8-1 0-.5-1.9-1.8-1.2-1.1.5-.9 1.2-.5 2 .2.6 0 1.2-.4 1.8-.4.9-1.3 1.7-1.5 2.5-.1.7.8 1.8.8 2.8 1.2.3 1-1.3 2.1-1.3-.1 3-.9 5.8-1.7 8.6-.1.6-.7 1.2-1.3.8-.7-.3-.2-1 .1-1.3 1.2-1.4.4-3.3 1.3-4.7.2-.3 0-.8-.3-1-.5-.1-1 .2-1 .6-.6 1.9-2 3.5-1.7 5.5v.5c0 1-.4 2-1.5 2-1.3 0-.5-1.3-.8-2-1 .3-1 1.1-1.2 1.9-.2 1.2-1 1.4-2 1.2-1.1-.2-.6-1.2-.5-1.8.3-1.5.8-3 1.3-4.7-1.2.4-.9 1.3-1.3 1.8-.5.5.2 2.6-1.9 1.1-.4-.3-2.3.9-2.4 2.5-.4 1.4-1.2 2.9 1.4 3 1 .1 1.1.8.9 1.7-.3.8-1 1.5-.5 2.8.9-1.6.9-3 1.2-4.5.1-.5 0-1.1.7-1.1s.6.8.5 1.2c-.5 1.2 0 2 .6 3 .8 1 .1 2.4-.8 3.2-.6.5-1.7 1.5-2.6 0-.4-.6-.8-.4-1 .3-.2.9 1.7 3.3 2.7 3.5.5.3.2-.4.4-.3.4-.2-1.3-1.7.7-1 .5.2 1.4-.8 2.3-1.2a24 24 0 0 0-1.8 6.9c0 .6-.7 1-1.3.8-.8-.1-.3-.8-.3-1.2 0-.8-.2-1.5-1-1.6-.8 0-1.5.3-1.6 1.3 0 1 0 2 .2 3.1.3 1-.8 1-1.4 1.2-.7.3-1.6.4-.6 1.4 2 1.9 2 2-.1 3.5-.3.3-.8.4-.9 1l.4.2c.8-.1 2-1 2.3-.2.4 1.1-1.2 1.5-2 1.5-2.2 0-2.2 1.9-2.4 3.2-.3 1.3-1.1 2.4-1.5 3.6 0 .5-1.2.4-.6 1.1.4.5 1 .6 1.7.2.4-.2 1-.5 1.2.3.1.5-.3 1-.8 1.2-1 .4-1.8.7-1.4 2.2.3 1-.7 1.2-1.6 1.3-1.9.3-3.8 0-5.6 1-1.7.8-.5-1.5-1.7-1.9-1 2.4.3 4.7.1 7-.1 2.1-.8 4.1-1.6 6.3-2.1-1.7-2.5-3.9-2-6.2.3-1.2.2-1.7-1.1-2.1-1.3-.4-1.6-2.4-1-2.9 1.8-1.3 1-3 1.4-4.6.2-1.1.2-2.3.2-3.4 0-1 .4-1.3 1.3-1.3 1.2.1 1.2.9 1 1.6-.2 1.3-1 2.5-.4 3.9.8-.4.6-1 .7-1.6.2-1 .7-1.4 1.5-.5 1 1.2 1.2.2 1.4-.5.2-1.1.4-2.3.4-3.5 0-.8.2-1.3.5-1.9.3-.6 1-1 1.7-.6.8.3.5 1 .3 1.5-.5 2.1-1 4.2-1.7 6.3-.3 1 .1 1.6 1.1 1.6 1.3 0 2.9.7 4-.7-.6-.7-1.3-.9-2-.5-2 .9-2.1-.2-1.9-1.7l.3-1.5c.6-1.1 0-4.5 2.8-1.3.4.5 1.2-.7 2-1-.8-1.2.4-2.8-1-3.8-1.4-.9-1.7-2.1-1-3.6.3-1 .9-1.4 1.8-1.2 1 .3.6 1 .3 1.7-.1.3-.4.7.2.9.6.1.6-.3.7-.8 0-.5 0-1.2.2-1.3 2.9-.5 1-2.6 1.4-3.9.2-.8-.7-1-1-1.6-.1-.2-.5 0-.7.3-.7.8.3.8.5 1.2.5.7 0 1.5-.3 2.1-.5 1-1.4.6-2.4.4 1.6-2.2.7-5.8 4.3-6.7-1.3-.9-1.4-3.6-.2-6 .4-.9.6-1 2-.5-.2-1-1.8-.6-1.7-1.8 0-.4-.4-.3-.7-.2-.2.1-.6.2-.5.6.5 3-.7 5.7-1.9 8.1-1.5 3.1-2 6.4-3 9.5-.5 1.1-1 2.7-2 2.4-1-.3-.4-2-.1-3 1.2-3.8 2.5-7.7 3.6-11.7.3-.9.5-1.7 1.6-1.8-1.3-1.5-1.9-1-2.4.7-.4 1.2-.7 3.4-2.5 2.6-1.2-.5.1-2.3.3-3.5.3-1.8 2.4-1.2 3-2.7-2.2 0-2.1-1.3-1.7-2.8.5-2.3.5-4.7 2.3-6.5.3-.3.3-.6.1-1-.5-1-.4-1.7.8-2 1.2-.2 1.1-1.2 1.3-2-.9-.5-1 1.3-2 .5-.7-.5-1.6 1-1.6 1.6-.1 4.4-1.3 8.4-3 12.4-.3 1 .3 2.4-.8 3.4-1.5-1.5-1.8-3-.5-4.7.3-.5.3-1 .3-1.7s0-1.5-.8-1.6c-1 0-1 .8-1 1.5.2 1.7-1.4 3-.8 4.9.1.4-.4 1.6-1.3 1.4-1-.2-.3-1-.5-1.6-.4-2.3 0-4.7-.4-7a38.5 38.5 0 0 0-2 11.6c1.1-.3.9-2.8 2.6-1.6 1.4 1 .2 2.2-.1 3.4l-.8 3c-.2.6-.6 1.3.1 1.6.8.3.9-.6 1-1.1.3-.9.6-1.6 1.6-1.6.5 0 1.1 0 1 .6-.5 2.7 1.4.6 1.8 1.2.9-.7-2.2-2.1.6-2.2.8 0 1.4.2 1 1.2-1.2 2.4-.7 5.3-3 7.3-.4.3 0 .8 0 1.2.4 2.2-.6 4.2-1 6.2-.2.5-.7.7-1.2.5-.6-.2-.7-.7-.6-1.2.3-1.8-.2-2.3-2-1.8-1 .3-2.1 0-3.1-.1-.5 0-.6-.4-.5-.8.3-.9 1-1.2 1.6-.8 1.7 1.2 1.6-.2 1.8-1.1l1.3-5.6c-1-.2-1.4.2-1.5 1.3 0 .9-.2 1.7-.3 2.6-.2 1-1 1.7-2 1.3-1-.4-.6-1.3-.2-2 1.4-3 1.7-6.1 2.1-9.5-1.5.4-1.5 2.7-3.2 2 .2-5.6 1.8-11 2-16.7 1.2.2.4 1.2 1 1.4.9-2 4.6-2.2 3-5.6a2 2 0 0 0-1 1.2c-.9 2.1-1.7 2.2-3.3.4-1 5-2.1 9.7-2.5 14.5 0 1-.2 1.7-.8 2.5-.9 1.1 0 3 1.3 3.3 1.8.3 2 1.7 1.5 2.9-.8 2.5-.8 5.2-1.4 7.8-.3 1-.6 1.8-1.5 1.7-1-.1-.6-1.2-.6-1.9 0-1.9.7-3.8.4-6a7.3 7.3 0 0 0-3.6 4.5c-.8 2.8-1.1 5.7-2.4 8.5a7 7 0 0 0 2.5-3.6c0-.5 0-1 .3-1.5.2-.6 0-1.8 1-1.6 1 .3.6 1.3.2 2-.2.5-.1 1-.2 1.6-.3 2.9.1 3.2 2 2.5-1.9.1-4 2.2-7 2.3-.6 0-1.1.4-1.7.6-1.4.6-1 1.4 0 1.8 1.7.7 2.9 2.2 3.1 3.5.6 2.7 2 5.6-.1 8.4Z" fill="#DFD4BF"/><path d="M63.2 17.5c.2-1.7 1.6-2.4 2.9-3 1.4-.6 2.7-1 2.8-3 0-.9 3.4-2.6 4.3-2.4.4.1.6.3.6.6 0 .5-.2.9-.6 1-1 .5-1.3 1-1.1 2.3.1 1.2-1.4 2-2.4 2.3-1.7.5-2.3 2-3.7 2.7.9.8 1.6-.4 2.2 0 .7.7-.5 1.2-.1 2.2 1.6-1.4 2.9-3.1 5.2-3.3-1 1.1-2 2.2-3.4 3.4 2.3-.2 3.9-1.6 6-2.2-.6 1.7-2.5 2-2.7 3.8 1.1-.3 1.7-1.1 2.4-1.7.5-.3 1-.8 1.6-.4.7.6 0 1-.4 1.5a9.6 9.6 0 0 1-7.3 3.7c-1 0-1 1.3-2 1.4v-3.6c-.7-.3-.6.7-1.5.6-.4-.1.2-1.3-.8-1.6-.7.2-.2 1.2-.8 1.6-1.3-2.6-1.3-2.6-4.1-3.1 1-1.2 2.4-1.5 3.4-2.3.3-.3 1-.6.5-1-.4-.3-.9 0-1 .5l-.2-.3.2.3ZM41.5 158c-1.5-2-2.8-3.5-2.4-5.8 0-.7-.5-1.4-1.2-2a13 13 0 0 1-2.3-3c-.5-.8-.5-1.9.8-1.6 1.8.5 3.7.9 4.7 3.2.6 1.5 1.1 3.2 2.5 4.3.4.3 1.2 1.4-.6 1.5-2 0-1.3 2-1.5 3.5Zm10.5-7.7c.2-.9-1.7-1.8.2-2.5 2.5-1 3.8-.7 4.3 1 .6 2 .7 4.2 2.7 5.7 1 .9-.6 3.4-1 3.5-1.7.1-1.5 1.5-1.8 2.5-.1.3-.3.7-.7.6l-1.4-10.5c-.1-.5-.2-1.2-.9-1.4-.8-.2-.4 1-1.5 1.1ZM78.4 23.7c-.4.8-1.4.7-1.8 1.3-.4.5-.8 1.2 0 1.4 2 .2.9 1 .4 1.4-1.5 1.1-2.9 2.5-4.7 2.9-1.3.2-2.5-1-3.8.4-.1-1.4.7-1.4 1.1-1.7.5-.4.5-1 .3-1.4-.7-1.2-.7-1 .6-1.9 1.8-1 3.9-1.4 5.5-2.8.9-.6 1.7-.4 2.4.4ZM12.6 148v10c0 2.7.5 5.3.7 8 0 .8.3 2-1 2.2-1 0-.9-1.2-1-2a59 59 0 0 1 0-16.7c.2-.5.2-1 1.3-1.5ZM62.1 25.5c-1.3 1.4-2.7 2-3 3.8 0 1.8.2 3.5 1.6 4 1.5.6 3.2-.4 4-2 .3-.4.3-1.4 1.1-1 .7.4.4 1.2 0 1.8-1 2.2-2.9 3-5.7 2.3-2-.5-3-1.7-2.8-3.8.2-3.3 1.4-4.7 4.8-5.1ZM77.4 43c-3.2-4.1-8-5.1-13-6.3 1.2-.8 1.8-.3 2.5 0 1.3.3 2.8 1.2 3.9-.6 0-.2.4-.3.5-.2l6.3 1c-2 2.2-3.6-.5-5.5.1 1 1.4 2.8 1.3 3.8 2.3 1 1 3 1.4 1.5 3.7ZM1 133.4v-4.6c.4-2.6.2-3.8.1-5.3 0-.6.2-1.2.9-1.7.5 4 .1 7.8-1 11.6Zm59 18c.3-1 0-1.8-.4-2.7-.2-.4-.5-.8 0-1.1.4-.4.9-.4 1.4-.2 1.5.6 3.7 4.8 3.3 6.5-.2.9-1 1-1.7 1.2-.8.2-1.6 0-1.8-.8-.4-1-1.1-1.8-.7-3Zm-45.3 8.1c-2-6-.1-11.8.4-17.6h.8l-1.2 17.6Zm-1.1-33.3c.4-2.4 2-4.1 1-6.5-.5-.8.7-2 1.3-2.8.3-.4.8-.4 1.2-.2.5.2.6.7.4 1.1l-.6 2.8c-.1.6-.8 1.3.4 1.6.3.1-.8 4.4-1.3 4.6-.3.1-.6 0-.6-.4-.1-1.7-1.1-.3-1.8-.2ZM10 154c-1.6 6.3.8 12.6-.2 19-2-6.4-1.5-12.7-1-19H10ZM8.8 62.4c-1 0-1.4.8-1.8 1.5-1 2.4-2.5 4.7-2.2 7.5l-.3 1.8c-.2.7-.6 1.2-1.4.9-.8-.4-1-1-.6-1.7s.4-1.5.3-2.3c-.2-.8-.1-1.6 1-1.3 1 .2 1.1-.4 1.3-1 .6-2 1.1-3.8 1.9-5.5.5-1.3 1.2-1 1.7.1ZM6.5 171.7c-.5-2.8-2.5-5.4-1-8.7.5-1-.4-2.9-.5-4.3-.1-.7-.4-1.8.5-2 1.2 0 .6 1 .8 1.7 1.5 4.4-.6 8.9.2 13.3ZM67.7 35.3c3-1.2 5.6-3 8.9-2.6 1 0 1.8.2 1.8 1.4 0 1-.8 1.4-1.7 1.3-3-.4-6-.9-9-.1Zm-7.1 16.8c3.7 2 5 6.7 3 11.3.2-4-2.3-7.3-3-11.3Zm19.2-21.3-11.5 2.5c1.3-2.2 3.8-1.3 5.4-2.6 1.8-1.4 3.6-1 6 .1ZM81 102c-.4 1.7-.1 3.5-1.2 5-.4.4-.7 1-1.4.6-.6-.3-.6-1-.3-1.3 1-1.4.9-3 1.2-4.4.2-.6.6-1.1 1.2-1 .8 0 .5.7.5 1.2Zm-16 27c.7-1.6 1.4-2.9 1.5-4.3.1-.9.9-1.4 1.7-1 .7.2.4 1 0 1.5-1 1.1 0 3.8-3.1 3.8Zm5.8-55.9v.5c-.4.6 0 2-1 2-.9 0-.9-1.2-1-2l-.4-3c0-.7 0-1.2.8-1.3.7-.1 1.2.2 1.3 1 0 1 .2 1.9.3 2.8Zm-19.7 43.4c.3 1 .4 1.8.7 1.9 2.4 1.2.7 2.4 0 3.4-.4.6-1.3 1-2 .6-.5-.4.2-1 .3-1.6l1-4.3Zm12.9 19c-1.8.6 0 3.1-2.3 3.7-1.2.2-1.3-.2-1-.9.3-1.2.8-2.4 1.4-3.6.2-.5.6-.6 1.1-.4.5.2.5.6.7 1.2Zm11-25.8c1 0 .8.7.6 1.2-.4 1.2-1.3 2.4-1.3 3.8 0 .5-.5.7-1 .7-.4 0-.6-.4-.6-.8l1.1-4c.2-.6.7-.8 1.3-.9ZM2.9 133.3c-.5-2.8-.1-5 1.2-7.9.8 1.8.5 3.3-1.2 8Zm60.4 22.2c.8 0 1.5.4 1.6 1.5 0 1.7-1.3 1.7-2.3 1.8-1.2.2-1.1-.8-1.2-1.6-.2-1.3.6-1.7 2-1.7Zm10.3-38.7c-.6 1.2-.7 2.6-1.2 3.8 0 .4-.4.7-.8.7-.3 0-.6-.4-.5-.6.9-1.3.6-3.3 2.5-4Zm-5.1 19.5c-.8 1.6-2 1.7-3 2-.4.1-.9.6-1-.1-.2-.5 0-.8.4-.9l3.6-1Zm8-91.3-.1.3c-.3.2-.7 0-1-.2-.8-.9-1.3-2.1-2.5-2.7v-.6c.2-.1.5-.3.7-.2 1.6.4 2.7 1.4 3 3.4ZM18 111.6c1 .3.9 1 .7 1.5-.4.9.1 2.3-1.3 2.4-.8 0-.8-1-.7-1.6.2-1 .7-1.7 1.3-2.3Zm57-5.1c.2-.6-.2-1.8 1-2 .7 0 .8 1 .7 1.5-.1.8.2 2-1 2.1-.7 0-.8-.8-.8-1.6Zm-31.5 34c0-.8-.3-1.8 1-2 1-.1.8.7.7 1.2 0 1-.1 2.3-1.2 2.4-1 0-.3-1-.5-1.6Zm34.8-31.6c.5 0 .9.2.9.7 0 .7-.1 1.5-1 1.6-.5 0-1 0-1-.8 0-.7.3-1.3 1-1.5Zm1.9-20.7c.4 1.4.4 2.6-1 3.8 0-1.6.3-2.7 1-3.8Zm-3.1 30.6c0 .9-1 1.2-1.9 1.5-.6.1-.6-.5-.6-1 0-.9.5-1.6 1.6-1.8.6 0 1 .3 1 1.3Zm-12.6-14.5h.7c.8 0 2-.5 2.1.6.2.7-.9 1-1.5 1-1.6.4-.9-1-1.2-1.7v.1Zm7.5 4.4c-.4 0-.7-.3-.6-.7.4-.8.3-2 1.4-2.2.4-.2.8.2.5.6-.4.8 0 2-1.2 2.3Zm-29.5 39.4c-.5-1.2-.7-2 0-3.5-.2 1.4.6 2.2 0 3.5ZM71 113c-.6 0-.8-.4-.6-.9.3-.7.1-2 1.4-1.9.6 0 .6.6.4 1-.2.7-.1 1.7-1.1 1.9Zm-.7 20c-.3 1-1 1.4-1.9 1.3v-.5c.2-.8.9-1 1.9-.8Zm-67.8 9.1c-.2-1-.8-2.1.3-3.4.4 1.3.2 2.4-.3 3.4Zm69-12.1c-.2.4-.5.7-1 .8-.4 0-.4-.4-.4-.7 0-.5.4-.7 1-.7.3 0 .5.2.4.6ZM60.8 45.5c1.4.2 2 1.1 2.3 2-.8-.4-2-.5-2.3-2Zm-6.9 77.3c-.6 0-.8-.3-.7-.7.2-.8.9-1 1.5-1 .5 0 1 .1.8.5-.3.7-1 1-1.6 1.2Zm16.4-16.5.4.8a3 3 0 0 1-1 2.4l-.4-.1c-.6-1 .3-1.5.6-2.2 0-.3.2-.4.4-1ZM61.9 162c0-.9 0-1.7.7-2 .2-.2.8 0 .8.1 0 1-1.3 1-1.5 2ZM78 113c0 .5-.5.7-1 .7-.3 0-.5 0-.4-.5 0-.3.4-.5.8-.6.3 0 .6 0 .7.4Zm-21.2 21.6c.4.1.8.2.7.7 0 .6-.5.8-1 .8s-.6-.3-.5-.7c.1-.5.3-.8.8-.8Zm14.4-11.1c0 .4-.2.8-.7 1a.4.4 0 0 1-.4-.4c0-.5.1-1 .6-1.1.4-.2.5.1.5.5ZM25 54.8c-.7-.5-1-1-.3-1.9.7.6.3 1.3.4 1.9ZM3.3 155l-.2-2.2c.6.5.3 1.2.5 1.7l-.3.4Zm59.8-8c0-.4.2-.5.5-.6.3 0 .7 0 .7.3s-.1.6-.5.6c-.3 0-.6 0-.7-.3Zm6.2-19.2c-.3 0-.5-.2-.4-.4.1-.3.3-.7.6-.8.3-.2.5 0 .5.4s-.3.7-.7.8ZM2.1 115.7c-.6-1.1-1.1-1.8-.4-2.7.8.6.7 1.4.4 2.7ZM23 153.2c.5.3.6.6.5 1l-.4.1v-1.1ZM41.6 139c.2 0 .5 0 .3.3-.1.3-.5.4-.8.6l-.3-.4c0-.5.4-.6.8-.6Zm27.6-70.8c-.5 0-.8-.2-.8-.6 0-.4.4-.6.8-.6s.7 0 .7.5c0 .4-.3.6-.7.7ZM58.7 43.4c-.2.8.6 1.7 0 3-.3-1.3-.6-2.2 0-3Zm2.9-20.7.5-.4c.3 0 .6.1.6.5 0 .2 0 .6-.4.5-.2 0-.4-.3-.7-.6ZM16.3 58.5c.4.1.6.4.5.7h-.5a.7.7 0 0 1-.4-.4l.4-.3Zm.5 99.5a3 3 0 0 1 0 2.4c-.1-.7-.5-1.4 0-2.5Zm47.8-13.4c.3-.2.3-.8 1-.8v.2c0 .5-.6.4-1 .6Zm11.7-28.3c0 .3-.1.7-.5.6-.2 0-.5-.2-.6-.5 0-.3.3-.4.5-.5.3 0 .6 0 .6.4Zm-11.5 24.3.3.3-.2.4c-.3 0-.4-.1-.3-.4l.2-.3ZM58.6 23c-.3.1-.5.3-.7.2l-.3-.4c.2-.1.3-.3.5-.3l.5.5ZM23 156.2l.1.2-.1.1-.1-.2h.2Z" fill="#DFD4BF"/><path d="M63.2 17.5h-.6c.2-.4.4 0 .6 0Zm1.4 127v.2-.1Zm2-23.3a43.7 43.7 0 0 1 0 .1Zm0 .1ZM15 58.3l.3-.8a121 121 0 0 0-.2.8Zm0 0h.2Z" fill="#DFD4BF"/><path d="M31.5 40.4c-.8 0-1-.4-.8-1.2.3-2.7.1-3-2.5-3-.2-1 .8-1.7.3-2.6.1.2.2.2.3 0-.2-.3 0 0-.2 0-1.3.4-1.2 3-3.3 2.2-.4 0-1 .3-1.1-.4 0-.4.3-.6.6-.8l1.5-1c.5-.3 1.2-.7.3-1.5-1-.8-1.2-1.6 0-2.4 1-.6 0-1.3 0-2 0-.9-.9-.6-1.4-.4-1.2.4-2.3.2-3.5-.4 1.2-1 3 0 4-1.3 0-.6-.4-.6-.8-.6s-.7-.2-.7-.7c.1-.5.5-.5.9-.5.9 0 1.7.1 2-1.2 0-.6 1.2-.7 1.6 0 1.5 2.7 3 0 3.7-.5 1.1-.8-.6-1.6-1.1-2.3l-.9-1c1.5.3 2.3.8 2.7 1.7.4 1 .8 1.5 1.8.8s.6-1.3 0-2c-.3-.4-.9-.6-.9-1.2 2 .8 2.3 1.4 2.3 3.5 0 .5-.6 2.8 1.6 1.5l.4.1c1.8 1.3 2.6.9 3.3-1.5l.4-.8c.8 2 .5 2.9-.8 4-.4.2-.6.6-.9 1-.3.6-1.5 1.3-.6 2 1 .7 1.2-.7 1.7-1.2l.1-.1c1.1-.6 1-2.8 2.3-2.4 1.4.4-.5 1.9 0 2.8v.3c1.7 1.5.5 2.9.1 4.5-.5 2-1.5 3.1-3.5 3.3-1.3.2-1.7.5-.6 1.6-.7.5-1.6-.6-2 .2-.5.8.2 1.4.6 2 .4.7.6 1.4.1 2v.3l-.1.2H38c-.6-.2-2 0-.7-1.3.6-.6.6-1.2 0-1.6-.6-.4-1.2-.4-1.5.3-.5 1.2-1.5.7-2.3.7-1 0-1.8 0-2.2 1v-.1Zm44.8 26.1c-1.8-1.8-1.8-1.8-3 .3-1-1.4-.7-3-1.3-4.4-.2-.6 0-1.6-1-1.4-.8.2-.3 1-.3 1.5 0 1 .3 2-.1 3.4-1.3-1.6-1.4-3.1-1.5-4.7L68 52.9l-.2-.4c1.5-1.9 0-3.3-.9-4.8 1-.7 1.4.2 1.6.5 1.4 2.7 4.3 4.6 4.5 8 0 1.2-.4 2.4 0 3.7.2.3 0 1 .5 1 .7 0 .6-.7.5-1.2-.1-1-.5-1.9-.7-2.8 0-.4.1-.8.6-1 .4 0 .7.3.8.6.1 3.3 2.6 6.2 1.6 10Zm-34-2.9c.6-1.8.3-3.2-1.5-4.3-2-1.3-2.2-3.5-1.7-5.6.2-1.2.8-2.2 2.5-2.4l-1 2c-.3.5-.5 1-.6 1.7 0 1.3.5 3.1 1.4 3.2 1.3.2-.4-1.7.9-2.3.3 2.1.2 4.5 2.4 5.9.8-1-.4-2.3.6-3.3.9.8.5 2 1.3 3a5 5 0 0 0 2 1.6c2 .9 2.2 1.2.8 3l-1.4 2c.4-1.8-1.6-2.2-1.5-4 0-1-1.5-.3-1.8.1-.9 1-2.3 1.6-2.8 3.6-.6-1.8-.4-3.3-1.9-4.4 1.2-.3 1.8-.2 2.3.2ZM18.7 25.3c.2-1.2 2-.5 1.6-1.7-.3-.9-1.5-.2-2.4-.7 1.4-1.4 3.2-2.2 4-4 .3-.7 4.5-.2 5.1.5.7.7.3 1-.4 1.2-.8.2-1.5-.2-2.2-.4-1.5-.5-2 .5-2 1.7.3 3.2-.2 3.8-3.7 3.4Z" fill="#181818"/><path d="M38.5 41c.6.4 1 0 1.5 0 2-.8 4-1.6 5.2 1 .1.2.7.3.6.7 0 .5-.5.5-.8.5-2.8.1-5.2 1.3-8.2 2.3 1-2 3.4-1.5 4-3.2-.6-1.1-2.3 1-2.7-.9.2 0 .4-.3.5-.4ZM26.3 143.9c.7-.3.5-1.2 1.5-1.3-.2 1.5 1.6 3.4-1.3 4.2-.2 0-.3.3-.4.5-.3.6 0 1.8-1.2 1.5-1-.2-1.2-1.2-1.3-2.2a8 8 0 0 1 2.1-6c1 1 0 2.1.6 3.3ZM73 83.8c.6.3.6.8.5 1.2-.5 2.7-2 5.3-.7 8.2 0 .3-.3.6-.6.5-.7 0-1.6 0-1.6-.8 0-.9.2-1.6-.7-2.3-.5-.3 0-.8.5-.8 1.5-.4 1.6-1.7 1.5-2.7-.3-1.4.6-2.2 1-3.3Zm-33.5 38.9c-.4-5.6.5-11 1.4-16.4.5 5.5-1 11-1.4 16.4Zm-28-37.6c-.6 5.6-.7 11.2.5 17.1-2.6-2.4-2.8-12.9-.5-17Zm11.8 57.6v3.1c0 .7-.4 1.3-1 1.4-.9.1-1-.7-1-1.2-.6-2.4 0-4.6.7-6.8 0-.4.3-.7.7-.6.4 0 .6.4.6.8v3.3ZM39 64.5c-.7-1.9-1.7-2.2-3.1-.8.6-1.5-.5-3.3 1-4.3.8-.5 2.3-1.4 2 1-.2.5.1 1.1.6 1.5.9.9.2 1.5-.4 2.6Zm23.9 22.6c.5 1.4 2.5 2 .3 3.3-.5.3-.6 1.5.7 1.3.5 0 1-.2 1.5.5-.9.8-1.9 1.1-3 .6-.7-.4-.5-2.6.5-5.7Zm-25.8 19.7c.7 1.9.3 3.7.2 5.5-.2 1.3.9 2.6-.3 3.8-.2.2-.2 1 .3 1.4.3.3 1.1.4.4 1a1 1 0 0 1-.8.4c-.6-.1-.7-.7-.7-1.2 0-1.4 0-2.8.2-4.2l.7-6.7Zm10.3-72.4c2.2-3.5 2.3-6.8 2.5-10.2 1.4 4.3.6 8.2-2.5 10.2ZM23.6 130c.1-2.8-.5-5.5-.2-8.3 0-.4.3-.7.7-.7.5 0 .5.4.5.7a29 29 0 0 1-1 8.3Zm10.2-15.7-.5 10.7c-1.4-.7-1.3-.6-1-1.9.6-2 .3-4.3.5-6.4 0-.6-.3-1.3 1-2.4ZM41.6 48c-.4 1.5-2 1.5-2.5 2.6-.6 1.4-1.6 2.7-1 4.4.2.5.4 1.4-.3 1.5-1 .2-.9-.8-1-1.4-.8-3.5 1.3-6.8 4.8-7ZM18 91.2a8 8 0 0 1-1.8 8.7c0-3.2 1.8-5.7 1.8-8.7ZM6.5 106.8l.2.5-1.1 10.5a17 17 0 0 1 1-11Zm3.6-28.5c-.6-1.5.1-2.6-.5-3.7-.8.6-.5 2-1.9 2.5.6-1.5-.3-3.2 1.4-4 .8-.3 1.4-.2 2 .8.8 1.7-.5 2.7-1 4.4Zm6.2-45.6c2.4-2.5 5.4-3 8.1-4.1.1-.1.5 0 .5.2v.6c-.2.2-.6.5-.8.5-2.8-.2-4.6 2.4-7.8 2.8Zm39.4 27.7c2.7 2.9-1 5.5 0 8.3a5 5 0 0 1-.9-4.2c.5-1.3.7-2.7.9-4.1ZM51 34c.7-2.7 1.4-5.5 1.5-8.3 1 3 .3 5.8-1.5 8.3Zm-15.6 9.7-4 6.7c0-2.7 1.7-5.9 4-6.7ZM24 86.8c1 3 .2 6.5-1.8 7.3 1.7-2 .7-4.8 1.7-7.3Zm-3 16c2-.6 1.4-2.5 2.3-4.1.5 2.4-.2 4.5 0 7.2-1-1.3-2.5-1.5-2.2-3.1Zm5.7 20c-.6-2.6.1-5 .5-7.3v3.5c0 1 0 2 1.5 1.8.4 0 1-.1 1 .5s-.6.7-1 .8c-.7.1-1.5-.2-2 .7Zm40-78.5c2.9.6 5.4 3.7 5.3 6.4-1.5-2.5-3.3-4.3-5.3-6.4Zm-53.9 36 1.3 5c-1.3-1.3-3.5-2.4-1.3-5ZM23 78.7c.1-2 .8-3.6.2-5.9 1.7 2.3 1.5 3.8-.2 5.9Zm8.2-33.5c-1 2.7-1.8 5-2.1 7.7-1.2-1.5-.1-5.4 2.1-7.7Zm5.8 3.9c.6-3 3.3-3 5.2-4.3.4-.2.7-.1.8.4.1.4 0 1-.3 1-2.4 0-3.8 2-5.7 3ZM20.6 87.9c.8 2 .7 4-.5 6.7 0-2.7-.1-4.7.5-6.7ZM19.4 76c.7 1.6.5 3.4.6 5.1 0 .5 0 .8-.5.9-.2 0-.5-.4-.5-.6-.4-1.9 0-3.7.4-5.5Zm5.2 1.9c2.2-2 .4-5 2-7.5.8 2.6.5 5 .2 7.1-.2 1-1.2 1-2.2.4Zm35.7-7.8c-.2-1.9 0-3.8-.6-5.6-.2-.6 0-1.3.8-1.4.8 0 .6.7.6 1.2-.2 2 .2 4-.8 5.8ZM15.8 85.3c-.8-2.6-1-5.2-.3-7.8 1.1 2.6 0 5.2.3 7.8Zm44.8 19.2 1.7-6.8h.4l-1.5 7-.6-.2Zm-5.8-86.8c-.4-.5-.2-1 0-1.4a8.9 8.9 0 0 1 5.7-4.2l-5.8 5.6ZM14.7 102c-.4-2.1-1-4.3-.2-7.1.9 2.7.7 5 .2 7.1Z" fill="#181818"/><path d="M18.3 106.4c.8-1.1 1.3-2.5 1.6-3.9.2-.7 0-2 1.1-1.7 1.1.3-.1 1.3 0 2-.7 1.3-.5 3.4-2.8 3.6Zm-7.5-34c-.4-2 .7-5.4 1.7-6.3.2-.2.5-.4.7-.2.5.4.3 1 0 1.2-1.6 1.2-1.8 3-2.4 5.3ZM8.6 93.6c-.8-2-.5-4.3.6-6.2.5 2.3-.5 4.2-.6 6.2Zm25 15.6c.4-2.2-.7-4.6.4-7 1 1.6.9 3.4-.4 7Zm17.9-36.4c.5 1.2.5 1.2 0 3.2-.5-1.6-.5-1.6 0-3.2Zm15.1 27.4c-.5-.1-1.4.2-1.3-.7 0-.5.3-1.6.8-1.3.7.3 1.8.3 2 1 .1.9-.8 1-1.5 1ZM44.8 35.3c-.2-2 1.4-2.9 2-4.3-.2 1.6-.4 3.1-2 4.3ZM25.5 81.4c.7.6.5 1.1.4 1.6-.2.6.2 1.4-.7 1.7l-.7-.5c-.6-.6-.1-1.2.2-1.7l.8-1.1Zm33.3 31.9c-.7-1.9.6-3.3 1-5 .3 1.8-.3 3.4-1 5Zm-26 30.2c-.7-1.7.5-3.3.6-5l.7-.3s.4.3.3.5c-.3 1.6 0 3.5-1.6 4.7v.1ZM20 35.6c0-2.7 2.3-2 4.2-3-1.2 2.1-3.2 1.7-4.2 3-.1 0 0 0 0 0Zm45.4 38.8c-.2-1.7-.5-3.5.3-5.5.3 2 .6 3.9-.3 5.5ZM37.7 18.2c.8 1 1.3 2 1.2 3.2l-.5.2c-.7-1-.8-2.2-.7-3.4ZM39 128.6c-.6-2-.1-3.3.5-4.6.3 1.4 0 2.8-.4 4.6Zm-4.5-34.3c-.4-1-.6-2 .1-3.2.8 1.3 0 2.3-.1 3.2Zm-10-54.4c.7-.7.7-2.2 2.1-2 .3.1.6.4.5.7-.5 1.1-1.6 1-2.6 1.3ZM58.3 84l-.1 2.3H58V84h.2ZM71 45.2a7.2 7.2 0 0 1-3.1-2.7c1.5.4 2.8 1 3.5 2.5v.4l-.3-.2Zm-39.6-4.8c.4.6 1.8-.4 1.5 1-.2 1-.9 1.6-2 1.6-.2-1 .8-1.7.6-2.6ZM52.1 130c-.9 0-1.2-.5-1.3-1.1 0-.6-.7-1.3 0-1.8.6-.3 1.3-.3 1 .7l-.6.7c-.4 1 .3 1.2 1 1.5Zm-21 4.7c.7-.4 1.2-1.2 2.1-.7v.6c-.6.8-1.3.2-2 .1ZM32.4 77c.6-.4 1.2-.8 1.8-.4.1 0 0 .7-.2.8-.8.7-1-.3-1.6-.5Zm-14.2-4.1c0 .8.8 1.7-.1 2.4-.1 0-.5 0-.6-.2-1-1.1.6-1.4.7-2.2Zm44.4 4.3c.6 1.3 0 2.1-.4 3.5-.2-1.4-.4-2.3.4-3.5ZM27.8 65c0-1.1-.7-2 .2-2.9 1 1 .6 1.8-.2 2.8Zm32.9 21.6c-.8-1.2-.4-2-.2-2.7.5.7.5 1.5.2 2.7ZM31.8 94c-1-1.3-.3-1.8.4-2.7.4 1.2 0 1.8-.4 2.8ZM58 68.6l-.6-3.7c0-.5 0-1 .6-1s.8.5.7 1l-.4 3.7H58Zm-36.3-8.8.4.6c-.2.9 0 1.8-.7 2.4-.1 0-.6 0-.6-.2-.1-1 .5-1.7.9-2.8Zm32.2 34.4c-.6.5-1.3 1-2.3.3.7-.6 1.5-.5 2.3-.3ZM40 19.4c.7.8 1 1.5.6 2.3l-.5.1c-.7-.7-.3-1.4-.1-2.4ZM12.4 98.1c.7 1.3 1 2.5.6 4.2-1.5-1.5-1-2.8-.6-4.2Zm31.7-.6c-.3-1.3-.2-2 .5-2.7.4 1 .1 1.7-.5 2.7ZM41.5 71c-.8.8-1.3.6-2 .2.7-.6 1.2-.7 2-.2Zm-16.6-4.9c-.2 1.3-.1 2.3-1 2.8l-.6-.2c.2-.9.4-1.7 1.6-2.6Zm36.2-54.5c1-.8 1.6-1.4 2.6-1 .2 0 .3.4.3.5-.7.8-1.6 1-2.9.5Zm-41 15.7c-1.1 1-2 1-3.2.9 1-1 1.8-1 3.2-.9Zm17.4 57c.4.9 0 1.4-.4 2-.4-.8-.2-1.3.4-2Zm.1 11.1c-.7-.9-.5-1.4 0-2 .7.6.4 1.1 0 2ZM44 84.6l2.1-.1c-1 .6-1 .6-2 .1ZM18.8 99.4c.6-.8 1.2-1.2 2-1 0 0 .2.5.1.6-.5.7-1.2.6-2 .4Zm9.5-29.1c-.3-1.4.2-2 .8-2.7.6 1.2 0 1.7-.8 2.7ZM8.6 96.2l.2 2.8c-1-1.2-.8-2-.2-2.8Zm32.9-12.5c.5.6.3 1.1 0 1.8-.5-.6-.6-1.1 0-1.8ZM50.8 62c1 .2 1.5.5 1.5 1.4l-.2.3c-.8-.2-1.2-.8-1.3-1.7Zm0 70.2c-.3.7-1 .7-1.6.7-.4 0-.7-.3-.5-.5.3-.7 1-.6 1.7-.8.3 0 .4.3.4.6ZM75 94.4c.6.1 1.4-.4 1.3.7 0 .5-.6.8-1.2.8-.7 0-1.2-.4-1.2-1 0-1 .7-.5 1.2-.5ZM31.6 72.5c-.4-1.3 0-1.7.6-2.3.6 1-.1 1.4-.6 2.3ZM7 143.6c.4-.5 1-.6 1.4-.4.3 0 .3.5 0 .7-.5.3-1 .3-1.3-.3Zm35.5-33.7c.8.6.6 1.2.3 2-1.1-.7-.4-1.4-.3-2Zm-1.6-14.3c-.6-.6-.7-1.2-.3-1.4.7-.4.5.3.6.7l-.3.7Zm8.2 16.9c-.5-.8-.4-1.5 0-2.1h.6c.4.8 0 1.4-.6 2.1Zm7.1-18.6.2.2-.1.4-.3-.2.2-.4Z" fill="#181818"/><path d="M71.4 45c.2.1.6.1.8.3.4.3 1 .7.5 1.2-.5.6-.9-.2-1.2-.5l-.4-.8.3-.2Zm-62 65.1c-.5 0-1 0-1-.6 0-.4.2-.8.7-.5.4.3 1.2 0 1 .7 0 .5-.4.4-.7.4Zm-2.2 25.2c-.2-1.2-.2-1.9.4-2.7.6 1 .4 1.6-.4 2.7Zm56.4-59.9c-.2.5-.6.6-1 .6s-.8-.1-.6-.6c.2-.4.6-.6 1-.5.3 0 .7.1.6.5ZM35 108.2c.4 1 .7 1.7-.4 2.2-.5-.8-.2-1.4.4-2.2ZM51.4 68c-.4-.6-.2-1.1.3-1.5l.3.1c.3.7 0 1-.6 1.5Zm6.1 6.3c-.1.2 0 .7-.4.6-.2 0-.3-.5-.3-.8l.3-.4c.4 0 .4.3.4.6Zm-9.4 71.3.6.6c0 .3 0 .6-.3.8-.3 0-.4-.2-.4-.4l.1-1Zm-36.2-37.8c0 .4-.4.6-.8.6-.2 0-.7 0-.5-.4 0-.2.4-.4.6-.5.3-.2.6 0 .7.3Zm61.6-9.5c0 .8.1 1.4-.4 1.4-.6.1-.3-.4-.2-.7 0-.2.3-.3.6-.7Zm-41.3 34c0 .3-.4.4-.8.3-.2 0-.6 0-.4-.5 0-.2.4-.3.6-.4.3 0 .6 0 .6.6ZM6 76.8c.4.8.1 1.4-.4 1.9-.3.2-.7.1-.7-.2 0-.7.1-1.4 1-1.7Zm25 67.5c-.1.4-.3.7-.8.7-.3 0-.5-.3-.4-.6 0-.3.3-.7.7-.7.4 0 .4.4.5.6Zm-23.7 3.5-.5-.5.5-.3.3.2-.3.6Zm55-76.5c-.6-.7-.6-1.3 0-2l.5.3c.2.6.1 1.2-.5 1.7ZM47.6 102c.2.2.4.3.4.5 0 .4-.3.4-.6.4-.2 0-.7 0-.5-.4 0-.2.4-.3.7-.5Zm-25.1 8.7-.5.6c-.4.2-.5-.2-.4-.5 0-.2.2-.6.4-.6.5-.2.3.2.5.5Zm4.8.8.2-1.8c.5.8.4 1.3-.2 1.8Zm3.3-47.9-.3.3v-.5l.2-.2v.4Zm14.3 3.5-.4.5c-.2 0-.4-.1-.4-.3 0-.2.2-.4.3-.5.3-.2.4 0 .5.3ZM64 99.9c.3 0 .3.3.3.6s-.3.6-.6.4c-.1 0-.3-.3-.3-.5 0-.3.1-.6.5-.5ZM25.9 70c-.7-.4-.7-1-.6-1.4l.5-.2c.4.4.5.9 0 1.5Zm20.7-16.5c0 .3-.1.7-.5.6-.4 0-.4-.4-.3-.6 0-.2.2-.4.3-.5.4 0 .4.3.5.5ZM68 117c.6.7.2 1.4 0 2.2-.6-.6-.2-1.3-.4-1.8l.4-.3ZM9.8 79.5l-.2.5-.2-.4.2-.5.2.4Zm42.8.7-.2.1-.1-.3.1-.1.2.3ZM18.2 65l-.6.4-.2-.3h.8l-.2-.4.2.3ZM17 36.9l.4.3c0 .3-.2.6-.5.6l-.4-.3c0-.3 0-.5.5-.6Z" fill="#181818"/><path d="M18.2 65v-.3l-.1.2.1.1ZM20 35.6l-.6-.2c.4-.5.4.1.6.2ZM13.7 130v-.2.1ZM28 44.5l.1.1H28v-.1h.2Zm17.2 21-.1.3h-.2l.2-.4.1.1Zm-3.4-54.9.4.2-.2.6-.3-.2.1-.6Zm-12 7.3h-.2.2Zm-13.3 86.5-.1.1v-.3.2Zm16.3 39h-.3v-.2a9.7 9.7 0 0 1 .3.2ZM51 11.2v.1l-.2-.2.1-.1.2.2Zm-8.7 1.5-.1-.2.3-.1.1.1-.3.2Zm-3.4 2.8.1.1-.1.2-.2-.2.2-.1Zm-17.5 2.4h-.2v-.2l.2.2Zm33.3-.2-.2.2v-.2h.3Zm-24.9.3h-.1Zm31.9 22.6.1.2h-.2l.1-.2Zm-6.3 17.9.1.2-.1.1s-.2 0-.1-.1l.1-.2Zm13.9-34.7c-.1.1-.3.4-.6.5-.2 0-.5 0-.4-.3.1-.3.3-.5.6-.6.2-.1.4 0 .4.4Zm3.5 3.8c.2 0 .6 0 .6.3 0 .5-.4.5-.7.7-.3.2-.6 0-.6-.4s.3-.6.7-.6Z" fill="#181818"/><path d="M32.8 24.8c2.3 0 3.9 1.1 4.7 3 .7 1.7-.2 3.4-1.1 5-.3.5-.9.5-1.4.5-.5 0-1.2-.3-1.6 0-3 1.7-3.9-1.4-5.3-2.7-.3-.3.9-2.2 1.3-3.4.7-1.7 2-2.2 3.4-2.4Zm7.9 5.3c.8-1.2 1-2.2 2.2-2.9 0 1.6-.5 2.3-2.2 3Zm1.9 1.3c-.8.6-1.3.8-2.2.7.7-.6 1.1-1.1 2.2-.7Zm-10.4 6.3c-.3-.5-.3-1 0-1.3l.3.1c.2.4.2.7-.3 1.2Zm9.9-4.4c-.3.3-.4.6-.7.7-.3.2-.6 0-.5-.4 0-.2.3-.4.6-.5l.6.2Zm-13.5.3h-.1Zm10 7.4c0 .4-.2.5-.5.5 0-.4.2-.5.5-.5Zm31.7 14.8c.1-.4 0-1.2.7-1.2.8 0 .8.8.8 1.4 0 .6-.1 1.3-.8 1.3-.9 0-.5-1-.7-1.5Zm4 8.4c-.7-.1-.7-.5-.7-1 0-.4 0-1 .5-1 .6-.1.8.2.8.7 0 .6-.1 1-.6 1.3Zm-32-.6h.6-.6Zm.4-21.9h.2-.2Zm-.7.5V42v.2Z" fill="#DFD4BF"/><path d="M36.2 29.6c.2 1.4-.4 3-2.1 3-2.3.2-4.5-1.8-4.2-3.4.3-1.4.4-3.1 2.6-3 2 .1 3.8 1.8 3.7 3.4Z" fill="#181818"/></svg>