<svg width="40" height="60" viewBox="0 0 40 60" fill="none" xmlns="http://www.w3.org/2000/svg">
<path d="M25.5904 36.6782L37.5279 34.1445V37.8291C37.1585 37.8291 36.8697 37.8764 36.5808 37.8764C30.6997 37.8764 24.8233 37.9096 18.9469 37.8764C16.4243 37.8806 13.9272 37.372 11.6071 36.3816C9.287 35.3912 7.19232 33.9395 5.45023 32.1148C3.70814 30.2901 2.35496 28.1303 1.47284 25.7666C0.590712 23.4029 0.198043 20.8846 0.31866 18.3645C0.645389 9.78307 7.42146 2.26246 15.9448 1.01692C25.7846 -0.432267 35.0277 6.00856 36.9312 15.6272C37.7471 19.7519 37.1388 24.0315 35.2058 27.7654C33.2729 31.4993 30.1299 34.4664 26.2912 36.181C26.0261 36.2994 25.7656 36.432 25.5052 36.5551L25.5904 36.6782ZM20.8552 36.2994C27.9343 36.3751 32.9584 32.2928 34.1753 26.245C35.0329 21.9282 34.3404 17.4472 32.2197 13.5907C29.2223 7.85555 24.7854 3.85845 18.2651 2.50872C12.9664 1.41473 7.69611 3.61219 4.97337 8.1918C2.74783 11.9474 2.55842 16.025 3.5102 20.1736C4.49282 24.4518 6.76757 28.3241 10.0258 31.2651C13.3499 34.3292 17.1902 36.1904 20.8694 36.2994H20.8552Z" fill="#DFD4BF"/>
<path d="M36.312 25.3451L21.3221 22.4849V36.4997L21.3499 36.828L21.3555 37.1528V58.5469L39.8247 55.6867V59.0618H15.2356C15.9458 58.3324 16.4987 57.6603 17.1421 57.1073C17.4641 56.8317 17.7147 56.4823 17.8724 56.0888C18.0301 55.6953 18.0902 55.2695 18.0477 54.8478C18.0191 45.3329 18.0191 35.8181 18.0477 26.3032C18.0808 25.8481 18.0077 25.3915 17.834 24.9696C17.6602 24.5476 17.3907 24.1719 17.0468 23.8721C16.4272 23.3334 15.8361 22.7709 15.2308 22.218L15.3881 21.9844H36.312V25.3451Z" fill="#DFD4BF"/>
</svg>
