<svg xmlns="http://www.w3.org/2000/svg" viewBox="0 0 39 58" width="39" height="58" preserveAspectRatio="xMidYMid meet"
	style="width: 100%; height: 100%; transform: translate3d(0px, 0px, 0px);">
	<defs>
		<clipPath id="__lottie_element_13">
			<rect width="39" height="58" x="0" y="0"></rect>
		</clipPath>
		<clipPath id="__lottie_element_15">
			<path d="M0,0 L37,0 L37,37 L0,37z"></path>
		</clipPath>
		<mask id="__lottie_element_18" mask-type="alpha">
			<g transform="matrix(1,0,0,1,19.5,29)" opacity="1" style="display: block;">
				<g opacity="1" transform="matrix(1,0,0,1,-0.18400000035762787,0.061000000685453415)">
					<path fill="rgb(219,175,208)" fill-opacity="1"
						d=" M19.56599998474121,-29.31100082397461 C19.56599998474121,-29.31100082397461 19.56599998474121,29.31100082397461 19.56599998474121,29.31100082397461 C19.56599998474121,29.31100082397461 -19.56599998474121,29.31100082397461 -19.56599998474121,29.31100082397461 C-19.56599998474121,29.31100082397461 -19.56599998474121,-29.31100082397461 -19.56599998474121,-29.31100082397461 C-19.56599998474121,-29.31100082397461 19.56599998474121,-29.31100082397461 19.56599998474121,-29.31100082397461z">
					</path>
					<path stroke-linecap="butt" stroke-linejoin="miter" fill-opacity="0" stroke-miterlimit="4"
						stroke="rgb(12,22,28)" stroke-opacity="1" stroke-width="0"
						d=" M19.56599998474121,-29.31100082397461 C19.56599998474121,-29.31100082397461 19.56599998474121,29.31100082397461 19.56599998474121,29.31100082397461 C19.56599998474121,29.31100082397461 -19.56599998474121,29.31100082397461 -19.56599998474121,29.31100082397461 C-19.56599998474121,29.31100082397461 -19.56599998474121,-29.31100082397461 -19.56599998474121,-29.31100082397461 C-19.56599998474121,-29.31100082397461 19.56599998474121,-29.31100082397461 19.56599998474121,-29.31100082397461z">
					</path>
				</g>
			</g>
		</mask>
		<clipPath id="__lottie_element_22">
			<path d="M0,0 L25,0 L25,37 L0,37z"></path>
		</clipPath>
		<mask id="__lottie_element_25" mask-type="alpha">
			<g transform="matrix(1,0,0,1,19.5,29)" opacity="1" style="display: block;">
				<g opacity="1" transform="matrix(1,0,0,1,-0.18400000035762787,0.061000000685453415)">
					<path fill="rgb(219,175,208)" fill-opacity="1"
						d=" M19.56599998474121,-29.31100082397461 C19.56599998474121,-29.31100082397461 19.56599998474121,29.31100082397461 19.56599998474121,29.31100082397461 C19.56599998474121,29.31100082397461 -19.56599998474121,29.31100082397461 -19.56599998474121,29.31100082397461 C-19.56599998474121,29.31100082397461 -19.56599998474121,-29.31100082397461 -19.56599998474121,-29.31100082397461 C-19.56599998474121,-29.31100082397461 19.56599998474121,-29.31100082397461 19.56599998474121,-29.31100082397461z">
					</path>
					<path stroke-linecap="butt" stroke-linejoin="miter" fill-opacity="0" stroke-miterlimit="4"
						stroke="rgb(12,22,28)" stroke-opacity="1" stroke-width="0"
						d=" M19.56599998474121,-29.31100082397461 C19.56599998474121,-29.31100082397461 19.56599998474121,29.31100082397461 19.56599998474121,29.31100082397461 C19.56599998474121,29.31100082397461 -19.56599998474121,29.31100082397461 -19.56599998474121,29.31100082397461 C-19.56599998474121,29.31100082397461 -19.56599998474121,-29.31100082397461 -19.56599998474121,-29.31100082397461 C-19.56599998474121,-29.31100082397461 19.56599998474121,-29.31100082397461 19.56599998474121,-29.31100082397461z">
					</path>
				</g>
			</g>
		</mask>
	</defs>
	<g clip-path="url(#__lottie_element_13)">
		<g mask="url(#__lottie_element_18)" style="display: block;">
			<g clip-path="url(#__lottie_element_15)" transform="matrix(1,0,0,1,0.11499977111816406,0.03899955749511719)"
				opacity="0.9999987566149904">
				<g transform="matrix(1,0,0,1,18.614999771118164,18.538999557495117)" opacity="1" style="display: block;">
					<g opacity="1" transform="matrix(1,0,0,1,0,0)">
						<path fill="rgb(223,212,191)" fill-opacity="1"
							d=" M15.262999534606934,6.89300012588501 C14.045999526977539,12.940999984741211 9.022000312805176,17.023000717163086 1.9429999589920044,16.94700050354004 C1.9429999589920044,16.94700050354004 1.9570000171661377,16.94700050354004 1.9570000171661377,16.94700050354004 C-1.722000002861023,16.83799934387207 -5.563000202178955,14.97700023651123 -8.88700008392334,11.913000106811523 C-12.145000457763672,8.972000122070312 -14.418999671936035,5.098999977111816 -15.402000427246094,0.8209999799728394 C-16.354000091552734,-3.328000068664551 -16.165000915527344,-7.40500020980835 -13.939000129699707,-11.16100025177002 C-11.215999603271484,-15.741000175476074 -5.947000026702881,-17.937999725341797 -0.6480000019073486,-16.8439998626709 C5.872000217437744,-15.494000434875488 10.3100004196167,-11.496999740600586 13.307000160217285,-5.76200008392334 C15.428000450134277,-1.906000018119812 16.121000289916992,2.5759999752044678 15.262999534606934,6.89300012588501z M18.614999771118164,14.791999816894531 C18.614999771118164,14.791999816894531 6.677999973297119,17.326000213623047 6.677999973297119,17.326000213623047 C6.677999973297119,17.326000213623047 6.5929999351501465,17.202999114990234 6.5929999351501465,17.202999114990234 C6.853000164031982,17.079999923706055 7.113999843597412,16.94700050354004 7.379000186920166,16.82900047302246 C11.218000411987305,15.11400032043457 14.359999656677246,12.147000312805176 16.292999267578125,8.413000106811523 C18.22599983215332,4.678999900817871 18.834999084472656,0.4000000059604645 18.018999099731445,-3.7249999046325684 C16.114999771118164,-13.343999862670898 6.872000217437744,-19.784000396728516 -2.9679999351501465,-18.334999084472656 C-11.491000175476074,-17.089000701904297 -18.267000198364258,-9.569000244140625 -18.5939998626709,-0.9879999756813049 C-18.71500015258789,1.531999945640564 -18.32200050354004,4.050000190734863 -17.440000534057617,6.414000034332275 C-16.558000564575195,8.777999877929688 -15.204000473022461,10.937000274658203 -13.461999893188477,12.76200008392334 C-11.720000267028809,14.586999893188477 -9.62600040435791,16.038999557495117 -7.306000232696533,17.02899932861328 C-4.986000061035156,18.018999099731445 -2.489000082015991,18.527999877929688 0.03400000184774399,18.52400016784668 C5.909999847412109,18.55699920654297 11.786999702453613,18.52400016784668 17.667999267578125,18.52400016784668 C17.957000732421875,18.52400016784668 18.246000289916992,18.476999282836914 18.614999771118164,18.476999282836914 C18.614999771118164,18.476999282836914 18.614999771118164,14.791999816894531 18.614999771118164,14.791999816894531z">
						</path>
					</g>
				</g>
			</g>
		</g>
		<g mask="url(#__lottie_element_25)" style="display: block;">
			<g clip-path="url(#__lottie_element_22)" transform="matrix(1,0,0,1,14.027000427246094,21.209999084472656)"
				opacity="0.9999987566149904">
				<g transform="matrix(1,0,0,1,12.29699993133545,18.538999557495117)" opacity="1" style="display: block;">
					<g opacity="1" transform="matrix(1,0,0,1,0,0)">
						<path fill="rgb(223,212,191)" fill-opacity="1"
							d=" M-6.205999851226807,-18.038000106811523 C-6.205999851226807,-18.038000106811523 8.784000396728516,-15.178000450134277 8.784000396728516,-15.178000450134277 C8.784000396728516,-15.178000450134277 8.784000396728516,-18.538999557495117 8.784000396728516,-18.538999557495117 C8.784000396728516,-18.538999557495117 -12.140000343322754,-18.538999557495117 -12.140000343322754,-18.538999557495117 C-12.140000343322754,-18.538999557495117 -12.29699993133545,-18.30500030517578 -12.29699993133545,-18.30500030517578 C-11.692000389099121,-17.75200080871582 -11.10099983215332,-17.190000534057617 -10.480999946594238,-16.650999069213867 C-10.13700008392334,-16.35099983215332 -9.868000030517578,-15.975000381469727 -9.694000244140625,-15.553000450134277 C-9.520000457763672,-15.130999565124512 -9.446999549865723,-14.675000190734863 -9.479999542236328,-14.220000267028809 C-9.508999824523926,-4.704999923706055 -9.508999824523926,4.809999942779541 -9.479999542236328,14.324999809265137 C-9.437000274658203,14.746999740600586 -9.496999740600586,15.17300033569336 -9.654999732971191,15.565999984741211 C-9.812999725341797,15.958999633789062 -10.064000129699707,16.308000564575195 -10.38599967956543,16.583999633789062 C-11.029000282287598,17.136999130249023 -11.581999778747559,17.809999465942383 -12.291999816894531,18.538999557495117 C-12.291999816894531,18.538999557495117 12.29699993133545,18.538999557495117 12.29699993133545,18.538999557495117 C12.29699993133545,18.538999557495117 12.29699993133545,15.163999557495117 12.29699993133545,15.163999557495117 C12.29699993133545,15.163999557495117 -6.171999931335449,18.02400016784668 -6.171999931335449,18.02400016784668 C-6.171999931335449,18.02400016784668 -6.171999931335449,-3.369999885559082 -6.171999931335449,-3.369999885559082 C-6.171999931335449,-3.369999885559082 -6.177999973297119,-3.694999933242798 -6.177999973297119,-3.694999933242798 C-6.177999973297119,-3.694999933242798 -6.205999851226807,-4.0229997634887695 -6.205999851226807,-4.0229997634887695 C-6.205999851226807,-4.0229997634887695 -6.205999851226807,-18.038000106811523 -6.205999851226807,-18.038000106811523z">
						</path>
					</g>
				</g>
			</g>
		</g>
	</g>
</svg>