<svg width="1061" height="1417" viewBox="0 0 1061 1417" fill="none" xmlns="http://www.w3.org/2000/svg">
<path d="M467.649 4.04025C473.327 3.11936 479.097 3.91595 484.739 3.07546C486.449 2.82696 488.133 2.73927 489.799 2.81236C494.922 3.03892 499.87 2.67347 504.816 0.963245C506.934 0.23238 509.582 1.08017 511.991 1.13133C516.956 1.24096 521.873 1.37987 526.853 0.444359C529.772 -0.111098 532.99 0.875527 536.054 1.13133C544.378 1.81834 552.819 0.429742 561.061 2.63696C563.181 3.20703 565.462 2.27147 567.761 2.30801C575.188 2.41764 582.289 4.41297 589.575 5.1146C592.254 5.3704 595.046 5.71391 597.779 5.0269C598.319 4.89534 598.994 4.95376 599.517 5.15841C610.168 9.27318 621.553 10.2891 632.589 12.701C639.173 14.1481 645.499 16.443 652.101 17.6781C659.464 19.0595 666.708 21.0328 674.183 21.8879C676.24 22.1291 678.028 23.7224 679.905 24.7017C686.084 27.9249 692.842 29.5109 699.327 31.7619C710.855 35.7598 722.137 40.1304 733.096 45.5826C742.806 50.4136 752.491 55.4713 762.973 58.6724C765.824 59.5422 768.013 61.9686 770.463 63.6642C777.047 68.2175 784.27 71.638 790.952 75.9135C802.107 83.0614 813.366 90.0412 823.951 98.1319C833.909 105.74 843.714 113.531 853.278 121.593C862.847 129.661 872.162 138.11 880.876 147.078C885.36 151.697 890.265 155.775 894.761 160.307C897.527 163.091 899.201 166.928 901.758 169.969C909.5 179.163 915.986 189.373 924.505 197.939C925.492 198.925 925.98 200.402 926.906 201.469C933.635 209.26 938.477 218.286 943.935 226.925C947.898 233.203 951.629 239.635 956.201 245.591C961.107 251.986 964.772 259.346 968.841 266.37C971.037 270.156 972.841 274.358 975.245 277.801C978.014 281.762 977.551 286.447 980.188 290.306C982.818 294.15 984.418 298.747 986.519 302.964C990.024 310.002 992.763 317.37 995.538 324.642C999.275 334.443 1004.04 343.878 1006.41 354.234C1007.81 360.352 1010.67 366.126 1012.38 372.185C1015.41 382.87 1020.17 392.978 1021.9 404.109C1023.06 411.6 1025.98 418.806 1027.38 426.269C1029.04 435.178 1031.68 443.839 1033.98 452.543C1036.9 463.645 1037.92 475.025 1040.36 486.178C1042.55 496.234 1044.31 506.415 1045.98 516.567C1047.43 525.352 1048.18 534.305 1049.28 543.163C1050.8 555.317 1051.79 567.523 1053.49 579.655C1054.51 586.971 1054.81 594.39 1055.84 601.706C1057.15 611.046 1057.44 620.467 1058.29 629.837C1059.02 638.022 1059.89 646.281 1059.33 654.606C1058.75 663.31 1059.6 672.029 1060.2 680.741C1060.64 687.264 1059.69 693.88 1060.12 700.404C1060.62 708.051 1060.72 715.752 1060.27 723.299C1059.83 730.758 1060.23 738.213 1059.69 745.678C1059.13 753.498 1059.01 761.401 1058.64 769.264C1058.19 779.16 1058.41 789.08 1057.41 798.957C1056.45 808.461 1056.1 818.042 1054.73 827.482C1053.62 835.176 1052.79 842.772 1053.11 850.572C1053.26 854.201 1051.75 857.874 1051.23 861.561C1049.01 877.435 1045.45 893.156 1044.49 909.148C1044.11 915.34 1042.15 920.912 1041.03 926.782C1039.21 936.31 1037.46 945.827 1036.74 955.522C1036.58 957.647 1035.51 959.692 1034.98 961.805C1032.79 970.561 1031.08 979.505 1028.41 988.056C1024.15 1001.69 1021.54 1015.78 1016.36 1029.17C1014.33 1034.42 1012.33 1039.82 1011.22 1045.6C1010.45 1049.66 1008.15 1054 1006.74 1058.32C1004.76 1064.39 1002.19 1070.28 1000.36 1076.39C998.577 1082.34 995.725 1087.8 993.493 1093.53C990.837 1100.35 988.366 1107.24 985.775 1114.08C984.714 1116.89 983.131 1119.52 981.668 1122.05C978.195 1128.04 977.04 1134.89 973.589 1140.91C970.033 1147.11 967.214 1153.75 963.724 1160.03C958.658 1169.16 952.614 1177.67 947.304 1186.62C944.148 1191.94 940.413 1196.75 936.859 1201.75C927.74 1214.58 917.749 1226.72 908.212 1239.22C901.107 1248.53 892.472 1256.34 885.168 1265.39C881.762 1269.62 877.005 1272.67 874.477 1277.67C870.23 1277.98 868.489 1281.76 865.754 1284.1C855.26 1293.08 845.011 1302.32 833.295 1309.8C825.787 1314.59 818.969 1320.46 811.458 1325.25C799.685 1332.76 788.333 1340.89 775.869 1347.4C769.911 1350.51 764.057 1354.42 758.156 1357.64C751.594 1361.22 745.225 1365.43 738.026 1368.05C732.306 1370.13 727.131 1373.67 721.57 1376.24C717.34 1378.21 712.778 1379.45 708.554 1381.42C695.248 1387.62 681.329 1392.22 667.255 1396.05C657.573 1398.69 647.75 1401.05 637.69 1402.57C629.121 1403.86 620.392 1405.39 611.944 1408.18C603.891 1410.85 595.114 1410.77 586.672 1412.01C580.962 1412.85 575.153 1413.03 569.507 1413.75C562.004 1414.69 554.425 1414.65 546.899 1415.9C540.443 1416.97 533.473 1417.62 526.694 1416.1C524.388 1415.58 521.854 1415.79 519.458 1416.02C512.111 1416.73 505.071 1413.86 497.81 1414.2C490.333 1414.56 483.062 1412.44 475.514 1412.8C473.196 1412.9 469.91 1411.33 466.905 1410.84C461.06 1409.87 455.197 1408.83 449.357 1407.96C443.941 1407.15 438.696 1405.25 433.137 1405.33C430.879 1405.36 428.886 1403.02 426.996 1403.43C422.209 1404.46 418.5 1401.07 413.84 1401.03C409.82 1400.98 405.486 1399.31 401.33 1398.23C393.948 1396.32 386.49 1394.39 379.462 1391.5C369.867 1387.55 360.044 1384.24 350.362 1380.57C338.385 1376.02 326.791 1370.62 314.922 1365.84C307.168 1362.73 299.474 1359.47 291.645 1356.54C290.893 1356.26 286.863 1356.27 289.999 1353.25C290.599 1352.68 289.242 1351.96 288.542 1351.54C279.667 1346.29 270.727 1341.14 261.931 1335.76C257.812 1333.24 254.038 1330.16 249.978 1327.53C245.455 1324.61 240.939 1321.6 236.131 1319.21C231.917 1317.11 229.752 1313.02 226.131 1310.32C220.465 1306.09 215.64 1300.63 210.16 1296.26C199.744 1287.96 192.794 1276.34 182.27 1268.4C173.068 1261.45 165.581 1252.88 157.922 1244.47C150.509 1236.33 143.869 1227.54 137.497 1218.55C131.545 1210.14 125.206 1202.01 119.155 1193.67C112.92 1185.08 107.722 1175.83 103.053 1166.33C100.147 1160.41 96.3011 1155.13 92.8134 1149.63C84.9559 1137.24 78.7954 1124 72.3112 1110.9C67.1995 1100.57 62.7295 1089.98 58.9904 1079.12C56.2716 1071.23 53.8466 1063.2 51.3192 1055.23C47.8096 1044.17 46.0036 1032.63 41.7887 1021.81C37.5658 1010.97 35.1788 999.638 32.3547 988.417C31.0509 983.236 29.2317 978.14 28.438 972.887C27.1261 964.204 25.353 955.58 23.3775 947.088C20.3678 934.157 19.4096 920.962 17.0848 907.958C15.8401 900.999 15.2642 893.805 14.276 886.758C13.3588 880.22 12.1624 873.658 11.2539 867.125C9.33465 853.323 7.58641 839.472 6.74518 825.535C6.52666 821.909 5.59481 818.323 5.40697 814.697C4.71338 801.303 4.45977 787.881 3.50746 774.507C2.96004 766.819 3.06675 759.168 2.92277 751.496C2.74298 741.97 2.26572 732.413 1.21181 722.899C0.429787 715.835 1.27907 708.685 1.17309 701.592C0.952371 686.783 2.79853 672.037 1.94415 657.193C1.56629 650.615 3.12157 643.928 3.02145 637.247C2.90451 629.42 3.67776 621.636 3.93137 613.823C4.24491 604.212 6.05235 594.77 6.8088 585.21C7.60617 575.153 8.70611 565.111 9.70813 555.084C10.6473 545.692 11.6705 536.256 13.0767 526.901C14.2373 519.183 16.1207 511.59 16.7617 503.777C17.9866 488.831 21.3647 474.221 24.5162 459.625C26.062 452.463 27.1912 445.198 29.0534 438.101C31.474 428.863 33.3166 419.464 36.1289 410.358C39.1357 400.615 41.0593 390.588 44.6961 381.013C46.9523 375.064 48.1765 368.727 49.7625 362.537C52.7912 350.726 56.485 339.171 61.3679 327.96C64.8987 319.847 67.4099 311.281 71.448 303.395C76.3565 293.806 80.616 283.918 85.295 274.227C90.7904 262.84 97.4464 252.169 103.902 241.389C109.348 232.297 114.823 223.176 121.08 214.559C123.586 211.102 124.837 206.899 127.75 203.472C132.417 197.983 136.765 192.187 140.82 186.172C146.844 177.248 154.08 169.209 161.374 161.359C166.819 155.505 171.932 149.439 177.069 143.343C178.761 141.333 182.073 141.268 184.24 139.009C190.086 132.921 196.497 127.374 202.527 121.454C205.329 118.698 208.729 116.835 211.827 114.54C219.044 109.19 225.398 102.744 233.048 97.9565C241.26 92.8112 248.234 85.9995 256.717 81.1173C266.976 75.2046 276.624 68.2395 286.568 61.7786C291.287 58.709 296.822 57.4592 301.868 55.0912C309.983 51.2761 318.084 47.3366 326.484 44.2524C337.873 40.0718 348.734 34.6488 360.084 30.4683C372.553 25.8711 385.168 21.5664 397.956 17.9778C408.36 15.0617 419.032 13.0518 429.757 11.3708C438.481 10.004 447.075 7.79683 455.731 5.98429C459.679 5.15841 463.742 5.07808 467.649 4.04025Z" fill="#181818"/>
<path d="M444.03 15.1031C446.921 15.8266 448.592 15.4831 450.079 14.1018C451.855 12.4647 454.062 13.6048 456.057 13.3709C464.845 12.3331 473.641 11.3391 482.454 10.5425C490.498 9.81162 498.55 9.58505 506.654 9.81162C509.221 9.8847 512.326 9.85544 514.866 8.95647C517.724 7.94788 520.316 8.50332 523.08 8.67142C531.754 9.20496 540.437 9.78969 549.122 9.90663C555.028 9.98703 560.909 10.769 566.684 11.4341C571.334 11.9603 576.045 11.551 580.655 12.5231C586.288 13.7144 591.971 14.6792 597.65 15.6439C602.478 16.4698 607.348 17.3761 612.073 18.3993C620.463 20.2191 629.17 20.263 637.32 22.8211C644.616 25.1087 652.31 25.2329 659.506 27.6448C670.113 31.1895 681.215 32.8631 691.789 36.6709C698.484 39.0828 705.205 41.5312 711.768 44.1989C717.835 46.6765 723.81 49.5926 729.833 52.2091C738.605 56.0316 747.277 60.044 755.991 63.9761C763.521 67.3819 770.804 71.2189 777.852 75.4799C788.517 81.9188 799.027 88.6354 808.987 96.1122C813.657 99.6204 818.945 102.208 823.02 106.732C825.313 109.282 829.199 110.444 831.997 113.01C834.15 114.976 836.89 116.284 839.029 118.535C843.874 123.629 850.245 126.977 855.043 132.254C858.261 135.798 862.227 138.649 865.768 141.901C872.989 148.545 879.911 155.517 886.246 162.986C895.178 173.525 903.873 184.262 912.436 195.108C920.823 205.735 928.624 216.778 936.322 227.873C941.192 234.896 946.031 242.051 949.239 250.128C950.278 252.751 952.548 254.769 954.057 257.261C959.747 266.674 965.174 276.19 969.768 286.203C973.268 293.826 977.393 301.179 980.639 308.911C984.291 317.601 987.547 326.525 991.372 335.091C996.236 345.981 999.091 357.499 1003.62 368.455C1006.25 374.806 1007.93 381.523 1009.39 388.298C1010.34 392.719 1012.59 396.834 1013.65 401.344C1015.11 407.578 1017.21 413.659 1018.8 419.864C1020.53 426.639 1021.65 433.582 1023.66 440.27C1025.93 447.849 1026.93 455.654 1028.44 463.365C1031.13 477.142 1033.38 490.999 1035.69 504.856C1037.63 516.543 1039.62 528.237 1041.16 539.982C1042.66 551.39 1044.61 562.741 1045.99 574.135C1047.05 582.84 1048.13 591.603 1048.44 600.461C1048.68 607.134 1050.21 613.857 1050.61 620.647C1050.93 626.107 1051.01 631.596 1051.07 637.033C1051.21 648.902 1052.99 660.691 1052.57 672.539C1052.11 685.879 1052.27 699.239 1051.3 712.57C1051.15 714.639 1049.37 718.243 1053.92 718.702C1054.08 718.719 1054.31 719.551 1054.27 719.984C1053.8 725.887 1054.13 731.811 1054.1 737.712C1054.04 748.009 1052.64 758.211 1052.55 768.516C1052.51 774.073 1051.82 779.771 1051.29 785.392C1050.86 789.921 1049.73 794.446 1050.48 799.1C1051.18 803.435 1049.99 807.773 1049.52 812.027C1047.93 826.417 1046.58 840.812 1045.56 855.256C1044.72 867.084 1043.19 878.847 1041.54 890.604C1040.82 895.73 1037.96 900.075 1037.75 905.208C1037.42 913.523 1035.36 921.584 1033.79 929.697C1031.21 942.967 1028.44 956.205 1025.46 969.391C1023.44 978.358 1020.97 987.229 1018.62 996.12C1015.76 1006.95 1012.74 1017.73 1009.38 1028.44C1005.97 1039.27 1002.14 1049.93 998.346 1060.61C996.052 1067.06 993.102 1073.27 990.686 1079.68C987.876 1087.14 985.987 1094.95 982.406 1102.11C978.606 1109.71 975.109 1117.46 971.231 1125.03C969.162 1129.07 967.813 1133.51 965.542 1137.53C961.849 1144.08 959.146 1151.13 955.201 1157.56C951.539 1163.53 948.197 1169.7 944.525 1175.66C940.678 1181.91 936.391 1187.91 932.621 1194.17C929.134 1199.96 925.717 1205.86 921.611 1211.14C917.207 1216.8 912.604 1222.38 907.527 1227.56C903.632 1231.54 899.904 1235.8 896.462 1240.27C893.424 1244.23 889.601 1247.69 886.527 1251.56C880.462 1259.2 872.899 1265.26 866.215 1272.22C860.758 1277.9 854.892 1283.26 848.727 1288.31C839.519 1295.86 829.888 1302.79 820.203 1309.65C806.698 1319.2 793.657 1329.47 779.162 1337.58C771.169 1342.04 763.238 1346.65 755.044 1350.73C744.642 1355.9 734.368 1361.25 723.323 1365.23C714.462 1368.41 705.894 1372.75 697.064 1376.17C691.35 1378.38 685.42 1380.27 679.577 1382.24C674.413 1383.98 668.658 1384.39 664.091 1386.66C659.728 1388.84 654.81 1387.83 650.918 1390.64C650.294 1391.09 649.153 1391.33 648.453 1391.09C643.684 1389.42 640.068 1392.76 635.915 1393.75C630.827 1394.97 625.656 1395.85 620.506 1396.81C614.967 1397.84 609.411 1398.77 603.865 1399.76C596.125 1401.13 588.418 1402.75 580.64 1403.85C569.983 1405.37 559.213 1405.66 548.465 1405.79C541.827 1405.88 535.18 1405.39 528.539 1405.12C520.32 1404.78 512.092 1403.99 503.889 1404.2C498.508 1404.34 493.443 1402.87 488.184 1402.58C482.505 1402.26 476.772 1401.95 471.199 1400.92C462.367 1399.27 453.291 1399.41 444.579 1396.78C440.946 1395.68 436.921 1395.86 433.07 1395.51C429.466 1395.18 426.115 1393.81 422.666 1393.03C419.215 1392.24 415.633 1391.88 412.2 1390.77C405.544 1388.63 399.099 1385.74 392.403 1383.92C379.984 1380.54 368.027 1375.8 355.615 1372.36C344.245 1369.21 333.076 1364.82 322.569 1359.29C309.797 1352.57 297.511 1344.94 284.752 1338.2C274.88 1332.98 265.433 1327.1 256.309 1320.76C244.572 1312.6 233.241 1303.86 222.088 1294.91C214.832 1289.08 208.178 1282.5 200.976 1276.71C193.95 1271.06 188.127 1264.34 181.737 1258.19C172.881 1249.66 164.074 1241.03 156.196 1231.43C148.7 1222.3 143.19 1211.84 135.554 1202.9C125.753 1191.42 117.953 1178.52 109.321 1166.21C102.007 1155.79 95.9447 1144.61 90.882 1132.95C86.7607 1123.46 82.966 1113.79 78.6846 1104.4C74.9265 1096.15 71.5872 1087.73 67.8715 1079.48C64.5358 1072.06 62.5829 1064.15 60.0797 1056.43C57.347 1048.01 54.5682 1039.6 52.1169 1031.09C48.9705 1020.18 46.2064 1009.15 43.1382 998.212C40.4216 988.526 38.9007 978.596 36.7826 968.799C34.1968 956.843 31.7696 944.844 29.0859 932.904C27.1966 924.499 27.0153 915.799 24.7635 907.443C22.6484 899.595 22.5695 891.41 21.1106 883.499C19.5919 875.268 18.3516 866.985 17.5353 858.727C15.4596 837.731 13.126 816.746 12.2255 795.641C11.9544 789.296 10.242 782.981 10.2822 776.66C10.3399 767.734 8.92712 758.92 9.11787 749.986C9.31667 740.619 8.44036 731.208 8.48787 721.872C8.51199 716.928 6.76451 711.53 9.51476 706.495C9.91819 705.758 8.91544 703.222 8.74807 701.444C8.5807 699.674 7.39158 697.881 10.0176 696.953C10.182 696.895 10.2734 696.277 10.2032 695.964C7.8652 685.487 8.85915 674.952 9.37076 664.39C9.54617 660.779 10.7748 656.869 10.3523 653.865C9.51841 647.945 10.8851 642.127 9.87506 636.332C9.26844 632.853 11.6642 629.688 10.8493 626.07C9.22971 618.878 10.6228 611.606 10.7952 604.371C10.8391 602.529 10.2112 600.424 12.1385 598.984C12.3578 598.816 12.4178 598.305 12.3907 597.968C11.6379 588.694 13.0193 579.463 14.4094 570.444C15.6782 562.207 16.4777 553.861 17.7399 545.638C18.8472 538.41 20.5881 531.167 20.9089 523.8C21.1859 517.442 23.4085 511.456 24.2556 505.192C25.1626 498.483 25.5353 491.701 27.0372 485.064C28.5728 478.282 30.1602 471.492 31.2989 464.637C31.8909 461.07 31.9465 457.379 32.8374 453.864C34.8816 445.788 36.9412 437.697 38.8407 429.614C40.4874 422.597 43.1199 415.837 44.0262 408.594C44.6058 403.96 46.7005 399.531 47.834 394.941C49.2943 389.036 50.2532 382.999 51.8246 377.123C54.0099 368.959 56.5364 360.898 59.503 352.953C61.6876 347.099 64.0008 341.259 65.7432 335.208C67.4614 329.236 70.064 323.506 72.4605 317.755C74.6458 312.5 76.6243 307.091 79.4856 302.209C86.252 290.683 89.1879 277.213 97.1981 266.47C100.25 262.37 101.981 257.67 104.7 253.475C108.55 247.54 111.907 241.094 115.718 235.021C119.335 229.254 123.299 223.707 127.081 218.043C129.032 215.119 130.969 212.188 132.815 209.199C133.887 207.467 134.703 205.559 136.877 204.88C137.685 204.624 137.851 203.849 138.141 203.199C140.759 197.315 145.627 193.025 149.077 187.77C155.543 177.911 164.538 170.324 172.044 161.408C175.793 156.95 180.623 153.346 184.63 149.122C189.881 143.589 195.557 138.59 201.306 133.671C213.252 123.447 224.932 112.915 237.836 103.816C251.182 94.402 264.566 85.0688 278.418 76.4081C285.478 71.9937 293.167 68.7998 300.39 64.7142C314.764 56.5797 329.857 50.0092 345.101 43.6945C354.885 39.6382 364.756 35.8305 374.831 32.6877C383.321 30.0347 391.714 27.0673 400.404 24.9332C408.019 23.0622 415.551 20.665 423.221 18.9474C430.402 17.3395 437.697 16.2505 444.03 15.1031Z" fill="#DFD4BF"/>
<path d="M590.037 1391.03C587.033 1392.5 581.837 1390.3 577.215 1392.87C574.129 1394.6 570.211 1393.13 566.818 1395.38C565.784 1396.07 561.742 1395.67 559.307 1394.85C552.596 1392.64 545.813 1393.67 538.99 1393.55C526.7 1393.36 514.488 1396.22 502.215 1394.41C492.824 1393.02 483.117 1393.56 474.018 1391.09C468.78 1389.67 463.249 1390.41 458.23 1387.94C455.659 1386.68 452.523 1387.8 449.619 1387.21C440.443 1385.33 431.323 1383.22 422.187 1381.19C410.803 1378.68 399.323 1376.33 388.175 1373.1C380.309 1370.82 372.284 1368.86 364.534 1366.01C348.585 1360.13 333.222 1352.94 317.748 1345.98C306.645 1341 296.388 1334.44 286.01 1328.15C273.069 1320.31 260.038 1312.6 247.754 1303.71C239.808 1297.96 232.398 1291.57 225.106 1285.04C216.258 1277.12 207.163 1269.45 198.693 1261.14C185.9 1248.58 172.986 1236.15 161.224 1222.55C152.727 1212.72 146.263 1201.45 137.966 1191.56C131.803 1184.23 128.253 1175.27 122.151 1167.95C120.72 1166.23 120.198 1163.79 119.041 1161.82C114.702 1154.39 109.95 1147.19 105.999 1139.57C103.616 1134.98 101.827 1130.03 99.5311 1125.36C96.1033 1118.37 92.362 1111.52 89.2617 1104.39C85.4524 1095.65 81.983 1086.73 78.6993 1077.76C74.5794 1066.51 71.1289 1055.01 66.7796 1043.85C62.0107 1031.62 60.1506 1018.66 56.3377 1006.21C54.0588 998.769 53.0656 991 50.5726 983.677C49.0276 979.131 49.9075 973.825 46.2561 969.973C46.069 960.815 43.2011 952.089 41.9031 943.099C39.8479 928.855 36.8097 914.756 34.4987 900.548C33.2073 892.604 33.1817 884.418 31.4217 876.605C29.5734 868.397 28.2958 860.146 27.8631 851.851C27.125 837.708 25.6275 823.625 24.4968 809.526C23.1491 792.724 22.829 775.877 21.5149 759.096C20.993 752.44 21.0603 745.763 20.2629 739.096C19.1242 729.579 18.9262 719.908 19.4319 710.313C20.1241 697.193 19.8178 684.072 19.7484 670.96C19.7206 665.894 19.8251 660.762 19.4312 655.639C19.1154 651.53 19.9282 646.664 20.9528 642.368C22.2012 637.136 21.1333 631.995 21.7765 626.843C23.0957 616.291 21.9936 605.564 23.2558 595.082C24.4098 585.498 25.1845 575.853 26.6543 566.292C27.7002 559.482 27.9984 552.558 28.6006 545.682C29.4053 536.493 31.1601 527.423 32.1577 518.275C32.9683 510.843 34.9606 503.619 34.8773 495.956C34.8291 491.503 37.1466 486.788 38.0215 482.057C39.538 473.854 42.1954 465.828 43.2471 457.583C44.1717 450.331 47.1851 443.785 48.6446 436.752C49.9046 430.678 51.0207 424.501 52.8654 418.621C54.7408 412.642 55.5608 406.462 57.4303 400.491C59.9204 392.541 61.206 384.213 63.7238 376.274C65.8938 369.434 67.4023 362.436 69.5101 355.595C69.779 354.724 70.5216 354.302 71.1012 353.696C72.3042 352.436 73.7557 351.225 72.1602 349.081C71.3153 347.945 72.3181 346.532 72.7508 345.273C74.841 339.191 78.9185 333.973 80.5096 327.692C83.0837 317.531 88.0149 308.309 92.5155 299.011C97.3677 288.985 100.665 278.287 106.802 268.773C112.997 259.171 117.708 248.623 123.563 238.784C126.281 234.217 130.553 230.594 133.452 226.111C140.751 214.822 149.645 204.731 157.732 194.064C160.939 189.835 164.452 185.373 168.24 181.328C175.294 173.8 182.933 166.867 189.882 159.257C193.26 155.559 196.462 151.668 200.118 148.265C203.55 145.071 207.608 142.557 211.161 139.478C227.406 125.401 244.24 112.115 262.332 100.454C272.197 94.0965 281.794 87.3184 291.744 81.1024C297.952 77.2245 304.539 73.9334 311.061 70.5853C315.035 68.5454 318.346 65.4495 322.622 63.8825C330.396 61.0343 337.01 55.7984 345.523 54.1569C353.526 52.6133 361.105 49.0993 368.592 45.5546C372.11 43.889 376.333 43.2188 380.239 42.0991C386.595 40.2785 392.733 37.7497 399.071 36.0533C402.966 35.0119 406.91 33.9046 410.886 33.0758C412.587 32.7206 414.216 32.4078 415.541 31.2106C416.187 30.6267 416.874 30.2006 417.816 30.2649C425.46 30.7838 432.454 27.5921 439.794 26.4695C444.916 25.6853 450.118 25.0641 455.085 23.7697C458.48 22.8853 462.404 24.4019 465.445 21.3447C466.198 20.5875 468.327 21.8585 470.085 21.7554C478.717 21.2489 487.282 20.1731 495.88 19.3765C502.241 18.7866 508.656 18.791 515.047 18.525C523.565 18.1705 532.085 17.5047 540.6 17.5522C547.273 17.5888 553.958 18.3613 560.602 19.1243C562.545 19.3472 564.467 19.5066 566.39 19.4503C571.542 19.2997 576.403 20.9105 581.402 21.6787C590.611 23.0944 599.866 24.2733 609.134 25.2453C615.206 25.8819 620.813 28.4611 626.84 29.0838C636.109 30.042 644.438 34.5361 653.503 36.065C658.174 36.8529 662.458 39.5703 667.468 38.7174C668.902 38.4732 669.676 40.2281 671.118 40.7214C684.624 45.3368 698.111 50.0143 711.499 54.9565C723.147 59.2569 734.134 64.9942 745.129 70.7592C750.104 73.3684 755.292 75.8007 760.283 78.3683C764.829 80.7078 769.434 83.2782 773.765 86.2046C781.105 91.1657 788.507 96.1188 796.287 100.325C809.821 107.642 820.996 118.115 833.376 126.959C838.005 130.266 841.1 135.086 845.66 138.519C853.675 144.551 860.13 152.411 868.134 158.502C870.717 160.468 871.725 163.643 873.931 165.9C879.62 171.721 884.417 178.302 889.705 184.464C892.759 188.024 896.131 191.325 899.49 194.609C902.474 197.527 903.922 201.459 906.542 204.639C912.699 212.111 917.634 220.487 923.564 228.154C926.201 231.564 928.059 236.133 930.764 238.988C934.242 242.657 933.641 248.603 938.661 251.064C939.266 251.36 938.978 254.134 940.073 255.872C945.529 264.535 949.955 273.783 954.582 282.91C959.072 291.769 963.751 300.54 967.924 309.547C971.077 316.35 973.192 323.645 976.862 330.211C983.345 341.812 986.183 354.667 990.169 367.146C992.699 375.073 996.386 382.602 998.543 390.686C999.881 395.702 1001.75 400.581 1003.01 405.613C1005.41 415.228 1007.55 424.909 1009.81 434.561C1012.41 445.703 1015.17 456.813 1017.58 467.997C1019.27 475.844 1021.34 483.588 1022.66 491.552C1024.53 502.764 1026.63 513.967 1028.84 525.135C1029.98 530.846 1029.69 536.826 1030.27 542.662C1031.4 554.141 1032.86 565.591 1033.88 577.079C1034.75 586.866 1036.37 596.564 1036.91 606.396C1037.34 614.344 1038.61 622.243 1039.2 630.186C1039.68 636.543 1039.66 642.931 1039.99 649.307C1040.7 662.886 1040.64 676.507 1041.49 690.074C1041.82 695.434 1041.2 700.853 1042.69 706.28C1043.27 708.369 1041.54 711.538 1041.9 714.278C1042.83 721.554 1042.96 728.809 1041.92 736.08C1040.6 745.339 1041.33 754.682 1040.79 763.986C1040.11 775.577 1039.86 787.184 1038.52 798.753C1037.6 806.793 1037.18 814.913 1036.77 823.025C1036.28 832.527 1034.65 841.969 1033.65 851.449C1032.54 862.017 1031.81 872.622 1030.48 883.161C1029.66 889.592 1027.54 895.812 1026.8 902.317C1025.66 912.3 1024.38 922.277 1022.77 932.195C1022.02 936.836 1020.73 941.535 1020.3 946.096C1019.6 953.412 1017.33 960.34 1015.29 967.101C1013.09 974.344 1010.97 981.667 1008.79 988.939C1005.47 1000.06 1003.22 1011.52 999.677 1022.57C997.482 1029.39 995.564 1036.34 992.932 1043.1C990.057 1050.48 987.514 1058.08 984.855 1065.59C980.872 1076.85 976.355 1087.9 971.417 1098.8C966.971 1108.62 961.529 1117.99 957.791 1128.09C955.223 1135.02 950.362 1140.56 947.415 1147.22C944.083 1154.74 938.98 1161.2 934.571 1168.08C932.102 1171.93 929.827 1175.94 927.77 1180.02C925.71 1184.12 923.326 1187.98 919.985 1191.07C916.664 1194.13 915.749 1198.59 912.912 1201.95C907.376 1208.51 902.937 1215.87 896.901 1222.18C891.792 1227.53 886.787 1233.46 883.81 1240.58C883.57 1241.15 883.284 1241.58 882.733 1241.95C872.962 1248.44 865.785 1257.71 857.763 1266C854.438 1269.45 850.405 1271.66 847.063 1274.92C841.29 1280.55 834.419 1284.9 828.779 1290.82C826.298 1293.42 822.466 1295.06 819.318 1297.26C814.063 1300.94 808.86 1304.67 803.854 1308.67C797.533 1313.74 790.662 1318.03 783.65 1322.02C776.096 1326.31 768.358 1330.36 760.951 1334.84C752.987 1339.65 744.641 1343.72 736.635 1348.43C732.228 1351.02 726.994 1352.05 722.4 1354.51C710.355 1360.96 697.34 1365.01 684.6 1369.78C675.957 1373.02 667.078 1375.56 658.281 1377.93C646.515 1381.1 634.829 1384.94 622.354 1385.72C615.906 1386.12 609.397 1388.46 602.799 1389.34C599.095 1389.84 595.39 1390.32 590.037 1391.03Z" fill="#181818"/>
<path d="M794.203 109.428C796.29 110.13 797.927 111.54 799.64 112.841C806.256 117.862 812.896 122.854 819.511 127.883C820.666 128.76 821.789 129.688 822.845 130.682C835.906 142.953 849.123 155.063 861.934 167.583C869.722 175.191 877.271 183.129 884.223 191.504C894.031 203.315 903.247 215.601 911.516 228.61C915.992 235.656 920.84 242.511 924.977 249.747C929.759 258.108 934.835 266.352 938.431 275.386C939.735 278.66 942.381 281.372 944.099 284.522C950.736 296.661 956.717 309.101 962.276 321.803C967.46 333.643 972.626 345.49 976.743 357.71C981.456 371.699 985.907 385.79 990.476 399.823C995.279 414.586 999.121 429.606 1003.49 444.464C1007.74 458.928 1011.29 473.633 1013.3 488.747C1014.66 498.994 1016.34 509.321 1018.42 519.502C1020.46 529.515 1021.41 539.645 1022.14 549.767C1022.81 559.21 1024.19 568.551 1025.33 577.913C1026.95 591.31 1027.31 604.787 1028.73 618.184C1030.34 633.466 1031.98 648.748 1033.06 664.069C1033.63 672.243 1033.73 680.491 1033.21 688.72C1032.87 694.17 1034.71 699.512 1033.96 706.027C1035.9 703.592 1034.74 701.46 1036.14 699.021C1038.55 733.22 1036.98 766.424 1033.31 799.586C1031.83 795.306 1032.72 790.948 1032.68 786.436C1031.21 786.844 1031.29 787.919 1031.31 788.746C1031.38 792.272 1031.21 795.778 1030.92 799.293C1030.87 799.945 1029.24 802.702 1032.64 801.637C1033.23 801.454 1033.59 804.147 1033.47 805.561C1033.02 810.756 1032.45 815.942 1031.96 821.134C1031.05 830.686 1030.21 840.243 1029.27 849.79C1028.89 853.652 1028.32 857.496 1027.74 861.334C1027.7 861.579 1028.24 864.774 1026.24 861.999C1025.85 861.456 1025.33 863.071 1025.27 863.803C1024.03 880.043 1020.75 895.976 1017.89 911.959C1015.71 924.134 1012.79 936.177 1010.21 948.281C1008.65 955.605 1007.74 963.062 1005.23 970.67C1008.09 968.042 1011.73 952.597 1013.15 943.047C1014.56 933.583 1017.37 924.335 1019.13 914.912C1020.89 905.451 1022.11 895.889 1023.89 886.411C1024.52 892.407 1023.44 898.266 1022.57 904.13C1020.87 915.489 1019.15 926.844 1017.31 938.181C1016.82 941.244 1015.66 944.199 1015.15 947.261C1012.8 961.588 1008.48 975.432 1004.64 989.374C1001.59 1000.43 998.081 1011.36 994.488 1022.27C990.939 1033.05 986.984 1043.7 983.779 1054.61C981.751 1061.51 978.691 1068.16 975.587 1074.68C973.703 1078.63 972.785 1082.87 970.974 1086.85C966.442 1096.79 963.009 1107.16 957.481 1116.76C954.347 1122.2 952.309 1128.45 949.484 1134.21C944.627 1144.12 939.606 1153.95 933.395 1163.08C929.759 1168.43 925.905 1173.72 922.415 1179.08C917.332 1186.89 912.317 1194.75 906.798 1202.25C901.154 1209.92 895.384 1217.51 888.517 1224.2C886.501 1226.16 885.158 1228.76 883.194 1230.86C875.58 1239 868.351 1247.51 860.472 1255.37C851.778 1264.05 842.775 1272.45 833.44 1280.43C825.944 1286.84 817.775 1292.46 809.873 1298.38C799.586 1306.09 788.794 1313.02 778.111 1320.11C769.761 1325.65 760.834 1330.31 751.864 1334.83C747.221 1337.17 742.83 1340.07 738.053 1342.08C731.264 1344.92 725.068 1349 717.855 1351.05C715.049 1351.85 712.341 1353.94 709.531 1355.37C701.079 1359.68 691.912 1361.98 683.17 1365.45C675.403 1368.52 667.241 1370.34 659.235 1372.5C652.582 1374.29 645.747 1375.8 638.84 1376.85C635.691 1377.33 632.419 1378.7 629.19 1379.64C620.449 1382.17 611.456 1383.24 602.473 1384.43C595.595 1385.34 588.762 1386.6 581.882 1387.5C571.382 1388.88 560.855 1390.03 550.234 1389.25C549.138 1389.17 547.732 1389.64 546.833 1387.74C552.388 1387.19 557.776 1386.66 563.867 1386.06C561.51 1383.82 559.502 1384.56 557.618 1384.8C556.181 1384.98 554.776 1385.49 553.34 1385.58C552.557 1385.64 551.091 1386.21 551.099 1384.65C551.105 1383.53 552.243 1383.23 553.275 1383.17C560.475 1382.74 567.71 1382.61 574.867 1381.79C582.949 1380.87 591.116 1380.41 599.03 1378.2C602.156 1377.33 605.46 1377.01 608.661 1376.63C620.589 1375.22 631.954 1371.41 643.605 1368.84C650.955 1367.22 658.238 1365.21 665.43 1362.98C674.92 1360.04 684.237 1356.55 693.728 1353.61C703.111 1350.71 711.873 1346.36 720.889 1342.6C727.339 1339.91 733.651 1336.9 740.133 1334.29C743.248 1333.04 745.241 1330.37 748.214 1328.91C755.801 1325.18 763.613 1321.68 770.559 1316.94C779.932 1310.55 790.033 1305.37 799.083 1298.4C807.064 1292.25 815.115 1286.19 822.727 1279.61C826.759 1276.12 831.126 1273.17 835.224 1269.93C837.466 1268.16 839.479 1265.1 841.911 1262.89C847.814 1257.54 853.878 1252.35 859.545 1246.76C863.487 1242.87 866.898 1238.44 870.507 1234.22C874.336 1229.74 878.124 1225.23 881.92 1220.73C882.465 1220.08 882.985 1219.41 883.463 1218.71C884.321 1217.46 885.204 1215.93 883.515 1214.93C881.909 1213.98 881.712 1216.01 881.011 1216.8C876.044 1222.38 871.175 1228.04 866.176 1233.58C863.501 1236.55 861.127 1239.75 858.415 1242.7C850.887 1250.9 842.523 1258.12 833.959 1265.17C828.782 1269.43 823.878 1274.03 818.671 1278.25C812.534 1283.23 806.113 1287.87 799.878 1292.72C795.399 1296.2 790.858 1299.55 786.076 1302.55C774.84 1309.61 763.773 1316.98 751.851 1322.87C746.811 1325.36 741.26 1326.97 736.551 1329.94C728.274 1335.17 719.078 1338.34 710.41 1342.66C704.396 1345.65 698.009 1347.82 691.423 1349.45C688.491 1350.18 685.793 1352.01 682.989 1353.29C677.919 1355.59 672.569 1356.5 667.362 1358.05C658.423 1360.72 649.558 1363.9 640.427 1365.6C631.129 1367.34 622.227 1370.6 612.85 1371.91C606.374 1372.82 599.703 1372.97 593.447 1374.42C587.046 1375.91 580.634 1376.68 574.197 1377.57C562.118 1379.25 550.058 1380.96 537.776 1380.15C532.033 1379.77 526.243 1380.07 520.473 1380.12C517.904 1380.15 515.393 1379.97 512.839 1378.74C513.936 1377.95 515.069 1377.88 516.239 1377.94C525.102 1378.41 533.911 1377.03 542.849 1377.75C549.755 1378.3 556.797 1376.56 563.849 1376.37C571.134 1376.18 578.451 1375.37 585.565 1373.66C596.759 1370.96 608.27 1370.26 619.512 1367.6C628.95 1365.38 638.16 1362.3 647.614 1360.39C653.066 1359.29 658.475 1357.9 663.66 1356.24C669.34 1354.42 675.086 1352.42 680.569 1350.01C686.378 1347.46 692.552 1346.36 698.489 1344.39C699.269 1344.13 700.102 1344.08 700.816 1343.57C705.57 1340.12 711.524 1339.09 716.426 1336.19C723.715 1331.89 731.894 1329.56 739.013 1324.86C744.489 1321.24 750.89 1319.05 756.726 1315.94C762.176 1313.03 767.511 1309.85 772.694 1306.53C785.989 1298.01 798.433 1288.31 810.835 1278.52C817.404 1273.34 824.475 1268.59 830.67 1263.05C840.019 1254.69 849.692 1246.68 858.657 1237.81C866.868 1229.68 873.261 1220.23 880.892 1211.74C884.261 1207.99 887.656 1203.91 890.127 1199.3C891.565 1196.62 893.572 1194.34 895.691 1192.13C900.699 1186.9 903.615 1180.18 908.055 1174.51C914.048 1166.87 918.527 1158.2 923.982 1150.18C924.635 1149.22 925.022 1147.89 926.463 1147.67C928.195 1149.37 927.18 1151.06 926.352 1152.65C923.725 1157.73 920.687 1162.61 917.273 1167.13C914.549 1170.74 912.459 1174.68 910.109 1178.46C905.238 1186.29 899.236 1193.3 894.366 1201.11C893.342 1202.76 892.151 1204.29 891.184 1205.98C890.099 1207.88 888.895 1209.72 886.857 1210.72C886.747 1210.86 886.575 1210.97 886.381 1210.99C886.397 1210.97 886.544 1211.19 886.542 1211.18C886.632 1210.78 886.979 1210.64 887.287 1210.43C890.887 1207.75 893.22 1203.93 895.672 1200.42C901.016 1192.76 906.594 1185.27 911.735 1177.46C917.542 1168.63 922.779 1159.47 928.578 1150.66C936.154 1139.16 941.806 1126.68 947.775 1114.34C954.289 1100.88 959.5 1086.87 965.238 1073.09C970.727 1059.91 975.911 1046.59 980.039 1032.84C982.787 1023.69 986.162 1014.68 989.24 1005.61C991.648 998.513 993.278 991.122 995.177 983.842C997.625 974.463 999.865 965.024 1002.15 955.617C1006.47 937.839 1009.92 919.848 1012.03 901.628C1012.87 894.401 1014.24 887.23 1015.64 880.091C1016.8 874.152 1017.33 868.085 1018.91 862.251C1021.7 851.998 1021.48 841.396 1022.87 830.985C1024.78 816.661 1024.97 802.191 1026.08 787.81C1027.22 773.14 1027.09 758.446 1028.18 743.792C1028.59 738.249 1027.23 732.709 1027.38 727.087C1027.53 721.899 1027.65 716.663 1027.24 712.755C1026.91 728.558 1028.12 745.653 1026.71 762.736C1026.47 765.646 1026.56 768.579 1026.64 771.497C1026.85 779.421 1025.68 787.261 1025.32 795.146C1024.85 805.067 1024.55 815.007 1023.57 824.883C1022.5 835.737 1022.24 846.768 1020.07 857.392C1017.23 871.269 1015.04 885.249 1012.35 899.143C1011.15 905.332 1010.46 911.628 1009.24 917.806C1006.66 930.871 1005.05 944.079 1001.44 957.008C996.658 974.174 993.059 991.687 987.79 1008.73C982.27 1026.59 976.362 1044.33 969.396 1061.69C967.183 1067.2 964.872 1072.7 962.211 1078.04C959.829 1082.82 958.974 1088.19 956.706 1093.07C951.429 1104.4 947.143 1116.17 941.247 1127.26C938.171 1133.05 935.276 1138.93 931.842 1144.52C930.686 1146.39 929.384 1148.66 926.4 1147.75C928.145 1140.45 932.532 1134.36 935.57 1127.65C938.86 1120.38 941.759 1112.93 945.312 1105.8C949.358 1097.69 952.592 1089.23 956.379 1081.01C959.624 1073.96 961.833 1066.51 965.114 1059.45C970.941 1046.92 974.276 1033.48 978.447 1020.36C983.207 1005.39 987.37 990.227 991.563 975.084C994.622 964.036 997.797 952.979 999.972 941.744C1001.2 935.411 1002.94 929.182 1003.84 922.723C1004.89 915.096 1006.36 907.443 1007.91 899.852C1009.67 891.18 1010.24 882.324 1011.93 873.669C1013.27 866.778 1013.89 859.802 1015.1 852.899C1016.52 844.816 1016.39 836.475 1017.4 828.303C1018.52 819.209 1018.62 810.059 1019.44 800.951C1020.07 793.988 1019.91 786.934 1020.83 780.018C1022.06 770.77 1021.58 761.474 1021.71 752.249C1021.81 745.318 1022.32 738.366 1022.43 731.434C1022.56 722.684 1021.65 713.91 1022.99 705.081C1023.53 701.525 1022.62 697.31 1022.43 693.385C1021.65 677.288 1020.77 661.196 1020.01 645.101C1019.97 644.232 1019.66 643.135 1020.49 642.28C1021.97 642.595 1022.3 643.852 1022.38 645.006C1023.09 655.26 1023.8 665.513 1024.35 675.775C1024.76 683.387 1024.97 691.011 1025.2 698.631C1025.25 700.499 1025.02 702.374 1024.95 704.247C1024.92 704.873 1025.07 705.478 1025.72 705.748C1026.53 706.076 1026.7 705.264 1027.14 704.918C1028.76 703.617 1029.78 702.314 1028.71 699.957C1027.65 697.615 1028.35 694.896 1028.44 692.457C1029.1 675.22 1026.86 658.169 1025.68 641.045C1025.33 636.083 1025.66 631.003 1024.68 626.179C1023.69 621.282 1024.84 616.539 1024.42 611.759C1023.71 603.727 1022.71 595.717 1021.92 587.692C1020.93 577.518 1019.29 567.425 1018.66 557.215C1018.11 548.24 1017.93 539.119 1016.04 530.399C1014.49 523.237 1013.69 515.921 1011.68 508.824C1010.1 503.255 1009.35 497.43 1008.2 491.744C1006.82 484.954 1005.98 478.018 1003.46 471.455C1002.08 467.852 1001.7 463.913 1000.71 460.156C997.104 446.357 993.473 432.544 990.599 418.584C988.548 408.63 985.48 399.048 982.355 389.43C980.465 383.612 979.216 377.583 977.565 371.677C977.148 370.194 976.112 368.878 975.68 367.387C972.641 356.899 968.823 346.696 964.422 336.713C961.929 331.056 959.515 325.355 956.773 319.822C955.206 316.658 954.218 313.296 952.72 310.131C947.388 298.847 941.339 287.935 935.804 276.767C932.732 270.562 928.749 264.964 925.462 258.919C921.446 251.523 915.787 245.033 911.633 237.71C907.012 229.553 901.519 222.047 895.95 214.614C888.468 204.623 880.034 195.356 872.6 185.336C867.767 178.824 862.214 172.97 857.171 166.67C853.315 161.846 847.98 158.403 844.084 153.521C840.373 148.873 834.378 146.563 831.339 141.053C830.669 139.832 828.304 139.379 827.016 138.02C819.602 130.229 810.969 123.907 802.353 117.555C799.924 115.765 797.68 113.733 795.335 111.825C794.538 111.175 793.889 110.502 794.265 109.362L794.203 109.428Z" fill="#DFD4BF"/>
<path d="M238.249 1266.01C234.998 1265.88 233.058 1263.34 231.03 1261.49C221.211 1252.52 211.166 1243.73 202.447 1233.67C197.591 1228.07 191.454 1223.84 186.927 1217.95C179.249 1207.93 170.616 1198.56 163.753 1188.04C153.027 1171.58 140.976 1156 131.267 1138.86C123.395 1124.96 116.081 1110.76 109.679 1096.18C105.262 1086.11 100.843 1075.99 97.0514 1065.63C95.1058 1060.31 91.9886 1055.41 90.2097 1050.05C86.6226 1039.24 83.7014 1028.22 80.297 1017.34C75.6465 1002.5 71.4199 987.547 67.93 972.374C64.3963 957.004 61.5708 941.532 59.3343 925.92C57.8178 915.345 55.7224 904.857 54.0801 894.303C53.2593 889.026 53.2506 883.611 52.2032 878.392C50.6041 870.426 50.1122 862.342 49.4252 854.31C48.5745 844.392 46.3585 834.613 45.9624 824.71C45.3053 808.28 44.1842 791.865 43.5958 775.435C43.0703 760.768 41.3441 746.098 42.0596 731.435C42.6019 720.324 41.5874 709.266 42.0924 698.145C42.4915 689.371 41.8893 680.459 41.9024 671.604C41.9054 669.518 42.713 667.565 42.9132 665.596C43.4029 660.782 43.2275 655.903 43.3912 651.052C43.8231 638.24 43.18 625.354 44.8895 612.636C45.8506 605.483 44.9874 598.271 46.4184 591.185C46.8855 588.872 46.4623 586.542 47.8787 584.216C48.7375 582.805 47.6017 580.394 47.5703 578.362C47.4526 570.878 49.4508 563.678 49.7622 556.29C50.2065 545.77 51.8963 535.366 53.6233 525.033C55.172 515.767 56.397 506.434 57.9076 497.165C58.9272 490.911 60.1288 484.622 61.0694 478.334C62.4631 469.016 65.247 459.91 67.3468 450.693C69.5993 440.808 71.8372 430.918 73.9143 420.995C76.4102 409.071 78.9018 397.171 82.5356 385.505C84.6135 378.833 86.0423 371.929 88.4154 365.346C91.86 355.795 95.6547 346.368 99.3638 336.914C101.646 331.098 104.541 325.49 106.883 319.78C110.743 310.37 114.673 301.019 119.186 291.916C123.927 282.355 128.365 272.622 134.449 263.781C138.255 258.25 141.887 252.598 145.025 246.657C151.079 235.193 159.275 225.226 167.028 214.949C171.671 208.795 176.108 202.461 181.107 196.612C183.678 193.604 185.251 189.494 189.496 187.998C190.618 187.602 190.5 186.005 191.129 185.005C195.704 177.745 202.544 172.701 208.809 167.235C220.916 156.671 232.641 145.705 244.542 134.924C248.029 131.765 252.082 129.231 255.866 126.399C256.547 125.889 257.215 125.354 257.832 124.772C258.752 123.906 258.321 122.864 257.797 122.121C257.032 121.038 256.404 122.071 255.735 122.511C247.499 127.935 240.069 134.303 232.745 140.915C223.126 149.598 214.138 158.992 203.823 166.918C201.266 168.883 199.981 172.54 196.011 172.633C203.484 159.536 269.661 105.154 277.462 105.887C276.692 107.308 275.377 107.924 274.19 108.656C269.077 111.809 264.63 115.852 259.83 119.423C258.912 120.106 257.685 120.979 258.79 122.405C260.078 124.068 261.172 122.773 262.147 121.976C272.296 113.672 283.395 106.844 294.819 100.454C305.048 94.7326 314.887 88.2995 325.214 82.7698C331.647 79.3252 338.745 77.1443 345.402 74.0856C352.236 70.9451 359.423 68.7035 366.475 66.288C373.593 63.8499 380.561 61.0295 387.671 58.6169C397.194 55.385 406.725 51.6503 416.565 50.0212C426.846 48.319 436.568 44.6274 446.806 43.0553C460.295 40.984 473.747 38.5751 487.298 37.0556C494.583 36.2385 501.952 35.5405 509.428 36.1925C513.425 36.5411 517.588 34.8111 521.829 35.5434C526.667 36.3788 531.471 34.8879 536.453 35.3651C540.474 35.751 544.786 35.5339 548.962 35.6502C554.208 35.7963 559.458 36.0448 564.688 36.4819C572.358 37.1228 579.896 38.7403 587.504 39.8073C589.975 40.1537 591.994 41.4094 594.398 41.777C603.003 43.0933 611.629 44.3014 620.217 45.6784C626.954 46.7593 633.872 47.5486 640.212 50.57C641.416 51.1438 643.123 50.5773 644.44 51.0137C649.543 52.7034 654.485 54.9801 659.678 56.2752C664.075 57.3715 668.373 58.9187 672.587 60.3234C683.695 64.0253 695.083 67.0101 705.663 72.3528C710.367 74.7266 715.409 76.6174 720.313 78.6901C720.832 78.9094 721.563 78.8662 721.768 79.717C719.574 80.7906 717.703 80.3609 715.415 79.3493C708.664 76.363 701.587 74.1061 694.862 71.0672C687.773 67.8638 679.951 66.785 673.021 63.4296C667.367 60.6925 661.342 59.2374 655.465 57.5067C650.157 55.9441 644.309 55.8016 639.034 54.0131C629.339 50.725 619.165 50.0277 609.345 47.6451C598.329 44.9738 587.164 43.4361 575.971 42.3792C567.092 41.5417 558.225 40.1771 549.25 40.2583C546.001 40.2875 542.72 39.3213 539.5 39.5296C533.658 39.9089 527.837 39.0903 522.034 39.5179C517.289 39.8672 512.509 39.0648 507.891 39.542C502.164 40.1333 496.405 40.0237 490.682 40.8707C484.527 41.7814 478.091 41.4064 472.066 42.4852C466.319 43.515 460.469 44.3372 454.74 45.6513C449.226 46.9164 443.681 48.1728 438.081 48.9037C431.303 49.7873 424.885 51.8863 418.365 53.7128C411.567 55.6174 404.506 56.4776 397.789 58.725C391.888 60.6998 385.959 62.6037 380.127 64.7693C370.753 68.2511 361.467 72.0129 352.148 75.5759C343.031 79.0614 334.467 83.5701 325.62 87.5036C314.963 92.2418 304.942 98.3431 294.647 103.853C284.639 109.21 275.421 115.567 266.708 122.807C262.687 126.149 257.774 128.431 253.819 131.836C249.971 135.149 246.616 139.106 242.406 141.979C231.66 149.311 222.333 158.327 213.159 167.37C204.14 176.259 194.723 184.804 186.497 194.502C182.01 199.792 176.978 204.64 172.743 210.115C167.667 216.68 163.159 223.687 158.443 230.528C155.521 234.769 152.2 238.825 149.916 243.393C147.598 248.031 144.738 252.249 141.974 256.571C137.863 263.001 134.423 269.808 130.928 276.581C128.045 282.167 125.549 287.982 122.295 293.34C119.345 298.198 116.758 303.201 114.339 308.316C109.89 317.728 105.545 327.191 101.9 336.948C100.037 341.934 97.4599 346.6 95.9236 351.747C92.8533 362.036 89.3407 372.184 86.3931 382.527C82.7498 395.312 80.1457 408.357 76.3686 421.083C73.584 430.466 71.8204 440.058 70.116 449.618C68.6536 457.824 66.5706 465.898 65.2536 474.153C64.0425 481.745 63.1838 489.412 61.7535 496.949C59.6179 508.202 58.7803 519.621 56.8011 530.848C55.3891 538.857 54.8029 546.956 53.2097 554.941C50.7671 567.185 51.2626 579.802 49.4903 592.108C48.0709 601.964 48.5131 611.827 47.6332 621.66C46.9235 629.597 47.3006 637.627 46.6947 645.578C45.9587 655.239 46.6026 664.935 45.8352 674.552C45.2586 681.781 45.2418 689.036 44.6242 696.267C44.3084 699.967 44.9458 703.954 44.9202 707.808C44.8807 713.829 45.5429 719.853 45.3952 725.831C45.233 732.441 46.5544 739.068 45.7621 745.541C44.7404 753.881 46.113 761.986 46.6655 770.166C47.2326 778.563 47.6938 786.961 48.117 795.366C48.6637 806.234 50.3556 817.036 50.8519 827.904C51.4453 840.913 52.8925 853.864 54.6246 866.691C56.7324 882.302 58.8344 897.943 61.2221 913.525C62.7942 923.786 64.6031 934.011 66.309 944.251C67.2547 949.922 68.4869 955.557 69.6103 961.199C71.7802 972.104 74.8367 982.753 77.459 993.526C81.4393 1009.87 85.4942 1026.19 90.8375 1042.14C94.2638 1052.37 98.1798 1062.45 102.189 1072.46C105.988 1081.95 109.249 1091.68 114.007 1100.76C118.306 1108.97 123.016 1116.95 127.265 1125.18C134.089 1138.39 141.547 1151.19 149.927 1163.49C153.09 1168.13 156.872 1172.27 159.897 1176.97C163.714 1182.89 167.195 1189.09 171.89 1194.35C175.873 1198.82 179.001 1203.91 183.097 1208.33C186.639 1212.15 189.673 1216.53 193.197 1220.49C198.422 1226.35 204.06 1231.79 209.517 1237.42C215.136 1243.2 220.484 1249.26 226.651 1254.51C229.865 1257.24 232.94 1260.14 236.083 1262.96C237.049 1263.82 238.335 1264.46 238.19 1266.07L238.249 1266.01Z" fill="#DFD4BF"/>
<path d="M213.442 1263.13C213.82 1261.55 212.85 1260.61 211.785 1259.76C202.875 1252.55 195.004 1244.23 187.27 1235.87C178.392 1226.28 169.478 1216.66 161.381 1206.36C153.663 1196.54 145.742 1186.85 139.02 1176.31C130.273 1162.61 122.431 1148.39 115.405 1133.7C110.379 1123.19 104.83 1112.95 99.6539 1102.51C96.3672 1095.89 92.9899 1089.27 90.263 1082.41C84.1866 1067.12 79.292 1051.41 74.2994 1035.73C69.654 1021.15 65.8426 1006.35 61.8045 991.603C58.0662 977.952 55.2662 964.081 52.2558 950.252C46.6281 924.395 42.8181 898.255 38.946 872.117C36.6211 856.423 35.0498 840.637 33.8321 824.814C33.1831 816.373 32.0108 807.968 31.478 799.521C30.5257 784.418 29.8482 769.299 29.1137 754.183C28.6656 744.959 28.1723 735.733 27.9706 726.502C27.581 708.682 26.9583 690.851 27.2807 673.04C27.448 663.812 27.7572 654.536 28.5107 645.289C29.1115 637.919 28.4522 630.4 29.5346 623.07C30.5988 615.866 29.8972 608.588 31.022 601.456C31.7155 597.055 32.279 592.429 32.1928 588.24C32.0934 583.366 33.6304 578.891 33.6377 574.14C33.645 569.708 34.6777 565.271 35.3392 560.848C36.3412 554.147 35.6878 547.28 37.2862 540.65C39.5029 531.454 39.6856 521.978 41.3462 512.683C43.8786 498.513 46.9497 484.465 49.6992 470.347C51.5695 460.743 53.8915 451.256 56.1016 441.74C58.2394 432.537 60.9027 423.456 63.1983 414.286C65.4457 405.312 67.4476 396.275 69.6935 387.3C71.7823 378.958 73.6796 370.559 76.799 362.5C77.7988 359.916 78.4113 357.179 79.1304 354.493C79.3314 353.741 79.6749 352.68 78.4442 352.475C77.4743 352.312 77.4334 353.263 77.2134 353.942C75.6128 358.894 74.4098 364.028 72.2778 368.74C69.8185 374.176 69.2871 380.098 67.1369 385.557C73.695 353.592 87.227 324.157 100.565 294.658C98.1965 300.502 95.8709 306.365 93.4496 312.188C88.7757 323.426 83.9863 334.619 79.4206 345.902C78.8534 347.305 77.7944 350.21 79.0654 350.489C81.0782 350.931 81.6103 348.05 82.2593 346.447C85.3925 338.704 88.0996 330.788 91.311 323.081C95.344 313.401 100.008 303.978 103.86 294.23C107.142 285.923 110.879 277.876 115.286 270.14C118.928 263.748 123.356 257.747 126.447 251.113C130.249 242.958 135.676 235.929 140.592 228.568C145.579 221.101 151.155 213.984 157.551 207.152C158.508 209.379 157.109 210.622 156.364 211.759C152.449 217.734 148.396 223.62 144.283 229.462C141.208 233.832 139.424 238.955 136.109 243.177C132.113 248.269 129.712 254.238 126.855 259.965C125.677 262.326 124.364 264.614 122.759 266.784C119.196 271.596 116.627 277.041 113.65 282.214C111.262 286.365 110.754 291.284 107.32 295.001C103.653 298.971 102.897 304.643 101.208 309.548C98.8097 316.518 95.5844 323.05 92.7231 329.77C88.2853 340.192 83.3439 350.417 79.3336 360.997C76.7851 367.721 75.1472 374.865 73.8024 381.954C72.1266 390.782 69.6884 399.414 67.7903 408.178C66.2387 415.345 64.2332 422.435 62.2599 429.455C59.9109 437.814 59.0835 446.468 56.4312 454.789C55.3218 458.27 54.3841 462.471 54.5207 466.602C54.6304 469.934 52.6563 473.035 52.0913 476.432C50.5324 485.816 48.2441 495.084 46.8035 504.483C45.5252 512.821 45.0275 521.276 44.1308 529.675C43.0111 540.16 40.4333 550.479 40.0664 561.028C39.9049 565.662 38.8429 570.14 38.0982 574.591C37.7138 576.889 38.0244 579.021 37.7773 581.204C36.5005 592.496 35.7346 603.822 35.5 615.184C35.4751 616.38 35.0973 617.568 34.8875 618.76C34.4388 621.316 33.7532 623.64 34.7516 626.485C35.8727 629.681 33.3395 632.942 33.1736 636.378C32.8089 643.931 31.6695 651.515 32.5348 659.014C32.817 661.459 32.9639 664.007 33.3629 666.48C33.6399 668.197 31.337 668.71 31.7806 671.112C32.4632 674.811 34.6273 678.765 32.1511 682.658C34.9292 697.712 32.8645 712.911 33.5215 728.026C33.9549 738.003 33.3541 747.987 34.1237 757.968C34.8853 767.841 35.6834 777.762 35.5 787.644C35.2873 799.089 37.1802 810.38 36.8886 821.858C36.6511 831.176 38.8115 840.542 39.7463 849.903C40.4655 857.102 42.145 864.184 41.83 871.527C41.6933 874.716 42.8496 877.96 43.4167 881.181C45.1328 890.935 46.4893 900.789 48.524 910.439C50.6435 920.491 52.4867 930.619 53.746 940.729C54.6625 948.093 57.548 955.193 56.8814 962.786C56.7382 964.42 58.8241 965.217 59.2261 967.055C61.2147 976.149 63.2802 985.241 65.7834 994.205C67.7377 1001.2 70.5523 1007.95 72.6572 1014.91C74.7957 1021.98 77.0029 1029.02 78.401 1036.34C79.3534 1041.32 80.7669 1046.39 83.3782 1051.01C85.0358 1053.94 86.2301 1057.24 87.0311 1060.52C89.8084 1071.9 95.3937 1082.14 99.6305 1092.93C104.168 1104.48 110.286 1115.16 115.955 1126.12C120.459 1134.82 125.19 1143.38 130.28 1151.73C131.782 1154.2 131.219 1157.03 132.885 1159.39C140.766 1170.57 148.082 1182.12 156.256 1193.12C163.357 1202.68 170.975 1211.83 178.671 1220.82C185.682 1229 193.186 1236.95 201.325 1244.19C207.378 1249.58 213.03 1255.42 218.805 1261.11C220.958 1263.23 223.663 1264.57 225.982 1266.51C231.879 1271.45 237.596 1276.6 243.497 1281.5C250.818 1287.58 259.097 1292.5 266.825 1298.11C270.335 1300.66 273.953 1303.16 276.803 1306.49C278.768 1308.78 281.513 1309.79 283.982 1311.24C291.559 1315.7 298.413 1321.3 306.328 1325.21C317.368 1330.68 328.375 1336.21 339.398 1341.71C346.743 1345.37 354.422 1348.4 362.19 1350.79C371.445 1353.64 380.887 1356.12 389.937 1359.43C396.535 1361.85 403.336 1363.42 409.928 1365.75C420.279 1369.41 431.09 1371.39 441.828 1373.63C454.001 1376.15 466.522 1376.4 478.587 1378.96C484.301 1380.17 490.061 1380.91 495.571 1380.76C500.178 1380.63 503.613 1383.62 508.144 1383.23C510.653 1383.02 513.379 1383 515.999 1383.05C521.846 1383.14 527.69 1383.48 533.529 1383.85C536.53 1384.03 539.494 1383.87 542.461 1383.5C544.023 1383.3 545.586 1382.89 547.137 1383.57C547.946 1383.93 549.404 1383.7 549.089 1385.14C548.908 1385.96 547.869 1386.12 546.954 1386.14C533.854 1386.43 520.763 1386.16 507.679 1385.49C494.669 1384.82 481.823 1382.78 469.022 1380.53C459.493 1378.87 449.896 1377.56 440.411 1375.78C432.418 1374.29 424.448 1372.25 416.49 1370.48C407.9 1368.57 399.706 1365.46 391.172 1363.43C383.966 1361.71 376.819 1359.48 369.795 1356.87C363.37 1354.48 356.634 1352.81 350.397 1349.95C339.313 1344.87 327.886 1340.53 317.225 1334.52C307.885 1329.24 298.196 1324.57 289.004 1319.07C279.772 1313.53 270.838 1307.56 262.759 1300.25C258.81 1296.69 254.019 1293.84 249.726 1290.52C241.204 1283.93 232.772 1277.22 224.348 1270.49C222.078 1268.69 220.061 1266.55 217.753 1264.8C216.527 1263.86 215.439 1262.08 213.379 1263.07L213.442 1263.13Z" fill="#DFD4BF"/>
<path d="M1021.14 637.382C1019.35 634.357 1019.66 631.015 1019.5 627.919C1019.12 620.942 1018.63 613.992 1017.74 607.071C1016.19 595.008 1014.05 583.01 1013.67 570.821C1013.4 562.204 1012.11 553.698 1010.9 545.197C1009.09 532.61 1007.29 520.01 1004.59 507.577C1003.38 502.009 1002.03 496.473 1000.92 490.878C999.422 483.311 996.932 475.873 996.154 468.249C995.251 459.403 990.932 451.622 989.592 443.032C988.111 433.532 985.23 424.389 982.995 415.083C980.431 404.405 977.124 393.961 973.56 383.557C971.025 376.157 968.593 368.673 966.288 361.171C964.738 356.121 962.809 351.17 960.486 346.383C959.114 343.553 957.92 340.603 956.988 337.601C955.871 334.005 953.537 330.774 952.88 327.216C951.746 321.081 947.306 316.665 945.576 310.761C944.063 305.602 941.214 300.613 938.699 295.67C935.702 289.774 933.125 283.625 929.679 278.009C926.358 272.599 923.072 267.167 919.947 261.651C914.437 251.927 907.553 243.115 901.69 233.648C896.645 225.503 891.174 217.645 885.322 210.14C880.658 204.158 875.289 198.61 870.888 192.449C862.267 180.382 850.781 170.987 841.348 159.682C838.414 156.165 836.169 151.727 832.115 149.256C821.431 142.744 813.875 132.491 803.45 125.658C799.261 122.912 795.629 119.148 791.584 116.387C785.76 112.409 779.848 108.443 774.083 104.378C765.179 98.0981 755.439 93.4425 745.984 88.208C740.536 85.191 735.434 81.5469 729.99 78.5218C726.231 76.4323 722.188 74.8317 718.209 73.1639C706.915 68.4301 695.618 63.7021 684.257 59.1327C681.264 57.929 677.862 57.6893 674.951 56.3489C665.62 52.0506 655.459 50.5239 645.808 47.2964C637.856 44.6367 629.659 42.6371 621.468 40.7982C616.022 39.5762 610.331 39.4585 604.872 38.2775C600.122 37.2491 595.126 37.4816 590.564 35.316C589.298 34.7152 587.476 35.354 585.914 35.2948C578.896 35.0288 572.047 33.3434 565.108 32.4612C556.597 31.3803 548.162 32.0878 539.714 31.5491C535.176 31.2597 530.622 30.8438 526.088 30.9637C520.105 31.1223 514.096 31.4782 508.168 32.2683C503.82 32.8479 499.259 33.1906 495.2 32.6425C486.699 31.495 479.178 34.8132 471.211 35.946C462.373 37.2024 453.541 38.5128 444.683 39.6076C441.236 40.0337 438.058 41.6723 434.472 41.6029C434.324 39.49 435.657 38.8161 437.389 38.7693C446.153 38.5325 454.313 34.9089 462.971 34.2029C470.906 33.5553 478.536 31.2166 486.627 30.9403C491.598 30.7708 496.843 30.2299 501.872 29.9895C511.193 29.5444 520.288 26.8197 529.777 27.9248C540.341 29.1548 550.984 29.787 561.61 30.3702C571.239 30.8987 580.771 32.3151 590.367 33.1395C601.521 34.0984 612.601 36.375 623.285 39.6361C630.942 41.9742 638.771 43.4301 646.417 45.6607C655.378 48.2735 664.255 51.1685 673.22 53.7645C682.98 56.5908 692.416 60.3672 701.805 64.1231C707.689 66.4765 713.56 69.177 719.452 71.4829C724.675 73.5278 729.661 76.1378 734.7 78.4254C740.214 80.9279 745.793 83.6986 750.977 87.081C754.891 89.6347 759.355 91.3303 763.429 93.6603C772.672 98.9459 781.584 104.832 789.731 111.635C799.557 119.841 810.078 127.178 819.567 135.776C824.196 139.971 828.444 144.586 833.057 148.799C836.545 151.984 840.154 155.048 843.205 158.65C849.498 166.081 857.721 171.627 863.567 179.457C870.36 188.555 877.839 197.122 884.162 206.594C887.05 210.921 891.161 214.447 893.919 218.839C899.349 227.488 906.393 234.94 911.361 243.993C914.369 249.476 918.047 254.814 921.389 260.167C928.938 272.258 937.043 284.158 942.35 297.503C945.107 304.432 949.739 310.336 952.17 317.439C957.164 332.033 965.002 345.462 969.213 360.47C971.703 369.341 975.698 377.83 978.001 386.858C980.557 396.882 984.554 406.517 986.475 416.706C988.076 425.192 990.869 433.434 991.343 442.171C991.486 444.827 993.424 447.336 993.952 450.028C996.011 460.514 999.36 470.667 1001.88 481.036C1003.99 489.737 1005.65 498.505 1007.63 507.204C1009.86 517.028 1011.08 527.001 1013.19 536.829C1014.74 544.031 1014.6 551.52 1015.45 558.842C1016.23 565.559 1015.54 572.289 1017.56 579.091C1019.52 585.667 1019.01 592.992 1019.59 599.976C1020.03 605.315 1020.13 610.715 1020.99 616.043C1022.12 623.124 1021.15 630.265 1021.14 637.382Z" fill="#DFD4BF"/>
<path d="M213.382 1263.09C213.624 1266.12 216.12 1267.49 218.091 1269.09C229.73 1278.54 241.795 1287.45 253.484 1296.82C261.229 1303.03 269.397 1308.65 277.275 1314.66C283.181 1319.16 290.088 1322.37 296.613 1326.04C306.209 1331.43 315.564 1337.41 325.601 1341.81C331.775 1344.52 337.635 1347.98 344.119 1350.09C349.799 1351.93 355.205 1354.6 360.827 1356.65C371.043 1360.38 381.597 1362.98 392.052 1365.93C405.79 1369.81 419.515 1373.8 433.496 1376.54C443.677 1378.54 453.934 1380.4 464.339 1381.38C473.963 1382.3 483.438 1384.7 493.051 1385.83C500.798 1386.75 508.572 1387.88 516.439 1387.52C517.812 1387.45 519.21 1387.93 520.56 1388.44C511.16 1389.63 501.818 1388.94 492.528 1387.72C486.868 1386.97 481.168 1387.55 475.518 1386.62C467.302 1385.27 459.034 1384.47 450.868 1382.54C445.344 1381.23 439.673 1380.01 433.989 1379.33C426.64 1378.46 419.709 1375.81 412.455 1374.64C401.341 1372.86 390.744 1369.14 379.939 1366.2C377.288 1365.48 374.845 1364.23 372.426 1362.74C370.244 1361.39 367.182 1362.18 364.515 1360.97C357.652 1357.84 350.518 1355.3 343.512 1352.53C337.318 1350.08 331.119 1347.64 325.138 1344.76C311.527 1338.2 298.345 1330.85 285.642 1322.64C278.431 1317.98 270.886 1313.83 263.761 1309.04C254.373 1302.74 245.286 1296.06 236.725 1288.57C228.807 1281.65 220.31 1275.35 212.51 1268.26C198.047 1255.12 183.288 1242.3 170.625 1227.27C157.177 1211.31 144.093 1195.05 133.794 1176.89C127.781 1166.29 121.072 1156.12 115.021 1145.54C109.779 1136.38 105.139 1126.94 100.379 1117.57C97.1076 1111.12 94.2207 1104.39 91.526 1097.72C88.5316 1090.31 85.3034 1082.96 82.5115 1075.46C82.0167 1074.13 81.8391 1072.95 83.0406 1071.62C85.4203 1074.28 86.6708 1077.4 87.3337 1080.48C88.7421 1087.03 92.2868 1092.56 95.0758 1098.45C99.8403 1108.5 104.701 1118.51 109.666 1128.47C114.091 1137.34 118.221 1146.41 123.375 1154.85C129.235 1164.45 134.301 1174.52 140.855 1183.7C150.582 1197.33 161.049 1210.32 172.186 1222.85C181.27 1233.06 190.851 1242.78 200.163 1252.77C203.473 1256.32 207.088 1259.63 211.06 1262.49C211.778 1263.01 212.538 1263.33 213.444 1263.15C213.445 1263.15 213.382 1263.09 213.382 1263.09Z" fill="#DFD4BF"/>
<path d="M783.694 126.543C756.351 108.316 728.072 92.2459 697.31 80.1019C666.62 67.9871 635.227 59.1735 603.163 52.0469C611.919 54.2782 621.149 53.6139 629.697 57.2835C634.407 59.3051 639.906 59.4505 645.021 60.6682C657.086 63.539 669.163 66.1475 680.536 71.3958C685.409 73.644 690.816 74.7059 695.876 76.5857C698.865 77.6959 701.597 79.4785 704.547 80.7122C706.379 81.4774 708.52 81.5249 710.323 82.3361C718.491 86.0087 726.752 89.4358 734.673 93.7069C745.051 99.3017 754.822 105.741 764.55 112.35C770.435 116.348 776.735 119.746 782.332 124.2C782.956 124.697 783.56 125.218 784.173 125.728C784.013 126 783.854 126.271 783.694 126.543Z" fill="#DFD4BF"/>
<path d="M599.96 51.5981C596.607 52.1989 593.38 51.8115 590.146 51.2758C586.812 50.7225 583.205 50.7503 580.151 49.7958C572.704 47.468 564.924 49.0357 557.454 46.9403C554.738 46.1788 551.279 47.392 548.037 47.0412C541.669 46.3512 535.303 45.3412 528.846 45.7139C521.268 46.1517 513.683 46.8292 506.101 46.8131C491.669 46.7817 477.386 48.3977 463.141 50.3103C452.689 51.7143 442.547 54.754 432.3 57.2134C431.378 57.4348 430.498 58.1269 429.495 57.706C429.084 57.5335 428.618 57.1761 428.459 56.788C428.159 56.0513 428.692 55.7904 429.356 55.585C431.664 54.8709 433.901 53.828 436.253 53.3807C445.148 51.6902 454.043 49.9317 463.009 48.72C467.387 48.1287 471.722 47.2619 476.368 47.6427C480.233 47.9599 484.509 46.8205 488.504 46.0589C499.07 44.0454 509.641 44.6235 520.259 44.6425C528.083 44.6564 535.927 44.7039 543.759 44.535C548.237 44.4393 553 45.013 557.587 45.3602C564.191 45.8601 570.827 46.2708 577.4 47.0419C585.024 47.9365 592.783 48.4196 599.96 51.5981Z" fill="#DFD4BF"/>
<path d="M191.142 178.711C189.808 180.578 188.758 182.642 187.181 184.157C177.82 193.15 171.167 204.24 163.374 214.449C155.515 224.745 147.953 235.228 141.251 246.327C140.841 247.006 140.555 249.303 138.94 248.189C137.719 247.346 139.21 246.178 139.775 245.432C144.356 239.374 148.107 232.718 151.996 226.284C156.864 218.23 161.918 210.287 167.726 203.015C172.751 196.724 177.149 189.689 184.007 184.907C185.911 183.579 187.141 181.3 188.736 179.506C189.251 178.927 189.726 178.024 191.142 178.711Z" fill="#DFD4BF"/>
<path d="M579.764 27.4647C574.366 27.0685 568.973 26.5029 563.566 26.3121C551.723 25.894 539.875 25.639 528.059 24.637C527.224 24.5661 526.361 24.7488 525.519 24.8716C524.829 24.9717 524.042 26.0366 523.534 24.6845C523.146 23.6517 522.82 22.5006 523.738 21.6265C524.412 20.9848 525.577 20.9921 526.071 21.6543C527.154 23.1073 528.628 22.8938 530.016 22.8938C539.429 22.8909 548.802 23.8739 558.186 24.1012C561.905 24.1911 565.574 24.4535 569.227 24.9015C572.792 25.3386 576.302 26.2302 579.835 26.9216L579.764 27.4647Z" fill="#DFD4BF"/>
<path d="M588.387 1371.88C585.467 1373.31 580.416 1371.17 575.924 1373.67C572.924 1375.35 569.116 1373.92 565.818 1376.11C564.812 1376.78 560.884 1376.39 558.517 1375.6C551.994 1373.45 545.4 1374.45 538.768 1374.33C526.822 1374.14 514.952 1376.93 503.022 1375.17C493.894 1373.82 484.459 1374.34 475.614 1371.94C470.523 1370.56 465.146 1371.28 460.268 1368.88C457.768 1367.65 454.721 1368.74 451.898 1368.17C442.978 1366.34 434.114 1364.29 425.233 1362.32C414.168 1359.88 403.009 1357.6 392.174 1354.45C384.527 1352.23 376.726 1350.34 369.194 1347.56C353.691 1341.85 338.757 1334.86 323.716 1328.09C312.924 1323.25 302.954 1316.88 292.867 1310.76C280.287 1303.14 267.621 1295.64 255.681 1287C247.957 1281.41 240.755 1275.2 233.666 1268.86C225.066 1261.16 216.225 1253.7 207.992 1245.62C195.557 1233.42 183.005 1221.33 171.572 1208.11C163.313 1198.56 157.029 1187.6 148.965 1178C142.974 1170.86 139.523 1162.16 133.592 1155.04C132.202 1153.37 131.694 1151 130.569 1149.08C126.351 1141.86 121.733 1134.87 117.892 1127.46C115.576 1123 113.837 1118.19 111.605 1113.64C108.274 1106.85 104.637 1100.19 101.623 1093.27C97.9206 1084.76 94.5483 1076.09 91.3564 1067.38C87.3518 1056.44 83.9979 1045.26 79.7702 1034.41C75.1347 1022.53 73.3267 1009.93 69.6205 997.828C67.4054 990.596 66.4399 983.044 64.0167 975.926C62.5149 971.507 63.3702 966.35 59.821 962.606C59.6391 953.704 56.8515 945.222 55.5898 936.484C53.5921 922.638 50.6389 908.934 48.3926 895.123C47.1372 887.401 47.1124 879.444 45.4017 871.85C43.605 863.872 42.3632 855.851 41.9427 847.788C41.2251 834.042 39.7695 820.352 38.6705 806.648C37.3605 790.316 37.0493 773.94 35.772 757.629C35.2648 751.159 35.3301 744.669 34.555 738.189C33.4482 728.938 33.2557 719.538 33.7473 710.211C34.4201 697.458 34.1224 684.704 34.0549 671.959C34.0279 667.034 34.1295 662.046 33.7466 657.067C33.4397 653.072 34.2297 648.342 35.2257 644.167C36.4391 639.081 35.4011 634.084 36.0263 629.077C37.3086 618.82 36.2373 608.393 37.4642 598.204C38.586 588.888 39.339 579.513 40.7676 570.219C41.7842 563.6 42.0741 556.869 42.6595 550.186C43.4417 541.254 45.1474 532.438 46.1171 523.546C46.9049 516.322 48.8415 509.301 48.7606 501.852C48.7137 497.523 50.9664 492.94 51.8168 488.342C53.2909 480.368 55.8739 472.566 56.8962 464.552C57.7949 457.503 60.7239 451.14 62.1426 444.304C63.3674 438.4 64.4522 432.396 66.2453 426.681C68.0682 420.869 68.8653 414.861 70.6825 409.057C73.1029 401.33 74.3526 393.235 76.8 385.518C78.9092 378.87 80.3755 372.067 82.4243 365.418C82.6857 364.571 83.4075 364.161 83.9709 363.572C85.1402 362.347 86.5511 361.17 85.0003 359.086C84.179 357.982 85.1537 356.609 85.5743 355.385C87.6061 349.473 91.5695 344.401 93.1161 338.296C95.6182 328.419 100.411 319.455 104.786 310.417C109.503 300.672 112.708 290.273 118.673 281.025C124.695 271.692 129.273 261.439 134.965 251.875C137.607 247.436 141.76 243.915 144.577 239.557C151.672 228.583 160.317 218.775 168.178 208.407C171.295 204.296 174.709 199.958 178.392 196.027C185.248 188.71 192.674 181.97 199.428 174.573C202.711 170.978 205.824 167.196 209.378 163.889C212.714 160.784 216.658 158.341 220.111 155.348C235.903 141.665 252.266 128.751 269.851 117.416C279.44 111.236 288.769 104.648 298.441 98.6055C304.475 94.836 310.877 91.637 317.217 88.3826C321.079 86.3998 324.298 83.3905 328.454 81.8674C336.011 79.0989 342.439 74.0095 350.714 72.4139C358.493 70.9135 365.86 67.4978 373.138 64.0523C376.557 62.4332 380.662 61.7818 384.459 60.6934C390.637 58.9238 396.604 56.4657 402.764 54.8169C406.55 53.8045 410.384 52.7282 414.248 51.9226C415.902 51.5774 417.486 51.2733 418.773 50.1097C419.402 49.542 420.069 49.1279 420.985 49.1904C428.415 49.6948 435.213 46.5924 442.347 45.5012C447.327 44.7389 452.383 44.1351 457.211 42.8769C460.511 42.0173 464.325 43.4914 467.281 40.5197C468.013 39.7838 470.082 41.0192 471.791 40.919C480.182 40.4267 488.507 39.381 496.865 38.6066C503.047 38.0333 509.283 38.0376 515.495 37.779C523.775 37.4344 532.057 36.7872 540.334 36.8334C546.82 36.8689 553.318 37.6198 559.776 38.3615C561.664 38.5782 563.532 38.7331 565.401 38.6783C570.409 38.532 575.134 40.0978 579.993 40.8444C588.945 42.2205 597.941 43.3664 606.949 44.3112C612.851 44.93 618.302 47.4371 624.16 48.0423C633.17 48.9737 641.266 53.342 650.077 54.8282C654.618 55.5941 658.781 58.2354 663.652 57.4063C665.045 57.1691 665.798 58.8748 667.2 59.3543C680.327 63.8406 693.438 68.3872 706.45 73.1911C717.773 77.3712 728.452 82.9479 739.139 88.5517C743.975 91.0879 749.018 93.4521 753.869 95.9478C758.288 98.2219 762.764 100.72 766.974 103.565C774.109 108.387 781.304 113.202 788.866 117.29C802.022 124.402 812.883 134.582 824.918 143.179C829.417 146.393 832.425 151.079 836.858 154.415C844.648 160.279 850.923 167.919 858.703 173.839C861.214 175.75 862.193 178.836 864.338 181.03C869.868 186.689 874.53 193.085 879.67 199.075C882.639 202.536 885.917 205.744 889.181 208.936C892.082 211.773 893.489 215.595 896.036 218.686C902.021 225.948 906.818 234.09 912.582 241.543C915.145 244.857 916.951 249.298 919.581 252.074C922.961 255.639 922.377 261.419 927.257 263.811C927.845 264.099 927.565 266.796 928.629 268.485C933.932 276.906 938.234 285.895 942.732 294.767C947.097 303.377 951.645 311.904 955.701 320.658C958.765 327.271 960.822 334.361 964.389 340.744C970.69 352.021 973.449 364.516 977.323 376.646C979.783 384.351 983.366 391.669 985.463 399.527C986.763 404.403 988.576 409.145 989.8 414.037C992.14 423.382 994.222 432.792 996.414 442.174C998.945 453.004 1001.62 463.804 1003.97 474.675C1005.61 482.303 1007.62 489.829 1008.91 497.571C1010.73 508.469 1012.77 519.359 1014.92 530.215C1016.02 535.766 1015.74 541.578 1016.3 547.251C1017.4 558.409 1018.82 569.538 1019.81 580.705C1020.65 590.218 1022.23 599.645 1022.76 609.201C1023.18 616.927 1024.41 624.605 1024.99 632.326C1025.45 638.505 1025.43 644.714 1025.75 650.912C1026.44 664.111 1026.38 677.351 1027.21 690.538C1027.53 695.748 1026.92 701.016 1028.38 706.29C1028.94 708.321 1027.26 711.402 1027.6 714.064C1028.51 721.137 1028.64 728.189 1027.63 735.257C1026.34 744.256 1027.06 753.338 1026.53 762.382C1025.87 773.649 1025.62 784.931 1024.32 796.176C1023.42 803.991 1023.02 811.884 1022.62 819.769C1022.14 829.005 1020.56 838.183 1019.59 847.397C1018.51 857.67 1017.8 867.978 1016.5 878.222C1015.71 884.474 1013.65 890.52 1012.93 896.842C1011.82 906.547 1010.58 916.244 1009.01 925.884C1008.28 930.395 1007.03 934.963 1006.61 939.396C1005.93 946.508 1003.73 953.242 1001.74 959.814C999.608 966.854 997.538 973.972 995.428 981.041C992.197 991.853 990.013 1002.99 986.565 1013.73C984.432 1020.36 982.568 1027.11 980.009 1033.68C977.215 1040.86 974.742 1048.25 972.158 1055.55C968.286 1066.5 963.896 1077.23 959.096 1087.83C954.775 1097.37 949.484 1106.48 945.851 1116.3C943.355 1123.04 938.63 1128.42 935.765 1134.89C932.527 1142.2 927.566 1148.49 923.281 1155.17C920.881 1158.91 918.67 1162.81 916.67 1166.78C914.667 1170.76 912.351 1174.52 909.103 1177.51C905.875 1180.49 904.986 1184.82 902.228 1188.09C896.847 1194.47 892.532 1201.62 886.665 1207.76C881.698 1212.96 876.833 1218.72 873.941 1225.64C873.707 1226.19 873.429 1226.62 872.894 1226.97C863.395 1233.28 856.42 1242.3 848.622 1250.35C845.39 1253.7 841.47 1255.85 838.222 1259.02C832.609 1264.49 825.931 1268.72 820.449 1274.47C818.037 1277 814.313 1278.6 811.253 1280.74C806.145 1284.31 801.088 1287.93 796.221 1291.83C790.078 1296.75 783.399 1300.93 776.582 1304.8C769.24 1308.97 761.718 1312.9 754.519 1317.26C746.778 1321.94 738.665 1325.9 730.883 1330.47C726.6 1333 721.512 1333.99 717.046 1336.38C705.338 1342.65 692.687 1346.59 680.304 1351.22C671.903 1354.38 663.272 1356.84 654.722 1359.15C643.284 1362.23 631.925 1365.96 619.8 1366.72C613.532 1367.11 607.205 1369.38 600.792 1370.24C597.192 1370.73 593.59 1371.19 588.387 1371.88Z" fill="#181818"/>
</svg>
