<svg width="329" height="328" viewBox="0 0 329 328" fill="none" xmlns="http://www.w3.org/2000/svg">
<path d="M318.796 172.427C319.072 175.267 320.584 177.35 323.166 177.499C325.774 177.651 327.576 175.605 327.804 171.68L328.212 164.63L327.773 164.605C327.673 166.335 327.264 167.14 325.559 167.041L312.442 166.281C310.815 166.187 310.476 165.338 310.576 163.608L310.137 163.583L309.763 170.038L310.202 170.064C310.317 168.076 310.71 167.554 312.363 167.65L318.947 168.032L318.787 170.794L309.315 177.759L309.132 181.376L309.545 181.4C309.674 179.179 310.915 178.318 315.085 175.218L318.796 172.427ZM325.48 168.41C327.288 168.515 327.514 169.072 327.41 170.88C327.185 174.753 325.367 176.176 323.12 176.046C320.745 175.908 319.226 173.955 319.402 170.908L319.567 168.067L325.48 168.41Z" fill="#DFD4BF"/>
<path d="M311.156 196.037C307.679 193.815 307.557 193.296 308.499 187.789C308.822 185.902 309.134 185.457 310.74 185.732L317.369 186.865L316.719 190.664C316.528 191.786 315.732 191.991 313.896 191.677L313.826 192.085L319.486 193.052L319.556 192.645C317.848 192.352 317.029 191.924 317.234 190.726L317.879 186.952L323.819 187.968C325.4 188.238 325.533 188.996 325.249 190.653C324.526 194.885 324.239 195.335 320.221 196.275L320.274 196.73L326.014 195.848L325.982 195.423C324.885 195.393 325.074 194.9 325.292 193.625L326.809 184.753L326.35 184.675C326.067 186.332 325.631 186.887 324.05 186.617L310.971 184.38C309.365 184.106 309.129 183.488 309.421 181.78L308.963 181.702L307.223 191.874C307.01 193.123 307.05 193.655 306.005 193.319L305.834 193.71L310.954 196.448L311.156 196.037Z" fill="#DFD4BF"/>
<path d="M310.642 214.906C316.584 216.613 320.14 214.351 322.083 207.59L323.912 201.226L323.489 201.104C323.025 202.72 322.434 203.465 320.868 203.015L308.14 199.358C306.574 198.908 306.454 198.013 306.933 196.347L306.51 196.226L304.481 203.286C302.867 208.904 305.049 213.298 310.642 214.906ZM304.947 203.258C305.697 200.648 306.195 200.226 307.736 200.668L320.489 204.333C322.055 204.783 322.268 205.355 321.66 207.468C319.968 213.36 316.121 214.946 311.05 213.489C305.257 211.824 303.468 208.404 304.947 203.258Z" fill="#DFD4BF"/>
<path d="M300.509 227.51C297.61 224.573 297.607 224.04 299.745 218.878C300.477 217.11 300.88 216.745 302.386 217.368L308.599 219.942L307.124 223.502C306.689 224.554 305.867 224.577 304.147 223.865L303.988 224.247L309.293 226.444L309.452 226.062C307.851 225.399 307.147 224.8 307.612 223.676L309.077 220.14L314.645 222.446C316.127 223.06 316.088 223.828 315.445 225.381C313.802 229.348 313.423 229.723 309.296 229.749L309.248 230.205L315.04 230.617L315.103 230.195C314.04 229.922 314.334 229.484 314.828 228.289L318.273 219.973L317.843 219.795C317.199 221.348 316.651 221.793 315.17 221.179L302.91 216.102C301.405 215.478 301.312 214.824 301.975 213.223L301.545 213.045L297.596 222.579C297.111 223.75 297.033 224.278 296.088 223.719L295.834 224.062L300.222 227.866L300.509 227.51Z" fill="#DFD4BF"/>
<path d="M293.199 241.227C290.62 238.005 290.673 237.474 293.335 232.562C294.247 230.88 294.686 230.559 296.118 231.335L302.031 234.54L300.194 237.928C299.652 238.929 298.832 238.867 297.195 237.979L296.998 238.343L302.046 241.079L302.243 240.716C300.72 239.89 300.082 239.221 300.661 238.152L302.486 234.786L307.784 237.658C309.194 238.422 309.076 239.182 308.275 240.661C306.229 244.435 305.813 244.769 301.706 244.367L301.61 244.815L307.329 245.826L307.435 245.413C306.406 245.031 306.743 244.626 307.36 243.489L311.649 235.576L311.24 235.354C310.438 236.832 309.847 237.217 308.437 236.453L296.772 230.13C295.339 229.353 295.315 228.693 296.14 227.169L295.731 226.948L290.813 236.021C290.209 237.135 290.076 237.651 289.195 236.997L288.907 237.312L292.876 241.552L293.199 241.227Z" fill="#DFD4BF"/>
<path d="M291.09 267.97L292.897 265.447L283.961 249.851L301.784 253.041L303.652 250.434L303.294 250.178C302.285 251.586 301.448 252.132 300.103 251.169L289.379 243.487C288.033 242.523 288.281 241.555 289.29 240.146L288.932 239.89L285.453 244.747L285.81 245.004C286.97 243.384 287.641 243.07 288.966 244.019L298.723 251.007L282.938 248.259L282.591 248.743L290.417 262.557L280.661 255.569C279.357 254.635 279.62 253.646 280.614 252.258L280.257 252.002L276.371 257.427L276.728 257.683C277.903 256.043 278.559 255.749 279.884 256.698L290.65 264.41C291.974 265.359 291.892 266.095 290.732 267.714L291.09 267.97Z" fill="#DFD4BF"/>
<path d="M267.101 279.521C265.279 281.718 264.866 284.257 266.578 286.196C268.308 288.154 271.03 287.992 273.976 285.389L279.268 280.714L278.977 280.384C277.678 281.532 276.818 281.808 275.688 280.529L266.988 270.682C265.909 269.461 266.273 268.622 267.571 267.475L267.28 267.145L262.434 271.426L262.725 271.756C264.218 270.437 264.865 270.349 265.961 271.59L270.328 276.533L268.254 278.365L256.638 276.547L253.942 278.964L254.216 279.274C255.883 277.801 257.368 278.076 262.506 278.852L267.101 279.521ZM274.661 281.437C275.859 282.794 275.623 283.347 274.267 284.546C271.359 287.115 269.068 286.826 267.578 285.14C266.003 283.357 266.319 280.902 268.607 278.882L270.739 276.998L274.661 281.437Z" fill="#DFD4BF"/>
<path d="M244.942 290.753C244.061 286.722 244.343 286.269 248.909 283.049C250.473 281.946 251.009 281.853 251.948 283.185L255.824 288.68L252.674 290.902C251.744 291.558 251.037 291.138 249.964 289.617L249.626 289.855L252.935 294.547L253.273 294.309C252.275 292.893 252 292.01 252.994 291.309L256.122 289.103L259.596 294.028C260.52 295.338 260.077 295.967 258.703 296.936C255.194 299.411 254.674 299.525 251.172 297.342L250.887 297.701L255.563 301.145L255.842 300.822C255.089 300.024 255.571 299.81 256.628 299.065L263.983 293.877L263.715 293.496C262.341 294.465 261.64 294.548 260.716 293.238L253.068 282.395C252.129 281.063 252.4 280.46 253.816 279.461L253.548 279.081L245.114 285.029C244.079 285.76 243.73 286.164 243.231 285.186L242.833 285.34L244.508 290.901L244.942 290.753Z" fill="#DFD4BF"/>
<path d="M231.225 303.667C234.211 309.08 238.323 310.002 244.483 306.604L250.281 303.405L250.069 303.02C248.596 303.832 247.652 303.94 246.864 302.513L240.468 290.918C239.681 289.491 240.231 288.774 241.748 287.937L241.536 287.552L235.104 291.1C229.985 293.923 228.414 298.571 231.225 303.667ZM235.452 291.41C237.83 290.098 238.48 290.153 239.255 291.557L245.664 303.176C246.451 304.602 246.196 305.157 244.271 306.219C238.903 309.18 235.064 307.575 232.516 302.955C229.605 297.678 230.764 293.996 235.452 291.41Z" fill="#DFD4BF"/>
<path d="M215.361 305.287C215.387 301.16 215.762 300.781 220.924 298.643C222.692 297.911 223.235 297.938 223.859 299.443L226.432 305.656L222.872 307.131C221.82 307.567 221.222 307.002 220.51 305.282L220.127 305.44L222.325 310.745L222.707 310.587C222.044 308.986 221.97 308.064 223.093 307.599L226.63 306.134L228.936 311.702C229.55 313.184 228.98 313.7 227.427 314.343C223.46 315.986 222.926 315.983 219.99 313.084L219.633 313.372L223.438 317.759L223.781 317.505C223.222 316.561 223.739 316.458 224.934 315.964L233.25 312.519L233.072 312.089C231.519 312.732 230.816 312.659 230.203 311.178L225.125 298.919C224.502 297.413 224.899 296.885 226.5 296.222L226.322 295.792L216.787 299.741C215.616 300.226 215.188 300.543 214.915 299.48L214.493 299.543L214.905 305.336L215.361 305.287Z" fill="#DFD4BF"/>
<path d="M200.517 309.78C200.977 305.679 201.39 305.342 206.748 303.758C208.583 303.216 209.121 303.299 209.582 304.862L211.489 311.311L207.793 312.404C206.701 312.726 206.166 312.102 205.638 310.316L205.241 310.434L206.869 315.94L207.266 315.823C206.775 314.161 206.798 313.237 207.964 312.892L211.635 311.807L213.343 317.587C213.798 319.125 213.177 319.578 211.564 320.055C207.447 321.272 206.917 321.212 204.301 318.021L203.916 318.269L207.239 323.032L207.606 322.816C207.15 321.818 207.675 321.771 208.915 321.404L217.547 318.853L217.415 318.406C215.803 318.883 215.112 318.736 214.658 317.198L210.897 304.474C210.435 302.911 210.886 302.427 212.548 301.936L212.416 301.49L202.519 304.415C201.303 304.774 200.844 305.044 200.685 303.959L200.258 303.977L200.059 309.781L200.517 309.78Z" fill="#DFD4BF"/>
<path d="M180.041 327.165L183.104 326.665L187.85 309.328L198.166 324.209L201.331 323.692L201.26 323.258C199.55 323.537 198.573 323.33 198.306 321.696L196.183 308.677C195.916 307.043 196.777 306.536 198.487 306.257L198.417 305.823L192.52 306.784L192.59 307.218C194.556 306.898 195.253 307.151 195.515 308.759L197.447 320.604L188.256 307.48L187.669 307.576L183.402 322.869L181.47 311.024C181.212 309.441 182.098 308.93 183.783 308.655L183.712 308.221L177.126 309.295L177.197 309.729C179.188 309.404 179.859 309.662 180.121 311.27L182.253 324.341C182.516 325.949 181.936 326.41 179.97 326.731L180.041 327.165Z" fill="#DFD4BF"/>
<path d="M154.399 318.28C151.557 318.534 149.463 320.03 149.293 322.611C149.122 325.217 151.154 327.036 155.077 327.293L162.123 327.756L162.152 327.317C160.423 327.204 159.621 326.788 159.732 325.085L160.594 311.973C160.7 310.347 161.552 310.014 163.281 310.128L163.31 309.689L156.857 309.266L156.829 309.704C158.816 309.835 159.334 310.232 159.226 311.884L158.793 318.465L156.032 318.284L149.14 308.759L145.525 308.547L145.498 308.96C147.718 309.106 148.569 310.354 151.637 314.548L154.399 318.28ZM158.365 324.995C158.246 326.802 157.687 327.024 155.88 326.905C152.009 326.651 150.6 324.822 150.747 322.576C150.903 320.202 152.868 318.698 155.914 318.898L158.753 319.084L158.365 324.995Z" fill="#DFD4BF"/>
<path d="M130.758 310.42C133.006 306.959 133.526 306.842 139.026 307.826C140.91 308.163 141.353 308.479 141.066 310.083L139.882 316.703L136.088 316.024C134.968 315.824 134.769 315.026 135.097 313.193L134.69 313.12L133.678 318.772L134.086 318.845C134.391 317.139 134.826 316.324 136.023 316.538L139.791 317.212L138.73 323.144C138.447 324.723 137.689 324.85 136.034 324.554C131.807 323.798 131.36 323.508 130.451 319.483L129.995 319.533L130.833 325.279L131.259 325.25C131.297 324.153 131.788 324.346 133.061 324.574L141.922 326.159L142.004 325.701C140.349 325.405 139.797 324.964 140.079 323.386L142.416 310.324C142.702 308.72 143.322 308.489 145.028 308.794L145.11 308.336L134.951 306.519C133.703 306.296 133.171 306.332 133.515 305.29L133.126 305.115L130.348 310.215L130.758 310.42Z" fill="#DFD4BF"/>
<path d="M111.982 309.753C110.23 315.682 112.465 319.255 119.211 321.249L125.561 323.126L125.686 322.704C124.074 322.228 123.333 321.631 123.795 320.068L127.548 307.368C128.01 305.806 128.907 305.693 130.569 306.184L130.693 305.763L123.649 303.681C118.043 302.024 113.632 304.172 111.982 309.753ZM123.673 304.146C126.277 304.916 126.696 305.417 126.241 306.955L122.48 319.68C122.018 321.243 121.444 321.451 119.336 320.827C113.457 319.09 111.901 315.231 113.396 310.171C115.104 304.392 118.538 302.629 123.673 304.146Z" fill="#DFD4BF"/>
<path d="M99.7141 299.608C102.672 296.73 103.205 296.731 108.351 298.908C110.114 299.653 110.476 300.059 109.841 301.56L107.221 307.754L103.672 306.252C102.624 305.809 102.606 304.987 103.332 303.272L102.95 303.111L100.714 308.399L101.095 308.56C101.77 306.964 102.374 306.265 103.494 306.739L107.02 308.23L104.672 313.781C104.047 315.258 103.28 315.214 101.731 314.559C97.7767 312.886 97.4047 312.504 97.4089 308.378L96.9535 308.325L96.4987 314.115L96.9202 314.181C97.2005 313.12 97.6366 313.417 98.8277 313.92L107.118 317.427L107.299 316.998C105.751 316.343 105.31 315.792 105.935 314.315L111.104 302.094C111.738 300.593 112.393 300.505 113.99 301.18L114.171 300.751L104.666 296.731C103.499 296.237 102.972 296.155 103.538 295.215L103.197 294.958L99.3595 299.317L99.7141 299.608Z" fill="#DFD4BF"/>
<path d="M86.1217 292.263C89.353 289.697 89.8834 289.751 94.7853 292.431C96.4647 293.35 96.7842 293.79 96.0024 295.219L92.7759 301.12L89.3945 299.271C88.396 298.725 88.4608 297.905 89.3543 296.271L88.9912 296.073L86.2363 301.111L86.5994 301.309C87.4308 299.789 88.1024 299.154 89.169 299.737L92.5277 301.574L89.6362 306.861C88.8669 308.268 88.1073 308.148 86.6322 307.341C82.865 305.281 82.5331 304.864 82.9503 300.758L82.5024 300.661L81.4705 306.376L81.8832 306.484C82.2682 305.456 82.6725 305.795 83.8072 306.415L91.7047 310.734L91.9281 310.326C90.453 309.519 90.0696 308.926 90.839 307.519L97.2052 295.877C97.987 294.447 98.6476 294.425 100.168 295.257L100.391 294.848L91.3365 289.897C90.2245 289.289 89.7086 289.154 90.366 288.275L90.0525 287.986L85.798 291.939L86.1217 292.263Z" fill="#DFD4BF"/>
<path d="M59.3426 289.908L61.8526 291.734L77.5136 282.911L74.1935 300.711L76.7872 302.597L77.0459 302.242C75.6445 301.222 75.1045 300.382 76.0782 299.043L83.838 288.376C84.8118 287.037 85.7778 287.292 87.1792 288.311L87.4379 287.956L82.6061 284.441L82.3475 284.797C83.9581 285.968 84.268 286.641 83.3094 287.959L76.2495 297.664L79.113 281.9L78.6319 281.55L64.7605 289.275L71.8204 279.57C72.7637 278.273 73.7507 278.543 75.1312 279.547L75.3898 279.192L69.9933 275.266L69.7347 275.622C71.3662 276.809 71.6552 277.467 70.6966 278.784L62.9064 289.494C61.9478 290.811 61.2119 290.724 59.6013 289.552L59.3426 289.908Z" fill="#DFD4BF"/>
<path d="M48.12 266.018C45.9305 264.189 43.3922 263.766 41.4476 265.471C39.4835 267.194 39.6351 269.916 42.2274 272.872L46.8834 278.181L47.2139 277.891C46.0713 276.588 45.7978 275.727 47.0812 274.601L56.9598 265.938C58.1849 264.863 59.0223 265.23 60.165 266.532L60.4956 266.243L56.2319 261.381L55.9013 261.671C57.2145 263.168 57.3004 263.815 56.0559 264.907L51.0971 269.256L49.2723 267.175L51.1325 255.567L48.7254 252.861L48.4142 253.134C49.881 254.807 49.6004 256.291 48.8058 261.426L48.12 266.018ZM46.1773 273.571C44.8161 274.765 44.2635 274.527 43.0696 273.166C40.5114 270.249 40.8081 267.959 42.4999 266.475C44.2889 264.906 46.7419 265.232 48.7544 267.526L50.6304 269.665L46.1773 273.571Z" fill="#DFD4BF"/>
<path d="M36.9825 243.736C41.0202 242.885 41.4705 243.17 44.6571 247.759C45.7489 249.332 45.838 249.868 44.4995 250.797L38.9757 254.633L36.7775 251.468C36.1284 250.533 36.5527 249.829 38.0824 248.767L37.8463 248.427L33.1298 251.702L33.3659 252.042C34.7893 251.053 35.674 250.785 36.3674 251.784L38.5508 254.928L33.6006 258.366C32.2834 259.28 31.6579 258.833 30.6989 257.452C28.2499 253.925 28.1396 253.404 30.348 249.918L29.9909 249.63L26.5131 254.281L26.8342 254.562C27.638 253.815 27.848 254.299 28.5857 255.361L33.7197 262.755L34.1021 262.489C33.1432 261.108 33.0653 260.406 34.3825 259.492L45.2814 251.923C46.6199 250.994 47.2206 251.27 48.2091 252.693L48.5915 252.428L42.7051 243.951C41.9822 242.91 41.5809 242.558 42.5617 242.066L42.4106 241.667L36.8379 243.301L36.9825 243.736Z" fill="#DFD4BF"/>
<path d="M24.1667 229.965C18.7319 232.911 17.7798 237.016 21.1324 243.201L24.2878 249.023L24.6743 248.813C23.8732 247.335 23.7725 246.389 25.2051 245.613L36.8478 239.302C38.2804 238.525 38.9931 239.08 39.819 240.604L40.2055 240.395L36.705 233.936C33.9194 228.797 29.2831 227.191 24.1667 229.965ZM36.3924 234.282C37.6866 236.67 37.6271 237.32 36.2172 238.084L24.5518 244.407C23.1192 245.184 22.5666 244.924 21.519 242.992C18.5978 237.602 20.2304 233.775 24.8693 231.261C30.1676 228.389 33.841 229.575 36.3924 234.282Z" fill="#DFD4BF"/>
<path d="M22.6196 214.045C26.7457 214.103 27.1221 214.481 29.2214 219.658C29.9405 221.432 29.9095 221.975 28.3993 222.587L22.1671 225.114L20.719 221.542C20.2914 220.488 20.8602 219.894 22.5861 219.195L22.4306 218.811L17.1092 220.969L17.2647 221.352C18.8707 220.701 19.7926 220.634 20.2494 221.761L21.6877 225.308L16.1027 227.573C14.6166 228.175 14.1047 227.601 13.473 226.043C11.8597 222.064 11.8668 221.531 14.7879 218.616L14.5028 218.257L10.0872 222.029L10.3386 222.374C11.287 221.822 11.3855 222.34 11.8714 223.539L15.2535 231.88L15.685 231.705C15.0533 230.147 15.1316 229.446 16.6178 228.843L28.9144 223.858C30.4245 223.245 30.95 223.646 31.6011 225.252L32.0326 225.077L28.1548 215.513C27.6786 214.339 27.3644 213.908 28.4295 213.644L28.3698 213.221L22.5742 213.589L22.6196 214.045Z" fill="#DFD4BF"/>
<path d="M18.273 199.445C22.3721 199.92 22.7082 200.334 24.2714 205.698C24.807 207.536 24.721 208.073 23.1566 208.529L16.7002 210.41L15.6219 206.71C15.3034 205.618 15.9295 205.085 17.7174 204.564L17.6016 204.167L12.0888 205.773L12.2046 206.171C13.8684 205.686 14.7923 205.713 15.1324 206.88L16.2035 210.555L10.4176 212.241C8.87803 212.69 8.42706 212.067 7.95665 210.453C6.75529 206.331 6.81645 205.801 10.0181 203.198L9.7709 202.812L4.99546 206.116L5.21058 206.485C6.21012 206.032 6.25553 206.557 6.61738 207.799L9.13589 216.44L9.58287 216.31C9.11246 214.696 9.26159 214.006 10.8012 213.557L23.5401 209.845C25.1046 209.389 25.5866 209.841 26.0715 211.505L26.5185 211.375L23.6309 201.466C23.2762 200.25 23.0073 199.789 24.0937 199.634L24.0773 199.208L18.2742 198.986L18.273 199.445Z" fill="#DFD4BF"/>
<path d="M0.960208 178.528L1.43637 181.595L18.7365 186.474L3.77753 196.675L4.26957 199.844L4.70407 199.777C4.43821 198.064 4.65319 197.089 6.28898 196.835L19.3241 194.811C20.9599 194.557 21.4606 195.422 21.7265 197.134L22.161 197.067L21.2444 191.162L20.8098 191.23C21.1154 193.198 20.8568 193.892 19.2465 194.142L7.38709 195.984L20.5817 186.894L20.4904 186.306L5.23022 181.922L17.0897 180.081C18.6743 179.835 19.179 180.725 19.4409 182.412L19.8754 182.344L18.8516 175.75L18.4171 175.818C18.7266 177.811 18.464 178.48 16.8538 178.73L3.76751 180.762C2.15728 181.012 1.70025 180.428 1.39471 178.46L0.960208 178.528Z" fill="#DFD4BF"/>
<path d="M9.99816 152.975C9.76608 150.131 8.28679 148.025 5.7072 147.836C3.10181 147.644 1.26787 149.662 0.979971 153.583L0.462891 160.625L0.901421 160.658C1.02832 158.929 1.45008 158.13 3.15261 158.255L16.2569 159.218C17.8821 159.337 18.2084 160.191 18.0815 161.919L18.52 161.951L18.9935 155.502L18.555 155.47C18.4092 157.456 18.0082 157.972 16.3573 157.85L9.77935 157.367L9.98202 154.607L19.5599 147.789L19.7992 144.176L19.3865 144.146C19.2236 146.364 17.9688 147.206 13.7519 150.242L9.99816 152.975ZM3.25299 156.888C1.44728 156.756 1.22909 156.195 1.36168 154.389C1.64579 150.52 3.48586 149.125 5.73011 149.29C8.10333 149.464 9.5921 151.44 9.3686 154.484L9.16025 157.322L3.25299 156.888Z" fill="#DFD4BF"/>
<path d="M17.9699 129.646C21.413 131.921 21.5262 132.442 20.5004 137.934C20.149 139.815 19.8299 140.255 18.2281 139.956L11.6174 138.722L12.325 134.933C12.534 133.814 13.333 133.622 15.1637 133.963L15.2397 133.557L9.59519 132.502L9.5192 132.909C11.2227 133.227 12.035 133.669 11.8118 134.864L11.1089 138.627L5.18474 137.52C3.60835 137.226 3.48706 136.466 3.79574 134.814C4.58407 130.593 4.8777 130.148 8.9097 129.269L8.86331 128.813L3.11047 129.607L3.13619 130.033C4.23256 130.08 4.03588 130.569 3.79843 131.841L2.1458 140.689L2.60346 140.774C2.91214 139.122 3.35665 138.573 4.93304 138.868L17.9764 141.304C19.5782 141.603 19.8043 142.224 19.4861 143.928L19.9438 144.013L21.8386 133.868C22.0713 132.622 22.0391 132.09 23.0785 132.442L23.2562 132.054L18.1777 129.238L17.9699 129.646Z" fill="#DFD4BF"/>
<path d="M18.7206 110.9C12.8057 109.103 9.21563 111.31 7.17061 118.042L5.24589 124.377L5.66662 124.505C6.15531 122.897 6.75742 122.16 8.31658 122.634L20.9878 126.484C22.547 126.957 22.6529 127.854 22.1491 129.513L22.5698 129.64L24.7051 122.612C26.4043 117.019 24.289 112.592 18.7206 110.9ZM24.2393 122.633C23.4498 125.231 22.9454 125.646 21.411 125.179L8.71505 121.322C7.1559 120.849 6.95227 120.273 7.59134 118.17C9.37321 112.304 13.2434 110.777 18.2921 112.311C24.0585 114.062 25.7956 117.51 24.2393 122.633Z" fill="#DFD4BF"/>
<path d="M28.752 98.998C31.6181 101.967 31.6152 102.5 29.4196 107.637C28.6675 109.398 28.2603 109.758 26.7619 109.118L20.5779 106.475L22.0925 102.931C22.5397 101.884 23.3616 101.87 25.0741 102.602L25.2367 102.221L19.9566 99.9647L19.794 100.345C21.3875 101.026 22.0844 101.633 21.6066 102.751L20.1022 106.271L14.5605 103.903C13.0859 103.273 13.1327 102.505 13.7934 100.959C15.4807 97.011 15.8641 96.6405 19.9906 96.66L20.0445 96.2049L14.2567 95.7285L14.1892 96.1497C15.2492 96.4339 14.9507 96.8689 14.4425 98.0582L10.9052 106.335L11.3333 106.518C11.994 104.972 12.5471 104.533 14.0218 105.164L26.2231 110.378C27.7215 111.019 27.8071 111.674 27.1261 113.267L27.5542 113.45L31.6099 103.96C32.108 102.795 32.1924 102.269 33.1303 102.838L33.3881 102.498L29.0437 98.6445L28.752 98.998Z" fill="#DFD4BF"/>
<path d="M36.1788 85.3736C38.7215 88.6237 38.6634 89.1538 35.9468 94.0357C35.0161 95.7083 34.5737 96.0245 33.1498 95.2322L27.2733 91.9622L29.1473 88.5945C29.7007 87.6 30.5196 87.6709 32.1469 88.5765L32.3482 88.2149L27.3306 85.4228L27.1294 85.7844C28.6437 86.6271 29.2738 87.3033 28.6827 88.3656L26.8213 91.7106L21.5551 88.7802C20.1538 88.0005 20.2799 87.2419 21.0974 85.7727C23.1852 82.0209 23.6049 81.692 27.7072 82.1395L27.808 81.6924L22.1008 80.6183L21.99 81.0302C23.0147 81.4228 22.6728 81.8245 22.044 82.9546L17.6672 90.82L18.074 91.0464C18.8915 89.5773 19.4872 89.1984 20.8885 89.9781L32.4832 96.43C33.9071 97.2224 33.9242 97.8831 33.0816 99.3974L33.4884 99.6238L38.5066 90.6057C39.1229 89.4983 39.2614 88.9833 40.1352 89.6472L40.4268 89.3359L36.5056 85.0523L36.1788 85.3736Z" fill="#DFD4BF"/>
<path d="M39.0048 58.0873L37.1607 60.5839L45.8682 76.3089L28.0938 72.8589L26.1882 75.4387L26.5419 75.7C27.5715 74.306 28.416 73.7722 29.7475 74.7557L40.3581 82.5932C41.6897 83.5768 41.4277 84.5409 40.3981 85.9348L40.7517 86.1961L44.3017 81.3901L43.948 81.1288C42.7647 82.7308 42.0892 83.0358 40.7785 82.0677L31.1249 74.9371L46.8681 77.9156L47.2215 77.4371L39.5979 63.5096L49.2515 70.6402C50.5414 71.593 50.2641 72.5779 49.2498 73.9511L49.6035 74.2123L53.5683 68.8446L53.2147 68.5834C52.016 70.2062 51.3559 70.4903 50.0452 69.5222L39.393 61.654C38.0822 60.6858 38.1752 59.9505 39.3585 58.3485L39.0048 58.0873Z" fill="#DFD4BF"/>
<path d="M62.5332 47.384C64.3788 45.2078 64.8201 42.6726 63.1288 40.7157C61.4206 38.7392 58.697 38.8709 55.7224 41.4417L50.3799 46.0589L50.6674 46.3916C51.9786 45.2584 52.8416 44.9912 53.9579 46.2828L62.5496 56.2241C63.6151 57.457 63.2426 58.2918 61.9314 59.4249L62.219 59.7576L67.1114 55.5294L66.8238 55.1967C65.317 56.499 64.6692 56.5802 63.5868 55.3277L59.274 50.3375L61.368 48.5278L72.9627 50.4724L75.6855 48.085L75.4149 47.7719C73.7319 49.2264 72.2494 48.9351 67.1203 48.1032L62.5332 47.384ZM54.995 45.3864C53.8111 44.0165 54.053 43.4656 55.4229 42.2817C58.3583 39.7448 60.6461 40.0581 62.1175 41.7607C63.6735 43.5611 63.33 46.0117 61.0208 48.0074L58.8681 49.8678L54.995 45.3864Z" fill="#DFD4BF"/>
<path d="M84.9832 36.2581C85.805 40.302 85.5161 40.7501 80.9039 43.9031C79.3238 44.9833 78.7867 45.0685 77.8671 43.7232L74.0719 38.1715L77.2534 35.9965C78.193 35.3543 78.8939 35.7837 79.9449 37.3211L80.2865 37.0876L77.046 32.3473L76.7043 32.5808C77.6823 34.0115 77.9437 34.898 76.9402 35.5841L73.7799 37.7444L70.3788 32.7692C69.4738 31.4454 69.9257 30.8231 71.3136 29.8743C74.8582 27.4512 75.3807 27.3447 78.8503 29.5785L79.1403 29.2236L74.5151 25.7119L74.2319 26.0308C74.9731 26.8401 74.4876 27.0466 73.42 27.7764L65.9892 32.8562L66.252 33.2406C67.6399 32.2918 68.3421 32.219 69.2471 33.5429L76.7354 44.4969C77.655 45.8421 77.375 46.4408 75.9444 47.4188L76.2071 47.8032L84.7269 41.9789C85.7732 41.2637 86.1273 40.865 86.6122 41.8494L87.0123 41.7012L85.4191 36.1167L84.9832 36.2581Z" fill="#DFD4BF"/>
<path d="M98.9644 23.4172C96.0588 17.9608 91.9605 16.9784 85.7507 20.2852L79.9062 23.3974L80.1129 23.7855C81.5968 22.9953 82.5433 22.9016 83.3092 24.3399L89.5337 36.0289C90.2996 37.4672 89.7393 38.1759 88.2096 38.9904L88.4163 39.3785L94.9001 35.9259C100.06 33.1783 101.7 28.554 98.9644 23.4172ZM94.5564 35.6107C92.1593 36.8872 91.5096 36.8229 90.7559 35.4074L84.5192 23.6956C83.7533 22.2573 84.0168 21.7066 85.9574 20.6733C91.3681 17.792 95.183 19.4529 97.6631 24.1102C100.496 29.4296 99.2823 33.0941 94.5564 35.6107Z" fill="#DFD4BF"/>
<path d="M115.173 21.8366C115.085 25.9622 114.704 26.3358 109.511 28.3962C107.732 29.1021 107.189 29.0669 106.588 27.5523L104.108 21.3013L107.69 19.88C108.748 19.4603 109.337 20.0335 110.024 21.7646L110.409 21.6119L108.291 16.2746L107.907 16.4272C108.546 18.038 108.606 18.9604 107.476 19.4087L103.917 20.8205L101.695 15.2187C101.103 13.7281 101.681 13.2205 103.244 12.6005C107.235 11.0171 107.768 11.0281 110.661 13.9709L111.022 13.6886L107.283 9.24484L106.937 9.49364C107.481 10.4462 106.962 10.5408 105.76 11.0177L97.3937 14.3373L97.5654 14.77C99.1281 14.15 99.8291 14.2336 100.421 15.7242L105.314 28.0578C105.915 29.5725 105.51 30.0949 103.899 30.734L104.071 31.1668L113.664 27.3607C114.842 26.8933 115.275 26.5823 115.531 27.6494L115.954 27.5929L115.629 21.7947L115.173 21.8366Z" fill="#DFD4BF"/>
<path d="M129.402 17.7074C128.895 21.8027 128.479 22.1357 123.104 23.6583C121.262 24.1799 120.726 24.0898 120.282 22.522L118.449 16.0515L122.157 15.0013C123.252 14.6911 123.78 15.3212 124.287 17.113L124.686 17.0002L123.121 11.4754L122.723 11.5882C123.195 13.2556 123.161 14.1793 121.991 14.5106L118.308 15.5538L116.666 9.75529C116.229 8.21233 116.855 7.7661 118.472 7.30793C122.604 6.13783 123.133 6.20299 125.712 9.42426L126.1 9.18L122.831 4.37967L122.461 4.592C122.907 5.59493 122.381 5.63636 121.137 5.9888L112.476 8.44179L112.603 8.88974C114.221 8.43157 114.91 8.58592 115.347 10.1289L118.963 22.8956C119.407 24.4634 118.951 24.942 117.283 25.4143L117.41 25.8622L127.34 23.0498C128.559 22.7044 129.022 22.439 129.169 23.5265L129.595 23.5132L129.861 17.712L129.402 17.7074Z" fill="#DFD4BF"/>
<path d="M149.86 0.53941L146.791 1.00381L141.846 18.2851L131.702 3.28713L128.531 3.76701L128.597 4.20178C130.31 3.94248 131.285 4.1612 131.533 5.79795L133.507 18.8408C133.754 20.4775 132.888 20.9749 131.174 21.2342L131.24 21.6689L137.148 20.775L137.082 20.3402C135.113 20.6382 134.419 20.3769 134.175 18.7657L132.38 6.89931L141.419 20.1287L142.007 20.0397L146.449 4.79637L148.245 16.6628C148.485 18.2484 147.593 18.7496 145.905 19.005L145.971 19.4398L152.569 18.4413L152.503 18.0066C150.508 18.3084 149.84 18.0433 149.597 16.4321L147.615 3.33813C147.371 1.72695 147.957 1.27216 149.926 0.974172L149.86 0.53941Z" fill="#DFD4BF"/>
<path d="M175.382 9.57151C178.227 9.35039 180.338 7.87922 180.537 5.30038C180.739 2.69575 178.728 0.854046 174.808 0.551044L167.768 0.00683594L167.734 0.445239C169.462 0.578799 170.259 1.00363 170.127 2.70566L169.115 15.8062C168.989 17.4308 168.134 17.7539 166.406 17.6203L166.372 18.0587L172.819 18.5571L172.853 18.1187C170.868 17.9652 170.354 17.5623 170.481 15.9118L170.99 9.33578L173.749 9.54908L180.53 19.1531L184.142 19.4064L184.174 18.9938C181.957 18.8224 181.12 17.5643 178.1 13.3358L175.382 9.57151ZM171.494 2.81131C171.634 1.00613 172.195 0.790104 174 0.929644C177.869 1.22866 179.257 3.07409 179.083 5.31769C178.9 7.69022 176.917 9.17136 173.874 8.93614L171.038 8.71686L171.494 2.81131Z" fill="#DFD4BF"/>
<path d="M199.626 17.7892C197.325 21.2148 196.803 21.324 191.319 20.2563C189.44 19.8905 189.002 19.5681 189.314 17.9686L190.599 11.3676L194.382 12.1041C195.499 12.3216 195.686 13.1221 195.33 14.9501L195.736 15.0292L196.833 9.39292L196.427 9.31383C196.096 11.0149 195.649 11.8237 194.455 11.5914L190.698 10.8598L191.85 4.94425C192.156 3.37015 192.917 3.25468 194.567 3.57598C198.781 4.39655 199.224 4.69358 200.072 8.73218L200.528 8.68927L199.778 2.93053L199.352 2.953C199.297 4.04898 198.809 3.84856 197.54 3.6014L188.704 1.88118L188.615 2.33817C190.266 2.65948 190.811 3.10816 190.504 4.68226L187.968 17.7066C187.657 19.3061 187.034 19.5274 185.333 19.1962L185.244 19.6532L195.374 21.6255C196.618 21.8677 197.151 21.8397 196.791 22.8763L197.177 23.057L200.033 18.0002L199.626 17.7892Z" fill="#DFD4BF"/>
<path d="M218.353 18.6728C220.195 12.7716 218.015 9.16496 211.299 7.06912L204.978 5.09657L204.847 5.51632C206.452 6.01716 207.183 6.62481 206.698 8.18035L202.753 20.8221C202.267 22.3777 201.369 22.4768 199.715 21.9605L199.584 22.3803L206.596 24.5686C212.176 26.3099 216.619 24.2282 218.353 18.6728ZM206.579 24.1026C203.987 23.2935 203.576 22.786 204.054 21.2552L208.006 8.58873C208.492 7.03319 209.069 6.83392 211.168 7.48887C217.019 9.31502 218.518 13.1966 216.946 18.2336C215.15 23.9866 211.69 25.6976 206.579 24.1026Z" fill="#DFD4BF"/>
<path d="M230.079 28.7432C227.089 31.587 226.555 31.5802 221.435 29.3463C219.68 28.581 219.323 28.1711 219.974 26.6776L222.663 20.5135L226.196 22.0545C227.239 22.5095 227.247 23.3315 226.503 25.0385L226.882 25.2039L229.178 19.9408L228.798 19.7753C228.106 21.3638 227.493 22.0561 226.379 21.57L222.87 20.0394L225.28 14.5155C225.921 13.0456 226.688 13.0981 228.229 13.7703C232.165 15.4871 232.532 15.8732 232.482 19.9995L232.937 20.0568L233.456 14.2727L233.036 14.2021C232.744 15.2599 232.311 14.9582 231.125 14.4411L222.875 10.8421L222.689 11.2688C224.23 11.941 224.665 12.4975 224.023 13.9673L218.718 26.1294C218.066 27.623 217.41 27.7037 215.822 27.0108L215.636 27.4375L225.095 31.564C226.257 32.0707 226.783 32.159 226.206 33.0927L226.544 33.353L230.43 29.0375L230.079 28.7432Z" fill="#DFD4BF"/>
<path d="M243.713 36.2902C240.444 38.8088 239.915 38.7467 235.053 35.9942C233.387 35.0512 233.074 34.6065 233.877 33.1885L237.19 27.3363L240.544 29.2351C241.535 29.7958 241.458 30.6142 240.54 32.2348L240.9 32.4387L243.729 27.4418L243.369 27.2379C242.515 28.746 241.834 29.3711 240.777 28.7722L237.445 26.8861L240.415 21.6417C241.205 20.2462 241.962 20.3779 243.425 21.2062C247.162 23.3216 247.487 23.7438 247.01 27.8426L247.456 27.9467L248.572 22.2477L248.161 22.1338C247.761 23.1556 247.362 22.8107 246.236 22.1735L238.403 17.7389L238.174 18.144C239.637 18.9724 240.012 19.5708 239.222 20.9663L232.684 32.5131C231.881 33.9311 231.221 33.9434 229.713 33.0896L229.483 33.4947L238.464 38.5793C239.567 39.2037 240.081 39.346 239.411 40.2149L239.72 40.5088L244.032 36.6193L243.713 36.2902Z" fill="#DFD4BF"/>
<path d="M270.283 38.7353L267.793 36.882L252.036 45.5322L255.551 27.7704L252.978 25.8554L252.716 26.2081C254.106 27.2429 254.636 28.0893 253.648 29.4172L245.772 39.9991C244.784 41.3271 243.82 41.0616 242.43 40.0269L242.168 40.3796L246.961 43.9471L247.223 43.5943C245.626 42.4052 245.323 41.7286 246.296 40.4214L253.462 30.794L250.426 46.5261L250.903 46.8813L264.858 39.3086L257.692 48.9361C256.735 50.2225 255.751 49.9416 254.382 48.9223L254.119 49.275L259.472 53.2595L259.735 52.9067C258.116 51.7021 257.835 51.041 258.807 49.7338L266.715 39.1104C267.687 37.8032 268.422 37.8988 270.02 39.088L270.283 38.7353Z" fill="#DFD4BF"/>
<path d="M281.645 63.0416C283.808 64.903 286.34 65.3628 288.309 63.6858C290.298 61.992 290.186 59.2675 287.637 56.2743L283.059 50.8983L282.724 51.1834C283.847 52.5028 284.108 53.3677 282.809 54.4746L272.805 62.9938C271.564 64.0503 270.732 63.6717 269.609 62.3523L269.274 62.6374L273.467 67.5604L273.801 67.2753C272.51 65.759 272.434 65.1107 273.694 64.0374L278.715 59.7611L280.51 61.8681L278.481 73.4484L280.848 76.1885L281.163 75.9202C279.721 74.2267 280.023 72.7463 280.893 67.6234L281.645 63.0416ZM283.697 55.5182C285.076 54.3443 285.625 54.5902 286.799 55.9686C289.314 58.9224 288.985 61.2079 287.271 62.6669C285.46 64.2097 283.012 63.8484 281.033 61.5247L279.188 59.3586L283.697 55.5182Z" fill="#DFD4BF"/>
<path d="M292.618 85.6108C288.568 86.403 288.122 86.1108 285.003 81.4757C283.934 79.8877 283.853 79.35 285.205 78.4403L290.784 74.6858L292.936 77.8832C293.571 78.8274 293.136 79.5251 291.591 80.5648L291.822 80.9082L296.586 77.7024L296.355 77.3591C294.918 78.3266 294.029 78.5815 293.35 77.5729L291.213 74.397L296.213 71.0324C297.544 70.1371 298.163 70.5935 299.101 71.9884C301.498 75.5506 301.601 76.0738 299.342 79.527L299.695 79.8196L303.24 75.2202L302.923 74.9347C302.109 75.6699 301.906 75.183 301.184 74.11L296.158 66.6423L295.772 66.9022C296.711 68.297 296.778 68.9998 295.448 69.8951L284.439 77.3029C283.087 78.2127 282.491 77.9283 281.523 76.4905L281.137 76.7505L286.899 85.3127C287.606 86.3642 288.002 86.7211 287.014 87.1989L287.16 87.6L292.756 86.0478L292.618 85.6108Z" fill="#DFD4BF"/>
<path d="M305.342 99.6992C310.82 96.834 311.833 92.7431 308.572 86.509L305.503 80.6416L305.114 80.8454C305.893 82.3352 305.98 83.2823 304.536 84.0375L292.801 90.1755C291.357 90.9307 290.652 90.3651 289.849 88.8295L289.46 89.0333L292.864 95.5424C295.574 100.722 300.186 102.396 305.342 99.6992ZM293.182 95.2011C291.923 92.7946 291.992 92.1454 293.413 91.4022L305.171 85.2523C306.615 84.497 307.164 84.7647 308.183 86.7128C311.024 92.1447 309.335 95.9472 304.659 98.3927C299.319 101.186 295.663 99.9454 293.182 95.2011Z" fill="#DFD4BF"/>
<path d="M306.499 115.117C302.374 115.013 302.002 114.631 299.961 109.431C299.262 107.649 299.299 107.106 300.816 106.511L307.076 104.054L308.484 107.642C308.9 108.701 308.324 109.288 306.591 109.969L306.742 110.354L312.087 108.256L311.936 107.871C310.323 108.504 309.4 108.56 308.956 107.429L307.558 103.865L313.168 101.664C314.661 101.078 315.166 101.658 315.78 103.223C317.349 107.22 317.335 107.753 314.382 110.634L314.663 110.996L319.121 107.274L318.873 106.927C317.919 107.468 317.826 106.949 317.353 105.745L314.065 97.366L313.632 97.536C314.246 99.1011 314.16 99.8018 312.667 100.388L300.315 105.235C298.798 105.83 298.277 105.423 297.644 103.81L297.211 103.98L300.981 113.587C301.444 114.767 301.753 115.201 300.685 115.454L300.74 115.877L306.54 115.574L306.499 115.117Z" fill="#DFD4BF"/>
<path d="M310.838 130.344C306.747 129.807 306.417 129.388 304.935 124.001C304.428 122.155 304.522 121.62 306.093 121.188L312.577 119.404L313.599 123.12C313.901 124.217 313.267 124.74 311.471 125.234L311.581 125.633L317.117 124.11L317.008 123.711C315.337 124.171 314.413 124.13 314.091 122.958L313.076 119.267L318.887 117.668C320.433 117.243 320.874 117.873 321.32 119.494C322.459 123.634 322.39 124.162 319.149 126.717L319.39 127.107L324.215 123.875L324.006 123.503C322.999 123.941 322.962 123.415 322.619 122.168L320.232 113.489L319.783 113.613C320.229 115.234 320.069 115.921 318.523 116.347L305.729 119.866C304.158 120.298 303.683 119.839 303.223 118.168L302.774 118.291L305.512 128.242C305.848 129.464 306.11 129.928 305.021 130.067L305.031 130.493L310.83 130.803L310.838 130.344Z" fill="#DFD4BF"/>
<path d="M327.835 151.085L327.395 148.013L310.152 142.935L325.227 132.907L324.771 129.732L324.336 129.794C324.582 131.51 324.356 132.483 322.718 132.718L309.66 134.592C308.021 134.827 307.531 133.957 307.285 132.241L306.849 132.304L307.698 138.218L308.133 138.155C307.85 136.184 308.117 135.493 309.73 135.261L321.61 133.556L308.311 142.494L308.396 143.083L323.605 147.642L311.725 149.346C310.137 149.574 309.643 148.678 309.401 146.989L308.965 147.051L309.913 153.657L310.348 153.594C310.062 151.597 310.332 150.931 311.945 150.7L325.054 148.819C326.667 148.587 327.117 149.176 327.4 151.147L327.835 151.085Z" fill="#DFD4BF"/>
</svg>
